<svg xmlns="http://www.w3.org/2000/svg" version="1.1" width="1024" height="1024" fill="currentColor" aria-hidden="true" focusable="false">
    <path d="M567.893333 226.176l13.226667 0.128 24.832 0.384 22.613333 0.64 10.581334 0.426667 19.626666 1.152c68.693333 4.821333 101.12 17.450667 131.370667 47.616l3.626667 3.754666c22.528 23.594667 34.389333 47.36 40.533333 91.776l1.706667 14.762667 1.408 16.213333 0.597333 8.746667 0.938667 18.773333 0.682666 20.693334 0.64 34.858666 0.213334 25.984 0.042666 99.456-0.256 54.357334-0.64 34.858666-0.682666 20.650667-0.426667 9.642667-1.109333 17.92-1.408 16.213333-1.706667 14.762667c-6.485333 46.762667-19.285333 70.613333-44.16 95.530666l-3.754667 3.626667c-23.594667 22.528-47.36 34.389333-91.776 40.533333l-14.762666 1.706667-16.213334 1.408-8.746666 0.597333-18.773334 0.938667-20.693333 0.682667-34.858667 0.64-25.984 0.213333-99.456 0.042667-54.357333-0.256-34.858667-0.64-20.650666-0.682667a1055.274667 1055.274667 0 0 1-9.642667-0.426667l-17.92-1.109333-16.213333-1.408-14.762667-1.706667c-46.762667-6.485333-70.613333-19.285333-95.530667-44.16l-4.010666-4.138666c-28.586667-30.506667-40.064-64.768-44.245334-136.832l-0.938666-20.608-0.384-11.093334-0.512-23.68-0.256-25.984v-140.458666l0.128-27.136 0.384-24.832 0.64-22.613334 0.426666-10.538666 1.152-19.669334c4.821333-68.693333 17.408-101.12 47.616-131.370666 31.573333-31.573333 65.664-43.861333 140.970667-48.213334l20.608-0.981333 11.093333-0.384 23.68-0.512 25.984-0.256z m-0.938666 59.733333H414.421333l-24.192 0.256-31.957333 0.768-18.602667 0.810667-16.64 1.066667-14.805333 1.450666-13.184 1.706667c-30.976 4.864-47.914667 13.098667-61.610667 26.794667l-2.645333 2.816c-12.117333 13.226667-19.626667 29.866667-24.106667 58.794666l-1.749333 13.184-1.450667 14.805334-1.066666 16.64-0.853334 18.602666-0.725333 31.914667-0.256 24.192v139.52l0.256 37.205333 0.768 31.957334 0.810667 18.602666 1.066666 16.64 1.450667 14.805334 1.706667 13.184c4.864 30.976 13.098667 47.914667 26.794666 61.610666l2.517334 2.389334c1.706667 1.578667 3.413333 3.072 5.205333 4.48l5.546667 4.053333c9.685333 6.4 21.461333 10.965333 38.272 14.250667l10.709333 1.792 5.888 0.810666 12.8 1.365334 6.954667 0.597333 15.146666 1.024 16.938667 0.768 29.013333 0.810667 33.706667 0.426666 110.08 0.128 38.954667-0.128 33.749333-0.426666 19.84-0.469334 17.877333-0.682666 16.042667-0.896 14.336-1.152a422.826667 422.826667 0 0 0 6.570667-0.64l12.074666-1.536 10.666667-1.792c15.189333-2.986667 26.24-6.997333 35.328-12.373334l5.802667-3.84c3.712-2.688 7.125333-5.674667 10.453333-8.96l2.389333-2.517333 2.304-2.56 4.266667-5.376c7.381333-10.154667 12.586667-22.613333 16.213333-41.088l1.792-10.709333 0.810667-5.888 1.365333-12.8 0.597334-6.954667 1.024-15.146667 0.768-16.938666 0.810666-29.013334 0.426667-33.706666 0.128-110.08-0.128-38.954667-0.426667-33.749333-0.469333-19.84-0.682667-17.877334-0.896-16.042666-1.152-14.336a422.912 422.912 0 0 0-0.64-6.570667l-1.536-12.074667-1.792-10.666666c-3.285333-16.853333-7.893333-28.629333-14.250666-38.314667l-4.053334-5.546667a90.368 90.368 0 0 0-6.869333-7.68l-2.816-2.688c-13.226667-12.117333-29.866667-19.626667-58.794667-24.106666l-13.184-1.749334-14.805333-1.450666-16.64-1.066667-18.602667-0.853333-31.914666-0.725334-24.192-0.256zM768 98.133333l9.173333 0.213334A200.533333 200.533333 0 0 1 968.533333 298.666667v381.482666l-0.256 4.053334a29.866667 29.866667 0 0 1-59.477333-4.053334V298.666667l-0.213333-7.978667A140.8 140.8 0 0 0 768 157.866667h-277.333333l-4.053334-0.256A29.866667 29.866667 0 0 1 490.666667 98.133333H768z m-126.08 344.789334a29.866667 29.866667 0 0 1 8.362667 38.101333l-2.389334 3.712-160 213.333333a29.866667 29.866667 0 0 1-42.794666 5.248l-3.328-3.2-96-106.666666a29.866667 29.866667 0 0 1 40.874666-43.264l3.541334 3.328 71.68 79.658666 138.24-184.277333a29.866667 29.866667 0 0 1 41.813333-5.973333z"></path>
</svg>
