<svg xmlns="http://www.w3.org/2000/svg" version="1.1" width="1024" height="1024" fill="currentColor" aria-hidden="true" focusable="false">
    <path d="M469.333333 170.666667a42.666667 42.666667 0 0 1 0 85.333333 298.666667 298.666667 0 1 0 298.666667 298.666667 42.666667 42.666667 0 0 1 85.333333 0 384 384 0 1 1-384-384z m188.842667 116.693333l78.421333 78.421333a21.333333 21.333333 0 0 1 0 30.165334l-243.925333 243.968a42.666667 42.666667 0 0 1-30.165333 12.501333H392.96a21.333333 21.333333 0 0 1-21.333333-21.333333V561.493333a42.666667 42.666667 0 0 1 12.501333-30.165333l243.925333-243.968a21.333333 21.333333 0 0 1 30.165334 0z m108.629333-108.586667l78.421334 78.421334a21.333333 21.333333 0 0 1 0 30.165333l-51.285334 51.285333a21.333333 21.333333 0 0 1-30.165333 0l-78.421333-78.421333a21.333333 21.333333 0 0 1 0-30.165333l51.285333-51.285334a21.333333 21.333333 0 0 1 30.165333 0z"></path>
</svg>
