<svg xmlns="http://www.w3.org/2000/svg" version="1.1" width="1024" height="1024" fill="currentColor" aria-hidden="true" focusable="false">
    <path d="M253.8496 686.762667a30.72 30.72 0 0 0-3.857067 61.201066l3.857067 0.238934h516.573867a30.72 30.72 0 0 0 3.857066-61.201067l-3.857066-0.238933H253.8496z m243.029333-170.666667a204.8 204.8 0 0 1-58.7776 61.44h332.322134a30.72 30.72 0 0 0 3.857066-61.201067l-3.857066-0.238933h-273.5104zM325.290667 268.1856c-76.014933 0-137.659733 62.395733-137.659734 139.332267 0 76.936533 61.6448 139.298133 137.659734 139.298133 76.049067 0 137.693867-62.3616 137.693866-139.298133 0-76.936533-61.6448-139.332267-137.693866-139.332267z m192.9216 77.2096c5.12 16.315733 8.2944 33.553067 9.216 51.370667l0.273066 10.069333 242.756267 0.034133a30.72 30.72 0 0 0 3.857067-61.201066l-3.857067-0.238934-252.245333-0.034133z"></path>
</svg>
