<svg xmlns="http://www.w3.org/2000/svg" version="1.1" width="1024" height="1024" fill="currentColor" aria-hidden="true" focusable="false">
    <path d="M155.904 783.36c32.256 0 48.384-9.984 48.384-29.952V281.856c0-26.624-17.664-39.936-52.992-39.936h-76.8c-10.24 0-17.792 3.584-22.656 10.752-4.864 7.168-7.296 19.968-7.296 38.4 0 19.456 1.792 32.256 5.376 38.4 3.584 6.144 10.24 9.216 19.968 9.216h37.632v414.72c0 19.968 16.128 29.952 48.384 29.952z m413.44-7.68c17.408 0 26.112-14.848 26.112-44.544 0-29.696-8.704-44.544-26.112-44.544H376.576c19.456-15.872 38.016-32.128 55.68-48.768s34.432-33.664 50.304-51.072c13.312-14.848 26.368-30.592 39.168-47.232s24.192-33.792 34.176-51.456c9.984-17.664 18.048-35.584 24.192-53.76a168.32 168.32 0 0 0 9.216-54.144c0-44.544-13.056-80.384-39.168-107.52-26.112-27.136-63.232-40.704-111.36-40.704-57.344 0-99.84 14.848-127.488 44.544-27.648 29.696-41.472 70.144-41.472 121.344 0 17.92 3.584 29.952 10.752 36.096 7.168 6.144 21.248 9.216 42.24 9.216 17.408 0 29.568-3.456 36.48-10.368 6.912-6.912 10.368-18.56 10.368-34.944 0-24.576 4.992-43.52 14.976-56.832 9.984-13.312 24.96-19.968 44.928-19.968 17.92 0 32.256 5.888 43.008 17.664 10.752 11.776 16.128 27.136 16.128 46.08 0 19.968-4.864 39.936-14.592 59.904a352 352 0 0 1-36.48 58.752c-14.592 19.2-30.72 37.632-48.384 55.296a1164.8 1164.8 0 0 1-50.304 47.616c-15.872 14.08-29.824 26.368-41.856 36.864-12.032 10.496-19.584 18.048-22.656 22.656-5.632 7.68-9.6 15.744-11.904 24.192a124.16 124.16 0 0 0-4.224 24.96 78.72 78.72 0 0 0 8.064 42.624c6.4 12.032 13.696 18.048 21.888 18.048h281.088z m240.64 7.68c25.6 0 49.152-3.712 70.656-11.136 21.504-7.424 39.936-18.048 55.296-31.872 15.36-13.824 27.392-30.592 36.096-50.304 8.704-19.712 13.056-41.856 13.056-66.432a122.88 122.88 0 0 0-39.936-92.928 134.336 134.336 0 0 0-40.32-25.344 146.56 146.56 0 0 0-45.696-10.752c12.8-5.12 25.216-11.52 37.248-19.2a128.896 128.896 0 0 0 52.224-64.512c5.376-13.824 8.064-29.696 8.064-47.616 0-22.528-3.968-42.112-11.904-58.752a112.512 112.512 0 0 0-32.64-41.088 138.752 138.752 0 0 0-47.616-23.808c-17.92-5.12-36.864-7.68-56.832-7.68-20.48 0-39.68 3.2-57.6 9.6-17.92 6.4-33.664 15.616-47.232 27.648a129.216 129.216 0 0 0-31.872 43.008c-7.68 16.64-11.52 35.2-11.52 55.68 0 13.312 3.712 24.064 11.136 32.256a35.392 35.392 0 0 0 27.264 12.288c16.384 0 28.544-3.712 36.48-11.136a35.072 35.072 0 0 0 11.904-26.496c0-17.92 5.376-33.152 16.128-45.696 10.752-12.544 25.344-18.816 43.776-18.816 14.848 0 28.288 6.272 40.32 18.816 12.032 12.544 18.048 28.544 18.048 48 0 9.216-2.048 18.304-6.144 27.264a81.024 81.024 0 0 1-40.32 40.32c-8.96 4.096-18.048 6.144-27.264 6.144-12.8 0-23.296 4.096-31.488 12.288a42.624 42.624 0 0 0-12.288 31.488c0 16.384 4.864 28.672 14.592 36.864 9.728 8.192 20.48 12.288 32.256 12.288 12.288 0 24.192 1.408 35.712 4.224 11.52 2.816 21.888 7.296 31.104 13.44 9.216 6.144 16.64 14.08 22.272 23.808 5.632 9.728 8.448 21.248 8.448 34.56 0 10.752-1.92 21.12-5.76 31.104a75.712 75.712 0 0 1-40.704 43.008 71.808 71.808 0 0 1-30.336 6.528c-14.336 0-26.496-2.176-36.48-6.528a73.984 73.984 0 0 1-24.192-16.128 68.864 68.864 0 0 1-19.2-41.088 37.12 37.12 0 0 0-17.664-30.72 46.528 46.528 0 0 0-14.592-6.528 60.16 60.16 0 0 0-14.592-1.92 44.928 44.928 0 0 0-30.72 11.52 42.112 42.112 0 0 0-13.824 31.488c-0.512 13.312 2.304 28.16 8.448 44.544 6.144 16.384 16 31.872 29.568 46.464 13.568 14.592 30.976 26.88 52.224 36.864 21.248 9.984 46.72 14.976 76.416 14.976z"></path>
</svg>
