<svg xmlns="http://www.w3.org/2000/svg" version="1.1" width="1024" height="1024" fill="currentColor" aria-hidden="true" focusable="false">
    <path d="M791.616 129.536c28.032-3.84 58.24-1.792 81.472 21.376 25.536 25.6 25.408 59.52 20.032 89.856l-2.368 11.712c-6.272 28.16-17.792 62.72-31.36 103.232l-0.768 2.432-126.528 379.712-0.32 0.832-11.072 33.28c-10.496 31.232-19.328 56.768-27.2 77.056l-5.12 12.8c-8.704 20.608-18.048 38.528-30.08 51.136l-8.064 7.808a152.448 152.448 0 0 1-212.224-7.808l-6.912-8.192c-11.008-14.592-19.776-34.048-28.224-55.68l-4.032-10.624a2211.008 2211.008 0 0 1-23.168-66.56l-11.136-33.216-0.256-0.832-2.368-7.04a173.824 173.824 0 0 0-9.472-24.96l-5.12-8.448a82.048 82.048 0 0 0-29.184-25.856l-2.048-1.024a304.768 304.768 0 0 0-29.952-10.816l-0.832-0.256-33.216-11.136a1813.888 1813.888 0 0 1-77.12-27.2l-12.8-5.12c-20.608-8.64-38.528-17.984-51.136-30.08l-7.808-8a152.448 152.448 0 0 1 7.808-212.224l8.192-6.912c14.592-11.072 34.048-19.84 55.68-28.288l10.624-4.032c18.368-6.848 40.512-14.4 66.56-23.168l33.216-11.072 0.832-0.32 379.712-126.528 2.432-0.832 16.96-5.632c38.848-12.928 71.68-23.36 97.92-28.032z m26.944 69.184c-3.84-0.64-10.816-0.768-23.04 1.408-24.32 4.352-57.728 15.36-107.392 32L308.416 358.592l-15.552 5.12c-40.064 13.44-69.952 23.552-92.352 32.256l-8.256 3.328c-20.416 8.32-29.12 13.824-32.576 17.152l-6.336 6.72a82.112 82.112 0 0 0 6.336 111.872c3.904 3.776 14.464 10.24 40.832 20.48 25.152 9.792 59.904 21.376 107.904 37.44l11.84 3.968c12.16 4.096 21.76 7.68 30.72 12.352l5.312 2.88 223.488-223.488 5.12-4.288a41.024 41.024 0 0 1 52.928 62.336l-58.624 58.624-165.696 165.632 1.152 1.92c4.736 8.96 8.32 18.624 12.416 30.72l3.2 9.664 0.704 2.24c16 48 27.648 82.752 37.44 107.904 10.24 26.368 16.704 36.928 20.48 40.832a82.048 82.048 0 0 0 118.592 0l1.344-1.536c3.84-4.928 9.984-15.808 19.136-39.296l3.328-8.768c9.088-24.32 19.84-56.448 34.048-99.136l126.592-379.712 5.312-16c13.632-40.96 22.784-69.76 26.624-91.392l1.024-6.72a56.96 56.96 0 0 0 0.384-16.32c-0.64-3.584-1.664-4.48-1.92-4.8l-0.64-0.448a9.984 9.984 0 0 0-4.16-1.472z"></path>
</svg>
