<svg xmlns="http://www.w3.org/2000/svg" version="1.1" width="1024" height="1024" fill="currentColor" aria-hidden="true" focusable="false">
    <path d="M375.658667 651.733333c84.522667 84.522667 190.016 151.104 276.992 151.104 39.829333 0 73.877333-13.674667 101.845333-43.776 15.509333-16.426667 27.072-37.696 27.072-58.069333 0-14.592-5.482667-28.586667-20.373333-38.933333l-92.736-65.365334c-12.778667-8.810667-24.021333-13.674667-34.666667-13.674666-13.674667 0-26.453333 7.296-40.448 20.970666l-22.186667 21.589334a15.573333 15.573333 0 0 1-11.562666 4.565333c-4.266667 0-8.213333-1.514667-11.541334-3.050667-17.941333-9.408-50.773333-35.264-81.493333-66.282666-31.018667-30.997333-57.472-63.232-66.282667-81.792-1.514667-3.328-3.050667-7.296-3.050666-10.944a14.72 14.72 0 0 1 4.565333-10.944l21.589333-22.805334c13.376-14.592 20.693333-27.349333 20.693334-40.746666 0-10.944-4.565333-22.186667-13.696-34.965334l-63.850667-90.304c-10.645333-14.890667-25.536-21.589333-41.962667-21.589333-19.157333 0-39.829333 9.429333-57.472 26.773333-29.184 28.266667-41.941333 63.232-41.941333 101.845334 0 86.976 65.664 191.573333 150.506667 276.394666z"></path>
</svg>
