<svg xmlns="http://www.w3.org/2000/svg" version="1.1" width="1024" height="1024" fill="currentColor" aria-hidden="true" focusable="false">
    <path d="M512 128c-214.286 0-388 173.714-388 388s173.714 388 388 388 388-173.714 388-388-173.714-388-388-388z m-1 708c-176.179 0-319-142.821-319-319s142.821-319 319-319 319 142.821 319 319-142.821 319-319 319z m172.084-355H340.916C322.942 482.424 309 499.461 309 520s13.942 37.576 31.916 39h342.168C701.058 557.576 715 540.539 715 520s-13.942-37.576-31.916-39z"></path>
</svg>
