<svg xmlns="http://www.w3.org/2000/svg" version="1.1" width="1024" height="1024" fill="currentColor" aria-hidden="true" focusable="false">
    <path d="M883.408593 120.604444v616.144593c0 18.432-6.295704 34.702222-18.773334 49.000296a125.534815 125.534815 0 0 1-47.255703 33.298963 318.122667 318.122667 0 0 1-56.888889 17.59763 271.928889 271.928889 0 0 1-53.134223 5.840593c-16.611556 0-34.247111-1.896296-53.096296-5.840593-18.925037-3.792593-37.925926-9.709037-56.888889-17.59763a125.534815 125.534815 0 0 1-47.331555-33.298963 72.552296 72.552296 0 0 1-18.773334-49.000296c0-18.318222 6.295704-34.664296 18.773334-48.96237a126.824296 126.824296 0 0 1 47.293629-33.298963 318.122667 318.122667 0 0 1 56.888889-17.635556 271.928889 271.928889 0 0 1 53.096297-5.840592c38.608593 0 73.765926 7.205926 105.699555 21.390222V357.262222l-422.646518 130.351408v390.030222c0 18.318222-6.295704 34.664296-18.773334 48.96237a126.824296 126.824296 0 0 1-47.293629 33.298963 318.122667 318.122667 0 0 1-56.888889 17.635556 271.928889 271.928889 0 0 1-53.096297 5.840592c-16.611556 0-34.247111-1.934222-53.134222-5.840592-18.887111-3.792593-37.925926-9.709037-56.888889-17.635556a125.534815 125.534815 0 0 1-47.293629-33.298963 72.552296 72.552296 0 0 1-18.773334-48.96237c0-18.432 6.295704-34.702222 18.773334-49.000296a126.824296 126.824296 0 0 1 47.255703-33.298963 318.122667 318.122667 0 0 1 56.888889-17.635556 271.928889 271.928889 0 0 1 53.134222-5.802667c38.570667 0 73.728 7.205926 105.66163 21.390223V261.385481c0-11.377778 3.413333-21.769481 10.42963-31.137185 6.97837-9.40563 16.042667-15.928889 27.003259-19.569777l457.803852-140.781038c4.361481-1.479111 9.481481-2.161778 15.36-2.161777 14.639407 0 27.230815 5.044148 37.432889 15.322074 10.42963 10.42963 15.435852 23.021037 15.435852 37.546666z"></path>
</svg>
