<svg xmlns="http://www.w3.org/2000/svg" version="1.1" width="1024" height="1024" fill="currentColor" aria-hidden="true" focusable="false">
    <path d="M413.509818 468.992a37.236364 37.236364 0 0 1-59.345454 29.975273L128.372364 332.520727a37.236364 37.236364 0 0 1 0-59.950545L354.164364 106.123636a37.236364 37.236364 0 0 1 59.345454 29.975273v101.236364l111.383273 0.046545c166.912 0 306.920727 125.486545 312.925091 287.092364l0.186182 10.798545c0 166.772364-142.475636 297.890909-313.111273 297.890909H191.022545a41.890909 41.890909 0 0 1 0-83.781818h333.870546c128.977455 0 229.329455-98.117818 229.329454-214.109091 0-115.991273-100.352-214.109091-229.329454-214.109091H413.463273z"></path>
</svg>
