<svg xmlns="http://www.w3.org/2000/svg" version="1.1" width="1024" height="1024" fill="currentColor" aria-hidden="true" focusable="false">
    <path d="M454.314667 110.933333a246.613333 246.613333 0 0 1 246.101333 247.125334c0 66.389333-26.112 126.805333-68.608 171.178666a387.413333 387.413333 0 0 1 208.469333 344.149334 59.733333 59.733333 0 1 1-119.466666 0c0-148.224-119.466667-268.202667-266.496-268.202667A267.349333 267.349333 0 0 0 187.733333 873.386667a59.733333 59.733333 0 0 1-119.466666 0c0-149.76 84.565333-279.808 208.469333-344.32a245.930667 245.930667 0 0 1-68.608-171.008A246.613333 246.613333 0 0 1 454.314667 110.933333z m361.386666 100.352c111.104 0 203.093333 85.504 203.093334 193.706667 0 44.202667-15.36 84.736-41.301334 117.162667 89.088 51.285333 148.906667 144.042667 148.906667 250.88a59.733333 59.733333 0 0 1-119.466667 0c0-95.232-84.48-174.506667-191.232-174.506667a59.733333 59.733333 0 1 1 0-119.466667l9.984-0.512c42.325333-4.437333 73.728-36.693333 73.728-73.642666 0-39.850667-36.437333-74.154667-83.712-74.154667l-8.106666-0.512a59.733333 59.733333 0 0 1 8.106666-118.954667zM454.314667 230.4a127.146667 127.146667 0 0 0-126.72 127.658667 127.146667 127.146667 0 0 0 126.72 127.658666 127.146667 127.146667 0 0 0 126.634666-127.658666A127.146667 127.146667 0 0 0 454.314667 230.4z"></path>
</svg>
