<svg xmlns="http://www.w3.org/2000/svg" version="1.1" width="1024" height="1024" fill="currentColor" aria-hidden="true" focusable="false">
    <path d="M371.84 512a140.16 140.16 0 1 0 280.384 0c0-77.44-62.72-140.16-140.224-140.16-77.44 0-140.16 62.592-140.16 140.16z m528.192-149.632l-234.304 12.16c63.552 74.24 64.576 181.44 11.072 263.68L488.832 927.36a414.144 414.144 0 0 0 231.168-55.232 415.616 415.616 0 0 0 180.032-509.824zM320.32 591.872L163.776 284.16A415.36 415.36 0 0 0 96 512c0 208 152.32 380.288 351.36 410.816l106.88-209.408c-96.512 18.176-189.824-34.816-233.92-121.536z m218.496-285.44l344.384 18.048A416.512 416.512 0 0 0 510.528 96a415.808 415.808 0 0 0-322.112 154.496l128.192 196.928c32-91.904 124.8-146.752 222.208-141.056z"></path>
</svg>
