<svg xmlns="http://www.w3.org/2000/svg" version="1.1" width="1024" height="1024" fill="currentColor" aria-hidden="true" focusable="false">
    <path d="M166.997333 981.333333l17.408-70.314666h88.917334L290.688 981.333333h75.989333l-93.354666-306.005333H186.794667L93.44 981.333333h73.557333z m92.586667-127.104h-61.44l6.442667-25.898666c7.68-30.421333 15.786667-66.218667 23.04-98.304h1.621333c8.106667 31.274667 15.786667 67.84 23.893333 98.304l6.4 25.898666zM470.570667 981.333333v-101.589333h35.157333c63.488 0 118.826667-32.085333 118.826667-104.874667 0-75.690667-54.570667-99.541333-120.832-99.541333H398.208V981.333333h72.362667z m31.530666-159.573333h-31.573333v-88.448h29.568c34.730667 0 54.144 10.666667 54.144 41.557333 0 30.037333-16.981333 46.890667-52.138667 46.890667z m246.186667 159.573333v-80.213333l32.725333-45.226667L851.754667 981.333333h79.189333l-107.904-183.466666 90.965333-122.538667h-79.232l-85.333333 120.917333h-1.194667v-120.917333h-72.32V981.333333h72.32zM303.36 68.864l33.024 62.72c55.978667-27.946667 116.352-43.221333 175.573333-43.221333 59.221333 0 119.68 15.317333 175.701334 43.264l32.981333-62.72c13.525333-25.770667 31.701333-32.554667 54.442667-20.394667l4.949333 2.901333 4.778667 3.242667c19.370667 14.378667 24.021333 33.066667 13.994666 56.106667l-2.816 5.845333-32.853333 62.506667c101.845333 78.933333 175.36 204.074667 175.36 354.005333l0.085333 1.877333c0.853333 14.549333-4.053333 28.8-13.482666 39.424s-22.570667 16.64-36.309334 16.64H135.253333a48.64 48.64 0 0 1-36.522666-16.853333 54.869333 54.869333 0 0 1-13.269334-39.808 33.152 33.152 0 0 0 0.085334-2.218667c0-149.418667 73.514667-274.346667 175.36-353.152l-32.853334-62.421333c-13.568-25.728-9.813333-46.378667 11.136-61.952l4.778667-3.242667c25.088-15.914667 44.885333-10.112 59.392 17.493334z m29.013333 345.514667a45.866667 45.866667 0 0 0-22.485333 39.594666c0 25.216 20.096 45.653333 44.928 45.653334 24.789333 0 44.885333-20.437333 44.885333-45.653334 0-16.341333-8.533333-31.402667-22.442666-39.594666a44.245333 44.245333 0 0 0-44.928 0z m336.810667-6.101334c-24.789333 0-44.885333 20.48-44.885333 45.653334 0 25.258667 20.053333 45.738667 44.885333 45.738666 24.832 0 44.928-20.48 44.928-45.696 0-25.258667-20.096-45.696-44.928-45.696z"></path>
</svg>
