<svg xmlns="http://www.w3.org/2000/svg" version="1.1" width="1024" height="1024" fill="currentColor" aria-hidden="true" focusable="false">
    <path d="M689.28 144l20.138667 0.426667c20.992 0.938667 34.176 3.328 48.256 9.088 12.842667 5.248 22.613333 11.434667 36.266666 23.338666l6.101334 5.461334 12.373333 11.733333 59.306667 58.453333 11.648 11.861334 9.002666 9.813333c8.789333 10.069333 13.781333 17.578667 18.090667 26.666667l2.517333 5.674666 1.621334 4.010667c3.413333 8.832 5.418667 16.853333 6.570666 28.16l0.554667 7.168 0.597333 12.672 0.256 15.530667 0.085334 34.474666v0.512l-0.085334 0.469334 0.085334 278.570666-0.085334 24.448-0.426666 31.829334-0.597334 18.346666-0.938666 16.213334-1.28 14.378666-1.749334 12.714667c-3.754667 23.04-10.24 37.973333-21.205333 51.754667l-4.309333 5.12-6.741334 6.997333-7.125333 6.613333c-13.738667 11.946667-27.861333 19.2-49.322667 23.637334l-8.405333 1.536-12.885333 1.706666-14.592 1.28-16.469334 0.896-18.602666 0.597334-32.298667 0.426666-402.474667 0.085334-24.789333-0.085334-32.341333-0.426666-18.602667-0.597334-16.469333-0.896-14.592-1.28-12.885334-1.706666c-23.381333-3.712-38.570667-10.112-52.522666-20.906667l-5.205334-4.266667-7.125333-6.613333c-20.992-20.693333-30.506667-42.666667-34.56-83.328l-0.853333-9.728-1.024-18.730667-0.597334-21.162666-0.256-23.850667v-339.2l0.469334-19.84c0.938667-20.693333 3.413333-33.706667 9.216-47.530667 5.290667-12.672 11.562667-22.314667 23.68-35.754666l5.546666-5.973334 11.904-12.245333 45.141334-44.586667 22.613333-21.930666 8.192-7.552 6.954667-5.973334 1.621333-1.28 1.578667-1.28 6.144-4.437333 6.357333-4.096c5.034667-3.114667 10.197333-5.717333 15.530667-7.893333 12.416-5.077333 24.149333-7.552 41.216-8.661334l9.002666-0.469333 18.432-0.384h354.346667z m167.253333 297.6h-148.522666l-0.128 166.656-0.341334 14.165333-0.725333 10.88c-0.682667 6.4-1.621333 11.178667-3.072 15.658667l-2.602667 6.613333-1.621333 3.413334a86.4 86.4 0 0 1-105.813333 43.221333l-6.485334-2.474667a64.938667 64.938667 0 0 1-2.986666-1.365333l-5.930667-3.328a73.386667 73.386667 0 0 1-3.072-2.090667l-6.741333-5.205333-8.021334-7.082667-15.829333-15.061333-28.672-27.648a8.576 8.576 0 0 0-5.333333-0.853333l-2.517334 0.768-3.584 3.157333-37.461333 36.352-9.301333 8.405333a84.906667 84.906667 0 0 1-17.365334 12.245334l-6.570666 2.858666-3.584 1.28a86.4 86.4 0 0 1-105.813334-43.136l-1.621333-3.456-2.602667-6.656a65.28 65.28 0 0 1-2.56-11.264l-0.938666-9.685333-0.512-12.586667-0.256-16.426666-0.042667-157.354667h-148.48v271.36l0.213333 21.845333 0.512 18.688 0.853334 15.872c2.005333 28.928 6.272 42.88 14.122666 52.053334l2.261334 2.432 3.754666 3.328c3.498667 2.688 7.552 4.906667 12.885334 6.741333l5.717333 1.706667 7.765333 1.578666 4.437334 0.682667 4.778666 0.64 10.965334 1.024 12.8 0.810667 14.933333 0.554666 17.322667 0.384 19.84 0.213334 400.213333 0.042666 42.453333-0.256 17.28-0.384 21.589334-0.938666 11.861333-0.896 10.069333-1.194667 2.261334-0.341333 2.133333-0.341334 7.765333-1.621333a53.333333 53.333333 0 0 0 14.933334-5.888l3.712-2.56 3.754666-3.285333 3.370667-3.712a42.197333 42.197333 0 0 0 6.826667-12.672l1.706666-5.674667 1.664-7.68 0.682667-4.309333 0.64-4.736 1.066667-10.794667 0.768-12.629333 0.597333-14.72 0.384-17.066667 0.213333-19.498667V441.6z m-225.92 0H393.301333l0.085334 153.429333 0.64 29.482667 0.128 1.450667a8.533333 8.533333 0 0 0 10.496 4.266666l5.333333-4.693333 39.253333-37.973333 7.594667-6.912c2.176-1.877333 4.138667-3.413333 6.144-4.778667l8.832-5.333333a87.04 87.04 0 0 1 80.341333 0l6.314667 3.584c1.962667 1.28 3.84 2.56 5.888 4.181333l6.698667 5.802667 40.533333 39.168 7.722667 6.954666a8.533333 8.533333 0 0 0 10.496-4.266666l0.469333-10.325334 0.341333-36.053333V441.6z m58.453334-232.490667H335.146667l-14.933334 0.298667c-15.018667 0.512-22.528 1.749333-28.672 4.266667l-2.986666 1.365333-2.986667 1.706667-1.92 1.194666-3.882667 2.730667-4.437333 3.584-12.16 11.093333-57.258667 56.192-14.677333 14.805334-6.954667 7.466666-1.450666 1.621334-1.28 1.536-4.352 5.461333a44.032 44.032 0 0 0-5.162667 8.96c-2.176 5.248-3.413333 11.392-4.096 22.314667l-0.256 5.888-0.298667 14.506666v2.389334h689.109334l-0.170667-11.093334-0.512-13.738666-0.597333-6.741334-0.853334-5.333333-0.256-1.152-0.256-1.109333-1.237333-4.010667-1.621333-3.84-2.218667-4.010667-0.64-1.066666-0.768-1.066667-3.626667-4.778667-5.12-5.845333-11.178666-11.690667-54.613334-53.973333-15.018666-14.464-7.552-6.826667-1.664-1.408-1.578667-1.28-5.546667-4.266666a49.024 49.024 0 0 0-6.229333-3.84l-2.901333-1.28-2.730667-1.024a78.677333 78.677333 0 0 0-19.882667-2.986667l-5.973333-0.256-14.762667-0.298667z" fill="#6E4FF4" p-id="8926"></path>
</svg>
