<svg xmlns="http://www.w3.org/2000/svg" version="1.1" width="1194" height="1024" fill="currentColor" aria-hidden="true" focusable="false">
    <path d="M962.133333 790.613333v85.333334H232.533333v-85.333334h729.6zM597.333333 112.298667a29.866667 29.866667 0 0 1 29.866667 29.866666V613.12l56.234667-76.16 2.858666-3.413333a29.866667 29.866667 0 0 1 45.226667 38.826666l-110.165333 149.333334-0.597334 0.853333a30.037333 30.037333 0 0 1-1.536 1.792l-0.768 0.768a29.866667 29.866667 0 0 1-4.224 3.541333c-0.426667 0.256-0.896 0.597333-1.408 0.853334a23.125333 23.125333 0 0 1-2.133333 1.237333l-1.408 0.64a26.069333 26.069333 0 0 1-6.4 1.962667 30.165333 30.165333 0 0 1-5.546667 0.512l3.242667-0.170667a30.208 30.208 0 0 1-2.133333 0.170667H597.333333a30.421333 30.421333 0 0 1-18.090666-6.101334l-0.682667-0.554666a29.269333 29.269333 0 0 1-4.906667-5.034667l-114.688-149.333333-2.432-3.669334a29.866667 29.866667 0 0 1 7.936-38.186666l3.712-2.432a29.866667 29.866667 0 0 1 38.144 7.936L567.466667 616.106667V142.208l0.256-4.053333A29.866667 29.866667 0 0 1 597.333333 112.341333z"></path>
</svg>
