<svg xmlns="http://www.w3.org/2000/svg" version="1.1" width="1185" height="1024" fill="currentColor" aria-hidden="true" focusable="false">
    <path d="M1060.648421 36.432842a97.010526 97.010526 0 0 1 97.010526 97.010526v749.136843a97.010526 97.010526 0 0 1-97.010526 97.010526H133.658947a97.010526 97.010526 0 0 1-97.010526-97.010526v-749.136843a97.010526 97.010526 0 0 1 97.010526-97.010526h926.989474z m-75.452632 134.736842H209.111579a32.336842 32.336842 0 0 0-32.336842 32.336842v609.010527a32.336842 32.336842 0 0 0 32.336842 32.336842h776.08421a32.336842 32.336842 0 0 0 32.336843-32.336842v-609.010527a32.336842 32.336842 0 0 0-32.336843-32.336842zM476.591158 306.876632a32.336842 32.336842 0 0 1 13.365895 11.102315l175.589052 254.383158 47.319579-70.063158a32.336842 32.336842 0 0 1 52.33179-1.724631l174.834526 224.741052a32.336842 32.336842 0 0 1-25.492211 52.170106H279.659789a32.336842 32.336842 0 0 1-29.480421-45.594948L433.852632 323.098947a32.336842 32.336842 0 0 1 42.738526-16.222315z m365.675789-68.338527c58.044632 0 105.094737 45.271579 105.094737 101.052632 0 55.834947-47.050105 101.052632-105.094737 101.052631s-105.094737-45.271579-105.094736-101.052631c0-55.781053 47.050105-101.052632 105.094736-101.052632z"></path>
</svg>
