<svg xmlns="http://www.w3.org/2000/svg" version="1.1" width="1024" height="1024" fill="currentColor" aria-hidden="true" focusable="false">
    <path d="M669.044364 728.157091l-29.975273-174.871273 127.069091-123.810909-175.616-25.6L512 244.829091 433.477818 403.921455l-175.569454 25.506909 127.069091 123.810909-30.021819 174.917818L512 645.585455l157.044364 82.571636z m-359.982546-7.866182a46.545455 46.545455 0 0 0 67.537455 49.058909L512 698.181818l135.400727 71.214546a46.545455 46.545455 0 0 0 67.490909-49.105455l-25.832727-150.760727 109.568-106.775273a46.545455 46.545455 0 0 0-25.832727-79.406545l-151.365818-21.969455-67.677091-137.169454a46.545455 46.545455 0 0 0-83.502546 0L402.618182 361.378909l-151.365818 21.969455a46.545455 46.545455 0 0 0-25.786182 79.406545l109.521454 106.775273-25.879272 150.807273z"></path>
</svg>
