<svg xmlns="http://www.w3.org/2000/svg" version="1.1" width="1024" height="1024" fill="currentColor" aria-hidden="true" focusable="false">
    <path d="M480.390737 542.612211c16.896 16.896 16.896 42.226526 0 59.095578-16.896 16.896-46.214737 21.072842-63.056842 4.20379a160.794947 160.794947 0 0 1 0-227.920842l168.367158-168.798316a159.528421 159.528421 0 0 1 227.139368 0c63.110737 63.326316 67.287579 160.390737 4.176842 223.663158l-50.472421 50.661053c-16.815158 16.896-42.037895 16.896-63.056842-4.230737-21.018947-21.126737-16.842105-42.199579 0-59.095579l50.445474-50.607158c29.453474-29.561263 25.222737-75.991579 0-101.376-25.222737-25.357474-75.776-33.711158-105.175579-4.096l-168.313263 168.744421a79.225263 79.225263 0 0 0 0 109.756632h-0.053895z m63.191579-63.326316c-16.842105-16.896-16.842105-42.199579 4.149895-63.272421 21.018947-21.072842 42.064842-16.896 58.906947 0a160.794947 160.794947 0 0 1 0 227.920842l-168.232421 168.744421c-63.056842 63.272421-168.313263 67.557053-231.450948 4.176842-63.110737-63.407158-58.88-168.825263 4.230737-232.097684l50.526316-50.661053c16.815158-16.896 46.268632-21.072842 63.056842-4.176842 16.761263 16.896 12.665263 46.349474-4.176842 63.272421l-50.499368 50.661053c-29.453474 29.561263-29.453474 80.168421 0 109.729684 29.453474 29.534316 75.722105 25.303579 105.175579-4.176842l168.313263-168.879158c29.372632-29.534316 29.372632-71.733895 0-101.295158v0.053895z"></path>
</svg>
