<svg xmlns="http://www.w3.org/2000/svg" version="1.1" width="1024" height="1024" fill="currentColor" aria-hidden="true" focusable="false">
    <path d="M942.592 503.296A439.232 439.232 0 0 0 503.296 64 439.232 439.232 0 0 0 64 503.296a439.232 439.232 0 0 0 439.296 439.296 436.032 436.032 0 0 0 300.032-118.784 25.344 25.344 0 0 0 13.312-8.704 29.248 29.248 0 0 0 6.656-10.752 439.04 439.04 0 0 0 119.296-301.056z m-473.6 379.392c-0.512-1.024-1.536-1.536-2.56-2.56a504.192 504.192 0 0 1-114.176-143.36c38.4-15.872 79.36-25.6 121.856-28.672v174.592h-5.12z m-345.6-351.232h113.152a552.32 552.32 0 0 0 38.912 177.664 444.416 444.416 0 0 0-60.928 41.984 378.304 378.304 0 0 1-91.136-219.648zM217.6 251.392c18.944 15.36 38.912 28.672 59.392 40.96a542.912 542.912 0 0 0-40.448 180.736h-112.64c6.656-84.48 40.96-161.28 93.696-221.696z m318.976-127.488c1.024 1.024 1.536 2.048 3.072 3.072a498.816 498.816 0 0 1 111.616 138.24 393.856 393.856 0 0 1-118.784 27.648v-168.96h4.096z m346.112 349.184h-113.152a559.36 559.36 0 0 0-40.96-180.736c20.992-11.776 40.96-25.6 59.904-40.96a379.648 379.648 0 0 1 94.208 221.696z m-408.576 0H295.424c3.072-53.76 15.36-105.984 34.816-155.136a446.656 446.656 0 0 0 143.872 33.28v121.856z m0 58.368v117.76a456.256 456.256 0 0 0-145.92 33.792 507.648 507.648 0 0 1-32.768-151.552h178.688z m58.368 0h178.176a507.52 507.52 0 0 1-32.768 152.064 457.024 457.024 0 0 0-145.408-34.304v-117.76z m0-58.368V351.232a453.504 453.504 0 0 0 143.36-32.768c19.456 49.152 31.232 101.376 34.816 154.624H532.48zM704 239.104a557.056 557.056 0 0 0-60.928-90.112c37.888 14.848 72.704 35.84 103.424 61.44-13.824 10.752-28.16 20.48-42.496 28.672zM474.112 123.392v168.96a390.336 390.336 0 0 1-118.784-27.648 494.848 494.848 0 0 1 111.104-137.728l3.584-3.584c1.024 0.512 2.56 0.512 4.096 0z m-171.52 115.712a474.88 474.88 0 0 1-42.496-28.672 379.52 379.52 0 0 1 102.912-60.928c-23.04 27.648-43.52 57.856-60.416 89.6z m-2.56 523.776c17.408 33.28 38.4 65.024 62.464 94.208a388.032 388.032 0 0 1-106.496-64c14.336-11.264 29.184-20.992 44.032-30.208zM532.48 883.2v-174.592c41.984 3.072 82.944 12.8 121.344 28.672a504.192 504.192 0 0 1-114.176 143.36l-2.56 2.56a7.104 7.104 0 0 0-4.608 0z m173.568-119.808c14.848 9.216 29.696 18.944 43.52 30.208a376.384 376.384 0 0 1-105.984 63.488c24.064-28.672 45.056-60.416 62.464-93.696z m25.088-53.76c22.528-56.32 35.84-116.736 38.912-178.176H883.2a381.824 381.824 0 0 1-91.648 220.672 477.44 477.44 0 0 0-60.416-42.496z"></path>
</svg>
