<svg xmlns="http://www.w3.org/2000/svg" version="1.1" width="1024" height="1024" fill="currentColor" aria-hidden="true" focusable="false">
    <path d="M945.095111 809.073778c0 17.351111-12.686222 31.687111-29.240889 34.417778l-5.632 0.455111-427.918222 0a124.700444 124.700444 0 0 1-119.637333 91.136c-56.888889 0-104.675556-38.513778-119.637334-91.136L113.777778 843.946667a34.872889 34.872889 0 0 1-5.688889-69.233778l5.688889-0.455111 129.251555 0a124.700444 124.700444 0 0 1 119.637334-91.192889c56.888889 0 104.732444 38.570667 119.637333 91.192889L910.222222 774.257778c19.228444 0 34.872889 15.587556 34.872889 34.816z m0-594.147556c0 17.294222-12.686222 31.687111-29.240889 34.360889L910.222222 249.742222l-378.140444 0a124.700444 124.700444 0 0 1-119.637334 91.192889c-56.888889 0-104.732444-38.570667-119.637333-91.192889L113.777778 249.742222a34.872889 34.872889 0 0 1-5.688889-69.233778l5.688889-0.455111 179.029333 0a124.700444 124.700444 0 0 1 119.637333-91.192889c56.888889 0 104.675556 38.570667 119.637334 91.192889L910.222222 180.053333c19.228444 0 34.872889 15.644444 34.872889 34.872889z m0 297.073778c0 17.294222-12.686222 31.687111-29.240889 34.360889L910.222222 546.872889l-129.251555-0.056889a124.700444 124.700444 0 0 1-119.637334 91.192889c-56.888889 0-104.732444-38.570667-119.637333-91.192889L113.777778 546.816a34.872889 34.872889 0 0 1-5.688889-69.176889l5.688889-0.512L541.696 477.127111a124.700444 124.700444 0 0 1 119.637333-91.136c56.888889 0 104.675556 38.570667 119.637334 91.136L910.222222 477.127111c19.228444 0 34.872889 15.644444 34.872889 34.872889z"></path>
</svg>
