<svg xmlns="http://www.w3.org/2000/svg" version="1.1" width="18" height="18" fill="currentColor" aria-hidden="true" focusable="false">
    <g id="数据面板/数据类型ic/微数据库" stroke="none" stroke-width="1" fill="none" fill-rule="evenodd"><rect id="矩形" x="0" y="0" width="18" height="18"></rect><path d="M9.0814433,2.8 C12.0380685,2.8 14.3583771,3.67005599 14.6359807,5.02539911 L14.6559786,5.15387252 L14.6628866,5.28865979 L14.6628866,12.7113402 C14.6628866,14.2084163 12.2424569,15.2 9.0814433,15.2 C6.09258984,15.2 3.75757287,14.3116823 3.51954108,12.9365827 L3.50341315,12.8062532 L3.5,12.7113402 L3.50028414,5.27800259 L3.50776834,5.14316381 C3.66011162,3.72528415 6.03242357,2.8 9.0814433,2.8 Z M4.765,10.64 L4.76597938,12.7113402 C4.76597938,13.2529076 6.80821921,13.9340206 9.0814433,13.9340206 C9.63726824,13.9340206 10.1798163,13.8934986 10.6822096,13.8242838 L11.1023717,13.758206 C12.3295953,13.5405477 13.2405279,13.1555143 13.3781677,12.8042392 L13.3938692,12.7460404 L13.3969072,12.7113774 L13.396,10.641 L13.323641,10.6803532 C12.3683366,11.1615242 10.9744266,11.4486342 9.41747167,11.484777 L9.0814433,11.4886598 C7.389064,11.4886598 5.86143803,11.1956316 4.83789866,10.6796741 L4.765,10.64 Z M5.98865979,11.2742268 C6.44073618,11.2742268 6.80721649,11.6407071 6.80721649,12.0927835 C6.80721649,12.5448599 6.44073618,12.9113402 5.98865979,12.9113402 C5.53658341,12.9113402 5.17010309,12.5448599 5.17010309,12.0927835 C5.17010309,11.6407071 5.53658341,11.2742268 5.98865979,11.2742268 Z M4.765,6.929 L4.76597938,9 C4.76597938,9.54156736 6.80821921,10.2226804 9.0814433,10.2226804 C11.2253395,10.2226804 13.1717079,9.61981166 13.3781677,9.09289902 L13.3938692,9.03470024 L13.3969072,9.00003724 L13.396,6.93 L13.323641,6.96901304 C12.3683366,7.45018398 10.9744266,7.73729398 9.41747167,7.77343678 L9.0814433,7.77731959 C7.38919195,7.77731959 5.86166385,7.48433532 4.83812427,6.96844765 L4.765,6.929 Z M5.98865979,7.5628866 C6.44073618,7.5628866 6.80721649,7.92936692 6.80721649,8.3814433 C6.80721649,8.83351968 6.44073618,9.2 5.98865979,9.2 C5.53658341,9.2 5.17010309,8.83351968 5.17010309,8.3814433 C5.17010309,7.92936692 5.53658341,7.5628866 5.98865979,7.5628866 Z M9.0814433,4.06597938 C6.80821921,4.06597938 4.76597938,4.74709243 4.76597938,5.28865979 C4.76597938,5.68082926 5.83688041,6.14617311 7.29091184,6.37307049 L7.71618058,6.43114078 C8.1506864,6.48218436 8.61112107,6.51134021 9.0814433,6.51134021 C9.55176552,6.51134021 10.0122002,6.48218436 10.446706,6.43114078 L10.8719748,6.37307049 C12.3260062,6.14617311 13.3969072,5.68082926 13.3969072,5.28865979 C13.3969072,4.74709243 11.3546674,4.06597938 9.0814433,4.06597938 Z" id="形状结合" fill="#6E4FF4" fill-rule="nonzero"></path></g>
</svg>
