<svg xmlns="http://www.w3.org/2000/svg" version="1.1" width="1024" height="1024" fill="currentColor" aria-hidden="true" focusable="false">
    <path d="M813.933714 146.285714c72.143238 0 131.559619 52.931048 136.582096 120.441905l0.341333 9.264762 0.024381 370.785524a178.371048 178.371048 0 0 0-75.215238-51.516953v-121.368381h-158.524953v142.140953a179.2 179.2 0 0 0-72.118857 100.937143l-0.219428 0.804571-2.023619 0.926476a153.307429 153.307429 0 0 0-13.019429 7.558096v-18.700191h-181.101714v170.764191h114.200381A151.210667 151.210667 0 0 0 596.455619 950.857143L234.447238 950.857143c-72.143238 0-131.559619-52.931048-136.582095-120.441905L97.52381 821.150476V275.992381c0-68.729905 56.271238-124.65981 127.171047-129.389714l9.752381-0.316953h579.486476zM359.887238 707.535238H172.665905v113.615238c0 27.306667 20.918857 50.663619 49.005714 56.003048l7.143619 0.950857 5.607619 0.243809 125.464381-0.02438V707.535238z m0-233.642667H172.665905v149.528381h187.245714v-149.528381z m269.897143 0h-181.126095v149.528381h181.126095v-149.528381z m183.686095-255.073523H234.422857c-29.915429 0-54.905905 19.748571-60.513524 45.446095l-0.999619 6.558476-0.243809 5.168762v114.273524h702.976l0.073143-114.273524c0-27.306667-20.918857-50.663619-49.005715-56.003048l-7.143619-0.950857-6.095238-0.243809zM805.010286 634.441143l8.313904-0.487619L816.761905 633.904762c55.466667 0 104.667429 35.84 122.538666 88.941714l3.730286 12.312381 12.556191 4.900572c34.230857 13.994667 59.465143 45.177905 66.462476 82.578285l1.340952 8.996572 0.585143 8.289524 0.024381 3.900952c0 53.881905-32.938667 95.378286-83.675429 105.301333l-247.832381 1.316572-7.241142 0.414476-2.657524-0.073143-1.828572-0.292571a15.920762 15.920762 0 0 1-0.828952-0.24381C638.19581 937.081905 609.52381 897.755429 609.52381 853.113905a101.912381 101.912381 0 0 1 54.759619-90.648381l8.118857-3.754667 2.218666-0.804571 12.434286-4.803048 3.974095-19.309714a130.072381 130.072381 0 0 1 103.984762-98.011429l9.996191-1.340952z"></path>
</svg>
