<svg xmlns="http://www.w3.org/2000/svg" version="1.1" width="1024" height="1024" fill="currentColor" aria-hidden="true" focusable="false">
    <path d="M512 128c214.286 0 388 173.714 388 388S726.286 904 512 904 124 730.286 124 516s173.714-388 388-388z m-0.5 69C335.045 197 192 340.045 192 516.5S335.045 836 511.5 836 831 692.955 831 516.5 687.955 197 511.5 197z m181.634 198.222c14.442 13.554 15.905 37.1 3.268 52.59l-202.686 248.46c-6.332 7.764-15.381 12.364-24.993 12.707-9.611 0.344-18.925-3.601-25.725-10.895l-115.821-124.23c-13.57-14.555-13.57-38.153 0-52.707 13.57-14.555 35.57-14.555 49.139 0l89.558 96.062 178.23-218.481c12.637-15.49 34.588-17.06 49.03-3.506z"></path>
</svg>
