<svg xmlns="http://www.w3.org/2000/svg" version="1.1" width="1024" height="1024" fill="currentColor" aria-hidden="true" focusable="false">
    <path d="M851.38893188 16.9809623H170.35283682a135.36511467 135.36511467 0 0 0-135.61648955 123.80189177l-0.43990422 10.49488072v706.9905014c0 70.69905013 55.3023686 128.57800586 125.43582487 133.91971235l10.68341299 0.43990569H851.38893188a135.36511467 135.36511467 0 0 0 135.61648808-123.80189322l0.4399057-10.55772482V151.27773479c0-70.63620606-55.3023686-128.51516177-125.43582635-133.85686826l-10.68341152-0.43990423z m-11.06047462 782.71703908c23.75488085 0 42.85933578 11.56322291 42.85933579 35.00388477 0 18.28748764-11.68890963 26.77137366-29.03374327 32.67867255l-6.72426472 1.7596213-7.1013278 0.56559239H187.50913966c-23.69203676 0-42.98502249-14.32834082-42.98502247-37.70616008 0-18.35033172 11.87744042-24.06909836 29.15942996-29.97639725l6.78710882-1.75962128 7.03848369-0.6284365h652.8193176z" p-id="9041"></path>
</svg>
