<svg xmlns="http://www.w3.org/2000/svg" version="1.1" width="1024" height="1024" fill="currentColor" aria-hidden="true" focusable="false">
    <path d="M897.664 626.304a51.072 51.072 0 0 0-73.28 0l-66.112 66.688-69.312-69.824a51.072 51.072 0 0 0-73.216 0 52.032 52.032 0 0 0 0 73.792l69.312 69.888-66.176 66.688a52.032 52.032 0 0 0 0 73.856 51.072 51.072 0 0 0 73.216 0l66.176-66.688 62.976 63.488a51.072 51.072 0 0 0 73.28 0 52.032 52.032 0 0 0 0-73.856l-63.04-63.488 66.176-66.688a53.504 53.504 0 0 0 0-73.856zM306.24 442.944a51.072 51.072 0 0 1-73.216 0 52.032 52.032 0 0 1 0-73.856l260.608-262.784a51.072 51.072 0 0 1 73.28 0c20.48 19.84 20.48 53.248 0 73.088L306.24 442.88zM95.168 304.832a50.56 50.56 0 0 1 0-71.488l2.368-2.368c19.712-19.84 51.2-19.84 70.912 0l138.56 139.712a50.56 50.56 0 0 1 0 71.488l-2.368 2.368a50.368 50.368 0 0 1-70.848-0.832l-138.624-138.88z m778.048-77.056L227.456 878.784a51.072 51.072 0 0 1-73.216 0 52.032 52.032 0 0 1 0-73.792L800 153.984a51.072 51.072 0 0 1 73.216 0c20.48 20.608 20.48 53.952 0 73.792z"></path>
</svg>
