<svg xmlns="http://www.w3.org/2000/svg" version="1.1" width="18" height="20" fill="currentColor" aria-hidden="true" focusable="false">
    <g fill="#847DA4" data-follow-fill="#847DA4"><path d="M7.7 2a6.7 6.7 0 1 0 0 13.4A6.7 6.7 0 0 0 7.7 2Zm0 1.4a5.3 5.3 0 1 1 0 10.6 5.3 5.3 0 0 1 0-10.6Z"></path><path d="M7.7 5a.7.7 0 0 1 0 1.4 2.3 2.3 0 0 0-2.3 2.3.7.7 0 0 1-1.4 0A3.7 3.7 0 0 1 7.7 5Zm5.505 9.205a.7.7 0 0 1 .903-.074l.087.074 3 3a.7.7 0 0 1-.903 1.064l-.087-.074-3-3a.7.7 0 0 1 0-.99Z"></path></g>
</svg>
