<svg xmlns="http://www.w3.org/2000/svg" version="1.1" width="1024" height="1024" fill="currentColor" aria-hidden="true" focusable="false">
    <path d="M569.472 98.133333l56.533333 0.384 25.045334 0.426667 33.792 1.024 29.738666 1.578667 17.749334 1.408 16.213333 1.706666c51.754667 6.314667 80.469333 18.432 106.837333 41.216l7.850667 7.168 7.552 7.552 6.826667 7.466667 3.2 3.754667 5.973333 7.68c4.778667 6.528 8.96 13.312 12.629333 20.693333l4.181334 9.130667c1.962667 4.693333 3.797333 9.685333 5.418666 14.933333l3.114667 11.008 2.688 11.904 2.346667 12.885333c0.384 2.261333 0.725333 4.565333 1.024 6.912l1.834666 14.634667 1.536 15.957333 1.28 17.365334 0.981334 18.901333 0.768 20.48 0.768 33.962667 0.426666 38.229333L925.866667 469.333333v127.061334l0.042666 1.109333-0.042666 10.496h-1.877334a30.037333 30.037333 0 0 1-6.869333 10.453333l-298.666667 298.666667a29.226667 29.226667 0 0 1-22.144 8.789333l-169.813333-0.170666-38.229333-0.426667-33.962667-0.725333-20.48-0.768-18.901333-1.024-17.365334-1.237334-15.957333-1.536-14.634667-1.834666a383.317333 383.317333 0 0 1-6.912-1.024l-12.885333-2.346667-11.946667-2.688-10.922666-3.114667a170.453333 170.453333 0 0 1-14.976-5.418666l-9.130667-4.181334a144.042667 144.042667 0 0 1-20.693333-12.629333l-7.68-5.973333a183.296 183.296 0 0 1-3.754667-3.2l-7.466667-6.826667-7.381333-7.381333-6.826667-7.466667a183.296 183.296 0 0 1-3.2-3.754667l-5.973333-7.68a144.042667 144.042667 0 0 1-12.629333-20.693333l-4.181334-9.130667a170.453333 170.453333 0 0 1-5.418666-14.933333l-3.114667-11.008-2.688-11.904-2.346667-12.885333a383.317333 383.317333 0 0 1-1.024-6.912l-1.834666-14.634667-1.536-15.957333-1.28-17.365334-0.981334-18.901333-0.768-20.48-0.768-33.962667-0.426666-38.229333v-172.373333l0.298666-27.136 0.426667-25.045334 1.024-33.792 1.578667-29.738666 1.408-17.749334 1.706666-16.213333c6.314667-51.754667 18.432-80.469333 41.216-106.837333l7.168-7.850667 7.552-7.552 7.466667-6.826667 3.754667-3.2 7.68-5.973333c6.528-4.778667 13.312-8.96 20.693333-12.629333l9.130667-4.181334c4.693333-2.005333 9.685333-3.797333 14.933333-5.418666l11.008-3.114667 11.904-2.688 12.885333-2.346667c2.261333-0.384 4.565333-0.725333 6.912-1.024l14.634667-1.834666 15.957333-1.536 17.365334-1.28 18.901333-0.981334 20.48-0.768 33.962667-0.768 38.229333-0.426666 142.976-0.085334zM554.666667 157.866667l-127.573334 0.128-37.546666 0.426666-32.853334 0.725334-19.498666 0.768-17.706667 0.938666-16.042667 1.194667-14.506666 1.450667-13.056 1.706666a302.506667 302.506667 0 0 0-6.058667 0.981334l-11.178667 2.133333a185.685333 185.685333 0 0 0-10.069333 2.517333l-9.045333 2.816c-5.76 2.048-10.922667 4.266667-15.658667 6.826667l-6.826667 3.968c-3.285333 2.133333-6.4 4.394667-9.344 6.826667l-5.802666 5.12-5.461334 5.461333-4.992 5.632a100.565333 100.565333 0 0 0-4.522666 5.930667l-4.138667 6.357333a97.28 97.28 0 0 0-1.92 3.328l-3.541333 7.210667c-2.773333 6.229333-5.205333 13.226667-7.253334 21.205333l-2.346666 10.112-2.048 11.178667-1.706667 12.373333-1.493333 13.738667-1.28 15.104-0.981334 16.682666-0.768 18.346667-0.853333 30.805333-0.512 35.157334L157.866667 469.333333l0.128 127.573334 0.426666 37.546666 0.725334 32.853334 0.768 19.498666 0.938666 17.706667 1.194667 16.042667 1.450667 14.506666 1.706666 13.056 0.981334 6.058667 2.133333 11.178667c0.810667 3.541333 1.621333 6.869333 2.517333 10.069333l2.816 9.045333c2.048 5.76 4.266667 10.922667 6.826667 15.658667l3.968 6.826667 2.133333 3.2 4.693334 6.144 5.12 5.76 5.461333 5.504 5.632 4.992c1.92 1.578667 3.882667 3.072 5.930667 4.522666l6.357333 4.138667c2.176 1.28 4.48 2.56 6.826667 3.754667l7.552 3.328c5.248 2.133333 10.965333 4.010667 17.365333 5.674666l10.112 2.304 11.178667 2.048 12.373333 1.706667 13.738667 1.493333 15.104 1.28 16.682666 0.981334 18.346667 0.768 30.805333 0.853333 35.157334 0.512L469.333333 866.133333h98.133334v-29.269333l0.213333-26.410667 0.512-24.106666 0.853333-21.930667 1.28-19.968c5.546667-69.717333 20.778667-102.357333 58.666667-131.84l9.813333-7.338667c29.098667-20.778667 55.381333-30.293333 105.685334-34.56l17.664-1.28 9.6-0.426666 20.736-0.768 23.082666-0.426667 25.6-0.256 24.917334-0.085333-0.085334-139.690667-0.384-36.693333-0.725333-32.256-0.682667-19.2-0.896-17.450667-1.152-15.872c-0.170667-2.56-0.426667-4.992-0.64-7.381333l-1.450666-13.696-1.749334-12.373334-2.048-11.221333-2.304-10.112a141.312 141.312 0 0 0-5.674666-17.365333l-3.328-7.509334-3.754667-6.869333L837.12 213.333333a100.565333 100.565333 0 0 0-4.522667-5.888l-4.992-5.632-5.418666-5.418666-5.632-4.992a100.565333 100.565333 0 0 0-5.930667-4.522667l-6.357333-4.138667a97.28 97.28 0 0 0-3.328-1.92l-7.210667-3.541333a134.698667 134.698667 0 0 0-21.205333-7.253333l-10.112-2.346667-11.178667-2.048-12.373333-1.706667-13.738667-1.493333-15.104-1.28-16.682667-0.981333-18.346666-0.768-30.805334-0.853334-35.157333-0.512L554.666667 157.866667z m269.056 469.504l-26.453334 0.426666-19.584 0.64-8.874666 0.426667-16.085334 1.024c-5.034667 0.384-9.728 0.853333-14.165333 1.365333l-12.373333 1.706667a121.685333 121.685333 0 0 0-41.514667 13.866667l-7.594667 4.693333-7.552 5.333333-3.84 2.944c-22.357333 17.365333-32.298667 39.68-36.224 94.634667l-0.981333 17.493333-0.682667 19.626667-0.554666 32.298667 196.48-196.48z m-397.397334-397.226667a29.866667 29.866667 0 0 1 4.053334 59.477333l-4.053334 0.298667h-85.333333A55.466667 55.466667 0 0 0 285.866667 339.712l-0.298667 5.674667v85.333333a29.866667 29.866667 0 0 1-59.434667 4.053333l-0.298666-4.053333v-85.333333A115.2 115.2 0 0 1 333.738667 230.4l7.253333-0.213333h85.333333z"></path>
</svg>
