<svg xmlns="http://www.w3.org/2000/svg" version="1.1" width="1024" height="1024" fill="currentColor" aria-hidden="true" focusable="false">
    <path d="M832 76.8a115.2 115.2 0 0 1 115.2 115.2v640a115.2 115.2 0 0 1-115.2 115.2h-554.666667a115.2 115.2 0 0 1-115.2-115.2v-162.133333H101.845333a29.866667 29.866667 0 0 1-4.053333-59.477334l4.053333-0.256H162.133333V371.2H101.845333a29.866667 29.866667 0 0 1-4.053333-59.477333l4.053333-0.256H162.133333V192a115.2 115.2 0 0 1 107.946667-114.986667L277.333333 76.8z m0 59.733333h-554.666667a55.466667 55.466667 0 0 0-55.466666 55.466667v640a55.466667 55.466667 0 0 0 55.466666 55.466667h554.666667a55.466667 55.466667 0 0 0 55.466667-55.466667v-640a55.466667 55.466667 0 0 0-55.466667-55.466667z m-284.074667 449.664c58.794667-0.981333 116.053333 17.237333 161.322667 51.413334 45.866667 34.645333 76.330667 83.370667 85.333333 137.173333a29.866667 29.866667 0 1 1-58.88 9.898667c-6.485333-38.442667-28.544-73.813333-62.421333-99.413334-34.517333-26.026667-78.762667-40.106667-124.373333-39.381333-45.610667 0.768-89.173333 16.213333-122.538667 43.349333-32.768 26.624-53.333333 62.592-58.24 101.205334a29.866667 29.866667 0 0 1-59.306667-7.509334c6.912-54.101333 35.413333-103.893333 79.872-140.032 43.861333-35.669333 100.437333-55.765333 159.232-56.746666z m3.882667-334.08a136.533333 136.533333 0 1 1 0 273.066667 136.533333 136.533333 0 0 1 0-273.066667z m0 59.733334a76.8 76.8 0 1 0 0 153.6 76.8 76.8 0 0 0 0-153.6z"></path>
</svg>
