<svg xmlns="http://www.w3.org/2000/svg" version="1.1" width="1024" height="1024" fill="currentColor" aria-hidden="true" focusable="false">
    <path d="M512 183.375c90.865 0 174.396 31.381 240.338 83.892L811 210.127c11.744-11.439 30.543-11.197 41.988 0.541 10.3 10.565 11.135 26.84 2.637 38.33l-3.178 3.638-56.579 55.113C859.272 376.49 898 468.319 898 569.187 898 782.266 725.182 955 512 955S126 782.266 126 569.187c0-213.078 172.818-385.812 386-385.812z m0 59.356c-180.385 0-326.615 146.16-326.615 326.456 0 180.298 146.23 326.457 326.615 326.457 180.385 0 326.615-146.16 326.615-326.457S692.385 242.731 512 242.731z m4.242 76.049c15.032 0 27.455 11.165 29.421 25.65l0.271 4.027 0.001 168.71c20.181 10.664 33.933 31.857 33.933 56.26 0 35.123-28.486 63.596-63.626 63.596s-63.627-28.473-63.627-63.596c0-24.404 13.753-45.597 33.934-56.26v-168.71c0-16.39 13.294-29.677 29.693-29.677z m0 233.449c-11.714 0-21.209 9.49-21.209 21.198s9.495 21.199 21.209 21.199c11.713 0 21.209-9.491 21.209-21.199 0-11.707-9.496-21.198-21.21-21.198z m0-482.229c21.586 0 42.678 1.744 60.328 5.041 20.76 3.88 36.404 9.581 46.711 18.944 12.135 11.025 13.031 29.794 2.001 41.924-11.03 12.129-29.808 13.024-41.943 2l-6.21-1.892-7.114-1.748c-1.37-0.299-2.826-0.596-4.358-0.883-13.839-2.585-31.317-4.03-49.415-4.03-18.099 0-35.577 1.445-49.415 4.03l-8.201 1.778-5.912 1.608-3.57 1.137c-12.134 11.024-30.913 10.129-41.943-2-11.03-12.13-10.134-30.9 2.001-41.924 10.307-9.363 25.952-15.064 46.713-18.944C473.563 71.744 494.655 70 516.242 70z"></path>
</svg>
