<svg xmlns="http://www.w3.org/2000/svg" version="1.1" width="1024" height="1024" fill="currentColor" aria-hidden="true" focusable="false">
    <path d="M512 98.133333c204.032 0 371.2 62.72 371.2 157.866667v512c0 95.146667-167.168 157.866667-371.2 157.866667-199.68 0-364.074667-60.032-370.986667-151.850667L140.8 768V256l0.213333-6.016C147.925333 158.165333 312.32 98.133333 512 98.133333z m0 571.733334c-130.090667 0-245.162667-25.472-311.509333-68.608L200.533333 768c0 46.208 138.453333 98.133333 311.466667 98.133333 168.789333 0 304.682667-49.408 311.210667-94.72L823.466667 768v-166.698667c-66.346667 43.093333-181.418667 68.565333-311.466667 68.565334zM298.666667 682.666667a42.666667 42.666667 0 1 1 0 85.333333 42.666667 42.666667 0 0 1 0-85.333333z m524.8-337.365334C757.12 388.394667 642.048 413.866667 512 413.866667s-245.162667-25.472-311.466667-68.608V512c0 46.208 138.453333 98.133333 311.466667 98.133333 168.789333 0 304.682667-49.408 311.210667-94.72L823.466667 512zM298.666667 426.666667a42.666667 42.666667 0 1 1 0 85.333333 42.666667 42.666667 0 0 1 0-85.333333z m213.333333-268.8C338.986667 157.866667 200.533333 209.792 200.533333 256c0 46.208 138.453333 98.133333 311.466667 98.133333s311.466667-51.925333 311.466667-98.133333c0-46.208-138.453333-98.133333-311.466667-98.133333z"></path>
</svg>
