<svg xmlns="http://www.w3.org/2000/svg" version="1.1" width="1024" height="1024" fill="currentColor" aria-hidden="true" focusable="false">
    <path d="M607.616 98.218667l7.253333 0.085333 27.690667 0.341333 37.290667 1.024 22.314666 1.066667 10.410667 0.64 19.498667 1.621333c68.394667 6.656 102.869333 21.717333 135.04 53.888l3.669333 3.712 6.826667 7.466667 3.2 3.754667 5.973333 7.68c4.778667 6.528 8.96 13.312 12.629333 20.693333l4.181334 9.130667c1.962667 4.693333 3.797333 9.685333 5.418666 14.933333l3.114667 11.008 2.688 11.904 2.346667 12.885333c0.384 2.261333 0.725333 4.565333 1.024 6.912l1.834666 14.634667 1.536 15.957333 1.28 17.365334 0.981334 18.901333 0.768 20.48 0.768 33.962667 0.426666 38.229333L925.866667 554.666667l-0.128 42.837333-0.426667 38.229333-0.725333 33.962667-0.768 20.48-1.024 18.901333-1.237334 17.365334-1.536 15.957333-1.834666 14.634667a383.274667 383.274667 0 0 1-1.024 6.912l-2.346667 12.885333-2.688 11.946667-3.114667 10.922666c-1.621333 5.290667-3.413333 10.24-5.418666 14.976l-4.181334 9.130667a144.042667 144.042667 0 0 1-12.629333 20.693333l-5.973333 7.68c-1.024 1.28-2.133333 2.517333-3.2 3.754667l-6.826667 7.466667-7.381333 7.381333-7.466667 6.826667-3.754667 3.2-7.68 5.973333c-6.528 4.778667-13.312 8.96-20.693333 12.629333l-9.130667 4.181334c-4.693333 1.962667-9.685333 3.797333-14.933333 5.418666l-11.008 3.114667-11.861333 2.688-12.928 2.346667a383.274667 383.274667 0 0 1-6.912 1.024l-14.634667 1.834666-15.957333 1.536-17.365334 1.28-18.901333 0.981334-20.48 0.768-33.962667 0.768-38.229333 0.426666L469.333333 925.866667l-42.837333-0.128-38.229333-0.426667-33.962667-0.725333-20.48-0.768-18.901333-1.024-17.365334-1.237334-15.957333-1.536-14.634667-1.834666a383.317333 383.317333 0 0 1-6.912-1.024l-12.885333-2.346667-11.946667-2.688-10.922666-3.114667a170.453333 170.453333 0 0 1-14.976-5.418666l-9.130667-4.181334a144.042667 144.042667 0 0 1-20.693333-12.629333l-7.68-5.973333a183.296 183.296 0 0 1-3.754667-3.2l-7.466667-6.826667-3.712-3.669333c-33.664-33.621333-48.554667-69.802667-54.741333-144.554667l-1.408-20.437333-1.066667-22.272-1.024-37.333334-0.426666-42.368-0.085334-161.024 0.170667-30.037333 0.341333-27.648 1.024-37.290667 1.066667-22.314666 0.64-10.410667 1.621333-19.498667c6.656-68.394667 21.674667-102.869333 53.888-135.04 33.621333-33.664 69.802667-48.554667 144.554667-54.741333l20.437333-1.408 22.272-1.066667 37.333334-1.024 42.368-0.426666h183.765333z m-8.618667 59.733333H425.002667l-39.04 0.341333-23.210667 0.554667-21.162667 0.725333-19.2 1.024-8.874666 0.597334-16.512 1.450666-14.933334 1.792a294.954667 294.954667 0 0 0-19.584 3.328l-11.392 2.688c-23.466667 6.272-38.784 15.445333-51.968 28.672a115.626667 115.626667 0 0 0-2.986666 3.072l-5.546667 6.485334c-8.789333 11.136-15.36 24.32-20.138667 42.410666l-2.688 11.392c-1.28 6.016-2.346667 12.544-3.328 19.626667l-1.792 14.848-0.768 8.064-1.28 17.365333-1.024 19.2-0.725333 21.12-0.554667 23.253334-0.384 39.04v173.994666l0.426667 39.04 0.512 23.210667 0.725333 21.162667 1.024 19.2 0.597334 8.874666 1.450666 16.512 1.792 14.933334c0.981333 7.04 2.048 13.525333 3.328 19.584l2.688 11.392c6.272 23.466667 15.445333 38.784 28.672 51.968l2.730667 2.688 5.632 4.992c1.92 1.578667 3.882667 3.072 5.930667 4.522666l6.357333 4.138667c2.176 1.28 4.48 2.56 6.826667 3.754667l7.552 3.328c5.248 2.133333 10.965333 4.010667 17.365333 5.674666l10.112 2.304 11.178667 2.048 12.373333 1.706667 13.738667 1.493333c2.389333 0.256 4.864 0.426667 7.381333 0.64l15.872 1.152 17.493333 0.853334 19.2 0.725333 32.213334 0.725333 36.693333 0.426667L554.666667 866.133333l54.314666-0.213333 35.157334-0.512 30.848-0.853333 18.304-0.768 16.64-1.024 15.146666-1.237334 13.696-1.450666 12.373334-1.749334 11.221333-2.048 10.112-2.304c6.4-1.706667 12.117333-3.541333 17.365333-5.674666l7.509334-3.328 6.869333-3.754667 6.4-4.138667c2.005333-1.450667 3.968-2.986667 5.888-4.522666l5.632-4.992 5.418667-5.418667 4.992-5.632c1.578667-1.92 3.072-3.882667 4.522666-5.930667l4.138667-6.357333c1.28-2.176 2.56-4.48 3.754667-6.826667l3.328-7.552c2.133333-5.248 4.010667-10.965333 5.674666-17.365333l2.304-10.112 2.048-11.178667 1.706667-12.373333 1.493333-13.738667c0.256-2.389333 0.426667-4.864 0.64-7.381333l1.152-15.872 0.853334-17.493333 0.725333-19.2 0.725333-32.213334 0.426667-36.693333L866.133333 469.333333l-0.213333-54.314666-0.512-35.157334-0.853333-30.848-0.768-18.304-1.024-16.64-1.237334-15.146666-1.450666-13.696-1.749334-12.373334-2.048-11.221333-2.304-10.112a141.312 141.312 0 0 0-5.674666-17.365333l-3.328-7.509334a98.773333 98.773333 0 0 0-3.754667-6.869333L837.12 213.333333a103.210667 103.210667 0 0 0-6.954667-8.746666l-5.248-5.546667c-13.226667-13.226667-28.501333-22.357333-51.968-28.629333l-11.392-2.688a294.869333 294.869333 0 0 0-19.626666-3.328l-14.848-1.792a553.6 553.6 0 0 0-8.064-0.768l-17.365334-1.28-19.2-1.024-21.12-0.725334-23.253333-0.554666-39.04-0.384zM661.333333 357.546667a29.866667 29.866667 0 0 1 4.053334 59.477333l-4.053334 0.256h-119.466666v278.101333l-0.256 4.053334a29.866667 29.866667 0 0 1-59.477334-4.053334V417.28H362.666667a29.866667 29.866667 0 0 1-4.053334-59.434667L362.666667 357.546667h298.666666z" />
</svg>
