<svg xmlns="http://www.w3.org/2000/svg" version="1.1" width="1024" height="1024" fill="currentColor" aria-hidden="true" focusable="false">
    <path d="M877.714286 826.514286a51.2 51.2 0 0 1 6.948571 101.961143L877.714286 928.914286H146.285714a51.2 51.2 0 0 1-6.948571-101.961143L146.285714 826.514286h731.428572z m-365.714286-731.428572h2.194286l3.218285 0.292572L512 95.085714a51.419429 51.419429 0 0 1 26.989714 7.68l0.585143 0.365715c2.340571 1.462857 4.534857 3.218286 6.582857 5.12l292.132572 255.488a51.2 51.2 0 0 1-60.708572 82.066285l-6.729143-4.973714-207.725714-181.833143L563.2 694.857143a51.2 51.2 0 0 1-101.961143 6.948571L460.8 694.857143V258.925714L253.147429 440.832a51.2 51.2 0 0 1-66.267429 0.950857l-5.997714-5.778286a51.2 51.2 0 0 1-0.950857-66.267428l5.778285-5.997714 292.571429-256 0.731428-0.658286a51.419429 51.419429 0 0 1 5.046858-3.657143l-5.778286 4.388571A51.346286 51.346286 0 0 1 512 95.085714z"></path>
</svg>
