<svg xmlns="http://www.w3.org/2000/svg" version="1.1" width="1024" height="1024" fill="currentColor" aria-hidden="true" focusable="false">
    <path d="M571.178667 947.413333c-11.477333 0-22.741333-2.901333-32.768-8.362666l-141.312-76.202667a68.437333 68.437333 0 0 1-36.010667-60.288V539.008a4.266667 4.266667 0 0 0-1.322667-3.072L124.117333 314.410667A104.96 104.96 0 0 1 191.36 128.64h622.08a104.96 104.96 0 0 1 67.242667 185.770667l-1.066667 0.853333-238.378667 223.744a4.266667 4.266667 0 0 0-1.28 3.114667v336.64a67.968 67.968 0 0 1-33.578666 58.88c-10.666667 6.4-22.826667 9.728-35.2 9.770666zM164.821333 264.533333L400.64 486.229333a68.266667 68.266667 0 0 1 24.874667 52.778667v263.552a4.266667 4.266667 0 0 0 2.261333 3.797333l141.226667 76.202667a4.309333 4.309333 0 0 0 6.4-3.797333v-336.64a68.266667 68.266667 0 0 1 24.874666-52.778667l1.066667-0.853333 238.549333-223.914667a40.704 40.704 0 0 0-26.538666-71.68H191.36a40.704 40.704 0 0 0-26.538667 71.68z"></path>
</svg>
