<svg xmlns="http://www.w3.org/2000/svg" version="1.1" width="1024" height="1024" fill="currentColor" aria-hidden="true" focusable="false">
    <path d="M512 512m-512 0a512 512 0 1 0 1024 0 512 512 0 1 0-1024 0Z" fill="#15D4A7"></path><path d="M507.792 531.584c10.8 10.8 10.8 26.976 0 37.792-10.8 10.8-29.552 13.472-40.32 2.672a102.816 102.816 0 0 1-30.24-72.864c0-27.36 10.88-53.6 30.24-72.864l107.648-107.952a102 102 0 0 1 145.248 0c40.352 40.496 43.024 102.56 2.656 143.024l-32.256 32.4c-10.768 10.8-26.88 10.8-40.32-2.72-13.44-13.504-10.768-26.976 0-37.76l32.256-32.384c18.832-18.88 16.128-48.592 0-64.8-16.128-16.224-48.464-21.568-67.264-2.64l-107.616 107.904a50.656 50.656 0 0 0 0 70.192h-0.032z m40.4-40.496c-10.768-10.8-10.768-26.992 2.656-40.464 13.44-13.472 26.896-10.8 37.664 0a102.816 102.816 0 0 1 30.24 72.864c0 27.36-10.88 53.6-30.24 72.864l-107.584 107.904c-40.32 40.464-107.616 43.2-147.968 2.672-40.368-40.528-37.664-107.936 2.688-148.4l32.304-32.4c10.768-10.8 29.6-13.472 40.32-2.672 10.72 10.8 8.112 29.648-2.656 40.448l-32.304 32.416c-18.832 18.88-18.832 51.264 0 70.144 18.832 18.896 48.432 16.192 67.264-2.672l107.616-107.968c18.784-18.896 18.784-45.888 0-64.784v0.048z" fill="#FFFFFF"></path>
</svg>
