<svg xmlns="http://www.w3.org/2000/svg" version="1.1" width="1175" height="1024" fill="currentColor" aria-hidden="true" focusable="false">
    <path d="M526.235279 700.718164l214.251016-233.673443a55.480656 55.480656 0 0 1 77.723279-4.163147l211.011147 193.821377-502.985442 44.015213z" fill="#E0E0E0" p-id="16822"></path><path d="M219.320656 181.432656l94.795541 606.761967c4.566033 29.259541 31.273967 49.303082 59.627016 44.737049l560.077639-89.977705 13.312 69.699148c6.043279 31.727213-13.949902 62.380066-44.703475 68.456918L234.344918 1013.256393c-30.753574 6.076852-60.600656-14.705311-66.643934-46.449311L35.923934 277.336131c-6.043279-31.727213 13.949902-62.396852 44.703476-68.473705l138.693246-27.42977z" fill="#DEDEDE" p-id="16823"></path><path d="M923.86623 19.489574c31.223607-2.719475 58.804459 21.151475 61.607868 53.348721l61.204984 699.509508c2.820197 32.180459-20.21141 60.499934-51.41823 63.236197l-678.190163 59.324852c-31.223607 2.736262-58.821246-21.151475-61.624656-53.348721L194.224262 142.06741c-2.820197-32.197246 20.21141-60.499934 51.41823-63.236197l678.190164-59.341639z m-20.614296 89.910557l-621.685508 54.389508 41.93364 479.215213 174.919344-189.809311a55.480656 55.480656 0 0 1 77.723279-4.163148l244.417049 217.490886c5.12 4.465311 11.767607 6.664393 18.465573 6.076852l112.64-9.853901-48.413377-553.346099z m-235.100327 79.318033c39.029508-3.424525 73.50977 26.439344 77.018229 66.677508 3.525246 40.238164-25.247475 75.624918-64.260197 79.049443-39.012721 3.407738-73.50977-26.439344-77.018229-66.694295-3.525246-40.238164 25.247475-75.624918 64.260197-79.032656z" fill="#BEBEBE"></path><path d="M916.194623 857.541246l-32.113312-230.769312a16.786885 16.786885 0 0 1 22.897312-17.894819l214.653902 86.167082a16.786885 16.786885 0 0 1 1.494032 30.484983l-43.998426 22.880525a16.786885 16.786885 0 0 0-5.992918 24.542426l64.595935 91.874623c8.712393 12.405508 6.261508 29.444197-5.590033 38.878426a29.813508 29.813508 0 0 1-39.952787-2.518032l-82.020721-84.169443a16.786885 16.786885 0 0 0-24.978886 1.040787l-39.415606 47.842623a16.786885 16.786885 0 0 1-29.578492-8.359869z" fill="#8D8D8D"></path>
</svg>
