<svg xmlns="http://www.w3.org/2000/svg" version="1.1" width="1024" height="1024" fill="currentColor" aria-hidden="true" focusable="false">
    <path d="M490.666667 226.133333a304.170667 304.170667 0 0 0-217.6 89.6 304.170667 304.170667 0 0 0-89.6 217.6c0 82.56 31.36 159.274667 89.6 217.6a304.170667 304.170667 0 0 0 217.6 89.6 304.170667 304.170667 0 0 0 217.6-89.6 304.170667 304.170667 0 0 0 89.6-217.6 304.170667 304.170667 0 0 0-89.6-217.6 304.170667 304.170667 0 0 0-217.6-89.6z m0 59.733334c66.816 0 128.298667 25.130667 175.36 72.106666a244.437333 244.437333 0 0 1 72.106666 175.36 244.437333 244.437333 0 0 1-72.106666 175.36 244.437333 244.437333 0 0 1-175.36 72.106667 244.437333 244.437333 0 0 1-175.36-72.106667A244.437333 244.437333 0 0 1 243.2 533.333333c0-66.816 25.130667-128.298667 72.106667-175.36A244.437333 244.437333 0 0 1 490.666667 285.866667z" p-id="4713"></path><path d="M560.213333 428.16a29.866667 29.866667 0 0 1 45.397334 38.528l-3.157334 3.712-168.106666 168.106667a29.866667 29.866667 0 0 1-45.354667-38.528l3.114667-3.712 168.106666-168.106667z" p-id="4714"></path><path d="M392.106667 428.16a29.866667 29.866667 0 0 1 38.570666-3.157333l3.669334 3.157333 168.106666 168.106667a29.866667 29.866667 0 0 1-38.528 45.397333l-3.712-3.157333-168.106666-168.106667a29.866667 29.866667 0 0 1 0-42.24z" p-id="4715"></path>
</svg>
