<svg xmlns="http://www.w3.org/2000/svg" version="1.1" width="1024" height="1024" fill="currentColor" aria-hidden="true" focusable="false">
    <path d="M809.204979 688.695101a173.774889 173.774889 0 0 0-120.99818 48.510201L461.48454 609.722029a209.016249 209.016249 0 0 0-8.959668-195.406087l232.866031-130.981809c61.608382 61.864373 161.44468 67.880149 230.391457 13.951483 68.989442-53.971332 84.476867-150.223763 35.796006-222.19976C902.812174 3.152523 805.919767-20.867919 727.842663 19.663911c-78.077105 40.53183-111.654526 132.304427-77.522459 211.832144L412.633018 365.1231a221.645114 221.645114 0 0 0-150.522418-58.365836C140.94176 306.79993 42.68407 402.497714 42.68407 520.552003c0 88.914036 56.531237 168.569749 141.946737 199.971251 85.458164 31.401502 181.881255 7.935706 242.167019-58.877817l225.100986 126.587306c-30.974851 67.837484-12.41554 147.493197 45.56631 195.662078a175.737483 175.737483 0 0 0 205.517712 13.055515c63.912297-40.4465 92.881889-117.030327 71.250692-188.238352-21.716528-71.208026-88.871371-120.016883-165.113878-120.016883l0.085331 0.042665z"></path>
</svg>
