<svg xmlns="http://www.w3.org/2000/svg" version="1.1" width="12" height="12" fill="currentColor" aria-hidden="true" focusable="false">
    <path d="M9.487 1.004c.827 0 1.497.67 1.497 1.497v4.99c0 .827-.67 1.497-1.497 1.497h-.5v.499c0 .771-.585 1.416-1.352 1.49l-.144.007H2.5A1.497 1.497 0 0 1 1.01 9.63l-.007-.144v-4.99c0-.771.586-1.416 1.353-1.49L2.501 3H3v-.5c0-.77.586-1.415 1.353-1.49l.144-.006h4.99zM3 3.998h-.5a.499.499 0 0 0-.49.41l-.008.089v4.99c0 .24.172.448.41.491l.089.008h4.99a.499.499 0 0 0 .49-.41l.009-.09v-.498H4.497a1.497 1.497 0 0 1-1.49-1.353L3 7.49V3.998zm6.487-1.996h-4.99a.499.499 0 0 0-.5.499v4.99c0 .276.224.499.5.499h4.99a.499.499 0 0 0 .499-.5V2.5a.499.499 0 0 0-.5-.498z"></path>
</svg>
