<svg xmlns="http://www.w3.org/2000/svg" version="1.1" width="1024" height="1024" fill="currentColor" aria-hidden="true" focusable="false">
    <path d="M0 0h1024v1024H0z" fill-opacity=".01"></path><path d="M512.2048 108.3904a40.96 40.96 0 0 1 40.6016 35.84l0.3584 5.12v89.1392c47.616 4.9152 94.3104 18.0736 137.8304 37.3248l35.7376-49.8688a40.96 40.96 0 0 1 69.4784 43.008l-2.9184 4.7104-29.8496 41.6256C865.6896 382.3616 936.96 482.304 936.96 576c0 160.4096-209.2032 339.6096-424.96 339.6096-215.7056 0-424.96-179.3024-424.96-339.6096 0-98.9184 79.616-205.056 191.2832-271.872l-28.672-39.936a40.96 40.96 0 0 1 63.0784-52.0192l3.5328 4.3008 36.5568 51.0976a452.1984 452.1984 0 0 1 118.4256-29.0816V149.3504a40.96 40.96 0 0 1 40.96-40.96zM512 318.3104c-173.056 0-343.04 145.664-343.04 257.6896s169.984 257.6896 343.04 257.6896c173.056 0 343.04-145.5616 343.04-257.6896 0-112.128-169.984-257.6896-343.04-257.6896z m0 88.7296a168.96 168.96 0 1 1 0 337.92 168.96 168.96 0 0 1 0-337.92z m0 81.92a87.04 87.04 0 1 0 0 174.08 87.04 87.04 0 0 0 0-174.08z"></path>
</svg>
