<svg xmlns="http://www.w3.org/2000/svg" version="1.1" width="24" height="24" fill="currentColor" aria-hidden="true" focusable="false">
    <g fill-rule="evenodd" fill="none"><path d="m8.217 6.48.452.003.41.008.371.014.336.02.305.028c.867.096 1.34.31 1.793.763l.116.122c.037-.041.075-.082.116-.122.503-.504 1.032-.712 2.098-.791l.337-.02.181-.008.39-.01.431-.006h1.717c.74.006 1.087.074 1.43.418.317.317.397.549.415 1.223l.005.318v6.582l-.002.349-.008.289c-.026.57-.115.791-.41 1.085-.364.365-.684.418-1.573.42h-2.994c-.78 0-1.413.632-1.413 1.413h-1.44c0-.78-.633-1.414-1.413-1.414H6.702c-.76-.01-1.062-.078-1.403-.419-.344-.344-.412-.69-.418-1.436v-6.98c.006-.74.074-1.086.418-1.43.344-.344.69-.412 1.43-.418h1.488Zm.208 1.441H6.742l-.412.008-.01.407v6.966l.009.358-.001.057.34.006 3.199.001c.508 0 .985.133 1.399.366l.014.008v-4.631l-.002-.63-.008-.535-.014-.448-.014-.255-.018-.225-.021-.195-.027-.17a2.616 2.616 0 0 0-.015-.077l-.034-.136-.04-.118a1.164 1.164 0 0 0-.021-.053l-.049-.096a.915.915 0 0 0-.026-.043l-.059-.08-.031-.036-.074-.073a.933.933 0 0 0-.243-.156l-.126-.048a1.669 1.669 0 0 0-.07-.022l-.16-.038a3.612 3.612 0 0 0-.287-.045l-.23-.023-.262-.018-.465-.017-.56-.009Zm7.361 0-.407.002-.527.011-.3.013-.263.018-.23.023a3.615 3.615 0 0 0-.287.045l-.16.038a1.67 1.67 0 0 0-.07.022l-.126.048a.923.923 0 0 0-.282.193l-.037.04a.933.933 0 0 0-.156.242l-.048.126a1.669 1.669 0 0 0-.022.07l-.038.16c-.017.085-.032.18-.045.287l-.023.23-.018.262-.017.465-.009.56-.002 3.993v1.33l.178-.093c.265-.128.552-.216.855-.256l.23-.022.151-.004h2.992l.5-.007h.05l.002-.29.003-6.805-.007-.678.001-.016h-.058l-.352-.007h-1.478Z" fill="#A073FF"></path></g>
</svg>
