<svg xmlns="http://www.w3.org/2000/svg" version="1.1" width="1024" height="1024" fill="currentColor" aria-hidden="true" focusable="false">
    <path d="M512 193.088c216.512 0 392 139.904 392 312.448 0 172.608-175.488 312.512-392 312.512s-392-139.904-392-312.512c0-172.544 175.488-312.448 392-312.448z m0 76.8c-177.408 0-315.2 109.824-315.2 235.648 0 125.888 137.792 235.712 315.2 235.712s315.2-109.824 315.2-235.712c0-125.824-137.792-235.648-315.2-235.648z m0 75.52c77.312 0 140.032 72 140.032 160.896 0 88.896-62.72 160.896-140.032 160.896-77.312 0-140.032-72-140.032-160.896 0-88.896 62.72-160.896 140.032-160.896z m0 76.8c-32.32 0-63.168 35.456-63.168 84.096S479.68 590.4 512 590.4s63.168-35.456 63.168-84.096S544.32 422.208 512 422.208z"></path>
</svg>
