<svg xmlns="http://www.w3.org/2000/svg" version="1.1" width="1072" height="1024" fill="currentColor" aria-hidden="true" focusable="false">
    <path d="M146.285714 14.628571A131.657143 131.657143 0 0 0 14.628571 146.285714v731.428572A131.657143 131.657143 0 0 0 146.285714 1009.371429h780.190476a131.657143 131.657143 0 0 0 131.657143-131.657143V438.857143A131.657143 131.657143 0 0 0 926.47619 307.2h-290.182095L466.797714 69.729524A131.657143 131.657143 0 0 0 359.66781 14.628571H146.285714z" p-id="5074"></path><path d="M571.489524 113.030095A9.752381 9.752381 0 0 1 579.437714 97.52381H926.47619a97.52381 97.52381 0 0 1 97.52381 97.523809v39.009524a9.752381 9.752381 0 0 1-9.752381 9.752381h-334.506667a24.380952 24.380952 0 0 1-19.699809-9.947429l-88.502857-120.832z" p-id="5075"></path>
</svg>
