<svg xmlns="http://www.w3.org/2000/svg" version="1.1" width="1137" height="1024" fill="currentColor" aria-hidden="true" focusable="false">
    <path d="M103.424 560.924444c12.344889 0 24.177778 4.892444 32.881778 13.482667 8.760889 8.647111 13.653333 20.366222 13.653333 32.597333v200.192c0 25.372444 20.821333 46.023111 46.535111 46.023112h744.732445a46.250667 46.250667 0 0 0 46.535111-46.08V607.004444c0-16.384 8.931556-31.630222 23.324444-39.822222a47.104 47.104 0 0 1 46.535111 0 45.909333 45.909333 0 0 1 23.267556 39.822222v200.248889c0 76.231111-62.520889 138.012444-139.662222 138.012445H196.551111C119.352889 945.208889 56.888889 883.484444 56.888889 807.253333v-200.248889c0-25.429333 20.878222-46.023111 46.535111-46.023111zM394.808889 84.024889a44.828444 44.828444 0 0 1 45.056-44.657778h270.563555a45.056 45.056 0 0 1 45.169778 44.657778v258.616889h135.281778c18.773333 0 35.555556 11.377778 42.211556 28.728889a44.373333 44.373333 0 0 1-12.231112 49.265777l-315.733333 277.048889a45.454222 45.454222 0 0 1-59.847111 0l-315.733333-277.048889a44.373333 44.373333 0 0 1-12.174223-49.208888 45.112889 45.112889 0 0 1 42.097778-28.785778H394.808889V84.024889z m86.471111 34.133333v265.045334a45.738667 45.738667 0 0 1-46.250667 45.738666H371.939556l201.784888 177.038222 201.728-177.038222h-63.089777a46.193778 46.193778 0 0 1-46.193778-45.738666v-265.102223H481.28z"></path>
</svg>
