<svg xmlns="http://www.w3.org/2000/svg" version="1.1" width="1024" height="1024" fill="currentColor" aria-hidden="true" focusable="false">
    <path d="M0 0h1024v1024H0z" fill="#D8D8D8" fill-opacity="0" p-id="8752"></path><path d="M622.144 292.544c60.352 0 109.312 49.408 109.312 109.312v384.896c0 60.288-49.408 109.248-109.312 109.248H237.248A109.568 109.568 0 0 1 128 786.752V401.856c0-60.352 49.344-109.312 109.248-109.312h384.896zM786.752 128C847.04 128 896 177.344 896 237.248v384.896c0 60.352-49.344 109.312-109.248 109.312h-0.448v-384a109.696 109.696 0 0 0-109.76-109.76h-384v-0.448C292.544 176.96 341.952 128 401.92 128h384.896z" fill="#E2DBFF" p-id="8753"></path>
</svg>
