<svg xmlns="http://www.w3.org/2000/svg" version="1.1" width="1024" height="1024" fill="currentColor" aria-hidden="true" focusable="false">
    <path d="M480 108.8a193.536 193.536 0 0 0-192.896 194.112A193.536 193.536 0 0 0 480 497.088a193.536 193.536 0 0 0 192.896-194.176A193.536 193.536 0 0 0 480 108.8zM197.504 302.912C197.504 146.432 323.776 19.2 480 19.2c156.288 0 282.56 127.232 282.56 283.712S636.224 586.688 480 586.688c-156.224 0-282.496-127.296-282.496-283.776zM19.2 960c0-255.424 206.08-462.912 460.8-462.912s460.8 207.488 460.8 462.912a44.8 44.8 0 1 1-89.6 0c0-206.4-166.4-373.312-371.2-373.312-204.8 0-371.2 166.912-371.2 373.312a44.8 44.8 0 1 1-89.6 0zM787.2 192a44.8 44.8 0 0 1 44.8-44.8c122.752 0 227.648 93.632 227.648 215.488S954.752 578.112 832 578.112a44.8 44.8 0 1 1 0-89.6c79.168 0 138.048-59.2 138.048-125.824 0-66.688-58.88-125.888-138.048-125.888a44.8 44.8 0 0 1-44.8-44.8zM787.2 533.312a44.8 44.8 0 0 1 44.8-44.8c198.528 0 364.8 150.912 364.8 343.488a44.8 44.8 0 1 1-89.6 0c0-137.344-120.32-253.888-275.2-253.888a44.8 44.8 0 0 1-44.8-44.8z"></path>
</svg>
