<svg xmlns="http://www.w3.org/2000/svg" version="1.1" width="1024" height="1024" fill="currentColor" aria-hidden="true" focusable="false">
    <path d="M512 512m-512 0a512 512 0 1 0 1024 0 512 512 0 1 0-1024 0Z" fill="#FF7D7D" p-id="815"></path><path d="M512 0c282.781538 0 512 229.218462 512 512s-229.218462 512-512 512S0 794.781538 0 512 229.218462 0 512 0z m0 39.384615C250.998154 39.384615 39.384615 250.998154 39.384615 512s211.613538 472.615385 472.615385 472.615385 472.615385-211.613538 472.615385-472.615385S773.001846 39.384615 512 39.384615z" fill="#FFFFFF" p-id="816"></path><path d="M308.105846 374.823385v-37.533539c0-11.303385 9.176615-20.440615 20.48-20.440615h117.248v-20.401231c0-11.342769 9.176615-20.48 20.48-20.48h92.711385c11.303385 0 20.401231 9.216 20.401231 20.48v20.401231h117.326769c11.303385 0 20.401231 9.176615 20.401231 20.48v37.494154H308.105846z m351.940923 351.940923a20.401231 20.401231 0 0 1-20.401231 20.440615H385.851077a20.401231 20.401231 0 0 1-20.440615-20.440615L324.529231 389.159385h376.516923l-40.96 337.604923z m-204.603077-259.859693a20.401231 20.401231 0 1 0-40.841846 0v204.603077a20.401231 20.401231 0 1 0 40.841846 0v-204.603077z m76.406154 0a20.401231 20.401231 0 1 0-40.881231 0v204.603077a20.401231 20.401231 0 1 0 40.841847 0v-204.603077z m77.745231 0a20.401231 20.401231 0 1 0-40.841846 0v204.603077a20.401231 20.401231 0 1 0 40.841846 0v-204.603077z" fill="#FFFFFF" p-id="817"></path>
</svg>
