<svg xmlns="http://www.w3.org/2000/svg" version="1.1" width="1024" height="1024" fill="currentColor" aria-hidden="true" focusable="false">
    <path d="M413.420451 46.545455c134.283636 0 243.2 112.64 243.2 251.578181 0 105.239273-62.464 195.397818-151.086546 232.96 183.947636 43.287273 321.256727 213.550545 321.256728 417.047273a28.858182 28.858182 0 0 1-28.299637 29.323636 27.415273 27.415273 0 0 1-8.936727-1.489454H37.240087A27.415273 27.415273 0 0 1 28.349905 977.454545 28.858182 28.858182 0 0 1 0.003724 948.130909c0-203.496727 137.309091-373.76 321.303272-417.093818C232.730996 493.521455 170.220451 403.362909 170.220451 298.123636 170.220451 159.185455 279.090269 46.545455 413.420451 46.545455z m265.914182 130.094545c27.601455-0.325818 50.827636 1.954909 69.632 6.749091 83.083636 17.92 141.358545 94.394182 141.358545 186.461091 0 64.977455-32.069818 124.974545-80.290909 158.906182C932.774633 560.872727 1024.003724 685.149091 1024.003724 822.318545c0 7.074909-0.512 15.778909-1.582546 26.065455a41.006545 41.006545 0 0 1-40.820363 36.770909h-91.275637c-18.525091-202.379636-122.600727-309.154909-263.447273-356.398545 78.475636-65.163636 107.892364-104.308364 107.892364-193.117091 0-58.507636-18.478545-111.522909-55.435636-158.999273z"></path>
</svg>
