<svg xmlns="http://www.w3.org/2000/svg" version="1.1" width="70" height="61" fill="currentColor" aria-hidden="true" focusable="false">
    <g fill="none" fill-rule="evenodd"><path d="M31.349 41.741l12.762-13.92a3.305 3.305 0 0 1 4.631-.248l12.57 11.547-29.963 2.621z" fill="#DDDFE5"></path><path d="M13.066 10.807l5.647 36.145c.272 1.743 1.863 2.937 3.552 2.665l33.364-5.359.792 4.15c.362 1.891-.83 3.717-2.662 4.08l-39.799 7.87c-1.831.362-3.609-.876-3.97-2.767L2.14 16.52c-.361-1.89.831-3.717 2.663-4.079l8.262-1.634z" fill="#DDDFE5"></path><path d="M55.036 1.16c1.859-.162 3.502 1.26 3.67 3.178l3.646 41.67c.167 1.918-1.204 3.604-3.063 3.767l-40.401 3.534c-1.86.163-3.503-1.26-3.67-3.177l-3.646-41.67c-.168-1.918 1.203-3.604 3.063-3.767l40.4-3.534zm-1.228 5.356l-37.034 3.24 2.497 28.548 10.42-11.308a3.305 3.305 0 0 1 4.631-.247l14.559 12.955a27731667860437864 27731667860437864 0 0 1 7.81-.225L53.809 6.516zm-14.005 4.725c2.324-.204 4.378 1.575 4.588 3.972.21 2.397-1.504 4.506-3.828 4.709-2.325.203-4.379-1.575-4.589-3.972-.21-2.398 1.505-4.506 3.83-4.71z" fill="#A0A2B3" fill-rule="nonzero"></path><path d="M54.579 51.084l-1.913-13.748a1 1 0 0 1 1.363-1.066l12.788 5.134a1 1 0 0 1 .088 1.815l-2.62 1.363a1 1 0 0 0-.357 1.462l3.847 5.473c.52.739.374 1.754-.333 2.317a1.776 1.776 0 0 1-2.379-.15l-4.886-5.015a1 1 0 0 0-1.488.062l-2.348 2.85a1 1 0 0 1-1.762-.497z" fill="#847DA4"></path></g>
</svg>
