<svg xmlns="http://www.w3.org/2000/svg" version="1.1" width="1024" height="1024" fill="currentColor" aria-hidden="true" focusable="false">
    <path d="M512 645.585455l-157.090909 82.571636 30.021818-174.871273-127.069091-123.810909 175.616-25.6L512 244.829091l78.522182 159.092364 175.569454 25.506909-127.069091 123.810909 30.021819 174.917818L512 645.585455z m-177.105455-76.055273l-25.832727 150.760727a46.545455 46.545455 0 0 0 67.490909 49.058909L512 698.181818l135.400727 71.214546a46.545455 46.545455 0 0 0 67.490909-49.105455l-25.832727-150.760727 109.521455-106.775273a46.545455 46.545455 0 0 0-25.786182-79.406545l-151.365818-21.969455-67.723637-137.169454a46.545455 46.545455 0 0 0-83.456 0L402.571636 361.378909l-151.412363 21.969455a46.545455 46.545455 0 0 0-25.786182 79.406545l109.521454 106.775273z"></path>
</svg>
