<svg xmlns="http://www.w3.org/2000/svg" version="1.1" width="1137" height="1024" fill="currentColor" aria-hidden="true" focusable="false">
    <path d="M1012.622222 34.133333a102.4 102.4 0 0 1 102.4 102.4v750.933334a102.4 102.4 0 0 1-102.4 102.4H125.155556a102.4 102.4 0 0 1-102.4-102.4V136.533333A102.4 102.4 0 0 1 125.155556 34.133333h887.466666zM944.355556 170.666667H193.422222a34.133333 34.133333 0 0 0-34.133333 34.133333v614.4a34.133333 34.133333 0 0 0 34.133333 34.133333h750.933334a34.133333 34.133333 0 0 0 34.133333-34.133333V204.8a34.133333 34.133333 0 0 0-34.133333-34.133333zM452.664889 311.580444a34.133333 34.133333 0 0 1 14.904889 12.458667l168.049778 253.155556 43.804444-67.356445a34.133333 34.133333 0 0 1 55.921778-1.820444l166.456889 222.435555a34.133333 34.133333 0 0 1-27.306667 54.613334H262.826667a34.133333 34.133333 0 0 1-31.345778-47.672889l176.355555-408.007111a34.133333 34.133333 0 0 1 44.828445-17.806223zM807.822222 238.933333a102.4 102.4 0 1 1 0 204.8 102.4 102.4 0 0 1 0-204.8z"></path>
</svg>
