<svg xmlns="http://www.w3.org/2000/svg" version="1.1" width="1024" height="1024" fill="currentColor" aria-hidden="true" focusable="false">
    <path d="M305.8688 705.979733c27.306667 0 41.6768-13.653333 43.2128-40.96v-127.317333h90.9312c25.770667-1.501867 39.424-15.121067 40.96-40.891733-1.536-25.770667-15.189333-39.424-40.96-40.96h-90.9312v-84.104534h106.837333c24.234667-1.501867 37.137067-15.1552 38.673067-40.925866-1.536-24.234667-14.404267-37.137067-38.673067-38.638934H305.8688c-27.306667 1.501867-41.6768 16.657067-43.2128 45.4656v327.406934c1.536 27.306667 15.940267 40.925867 43.2128 40.925866z m436.565333 0c25.736533 0 39.389867-12.117333 40.891734-36.386133 0-12.117333-3.754667-21.981867-11.3664-29.559467l-84.104534-95.470933 70.485334-79.598933c7.5776-9.079467 11.3664-19.694933 11.3664-31.812267-3.037867-24.2688-17.408-37.888-43.2128-40.96-10.581333 0-20.48 5.3248-29.559467 15.940267l-59.118933 75.025066-59.118934-75.025066c-9.079467-10.615467-18.944-15.906133-29.559466-15.906134-25.770667 3.003733-40.1408 16.657067-43.178667 40.925867 0 12.117333 3.754667 22.7328 11.3664 31.812267l70.485333 79.598933-84.138666 95.470933c-7.5776 7.5776-11.3664 17.408-11.3664 29.559467 1.536 24.234667 15.1552 36.386133 40.96 36.386133 15.121067 0 27.2384-5.290667 36.352-15.906133l68.1984-84.138667 68.232533 84.138667c9.079467 10.581333 21.1968 15.906133 36.352 15.906133z"></path>
</svg>
