<svg xmlns="http://www.w3.org/2000/svg" version="1.1" width="1024" height="1024" fill="currentColor" aria-hidden="true" focusable="false">
    <path d="M668.736 97.792l7.744 0.384c51.2 4.864 91.52 58.048 91.52 122.944V806.4l-0.32 9.6c-3.968 63.68-46.72 113.792-98.944 113.792H355.264l-7.744-0.384C296.32 924.48 256 871.296 256 806.4V221.12l0.32-9.6c3.968-63.68 46.72-113.728 98.944-113.728h313.472z m-9.344 64h-295.04c-20.736 0-38.272 18.816-43.072 44.224l-0.96 7.104L320 220.352v586.88c0 27.264 14.208 50.56 33.472 56.832l5.376 1.28 5.44 0.448h295.424c20.672 0 38.208-18.816 43.008-44.288l0.96-7.04 0.32-7.296V220.352c0-27.328-14.208-50.56-33.472-56.832l-5.376-1.28-5.76-0.448z m-48.96 576c16.32 0 29.568 14.336 29.568 32a31.872 31.872 0 0 1-20.032 30.208l-4.672 1.28-4.864 0.512H413.568c-16.32 0-29.568-14.336-29.568-32 0-13.824 8.128-25.792 20.032-30.272l4.672-1.28 4.864-0.448h196.864zM833.152 166.912l9.472 0.384c59.456 4.48 106.88 51.2 111.744 109.824l0.384 9.856v439.936l-0.384 9.344a120.832 120.832 0 0 1-111.232 110.272l-9.984 0.384h-34.56v-63.232l34.56 0.064c26.88 0 49.728-18.24 55.936-42.944l1.28-6.912 0.384-7.04V287.04a57.088 57.088 0 0 0-43.52-55.232l-7.04-1.216-7.424-0.448h-34.176v-63.168h34.56zM187.968 166.912l-9.472 0.384c-59.456 4.48-106.88 51.2-111.68 109.824l-0.448 9.856v439.936l0.384 9.344c4.608 58.688 51.84 105.536 111.232 110.272l9.984 0.384h34.56v-63.232l-34.56 0.064a57.536 57.536 0 0 1-55.936-42.944l-1.28-6.912-0.384-7.04V287.04c0-26.496 18.56-49.088 43.52-55.232l7.04-1.216 7.424-0.448h34.24v-63.168h-34.56z"></path>
</svg>
