<svg xmlns="http://www.w3.org/2000/svg" version="1.1" width="1024" height="1024" fill="currentColor" aria-hidden="true" focusable="false">
    <path d="M432.703003 52.589988L91.870405 873.642111a85.304117 85.304117 0 0 0 18.85221 93.408008l32.372912 31.989043 5.118247 4.691727a85.304117 85.304117 0 0 0 88.972194 12.795617l274.295387-119.937588 275.105776 119.937588a85.304117 85.304117 0 0 0 94.047789-17.487344l32.415564-31.989043a85.304117 85.304117 0 0 0 18.766906-93.45066l-341.557683-821.052123c-29.174008-70.077332-128.468-70.03468-157.556704 0.042652z" fill="#ffffff"></path><path d="M511.481355 85.304117L170.648757 906.35624c-4.051946 7.506762-1.364866 14.71496 8.189195 21.624593 9.511409 6.909633 17.572648 10.36445 24.183717 10.36445l308.459686-134.780504 309.227423 134.780504c9.724669 0.767737 18.596297-2.68708 26.572232-10.36445s9.895278-14.885568 5.80068-21.624593L511.481355 85.304117z"></path>
</svg>
