<svg xmlns="http://www.w3.org/2000/svg" version="1.1" width="1024" height="1024" fill="currentColor" aria-hidden="true" focusable="false">
    <path d="M776.635733 259.140267c110.250667 63.829333 181.794133 166.570667 181.794134 282.350933 0 193.536-199.68 350.481067-445.986134 350.481067-35.293867 0-69.632-3.2768-102.6048-9.352534l46.967467-79.872c17.954133 2.048 36.4544 3.072 55.637333 3.072 217.565867 0 358.6048-135.509333 358.6048-264.328533 0-77.141333-50.653867-156.740267-138.0352-208.145067l43.690667-74.205866zM512.443733 191.146667c39.3216 0 77.4144 3.959467 113.732267 11.4688l-46.557867 79.189333A496.0256 496.0256 0 0 0 512.443733 277.162667c-217.565867 0-358.6048 135.509333-358.6048 264.260266 0 79.872 54.203733 162.338133 147.319467 213.469867l-43.690667 74.1376c-115.438933-63.351467-191.010133-168.5504-191.010133-287.607467C66.4576 347.9552 266.1376 191.146667 512.443733 191.146667z m143.633067 273.066666c10.0352 23.688533 15.701333 50.176 15.701333 78.165334 0 99.669333-71.338667 180.497067-159.3344 180.497066-2.8672 0-5.666133-0.068267-8.465066-0.2048l152.098133-258.4576zM512.443733 361.8816c6.485333 0 12.970667 0.4096 19.2512 1.297067l-60.347733 102.536533c-11.810133 10.581333-21.9136 25.873067-27.101867 46.08L373.8624 631.3984a198.4512 198.4512 0 0 1-20.6848-89.088c0-99.669333 71.2704-180.4288 159.266133-180.4288z m-231.6288 635.972267l-4.3008 5.7344a49.152 49.152 0 0 1-59.392 9.966933c-22.3232-12.014933-29.9008-38.434133-16.930133-59.050667l543.880533-869.307733 4.3008-5.802667a49.152 49.152 0 0 1 59.392-9.898666c22.3232 11.946667 29.9008 38.434133 16.930134 59.050666L280.814933 997.853867z"></path>
</svg>
