<svg xmlns="http://www.w3.org/2000/svg" version="1.1" width="1024" height="1024" fill="currentColor" aria-hidden="true" focusable="false">
    <path d="M520.3 166.237c206.206 0 373.368 167.169 373.368 373.382C893.668 745.83 726.506 913 520.301 913c-206.206 0-373.368-167.169-373.368-373.381 0-206.213 167.162-373.382 373.368-373.382z m0 57.443c-174.48 0-315.926 141.45-315.926 315.939 0 174.487 141.445 315.938 315.927 315.938 174.481 0 315.926-141.45 315.926-315.938S694.782 223.68 520.301 223.68z m-7.8 121.477c14.54 0 26.557 10.805 28.458 24.824l0.263 3.898v155.318l122.576 147.042c9.142 10.965 8.726 26.731-0.33 37.18l-3.338 3.272c-10.964 9.142-26.73 8.727-37.179-0.33l-3.272-3.337L490.441 558.01a28.723 28.723 0 0 1-6.382-14.394l-0.28-3.998v-165.74c0-15.863 12.86-28.722 28.721-28.722zM239.037 125.18c10.21 9.979 11.4 25.706 3.452 37.022l-2.987 3.594-96.242 98.474c-11.087 11.345-29.27 11.553-40.614 0.465-10.21-9.978-11.399-25.706-3.452-37.021l2.987-3.595 96.242-98.474c11.087-11.344 29.27-11.552 40.614-0.465z m584.015-2.604l3.525 3.07 96.242 98.473c11.087 11.345 10.879 29.529-0.465 40.616-10.21 9.979-25.959 10.808-37.09 2.604l-3.524-3.069-96.242-98.474c-11.087-11.344-10.879-29.528 0.465-40.616 10.21-9.978 25.959-10.808 37.09-2.604z"></path>
</svg>
