<svg xmlns="http://www.w3.org/2000/svg" version="1.1" width="1024" height="1024" fill="currentColor" aria-hidden="true" focusable="false">
    <path d="M1017.542498 860.396308a47.261538 47.261538 0 0 1-39.620923 46.631384l-7.640615 0.630154-447.724308 0a155.411692 155.411692 0 0 1-147.928615 104.999385c-68.923077 0-127.606154-43.874462-148.007385-104.999385L103.819422 907.657846a47.261538 47.261538 0 0 1-7.640616-93.892923l7.640616-0.630154 122.88 0a155.411692 155.411692 0 0 1 147.849846-105.078154c68.844308 0 127.606154 43.874462 148.007384 104.999385L970.28096 813.056a47.261538 47.261538 0 0 1 47.261538 47.261538z m0-697.895385a47.261538 47.261538 0 0 1-39.620923 46.631385L970.28096 209.762462l-393.609846 0a155.411692 155.411692 0 0 1-147.928616 105.078153c-68.844308 0-127.606154-43.874462-147.928615-104.999384L103.819422 209.841231a47.261538 47.261538 0 0 1-7.640616-93.971693l7.640616-0.630153L280.813883 115.239385A155.411692 155.411692 0 0 1 428.742498 10.24c68.844308 0 127.606154 43.874462 147.928616 104.999385L970.28096 115.239385a47.261538 47.261538 0 0 1 47.261538 47.261538zM1017.542498 512a47.261538 47.261538 0 0 1-39.620923 46.710154L970.28096 559.261538l-122.88 0a155.411692 155.411692 0 0 1-147.849846 105.078154c-68.923077 0-127.606154-43.874462-148.007385-104.999384L103.819422 559.340308a47.261538 47.261538 0 0 1-7.640616-93.971693L103.819422 464.738462 551.543729 464.738462a155.411692 155.411692 0 0 1 148.007385-104.999385c68.844308 0 127.606154 43.874462 147.928615 104.999385L970.28096 464.738462a47.261538 47.261538 0 0 1 47.261538 47.261538z m-581.947076 348.396308c0-31.586462-26.939077-57.816615-60.967385-57.816616-34.107077 0-61.046154 26.230154-61.046154 57.816616 0 31.507692 26.939077 57.737846 60.967385 57.737846 34.107077 0 61.124923-26.151385 61.124923-57.737846zM489.788652 162.500923c0-31.507692-27.017846-57.737846-61.046154-57.737846s-61.046154 26.230154-61.046153 57.737846c0 31.586462 27.017846 57.816615 61.046153 57.816615S489.788652 194.087385 489.788652 162.500923zM760.597268 512c0-31.507692-27.017846-57.737846-61.046154-57.737846-34.107077 0-61.124923 26.230154-61.124923 57.737846 0 31.586462 27.017846 57.816615 61.124923 57.816615 34.028308 0 60.967385-26.230154 60.967384-57.816615z"></path>
</svg>
