<svg xmlns="http://www.w3.org/2000/svg" version="1.1" width="1024" height="1024" fill="currentColor" aria-hidden="true" focusable="false">
    <path d="M725.333333 533.333333a170.666667 170.666667 0 1 1 0 341.333334H298.666667a170.666667 170.666667 0 1 1 0-341.333334h426.666666z m0 59.733334H298.666667a110.933333 110.933333 0 0 0-6.997334 221.653333L298.666667 814.933333h426.666666a110.933333 110.933333 0 0 0 6.997334-221.653333L725.333333 593.066667z m0 46.933333a64 64 0 1 1 0 128 64 64 0 0 1 0-128z m0 42.666667a21.333333 21.333333 0 1 0 0 42.666666 21.333333 21.333333 0 0 0 0-42.666666z m0-533.333334a170.666667 170.666667 0 1 1 0 341.333334H298.666667a170.666667 170.666667 0 1 1 0-341.333334z m0 59.733334H298.666667l-6.997334 0.213333A110.933333 110.933333 0 0 0 298.666667 430.933333h426.666666l6.997334-0.213333A110.933333 110.933333 0 0 0 725.333333 209.066667z"></path>
    <path d="M320 256a64 64 0 1 0 0 128 64 64 0 0 0 0-128z m0 42.666667a21.333333 21.333333 0 1 1 0 42.666666 21.333333 21.333333 0 0 1 0-42.666666z"></path>
</svg>
