<svg xmlns="http://www.w3.org/2000/svg" version="1.1" width="12" height="12" fill="currentColor" aria-hidden="true" focusable="false">
    <g id="数据面板/ic_刷新" stroke="none" stroke-width="1" fill="none" fill-rule="evenodd"><rect id="矩形" x="0" y="0" width="12" height="12"></rect><g id="撤回" transform="translate(5.986299, 6.000000) scale(-1, 1) translate(-5.986299, -6.000000) translate(-0.094356, 0.500000)" fill="#847DA4" fill-rule="nonzero"><g id="编组-6"><path d="M5.30630599,0 C8.2452976,0 10.612612,2.47014809 10.612612,5.5 C10.612612,5.82553727 10.3439054,6.08943736 10.012439,6.08943736 C9.68097268,6.08943736 9.41226611,5.82553727 9.41226611,5.5 C9.41226611,3.1057942 7.56556542,1.17887473 5.30630599,1.17887473 C3.04704657,1.17887473 1.20034588,3.1057942 1.20034588,5.5 C1.20034588,7.8942058 3.04704657,9.82112527 5.30630599,9.82112527 C6.10184344,9.82112527 6.863056,9.58305506 7.51884154,9.14047926 C7.79202572,8.95611303 8.16566574,9.02415285 8.35338988,9.29245046 C8.54111402,9.56074806 8.47183497,9.92770461 8.19865079,10.1120708 C7.34525914,10.6880068 6.34768318,11 5.30630599,11 C2.36731438,11 0,8.52985191 0,5.5 C0,2.47014809 2.36731438,0 5.30630599,0 Z" id="路径"></path><path d="M10.599994,3.29060133 C10.686384,2.97059083 11.0158367,2.78120399 11.3358472,2.86759399 C11.6238566,2.94534498 11.8060609,3.21997676 11.7766434,3.50741326 L11.7588545,3.60344717 L11.0021714,6.56616646 C10.9088233,6.91195144 10.5402314,7.09276017 10.2167507,6.97364233 L10.1298878,6.93361806 L7.39536658,5.36193564 C7.10603868,5.20019723 7.00260695,4.83453573 7.16434536,4.54520783 C7.30990993,4.28481271 7.6206522,4.17499351 7.89226505,4.27354092 L7.98107317,4.31418661 L10.0442192,5.50996579 L10.599994,3.29060133 Z" id="路径-6" transform="translate(9.433843, 4.928480) rotate(12.000000) translate(-9.433843, -4.928480) "></path></g></g></g>
</svg>
