<svg xmlns="http://www.w3.org/2000/svg" version="1.1" width="18" height="18" fill="currentColor" aria-hidden="true" focusable="false">
    <g id="数据面板/数据类型ic/变量" stroke="none" stroke-width="1" fill="none" fill-rule="evenodd"><rect id="矩形" x="0" y="0" width="18" height="18"></rect><path d="M14.3460655,3.57272727 C14.7004482,3.57272727 14.9933237,3.8360709 15.0396753,4.17774142 L15.0460655,4.27272727 L15.0456492,11.3036409 L15.0366632,11.9617657 L15.0213627,12.3227479 C14.9714186,13.1556132 14.8266282,13.4910853 14.4261315,13.8811524 L14.2834121,14.0110247 C13.9753212,14.2699819 13.6602741,14.3870474 13.058797,14.438659 L12.7598363,14.4581105 L12.4140933,14.4699367 L12.0154619,14.4758078 L10.8607791,14.4773937 C10.4741797,14.4773937 10.1607791,14.1639931 10.1607791,13.7773937 C10.1607791,13.423011 10.4241227,13.1301355 10.7657932,13.0837839 L10.8607791,13.0773937 L11.9791947,13.075828 L12.4949364,13.0663326 L12.7594167,13.0543423 L12.9694735,13.0371087 L13.1328675,13.0140186 C13.2992922,12.9834254 13.3862926,12.9396231 13.4493271,12.8782302 C13.5096687,12.8194599 13.5528316,12.7379985 13.5830513,12.5801513 L13.6058829,12.4248946 L13.6229676,12.2247102 L13.6348983,11.9720841 L13.6456682,11.2794502 L13.6455455,4.97272727 L10.8607791,4.97272727 C10.5063963,4.97272727 10.2135208,4.70938365 10.1671692,4.36771313 L10.1607791,4.27272727 C10.1607791,3.91834456 10.4241227,3.62546904 10.7657932,3.57911745 L10.8607791,3.57272727 L14.3460655,3.57272727 Z M6.93983185,3.57272727 C7.32643118,3.57272727 7.63983185,3.88612795 7.63983185,4.27272727 C7.63983185,4.62710999 7.37648823,4.9199855 7.03481771,4.9663371 L6.93983185,4.97272727 L5.82141622,4.97429301 L5.30567447,4.98378842 L5.04119416,4.99577866 L4.83113744,5.01301225 L4.66774336,5.03610238 C4.50131867,5.06669562 4.4143183,5.11049786 4.35128385,5.17189079 C4.29094217,5.23066107 4.24777926,5.31212246 4.21755961,5.4699697 L4.19472803,5.62522644 L4.17764329,5.82541078 L4.16571264,6.07803688 L4.15618402,6.57174146 L4.15454545,6.98834626 L4.15483185,13.0773937 L6.93983185,13.0773937 C7.29421457,13.0773937 7.58709008,13.3407373 7.63344168,13.6824079 L7.63983185,13.7773937 C7.63983185,14.1317764 7.37648823,14.424652 7.03481771,14.4710036 L6.93983185,14.4773937 L3.45454545,14.4773937 C3.10016274,14.4773937 2.80728722,14.2140501 2.76093563,13.8723796 L2.75454545,13.7773937 L2.75637508,6.52109503 L2.76318148,6.11637729 L2.77694092,5.7674115 C2.82466019,4.90514394 2.96762558,4.56522719 3.37447937,4.16896855 L3.51719886,4.03909632 C3.82528969,3.78013906 4.14033681,3.66307362 4.74181388,3.61146201 L5.04077456,3.59201054 L5.38651761,3.58018427 L5.78514897,3.57431319 L6.93983185,3.57272727 Z M7.82922156,6.34667915 L7.90487078,6.43184541 L8.98954545,7.87172727 L10.1004207,6.45100569 C10.338435,6.14636126 10.7783468,6.09234688 11.0829913,6.33036119 C11.3599407,6.54673784 11.4297579,6.92997193 11.2613395,7.22674649 L11.2036357,7.31293175 L9.86254545,9.02972727 L11.1734714,10.7694249 C11.4061327,11.0781769 11.344449,11.517079 11.035697,11.7497403 C10.7578203,11.9591354 10.3745219,11.9301112 10.1310309,11.6971322 L10.0553817,11.611966 L8.96954545,10.1717273 L7.85983177,11.5928057 C7.62181745,11.8974501 7.18190563,11.9514645 6.87726121,11.7134502 C6.60031173,11.4970735 6.53049452,11.1138394 6.69891299,10.8170649 L6.75661671,10.7308796 L8.09754545,9.01372727 L6.78678107,7.27438645 C6.55411979,6.9656345 6.61580346,6.52673235 6.92455541,6.29407107 C7.20243216,6.08467592 7.58573058,6.11370018 7.82922156,6.34667915 Z" id="形状结合" fill="#FFBB55" fill-rule="nonzero"></path></g>
</svg>
