<svg xmlns="http://www.w3.org/2000/svg" version="1.1" width="1024" height="1024" fill="currentColor" aria-hidden="true" focusable="false">
    <path d="M836.266667 358.4a85.333333 85.333333 0 0 1 85.333333 85.333333v341.333334a85.333333 85.333333 0 0 1-85.333333 85.333333h-597.333334a85.333333 85.333333 0 0 1-85.333333-85.333333v-426.666667h682.666667zM541.866667 512h-8.533334a21.333333 21.333333 0 0 0-21.333333 21.333333l-0.042667 81.066667H430.933333a21.333333 21.333333 0 0 0-21.333333 21.333333v8.533334a21.333333 21.333333 0 0 0 21.333333 21.333333h81.024L512 746.666667a21.333333 21.333333 0 0 0 21.333333 21.333333h8.533334a21.333333 21.333333 0 0 0 21.333333-21.333333l-0.042667-81.066667H644.266667a21.333333 21.333333 0 0 0 21.333333-21.333333v-8.533334a21.333333 21.333333 0 0 0-21.333333-21.333333h-81.109334l0.042667-81.066667a21.333333 21.333333 0 0 0-21.333333-21.333333zM600.405333 179.2a85.333333 85.333333 0 0 1 78.250667 51.2l33.493333 76.8H153.6v-85.333333a42.666667 42.666667 0 0 1 42.666667-42.666667h404.138666z" p-id="4551"></path>
</svg>
