<svg xmlns="http://www.w3.org/2000/svg" version="1.1" width="1024" height="1024" fill="currentColor" aria-hidden="true" focusable="false">
    <path d="M512 448c104.746667 0 189.610667 42.965333 189.610667 96h0.64v305.493333c0 65.28-89.130667 108.373333-190.250667 108.373334-97.536 0-182.954667-40.362667-188.330667-102.144l-0.298666-6.272v-295.552a49.834667 49.834667 0 0 1-0.981334-9.898667c0-53.034667 84.906667-96 189.610667-96z m0 357.888c-51.029333 0-95.786667-8.96-128.938667-25.728l0.042667 69.290667c0 20.778667 56.917333 48.682667 128.896 48.682666 69.248 0 125.610667-25.898667 130.218667-46.08l0.298666-2.56v-69.717333c-33.536 16.981333-78.933333 26.112-130.517333 26.112zM512 640c-49.792 0-95.104-9.728-128.938667-25.6l0.042667 81.664c0 25.216 49.237333 50.090667 128.896 50.090667 76.629333 0 126.250667-23.125333 130.261333-46.933334l0.256-3.157333v-82.432c-33.962667 16.341333-79.914667 26.368-130.517333 26.368z m0-584.533333c130.645333 0 243.072 83.2 276.096 199.338666l2.261333 8.618667 9.301334 2.645333c95.573333 28.842667 164.309333 111.488 168.661333 208.810667l0.213333 9.813333c0 110.805333-83.626667 204.714667-196.906666 225.322667a29.866667 29.866667 0 1 1-10.709334-58.752c85.674667-15.573333 147.882667-85.461333 147.882667-166.613333 0-81.493333-62.762667-151.594667-148.906667-166.741334a29.866667 29.866667 0 0 1-24.32-24.618666C719.018667 191.829333 624.512 115.2 512 115.2c-122.112 0-220.928 89.6-225.962667 199.509333l-0.170666 9.813334a29.866667 29.866667 0 0 1-26.752 31.189333c-81.92 8.448-143.914667 72.832-143.914667 148.906667 0 74.666667 59.733333 138.24 139.776 148.437333a29.866667 29.866667 0 0 1-7.552 59.221333C138.368 698.453333 55.466667 610.218667 55.466667 504.618667c0-98.090667 71.466667-180.906667 168.618666-203.52l3.2-0.682667 0.426667-4.266667c14.933333-132.522667 131.498667-235.776 274.048-240.512L512 55.466667z m0 452.266666c-75.989333 0-129.877333 27.306667-129.877333 36.266667h0.981333v2.474667c7.68 10.666667 58.88 33.792 128.896 33.792 75.989333 0 129.877333-27.306667 129.877333-36.266667 0-8.96-53.888-36.266667-129.877333-36.266667z"></path>
</svg>
