<svg xmlns="http://www.w3.org/2000/svg" version="1.1" width="1024" height="1024" fill="currentColor" aria-hidden="true" focusable="false">
    <path d="M787.781818 466.571636l24.994909 25.041455 25.041455-25.041455-25.041455-24.994909-24.994909 24.994909zM186.181818 749.707636a35.374545 35.374545 0 1 0 70.749091 0H186.181818z m474.717091-106.123636l151.877818-151.691636a35.374545 35.374545 0 1 0-50.036363-50.036364l-151.877819 151.645091a35.374545 35.374545 0 1 0 50.036364 50.036364z m151.877818-202.379636l-151.877818-151.598546a35.421091 35.421091 0 0 0-50.036364 50.082909l151.877819 151.552a35.421091 35.421091 0 0 0 50.036363-50.036363z m-24.994909-10.007273H433.896727v70.749091h353.885091v-70.749091zM186.181818 678.912v70.749091h70.749091v-70.749091H186.181818z m247.714909-247.714909A247.714909 247.714909 0 0 0 186.181818 678.912h70.749091c0-97.745455 79.266909-176.919273 176.965818-176.919273V431.197091z" fill="#847DA4"></path>
</svg>
