<svg xmlns="http://www.w3.org/2000/svg" version="1.1" width="1024" height="1024" fill="currentColor" aria-hidden="true" focusable="false">
    <path d="M184.448 119.808a73.984 73.984 0 0 1 104.618667 0L417.28 247.978667a78.250667 78.250667 0 0 1 0 110.677333l-47.36 47.274667 5.973333 11.52a563.584 563.584 0 0 0 230.698667 230.656l11.477333 5.973333 47.36-47.317333a78.250667 78.250667 0 0 1 105.386667-4.821334l5.248 4.821334 128.170667 128.170666a73.984 73.984 0 0 1 0 104.618667 294.656 294.656 0 0 1-385.109334 27.392l-76.245333-57.173333a1142.784 1142.784 0 0 1-228.608-228.608l-57.173333-76.245334a294.613333 294.613333 0 0 1 27.392-385.109333z m62.378667 42.24a14.250667 14.250667 0 0 0-20.138667 0 234.88 234.88 0 0 0-21.845333 307.029333l57.173333 76.245334a1083.050667 1083.050667 0 0 0 216.661333 216.661333l76.245334 57.173333a234.88 234.88 0 0 0 307.029333-21.845333 14.250667 14.250667 0 0 0 0-20.138667l-128.170667-128.170666a18.517333 18.517333 0 0 0-26.197333 0l-49.408 49.408a55.68 55.68 0 0 1-64.256 10.453333 623.317333 623.317333 0 0 1-278.784-278.784 55.68 55.68 0 0 1 10.453333-64.256l49.408-49.408a18.517333 18.517333 0 0 0 0-26.197333z m345.344 133.973333c40.490667 11.008 72.192 30.421333 94.08 58.368 20.138667 25.642667 33.792 51.797333 40.704 78.506667a29.866667 29.866667 0 1 1-57.813334 14.976c-4.693333-18.218667-14.592-37.12-29.866666-56.618667-13.482667-17.194667-34.048-29.781333-62.762667-37.546666a29.866667 29.866667 0 1 1 15.658667-57.685334z m46.933333-166.997333c69.717333 20.309333 129.194667 59.434667 177.92 116.821333 49.28 57.984 75.562667 122.752 78.293333 193.365334a29.866667 29.866667 0 0 1-59.690666 2.304c-2.176-56.96-23.338667-108.970667-64.085334-157.013334-41.258667-48.554667-90.794667-81.109333-149.205333-98.133333a29.866667 29.866667 0 1 1 16.725333-57.344z"></path>
</svg>
