<svg xmlns="http://www.w3.org/2000/svg" version="1.1" width="880" height="1024" fill="currentColor" aria-hidden="true" focusable="false">
    <path d="M217.7536 947.2a76.8 76.8 0 0 1-74.9568-92.672c11.8272-55.6032 20.7872-111.0016 26.9312-166.144l1.9968-18.432 3.2768-34.816c2.048-23.3984 3.3792-44.6976 4.1472-63.9488l-1.6896 1.024c-7.68 4.7616-16.3328 7.936-25.3952 9.5232a76.8 76.8 0 0 1-88.832-62.464l-7.6288-43.776a76.3904 76.3904 0 0 1 39.424-80.64c28.7744-15.4624 56.832-31.744 84.224-48.8448L179.2 153.6a25.6 25.6 0 0 1 20.992-25.1904L204.8 128h128a25.6 25.6 0 0 1 25.1904 20.992L358.4 153.6v60.5696a2158.08 2158.08 0 0 0 100.352-91.392 76.8 76.8 0 0 1 106.496 0.0512 1893.376 1893.376 0 0 0 181.2992 154.0608c64.1536 47.9232 124.928 87.1424 182.0672 117.5552 30.4128 15.9744 46.3872 50.176 39.2192 83.8144l-9.3696 43.776a76.8 76.8 0 0 1-114.688 49.7152l1.8944 1.024 1.0752 19.456 2.2016 29.184 2.9696 32 3.6352 34.9696c6.4 57.1904 15.104 112.7424 26.112 166.656a76.8 76.8 0 0 1-59.8528 90.624l-7.5776 1.1264-7.68 0.4096h-588.8z m294.4-627.2512l-21.1968 21.504a1263.4624 1263.4624 0 0 1-140.6464 119.7568 1666.56 1666.56 0 0 1-119.296 79.4624c0 19.2512-0.8704 40.96-2.4064 64.9728l-2.56 33.28-3.3792 36.0448a1756.7744 1756.7744 0 0 1-29.7984 190.2592 25.6 25.6 0 0 0 20.3776 30.3616l4.608 0.4096h140.4928L358.4 614.4a76.8 76.8 0 0 1 69.4272-76.4416L435.2 537.6h153.6A76.8 76.8 0 0 1 665.6 614.4l-0.0512 281.6h140.9536a25.6 25.6 0 0 0 25.0368-30.72 1890.0992 1890.0992 0 0 1-26.8288-171.264l-3.7888-35.9936-3.072-33.1776a1830.2464 1830.2464 0 0 1-1.2288-15.4624l-1.8944-28.8768c-0.512-9.1648-0.8704-17.8176-1.1264-26.0096l-0.3072-13.9776a2004.5312 2004.5312 0 0 1-114.9952-79.36c-63.7952-47.4112-119.2448-94.5152-166.0928-141.2096zM588.8 588.8h-153.6a25.6 25.6 0 0 0-25.6 25.6v281.6h204.8V614.4a25.6 25.6 0 0 0-20.992-25.1904l-4.608-0.4096z m-59.0848-429.056a25.6 25.6 0 0 0-35.4816 0l-23.552 22.4256a1946.3168 1946.3168 0 0 1-137.728 118.784l-22.1184 16.896a1513.7792 1513.7792 0 0 1-191.744 122.2144 25.2416 25.2416 0 0 0-13.056 26.624l7.6288 43.776a25.6 25.6 0 0 0 29.5936 20.8384 22.016 22.016 0 0 0 8.0896-3.072A1759.744 1759.744 0 0 0 320 419.8912a1201.408 1201.408 0 0 0 155.3408-135.5776 51.3024 51.3024 0 0 1 72.8064-0.8704c45.2096 45.056 98.816 90.5216 160.6656 136.5504 51.712 38.4 105.472 74.3424 161.3312 107.8272a25.6 25.6 0 0 0 38.2976-16.5888l9.3184-43.7248a25.4464 25.4464 0 0 0-13.056-27.8528c-59.6992-31.744-122.624-72.3968-188.7744-121.856a1944.32 1944.32 0 0 1-186.2144-158.1056z m-222.5664 19.456H230.4l0.1024 133.3248a1430.6816 1430.6816 0 0 0 76.6976-56.3712V179.2z"></path>
</svg>
