<svg xmlns="http://www.w3.org/2000/svg" version="1.1" width="1024" height="1024" fill="currentColor" aria-hidden="true" focusable="false">
    <path d="M230.08 787.392l13.632-0.192c62.976-2.048 109.824-18.56 140.544-49.536 30.72-30.976 46.592-71.808 47.616-122.496a149.44 149.44 0 0 0-6.528-50.688c-4.864-14.848-12.8-28.16-23.808-39.936a195.648 195.648 0 0 0-41.856-33.024 537.408 537.408 0 0 0-59.904-30.72 901.568 901.568 0 0 0-31.104-13.056 200.768 200.768 0 0 1-33.024-16.896 110.848 110.848 0 0 1-26.496-23.04 46.848 46.848 0 0 1-10.752-30.72 56.96 56.96 0 0 1 4.608-21.888 66.432 66.432 0 0 1 32.256-34.56 57.6 57.6 0 0 1 26.112-5.76c8.704 0 17.28 1.28 25.728 3.84 8.448 2.56 16.384 5.632 23.808 9.216 7.424 3.584 14.464 7.552 21.12 11.904l12.288 8.192 5.376 3.712c3.584 3.072 8.192 5.12 13.824 6.144a43.776 43.776 0 0 0 17.28-0.384 53.568 53.568 0 0 0 16.896-6.912 42.112 42.112 0 0 0 13.44-13.44 39.04 39.04 0 0 0 2.688-35.712c-4.864-12.544-14.08-24.192-27.648-34.944a174.336 174.336 0 0 0-51.072-26.88 214.976 214.976 0 0 0-66.816-11.52 204.544 204.544 0 0 0-63.36 8.448c-20.736 6.144-39.296 15.36-55.68 27.648a139.264 139.264 0 0 0-39.552 46.464 135.68 135.68 0 0 0-14.976 64.896c0 23.04 4.096 43.008 12.288 59.904s19.2 31.488 33.024 43.776c13.824 12.288 30.08 22.912 48.768 31.872 18.688 8.96 38.784 17.28 60.288 24.96 7.68 2.56 16.256 6.144 25.728 10.752 9.472 4.608 18.176 10.368 26.112 17.28 7.936 6.912 14.72 14.976 20.352 24.192a60.608 60.608 0 0 1 8.448 32.256c0 12.8-2.304 24.192-6.912 34.176a72.96 72.96 0 0 1-18.432 24.96 89.216 89.216 0 0 1-56.832 20.736c-12.288 0-23.68-1.536-34.176-4.608a169.856 169.856 0 0 1-29.952-11.904 233.408 233.408 0 0 1-26.88-16.128 1419.072 1419.072 0 0 0-24.192-16.512 40.64 40.64 0 0 0-28.032-6.528c-9.984 1.28-18.56 7.552-25.728 18.816a36.288 36.288 0 0 0-6.528 20.736 61.248 61.248 0 0 0 4.992 25.344c3.584 8.704 9.344 17.28 17.28 25.728 7.936 8.448 18.56 16 31.872 22.656 14.848 7.68 32.384 14.72 52.608 21.12 20.224 6.4 41.856 9.088 64.896 8.064l-13.632 0.192z m401.28-4.032c15.36-0.512 29.632-2.176 42.688-4.992 13.056-2.816 24.448-7.168 34.176-13.056 9.728-5.888 17.408-13.568 23.04-23.04 5.632-9.472 8.448-21.376 8.448-35.712 0-14.336-3.584-23.68-10.752-28.032-7.168-4.352-15.36-4.48-24.576-0.384a309.824 309.824 0 0 0-26.112 13.056 56.512 56.512 0 0 1-27.648 7.68c-9.728 0-17.536-1.024-23.424-3.072a24.128 24.128 0 0 1-13.44-11.136 57.216 57.216 0 0 1-6.144-21.888 331.008 331.008 0 0 1-1.536-35.328V455.424h76.8c19.456 0 32.256-3.968 38.4-11.904 6.144-7.936 8.96-19.328 8.448-34.176-0.512-14.848-3.456-25.728-8.832-32.64-5.376-6.912-17.024-10.368-34.944-10.368H606.08v-48.384c0-13.312-2.56-23.424-7.68-30.336-5.12-6.912-18.432-10.368-39.936-10.368-20.992 0-34.432 4.096-40.32 12.288-5.888 8.192-8.832 20.48-8.832 36.864v39.936h-33.024c-13.312 0-22.272 3.328-26.88 9.984-4.608 6.656-6.912 17.664-6.912 33.024 0 14.848 2.432 26.24 7.296 34.176 4.864 7.936 14.464 11.904 28.8 11.904h30.72v219.648c0 22.528 3.2 40.832 9.6 54.912 6.4 14.08 15.104 25.216 26.112 33.408s23.936 13.696 38.784 16.512c14.848 2.816 30.72 3.968 47.616 3.456z m192.64 0c13.888 0 25.28-3.2 34.24-9.6 8.96-6.4 13.44-13.952 13.44-22.656V571.392c0-18.944 2.176-36.608 6.528-52.992 4.352-16.384 11.008-30.464 19.968-42.24 8.96-11.776 20.224-20.992 33.792-27.648 13.568-6.656 29.312-9.984 47.232-9.984 12.288 0 21.632-3.328 28.032-9.984 6.4-6.656 9.6-19.712 9.6-39.168a62.72 62.72 0 0 0-1.152-11.52 28.8 28.8 0 0 0-4.992-11.52 32 32 0 0 0-10.752-9.216 37.952 37.952 0 0 0-18.432-3.84c-14.848 0-28.032 3.2-39.552 9.6-11.52 6.4-21.76 14.336-30.72 23.808-8.96 9.472-16.64 19.584-23.04 30.336-6.4 10.752-11.904 20.736-16.512 29.952v-53.76c0-9.216-4.48-16.896-13.44-23.04a57.728 57.728 0 0 0-33.408-9.216 61.44 61.44 0 0 0-34.176 9.216c-9.472 6.144-14.208 13.824-14.208 23.04v357.888c0 8.192 4.48 15.616 13.44 22.272 8.96 6.656 20.352 9.984 34.176 9.984z"></path>
</svg>
