<svg xmlns="http://www.w3.org/2000/svg" version="1.1" width="1024" height="1024" fill="currentColor" aria-hidden="true" focusable="false">
    <path d="M512 32a480 480 0 1 1 0 960A480 480 0 0 1 512 32z m242.33142844 231.56571469a61.71428531 61.71428531 0 0 0-87.29142844 1.50857062L513.85142844 423.68 360.59428531 265.07428531l-6.17142843-5.62285687a61.71428531 61.71428531 0 0 0-82.62857157 91.33714312l156.20571469 161.76-141.94285687 147.15428532-5.48571469 6.37714312A61.71428531 61.71428531 0 0 0 374.85714312 745.41714312l138.99428532-144.06857156 139.06285687 144 6.24 5.69142844a61.71428531 61.71428531 0 0 0 82.56-91.33714313L599.63428531 512.54857156l156.20571469-161.76 5.48571469-6.37714312a61.71428531 61.71428531 0 0 0-6.99428625-80.91428532z" fill="#FF5151"></path>
</svg>
