<svg xmlns="http://www.w3.org/2000/svg" version="1.1" width="1024" height="1024" fill="currentColor" aria-hidden="true" focusable="false">
    <path d="M592.448 586.944a53.056 53.056 0 0 0-74.944 75.008l41.472 41.472h-212.48a176.832 176.832 0 0 1-176.64-176.64c0-40.512 11.648-80.128 33.472-114.24a52.928 52.928 0 1 0-89.024-57.28c-32.896 51.2-50.368 110.72-50.304 171.52a282.88 282.88 0 0 0 282.496 282.56H553.6l-36.608 36.544a53.056 53.056 0 0 0 75.008 74.816l129.088-129.088a52.864 52.864 0 0 0 0-74.816L592.448 586.944z m85.056-360.192H435.2l48.064-48.128A53.056 53.056 0 0 0 408.32 103.872L279.232 232.96a52.864 52.864 0 0 0 0 74.816L408.32 436.864a53.056 53.056 0 0 0 74.944-74.816l-29.44-29.44h223.68a176.832 176.832 0 0 1 176.64 176.64c0 41.6-12.288 82.24-35.328 116.864a53.056 53.056 0 0 0 44.288 81.92c17.728 0 34.304-8.96 44.032-23.808 34.56-51.84 52.928-112.64 52.864-174.976a282.88 282.88 0 0 0-282.496-282.496z"></path>
</svg>
