<svg xmlns="http://www.w3.org/2000/svg" version="1.1" width="1152" height="1024" fill="currentColor" aria-hidden="true" focusable="false">
    <path d="M445.696 75.392a64 64 0 0 1 81.664 7.296l7.296 8.96a64 64 0 0 1-7.296 81.664L188.544 512 527.36 850.688l7.296 8.96a64 64 0 0 1-97.792 81.664l-384-384-7.424-8.96a64 64 0 0 1 7.424-81.664l384-384z m576 0a64 64 0 0 1 81.664 7.296l7.296 8.96a64 64 0 0 1-7.296 81.664L764.544 512 1103.36 850.688l7.296 8.96a64 64 0 0 1-97.792 81.664l-384-384-7.424-8.96a64 64 0 0 1 7.424-81.664l384-384z"></path>
</svg>
