<svg xmlns="http://www.w3.org/2000/svg" version="1.1" width="1024" height="1024" fill="currentColor" aria-hidden="true" focusable="false">
    <path d="M589.226667 162.176l13.226666 0.128 24.832 0.384 22.613334 0.64 10.581333 0.426667 19.626667 1.152c68.693333 4.821333 101.12 17.450667 131.370666 47.616l3.626667 3.754666c22.528 23.594667 34.389333 47.36 40.533333 91.776l1.706667 14.762667 1.408 16.213333 0.597333 8.746667 0.938667 18.773333 0.682667 20.693334 0.64 34.858666 0.213333 25.984v113.92l-0.213333 40.96-0.682667 35.669334-0.725333 21.077333-1.024 19.114667-0.64 8.874666-0.981334 10.624 0.042667 0.256h-0.085333l-0.426667 5.546667c-5.546667 51.072-17.066667 76.842667-40.448 101.973333l-5.162667 5.376-3.754666 3.626667c-23.594667 22.528-47.36 34.389333-91.776 40.533333l-14.762667 1.706667-16.213333 1.408-8.746667 0.597333-18.773333 0.938667-20.693334 0.682667-34.858666 0.64-25.984 0.213333h-113.92l-40.96-0.213333-35.669334-0.682667-21.077333-0.725333-19.114667-1.024-8.874666-0.64-16.426667-1.493334c-54.698667-5.888-80.426667-18.645333-107.349333-45.568-26.026667-26.026667-38.912-53.717333-45.141334-104.746666H166.826667l-0.085334-2.048-0.256-6.016a630.954667 630.954667 0 0 1-2.218666-28.16l-0.938667-20.608-0.384-11.093334-0.512-23.68-0.256-25.984v-140.458666l0.128-27.136 0.384-24.832 0.64-22.613334 0.426667-10.538666 1.152-19.669334c4.821333-68.693333 17.408-101.12 47.616-131.370666 31.573333-31.573333 65.664-43.861333 140.970666-48.213334l20.608-0.981333 11.093334-0.384 23.68-0.512 25.984-0.256z m-211.328 326.613333l-1.834667 0.256-1.92 0.426667-4.138667 1.536a49.92 49.92 0 0 0-6.485333 3.669333l-3.754667 2.602667-6.528 5.077333-7.68 6.528-2.090666 1.92-2.176 2.005334-9.770667 9.088-17.706667 17.237333-27.306666 27.306667-21.674667 22.101333-7.850667 8.32-6.186666 7.04-1.322667 1.578667-1.28 1.536-4.309333 5.589333-3.413334 5.12-0.768 1.28-0.725333 1.194667-2.602667 4.992a112.426667 112.426667 0 0 0-5.034666 12.074666l-2.005334 6.229334-1.365333 5.461333-0.554667 2.816-0.896 6.101333-0.554666 7.04-0.213334 8.533334 0.085334 10.325333 0.298666 9.514667 0.128 1.152 1.706667 13.184c4.864 30.976 13.098667 47.914667 26.794667 61.610666l2.517333 2.389334c1.706667 1.578667 3.413333 3.072 5.205333 4.48l5.546667 4.053333c9.685333 6.4 21.461333 10.965333 38.272 14.250667l10.709333 1.792 5.888 0.810666 12.8 1.365334 6.954667 0.597333 15.146667 1.024 16.938666 0.768 29.013334 0.810667 33.706666 0.426666 110.08 0.128 38.954667-0.128 33.749333-0.426666 19.84-0.469334 17.877334-0.682666 16.042666-0.896 14.336-1.152 6.570667-0.64 12.074667-1.536 10.666666-1.792c15.189333-2.986667 26.24-6.997333 35.328-12.373334l5.802667-3.84c3.712-2.688 7.125333-5.674667 10.453333-8.96l2.389334-2.517333 2.304-2.56 4.266666-5.376c7.381333-10.154667 12.586667-22.613333 16.213334-41.088l1.792-10.709333 0.810666-5.888 0.170667-1.834667-0.981333 0.042667-0.768-2.176a112.213333 112.213333 0 0 0-2.986667-7.509334l-3.584-7.253333-2.773333-4.821333-3.2-4.778667-0.896-1.237333-0.938667-1.28-4.352-5.205334-5.461333-5.930666-6.826667-6.826667-13.354667-12.672-25.130666-22.869333-29.397334-26.197334-11.349333-9.472-5.802667-4.394666-4.693333-3.157334-3.882667-2.090666-3.413333-1.28-1.621333-0.426667a41.216 41.216 0 0 0-20.053334 0.554667 29.098667 29.098667 0 0 0-8.533333 4.138666l-3.541333 2.56-5.632 4.693334-11.008 10.112-33.621334 33.194666-10.026666 9.6c-13.226667 12.202667-20.650667 16.938667-30.848 20.010667l-4.565334 1.194667-2.133333 0.469333-3.626667 0.597333c-13.781333 1.706667-27.733333-0.938667-39.893333-7.68-10.922667-6.058667-17.066667-11.733333-24.490667-25.258666l-3.285333-6.272-5.290667-11.178667-27.818666-63.744-6.272-13.568-3.541334-7.125333-4.778666-8.746667-3.072-5.12c-5.546667-8.746667-9.856-13.098667-13.909334-15.146667a41.258667 41.258667 0 0 0-21.930666-4.266666zM588.288 221.866667h-152.533333l-24.192 0.256-31.957334 0.768-18.602666 0.810666-16.64 1.066667-14.805334 1.450667-13.184 1.706666c-30.976 4.864-47.914667 13.098667-61.610666 26.794667l-2.645334 2.816c-12.117333 13.226667-19.626667 29.866667-24.106666 58.794667l-1.749334 13.184-1.450666 14.805333-1.066667 16.64-0.853333 18.602667-0.725334 31.914666-0.256 24.192-0.085333 111.36 3.285333-3.413333 11.861334-12.117333 27.818666-27.904 22.272-21.888 12.672-11.989334 11.306667-10.112c22.4-19.285333 37.248-27.008 55.552-29.653333l6.272-0.725333 7.936-0.384a101.12 101.12 0 0 1 45.781333 10.709333c12.842667 6.442667 23.338667 16.128 32.938667 29.610667l4.693333 7.082666 3.925334 6.4 5.333333 9.6 5.76 11.477334 9.216 20.138666 21.12 48.64 7.04 15.616 3.669333 7.253334 0.938667 1.493333c1.066667 0.597333 2.304 0.853333 3.072 0.682667l0.384-0.213334 0.426667-0.256 2.389333-1.834666 6.272-5.546667 10.282667-9.856 15.872-15.786667 12.8-12.629333 10.965333-10.325333c18.602667-17.066667 29.994667-23.978667 45.994667-28.416 16-4.48 32.853333-4.906667 49.066666-1.28 13.226667 2.944 22.656 6.997333 36.437334 17.237333l6.229333 4.778667 10.24 8.533333 12.16 10.538667 30.208 27.136 20.522667 18.773333 7.168 6.826667 0.298666-18.773334 0.128-110.08-0.128-38.912-0.426666-33.749333-0.469334-19.84-0.682666-17.877333-0.896-16.042667-1.152-14.336a422.912 422.912 0 0 0-0.64-6.570667l-1.536-12.074666-1.792-10.666667c-3.285333-16.853333-7.893333-28.629333-14.250667-38.314667l-4.053333-5.546666a90.368 90.368 0 0 0-6.869334-7.68l-2.816-2.688c-13.226667-12.117333-29.866667-19.626667-58.794666-24.106667l-13.184-1.749333-14.805334-1.450667-16.64-1.066667-18.602666-0.853333-31.914667-0.725333-24.192-0.256zM672 273.066667a78.933333 78.933333 0 1 1 0 157.866666 78.933333 78.933333 0 0 1 0-157.866666z m0 51.2a27.733333 27.733333 0 1 0 0 55.466666 27.733333 27.733333 0 0 0 0-55.466666z"></path>
</svg>
