<svg xmlns="http://www.w3.org/2000/svg" version="1.1" width="1024" height="1024" fill="currentColor" aria-hidden="true" focusable="false">
    <path d="M767.3856 651.502933a30.72 30.72 0 0 1 3.857067 61.201067l-3.857067 0.238933h-195.037867a30.72 30.72 0 0 1-3.857066-61.201066l3.857066-0.238934h195.037867z m-3.413333-379.938133a30.72 30.72 0 0 1 1.4336 40.379733l-2.8672 3.037867-416.5632 389.666133a30.72 30.72 0 0 1-44.817067-41.813333l2.8672-3.072L720.554667 270.1312a30.72 30.72 0 0 1 43.4176 1.4336z m3.413333 282.4192a30.72 30.72 0 0 1 3.857067 61.201067l-3.857067 0.238933h-195.037867a30.72 30.72 0 0 1-3.857066-61.201067l3.857066-0.238933h195.037867zM369.493333 254.634667a30.72 30.72 0 0 1 30.481067 26.897066l0.238933 3.857067v78.984533h78.984534a30.72 30.72 0 0 1 3.857066 61.201067l-3.857066 0.238933h-78.984534v78.984534a30.72 30.72 0 0 1-61.201066 3.857066l-0.238934-3.857066v-78.984534H259.754667a30.72 30.72 0 0 1-3.857067-61.201066l3.857067-0.238934h78.984533V285.354667a30.72 30.72 0 0 1 30.72-30.72z"></path>
</svg>
