<svg xmlns="http://www.w3.org/2000/svg" version="1.1" width="1024" height="1024" fill="currentColor" aria-hidden="true" focusable="false">
    <path d="M512 0c282.752 0 512 229.248 512 512s-229.248 512-512 512S0 794.752 0 512 229.248 0 512 0zM337.834667 300.8a26.538667 26.538667 0 0 0-34.218667 40.362667L474.453333 512l-170.88 170.837333-2.816 3.328a26.538667 26.538667 0 0 0 40.362667 34.218667L512 549.546667l170.837333 170.88 3.328 2.816a26.538667 26.538667 0 0 0 34.218667-40.362667L549.546667 512l170.88-170.837333 2.816-3.328a26.538667 26.538667 0 0 0-40.362667-34.218667L512 474.453333 341.162667 303.616z"></path>
</svg>
