<svg xmlns="http://www.w3.org/2000/svg" version="1.1" width="1024" height="1024" fill="currentColor" aria-hidden="true" focusable="false">
    <path d="M512.213333 119.466667l12.8 0.341333a260.352 260.352 0 0 1 88.106667 20.053333l4.224 1.92 15.488 7.253334a257.536 257.536 0 0 1 73.301333 57.813333l3.242667 3.882667 10.709333 13.312c15.786667 21.76 27.904 45.824 36.010667 71.381333l3.712 12.928 2.816 12.245333 2.133333 11.818667 0.426667 3.541333h0.170667l0.341333 3.072 2.432 0.085334c93.610667 4.352 169.386667 75.648 178.218667 166.101333l0.64 8.832 0.213333 9.130667-0.213333 8.96c-4.778667 94.848-82.645333 170.24-178.901334 174.677333l-9.088 0.213333-18.346666-0.128c-1.578667 0-2.986667-0.085333-4.394667-0.128l-3.925333-0.213333a89.813333 89.813333 0 0 1-16.768-2.517333l-0.085334 0.213333-2.005333-0.768-2.986667-0.981333-9.514666-3.797334 0.085333-0.426666a73.984 73.984 0 0 1-27.605333-24.32l-3.2-5.205334-0.469334 0.213334-3.328-7.765334-3.754666-7.765333 0.981333-0.426667-1.152-5.12-0.853333-5.418666-0.512-5.632-0.469334-15.274667v-117.333333l-0.256-3.157334a13.653333 13.653333 0 0 0-10.88-10.752l-2.816-0.256-268.714666-0.042666-3.328 0.256a13.653333 13.653333 0 0 0-11.093334 10.496l-0.256 2.688-0.042666 120.32-0.256 9.216a85.461333 85.461333 0 0 1-2.730667 20.053333l0.597333 0.170667-6.656 15.744-0.426666-0.213334a75.093333 75.093333 0 0 1-24.618667 25.984l-6.4 3.712-14.08 6.528-0.341333-0.981333-5.290667 1.194667-5.717333 0.853333-8.362667 0.682667-17.664 0.298666h-6.570667l-9.173333-0.213333c-96.853333-4.650667-173.994667-80.725333-178.602667-175.146667l-0.213333-8.917333 0.213333-8.96c4.778667-94.848 82.645333-170.24 175.36-173.824l5.802667-0.128 0.426667-3.84 0.682666-3.754667 2.133334-11.904 2.816-12.202666a247.296 247.296 0 0 1 37.418666-80.64l2.432-3.413334-0.128-0.085333 10.538667-13.44c17.493333-20.565333 38.144-38.4 61.354667-52.650667l11.818666-6.869333 3.584-1.877333-0.042666-0.170667 7.850666-3.797333 7.424-3.84a269.568 269.568 0 0 1 78.976-20.522667l13.738667-1.066667 13.013333-0.298666z m-0.256 60.928l-11.093333 0.341333c-18.474667 1.024-36.693333 4.693333-54.101333 10.752l-10.325334 3.925333-10.112 4.522667a193.493333 193.493333 0 0 0-53.333333 37.973333l-7.466667 7.893334-7.168 8.618666c-13.525333 17.237333-23.893333 36.565333-30.634666 57.002667l-3.029334 10.325333-2.517333 10.581334-1.621333 8.96-2.218667 17.664H317.866667c-5.205333 19.498667-20.906667 35.157333-41.386667 39.68l-5.717333 0.896-5.546667 0.298666-7.424 0.213334c-64.085333 3.498667-114.944 53.504-118.784 115.2l-0.213333 7.466666 0.170666 7.253334c3.584 62.464 54.784 112.213333 118.314667 115.925333l7.68 0.213333h11.178667l8.277333-0.213333 6.826667-0.512 1.578666-0.298667 1.493334-0.554666a16.938667 16.938667 0 0 0 3.541333-2.816l1.152-1.493334 1.365333-2.56 0.426667-2.517333 0.469333-8.704 0.085334-15.701333 0.853333-57.386667 105.813333-83.114667 205.098667-0.298666 108.373333 83.413333 1.28 74.496 0.426667 6.954667 0.384 2.730666a13.653333 13.653333 0 0 0 5.162667 6.272l2.432 1.28 2.816 0.426667 5.589333 0.426667 8.234667 0.128h10.965333l7.424-0.170667c64.085333-3.498667 114.944-53.504 118.784-115.2l0.213333-7.466667-0.170666-7.253333c-3.584-62.549333-54.912-112.298667-119.04-115.925333l-7.466667-0.213334-5.76-0.341333a54.869333 54.869333 0 0 1-46.634667-40.533333h-0.64l-1.408-12.928-0.597333-4.266667-1.578667-8.96-2.56-10.837333a186.794667 186.794667 0 0 0-27.221333-58.752l-6.485333-8.789334-7.04-8.405333c-12.032-13.653333-26.026667-25.6-41.472-35.285333l-9.386667-5.589334-10.069333-5.205333a197.205333 197.205333 0 0 0-63.317334-18.261333l-11.008-0.938667L512 180.394667z"></path><path d="M601.813333 427.264h-179.626666a119.68 119.68 0 0 0-119.722667 119.722667v259.2A119.68 119.68 0 0 0 422.186667 925.866667h179.626666a119.68 119.68 0 0 0 119.722667-119.68V546.986667a119.68 119.68 0 0 0-119.722667-119.722667z m-179.626666 59.733333h179.626666c33.109333 0 59.989333 26.88 59.989334 59.989334v259.2c0 33.109333-26.88 59.946667-59.989334 59.946666h-179.626666c-33.109333 0-59.989333-26.88-59.989334-59.946666V546.986667c0-33.152 26.88-59.989333 59.989334-59.989334z"></path><path d="M534.442667 646.698667a29.866667 29.866667 0 0 1 4.053333 59.477333l-4.053333 0.256h-44.885334a29.866667 29.866667 0 0 1-4.053333-59.434667l4.053333-0.298666h44.885334z"></path>
</svg>
