<svg xmlns="http://www.w3.org/2000/svg" version="1.1" width="1024" height="1024" fill="currentColor" aria-hidden="true" focusable="false">
    <path d="M936.73333372 512.5000001l-94.35000058 115.75000019a35.30000039 35.30000039 0 0 1-25.2500001 10.8500001 35.30000039 35.30000039 0 0 1-25.2500001-10.8500001l-102.24999932-115.80000029a38.1999999 38.1999999 0 0 1 0-52.44999961 34.7500002 34.7500002 0 0 1 50.49999932 0l41.25000058 52.39999951V512c0-179.70000029-140.4500001-325.8-313.30000019-325.8-172.7499999 0-313.3000002 146.09999971-313.3000002 325.8 0 179.6500002 140.55000029 325.7499999 313.3000002 325.7499999 83.7 0 162.3999999-33.90000029 221.69999971-95.4a34.65 34.65 0 0 1 50.4 0 38.09999971 38.09999971 0 0 1 0 52.40000039C667.53333352 870.40000039 570.83333362 911.9999999 468.08333333 911.9999999 255.88333372 911.9499998 83.33333333 732.5500001 83.33333333 512c0-220.5 172.55000039-399.9999999 384.75-399.9999999 212.15000039 0 384.75 179.4499998 384.75 399.9999999v0.3999999l33.40000019-52.39999951a34.7500002 34.7500002 0 0 1 50.5000002 0 38.09999971 38.09999971 0 0 1 0 52.49999971z m-326.20000078 36.8499999l-202.09999922 126.5000001a49.25000039 49.25000039 0 0 1-67.5-15.10000049 48.15 48.15 0 0 1-7.60000078-25.89999961v-253.0000002c0-26.79999961 21.89999971-48.49999981 49.00000078-48.4999998 9.20000039 0 18.29999971 2.59999981 26.1 7.49999971l202.09999922 126.5000001a48.2000001 48.2000001 0 0 1 0 82.00000019z"></path>
</svg>
