<svg xmlns="http://www.w3.org/2000/svg" version="1.1" width="1024" height="1024" fill="currentColor" aria-hidden="true" focusable="false">
    <path d="M512 98.133333c143.914667 0 266.837333 99.882667 301.653333 237.781334l2.56 10.965333 9.301334 2.730667c105.6 33.450667 181.12 131.669333 185.472 246.528l0.213333 10.496c0 145.237333-113.066667 263.808-254.848 268.970666l-9.685333 0.213334-164.352-0.042667 40.746666 42.154667a29.866667 29.866667 0 0 1 2.517334 38.570666l-3.242667 3.626667a29.866667 29.866667 0 0 1-38.570667 2.517333l-3.626666-3.242666-89.6-92.714667a29.866667 29.866667 0 0 1-2.901334-37.973333l3.029334-3.712 89.6-91.306667a29.866667 29.866667 0 0 1 45.781333 38.058667l-3.114667 3.754666-39.850666 40.533334H746.666667c112.981333 0 204.8-93.610667 204.8-209.408 0-98.005333-66.261333-181.845333-157.525334-203.818667l-9.216-2.005333-20.778666-3.968-3.114667-20.906667C742.144 251.050667 636.586667 157.866667 512 157.866667c-135.722667 0-246.613333 109.909333-251.605333 246.357333l-0.085334 10.88 1.28 27.946667-27.776 3.114666c-91.306667 10.24-161.28 89.472-161.28 184.405334 0 99.541333 76.586667 180.608 172.544 185.301333l8.789334 0.213333h23.466666a29.866667 29.866667 0 0 1 4.053334 59.434667l-4.053334 0.298667h-23.466666C120.576 875.818667 12.8 765.866667 12.8 630.570667c0-115.072 78.293333-212.949333 185.344-238.677334l3.285333-0.768 0.597334-7.082666c15.018667-156.970667 142.549333-280.533333 299.690666-285.738667L512 98.133333z m55.978667 374.912c13.269333 0 23.253333 0.853333 30.72 2.133334 10.794667 1.706667 19.925333 5.632 28.202666 11.221333 7.893333 5.589333 14.506667 13.781333 19.114667 23.68 4.949333 10.325333 7.04 21.546667 6.613333 32.298667 0 19.84-6.229333 37.077333-18.645333 50.432-12.458667 14.208-33.237333 21.077333-63.914667 21.077333h-35.285333v78.421333l-49.792 0.426667v-219.733333h82.986667z m145.237333 0v219.690667H663.04v-219.733333h50.218667z m-319.957333 0l86.741333 219.690667H423.978667l-21.973334-58.581333H342.186667l-20.352 58.581333H267.946667l81.322666-219.733333h43.989334z m-21.546667 76.672l-12.885333 37.034667h26.154666l-12.885333-35.754667-0.426667-1.28z m198.357333-27.562666h-34.858666v42.666666h35.242666c16.64 0 22.826667-3.925333 25.344-6.058666 3.712-3.413333 5.802667-9.045333 5.802667-15.957334a22.613333 22.613333 0 0 0-3.328-12.928 16.981333 16.981333 0 0 0-8.704-6.4c-1.28-0.469333-5.418667-1.322667-19.498667-1.322666z"></path>
</svg>
