<svg xmlns="http://www.w3.org/2000/svg" version="1.1" width="1024" height="1024" fill="currentColor" aria-hidden="true" focusable="false">
    <path d="M506.24 64a122.88 122.88 0 0 1 122.752 120.874667V342.186667h210.218667c36.394667 0 65.962667 29.269333 66.56 65.578666V483.84c0 36.437333-29.184 66.048-65.493334 66.645333h-22.528l50.346667 318.805334a66.645333 66.645333 0 0 1-54.314667 76.074666l-1.066666 0.170667a68.096 68.096 0 0 1-9.386667 0.853333H210.133333A66.645333 66.645333 0 0 1 144.213333 870.272l0.170667-1.024 50.346667-318.805333H173.226667A66.645333 66.645333 0 0 1 106.666667 484.949333L106.666667 483.84V408.832c0-36.48 29.226667-66.090667 65.493333-66.688h211.285333V186.922667a122.88 122.88 0 0 1 120.746667-122.88L506.24 64z m244.053333 486.485333H262.186667l-52.010667 329.216h121.898667l29.781333-188.245333a37.461333 37.461333 0 0 1 73.984 11.733333l-27.904 176.512h394.410667l-51.968-329.216z m-366.848-141.653333H173.269333V483.84h665.941334V408.832h-210.218667v1.024H383.445333v-1.024z m122.794667-278.186667c-30.72 0-55.68 24.746667-56.192 55.338667V342.186667h112.384V186.922667c0-30.464-24.192-55.253333-54.357333-56.234667h-1.834667z"></path>
</svg>
