<svg xmlns="http://www.w3.org/2000/svg" version="1.1" width="1024" height="1024" fill="currentColor" aria-hidden="true" focusable="false">
    <path d="M585.514667 279.722667l55.125333 111.744 123.306667 17.92c51.712 7.509333 72.362667 71.082667 34.944 107.52l-77.866667 75.946666a21.333333 21.333333 0 0 1-29.781333-30.592l77.866666-75.861333a20.394667 20.394667 0 0 0-11.306666-34.816l-145.493334-21.12-65.066666-131.84a20.394667 20.394667 0 0 0-36.608 0l-65.066667 131.84-145.493333 21.12a20.394667 20.394667 0 0 0-11.306667 34.816l105.301333 102.613333-24.874666 144.896a20.394667 20.394667 0 0 0 29.610666 21.504l120.192-63.146666a21.333333 21.333333 0 0 1 19.882667 37.717333L418.645333 793.173333c-46.250667 24.32-100.309333-14.933333-91.477333-66.474666l21.034667-122.794667-89.173334-86.954667c-37.461333-36.48-16.810667-100.053333 34.901334-107.562666l123.306666-17.92 55.168-111.744c23.125333-46.890667 89.941333-46.890667 113.066667 0zM662.272 615.978667a21.333333 21.333333 0 0 0-21.333333 21.333333v53.077333h-53.504a21.333333 21.333333 0 0 0 0 42.666667h53.504v53.930667a21.333333 21.333333 0 0 0 42.666666 0V733.013333h53.461334a21.333333 21.333333 0 0 0 0-42.666666h-53.461334v-53.077334a21.333333 21.333333 0 0 0-21.333333-21.333333z"></path>
</svg>
