<svg xmlns="http://www.w3.org/2000/svg" version="1.1" width="1024" height="1024" fill="currentColor" aria-hidden="true" focusable="false">
    <path d="M234.666667 343.722667a64 64 0 0 1 64 64V682.666667H170.666667V407.722667a64 64 0 0 1 64-64z" fill="#6E4FF4" p-id="8789"></path><path d="M170.666667 768m42.666666 0l554.666667 0q42.666667 0 42.666667 42.666667l0 0q0 42.666667-42.666667 42.666666l-554.666667 0q-42.666667 0-42.666666-42.666666l0 0q0-42.666667 42.666666-42.666667Z" fill="#6E4FF4" p-id="8790"></path><path d="M490.666667 251.264a64 64 0 0 1 64 64V682.666667H426.666667V315.264a64 64 0 0 1 64-64zM746.666667 128A64 64 0 0 1 810.666667 192V682.666667h-128V192A64 64 0 0 1 746.666667 128z" fill="#6E4FF4" p-id="8791"></path>
</svg>
