<svg xmlns="http://www.w3.org/2000/svg" version="1.1" width="1024" height="1024" fill="currentColor" aria-hidden="true" focusable="false">
    <path d="M768 682.666667a42.666667 42.666667 0 0 1 0 85.333333h-341.333333a42.666667 42.666667 0 0 1 0-85.333333h341.333333zM256 682.666667a42.666667 42.666667 0 1 1 0 85.333333 42.666667 42.666667 0 0 1 0-85.333333z m469.333333-213.333334a42.666667 42.666667 0 0 1 0 85.333334h-298.666666a42.666667 42.666667 0 1 1 0-85.333334h298.666666zM256 469.333333a42.666667 42.666667 0 1 1 0 85.333334 42.666667 42.666667 0 0 1 0-85.333334z m512-213.333333a42.666667 42.666667 0 0 1 0 85.333333h-341.333333a42.666667 42.666667 0 1 1 0-85.333333h341.333333zM256 256a42.666667 42.666667 0 1 1 0 85.333333 42.666667 42.666667 0 0 1 0-85.333333z"></path>
</svg>
