<svg xmlns="http://www.w3.org/2000/svg" version="1.1" width="1024" height="1024" fill="currentColor" aria-hidden="true" focusable="false">
    <path d="M568.768 383.168c12.352 0 24.128 4.928 33.472 13.632l25.408 25.472a195.072 195.072 0 0 1 0 275.072L421.76 903.488A194.048 194.048 0 0 1 284.16 960c-52.096 0-100.48-20.48-137.664-57.152l-25.472-25.408a195.2 195.2 0 0 1 0-275.712l90.56-89.408a47.552 47.552 0 0 1 32.832-13.696c12.416 0 24.832 4.992 33.536 13.696a48 48 0 0 1 0 67.072l-89.92 89.984c-39.04 39.168-39.04 103.104 0 142.208l25.408 25.472c18.56 18.624 44.032 29.184 70.656 29.184h0.64c26.048 0 52.096-10.56 70.72-29.184L561.28 630.912c39.04-39.104 39.04-103.04 0-142.208l-25.408-25.472a47.68 47.68 0 0 1 0-66.432 47.552 47.552 0 0 1 32.896-13.632zM739.84 64c52.032 0 100.48 20.48 137.6 57.152l25.472 25.408a195.2 195.2 0 0 1 0 275.712l-79.36 79.488a46.4 46.4 0 0 1-32.896 13.632 47.872 47.872 0 0 1-33.472-13.632 47.68 47.68 0 0 1 0-66.432l79.36-79.488c19.2-19.2 29.12-44.096 29.12-70.784 0-26.688-10.496-52.16-29.12-70.784l-25.408-25.472c-19.2-19.2-44.032-29.184-70.72-29.184a99.84 99.84 0 0 0-70.656 29.184L462.72 393.728c-19.2 19.2-29.184 44.096-29.184 70.784 0 26.688 10.56 52.16 29.184 70.784l25.408 25.472c18.56 18.56 18.56 48.384 0 66.432a49.152 49.152 0 0 1-31.616 13.632l-1.92 1.28a46.4 46.4 0 0 1-32.832-13.696l-25.408-25.472a195.2 195.2 0 0 1 0-275.712l205.888-206.08A193.6 193.6 0 0 1 739.84 64z"></path>
</svg>
