<svg xmlns="http://www.w3.org/2000/svg" version="1.1" width="1024" height="1024" fill="currentColor" aria-hidden="true" focusable="false">
    <path d="M341.317818 226.513455c23.156364 0 43.589818 10.146909 57.483637 29.626181l61.416727 86.830546c11.240727 15.755636 17.058909 30.510545 17.058909 45.847273 0 18.548364-8.610909 35.048727-25.623273 53.620363l-18.571636 19.549091c2.490182 5.236364 7.074909 12.288 13.218909 20.48l6.656 8.517818 7.586909 9.169455c2.676364 3.141818 5.492364 6.353455 8.424727 9.634909l9.122909 9.960727c3.141818 3.374545 6.4 6.749091 9.728 10.170182l9.797819 9.844364c4.794182 4.701091 9.658182 9.309091 14.498909 13.730909l9.611636 8.587636c1.582545 1.396364 3.165091 2.722909 4.724364 4.049455l9.169454 7.610181c11.892364 9.611636 22.388364 17.035636 29.463273 20.759273l1.117091 0.488727 19.176727-18.618181c16.221091-15.872 31.883636-24.738909 49.198546-26.018909l4.375272-0.16291c14.848 0 29.253818 5.818182 45.428364 16.989091l89.134545 62.836364c19.176727 13.312 28.625455 32.628364 28.625455 54.690909 0 24.413091-12.288 49.617455-31.650909 70.144-30.417455 32.721455-68.491636 48.826182-113.384727 48.826182-84.898909 0-189.207273-59.368727-281.437091-151.598546C283.438545 559.848727 224.674909 456.285091 224.674909 371.269818c0-44.148364 15.429818-82.734545 46.661818-112.965818C291.863273 238.08 316.834909 226.513455 341.317818 226.513455z m0 41.890909c-12.730182 0-27.485091 6.842182-40.727273 19.851636C277.620364 310.481455 266.565818 338.152727 266.565818 371.246545c0 71.633455 53.597091 166.074182 138.728727 251.229091C490.402909 707.560727 585.658182 761.786182 657.105455 761.786182c33.396364 0 60.322909-11.380364 82.804363-35.584 12.730182-13.498182 20.340364-29.090909 20.340364-41.518546 0-8.727273-3.095273-15.034182-10.752-20.340363l-89.088-62.789818c-9.634909-6.679273-16.570182-9.472-21.457455-9.472-6.306909 0-13.824 3.979636-24.32 14.266181l-21.154909 20.573091a35.746909 35.746909 0 0 1-25.925818 10.519273c-7.168 0-13.032727-1.722182-20.875636-5.329455-20.526545-10.775273-54.085818-37.818182-83.502546-67.514181l-5.585454-5.655273c-29.486545-30.161455-53.271273-59.880727-62.464-79.220364-3.072-6.749091-4.794182-12.427636-4.794182-19.2 0-9.541818 3.467636-18.292364 10.123636-24.948363l20.549818-21.690182c10.356364-11.310545 14.382545-19.013818 14.382546-25.064727 0-5.469091-2.676364-12.264727-9.309091-21.573819L364.637091 280.413091A26.903273 26.903273 0 0 0 341.317818 268.404364z m403.828364-18.338909c7.610182 0 14.475636 5.12 17.384727 12.916363a22.341818 22.341818 0 0 1-4.235636 22.714182l-99.956364 108.869818h111.336727c10.356364 0 18.804364 9.378909 18.804364 20.852364 0 11.450182-8.448 20.829091-18.804364 20.829091h-157.323636c-7.610182 0-14.475636-5.12-17.384727-12.916364a22.341818 22.341818 0 0 1 4.235636-22.714182l99.956364-108.869818h-88.482909c-10.356364 0-18.804364-9.378909-18.804364-20.852364 0-11.450182 8.448-20.829091 18.804364-20.82909h134.469818z"></path>
</svg>
