<svg xmlns="http://www.w3.org/2000/svg" version="1.1" width="1024" height="1024" fill="currentColor" aria-hidden="true" focusable="false">
    <path d="M524.693333 388.416c-127.402667 0.298667-249.024 27.669333-310.741333 89.386667-27.989333 27.989333-42.282667 61.738667-41.066667 102.485333 0.917333 22.784 7.296 45.909333 21.909334 60.501333 10.026667 10.325333 24.32 16.106667 41.941333 13.077334l112.213333-19.157334c14.890667-2.752 26.133333-7.616 34.048-15.210666 9.728-9.130667 13.376-23.722667 13.376-43.477334l0.618667-30.72c0-4.864 1.813333-8.512 4.864-11.541333 2.730667-3.349333 6.976-4.864 10.325333-5.781333 19.456-5.162667 61.12-10.645333 112.512-10.645334 51.370667 0 92.736 4.266667 112.490667 10.944 3.349333 0.917333 6.997333 2.752 9.728 5.482667a13.376 13.376 0 0 1 4.565333 10.645333L652.373333 576c0.597333 19.754667 4.544 34.048 13.973334 43.477333 7.893333 7.893333 19.157333 12.458667 34.346666 15.210667l108.864 18.56c18.56 3.328 33.749333-3.050667 45.312-14.293333 13.376-13.696 21.290667-34.986667 21.589334-59.904 0.597333-40.746667-14.912-74.197333-42.261334-101.269334-61.738667-61.717333-182.144-89.685333-309.546666-89.386666z"></path>
</svg>
