<svg xmlns="http://www.w3.org/2000/svg" version="1.1" width="1024" height="1024" fill="currentColor" aria-hidden="true" focusable="false">
    <path d="M888.832 397.312v317.27616a115.87584 115.87584 0 0 1-115.87584 115.87584H324.32128a115.9168 115.9168 0 0 1-110.26432-80.15872l0.24576 0.73728C137.13408 740.27008 77.824 675.4304 77.824 597.03296V308.75648c0-85.93408 71.31136-155.648 159.3344-155.648h386.21184c78.52032 0 143.7696 55.5008 156.8768 128.49152l-3.64544-0.12288-3.64544-0.04096A115.87584 115.87584 0 0 1 888.832 397.27104z m-447.03744 120.4224l-3.44064 3.60448-151.87968 180.51072a53.12512 53.12512 0 0 0-12.0832 27.97568l-0.4096 6.22592v5.3248c0 12.288 9.0112 22.528 20.76672 24.45312l4.01408 0.32768h493.3632c11.22304 0 20.56192-8.192 22.3232-18.96448l0.28672-3.6864v-2.53952c0-11.0592-3.4816-21.83168-9.8304-30.80192l-3.39968-4.3008-94.4128-107.23328a30.72 30.72 0 0 0-43.58144-3.31776l-3.2768 3.2768-32.23552 36.98688a26.54208 26.54208 0 0 1-37.2736 2.70336l-3.03104-3.072-95.92832-113.8688a34.32448 34.32448 0 0 0-49.9712-3.64544z m173.17888-308.14208h-370.2784c-56.03328 0-101.90848 42.31168-105.96352 95.96928l-0.28672 7.7824v279.67488c0 44.8512 29.16352 83.06688 69.95968 97.52576v15.31904-308.59264a115.87584 115.87584 0 0 1 115.9168-115.83488l391.74144-0.04096a105.84064 105.84064 0 0 0-93.14304-71.51616l-7.94624-0.28672z m89.16992 181.69856c-29.2864 0-53.08416 23.22432-53.08416 51.85536 0 28.63104 23.79776 51.85536 53.08416 51.85536 29.32736 0 53.12512-23.22432 53.12512-51.85536 0-29.4912-23.79776-52.75648-53.12512-51.85536z"><path d="M888.832 397.312v317.27616a115.87584 115.87584 0 0 1-115.87584 115.87584H324.32128a115.9168 115.9168 0 0 1-110.26432-80.15872l0.24576 0.73728C137.13408 740.27008 77.824 675.4304 77.824 597.03296V308.75648c0-85.93408 71.31136-155.648 159.3344-155.648h386.21184c78.52032 0 143.7696 55.5008 156.8768 128.49152l-3.64544-0.12288-3.64544-0.04096A115.87584 115.87584 0 0 1 888.832 397.27104z m-447.03744 120.4224l-3.44064 3.60448-151.87968 180.51072a53.12512 53.12512 0 0 0-12.0832 27.97568l-0.4096 6.22592v5.3248c0 12.288 9.0112 22.528 20.76672 24.45312l4.01408 0.32768h493.3632c11.22304 0 20.56192-8.192 22.3232-18.96448l0.28672-3.6864v-2.53952c0-11.0592-3.4816-21.83168-9.8304-30.80192l-3.39968-4.3008-94.4128-107.23328a30.72 30.72 0 0 0-43.58144-3.31776l-3.2768 3.2768-32.23552 36.98688a26.54208 26.54208 0 0 1-37.2736 2.70336l-3.03104-3.072-95.92832-113.8688a34.32448 34.32448 0 0 0-49.9712-3.64544z m173.17888-308.14208h-370.2784c-56.03328 0-101.90848 42.31168-105.96352 95.96928l-0.28672 7.7824v279.67488c0 44.8512 29.16352 83.06688 69.95968 97.52576v15.31904-308.59264a115.87584 115.87584 0 0 1 115.9168-115.83488l391.74144-0.04096a105.84064 105.84064 0 0 0-93.14304-71.51616l-7.94624-0.28672z m89.16992 181.69856c-29.2864 0-53.08416 23.22432-53.08416 51.85536 0 28.63104 23.79776 51.85536 53.08416 51.85536 29.32736 0 53.12512-23.22432 53.12512-51.85536 0-29.4912-23.79776-52.75648-53.12512-51.85536z"></path></path>
</svg>
