<svg xmlns="http://www.w3.org/2000/svg" version="1.1" width="1024" height="1024" fill="currentColor" aria-hidden="true" focusable="false">
    <path d="M821.199238 512c4.315429 0 8.484571 1.755429 11.605333 4.949333a17.798095 17.798095 0 0 1 5.022477 12.434286v212.431238h106.642285c2.56 0 4.924952 1.682286 5.924572 4.364191a7.338667 7.338667 0 0 1-1.877334 7.972571l-164.766476 157.013333c-1.755429 1.536-5.12 1.536-7.484952-0.560762l-163.791238-155.91619c-2.755048-2.438095-3.535238-5.656381-2.486857-8.533333 0.975238-2.681905 3.364571-4.33981 5.924571-4.33981h106.569143v-212.406857a17.798095 17.798095 0 0 1 5.046857-12.458667c3.120762-3.169524 7.289905-4.949333 11.605333-4.949333h82.066286zM789.552762 97.52381c72.143238 0 131.559619 52.931048 136.582095 120.441904l0.341333 9.264762v465.798095h-39.887238v-163.620571a66.56 66.56 0 0 0-18.992762-46.640762 65.438476 65.438476 0 0 0-16.310857-12.117333v-45.519238h-158.524952v57.587809l-0.024381 0.048762-3.193905 3.486476a66.608762 66.608762 0 0 0-15.823238 43.154286v163.620571h-57.782857c-3.608381 0-7.119238 0.365714-10.556952 1.048381V658.773333h-181.101715v170.764191h181.126096l-0.024381-14.336L696.612571 902.095238H210.066286c-72.143238 0-131.559619-52.931048-136.582096-120.441905L73.142857 772.388571V227.230476c0-68.729905 56.271238-124.65981 127.171048-129.389714l9.752381-0.316952h579.486476zM335.506286 658.773333H148.284952v113.615238c0 27.306667 20.918857 50.663619 49.005715 56.003048l7.143619 0.950857 5.607619 0.24381 125.464381-0.024381V658.773333z m0-233.642666H148.284952v149.528381h187.245715v-149.528381z m269.897143 0h-181.126096v149.528381h181.126096v-149.528381z m183.686095-255.073524H210.041905c-29.915429 0-54.905905 19.748571-60.513524 45.446095l-0.999619 6.558476-0.24381 5.168762v114.273524h702.976l0.073143-114.273524c0-27.306667-20.918857-50.663619-49.005714-56.003047l-7.143619-0.950858-6.095238-0.243809z"></path>
</svg>
