<svg xmlns="http://www.w3.org/2000/svg" version="1.1" width="1024" height="1024" fill="currentColor" aria-hidden="true" focusable="false">
    <path d="M445.2352 434.1248a40.96 40.96 0 0 1 11.4176 52.6336l-3.072 4.6592a40.96 40.96 0 0 1-52.5824 11.4176l-4.7104-3.072-192.1024-143.0016a40.96 40.96 0 0 1-4.9664-61.44l4.2496-3.7888 192.1536-149.4016A40.96 40.96 0 0 1 450.048 203.1104l-4.096 3.7376-87.3984 67.84h224.9728l11.52 0.256c164.1472 5.7344 296.192 133.9904 296.192 292.5056 0 162.2016-138.24 292.7104-307.712 292.7104H255.232l-5.12-0.3072a40.96 40.96 0 0 1 5.12-81.6128h328.2944l11.008-0.256c120.064-5.3248 214.784-98.0992 214.784-210.5344 0-115.8656-100.5568-210.7904-225.792-210.7904l-242.432-0.0512 104.1408 77.5168z"></path>
</svg>
