<svg xmlns="http://www.w3.org/2000/svg" version="1.1" width="1024" height="1024" fill="currentColor" aria-hidden="true" focusable="false">
    <path d="M354.56 418.261333c18.133333-0.085333 36.053333 4.053333 52.266667 12.202667 22.528 11.306667 36.906667 27.605333 55.594666 64.597333l7.722667 15.914667c1.365333 2.816 2.730667 5.802667 4.096 8.832l8.789333 19.626667 20.053334 46.506666 8.362666 18.432 4.138667 8.277334 2.816 4.608 1.28 1.493333 0.512 0.384a12.8 12.8 0 0 0 7.808 1.493333l1.365333-0.469333 2.133334-1.365333 5.034666-4.010667 11.178667-10.368 32.896-32.512 13.312-12.970667 11.52-10.666666c19.669333-17.493333 32.256-24.874667 49.365333-29.653334 18.261333-5.12 37.546667-5.589333 56.021334-1.450666l8.021333 2.048c8.96 2.645333 16.938667 6.314667 26.453333 12.714666l8.661334 6.186667 4.693333 3.626667 10.496 8.576 12.16 10.496 31.36 28.032 36.010667 32.853333 10.837333 10.325333 9.173333 9.088 7.765334 8.149334 6.528 7.509333 2.944 3.541333 5.205333 6.997334 2.389333 3.498666 4.437334 7.125334 4.224 7.552a200.277333 200.277333 0 0 1 13.184 30.421333l2.56 8.106667 1.066666 4.010666 1.92 8.32 1.493334 8.96 1.194666 9.813334 0.213334 2.645333h-60.16l-0.341334-3.072-1.237333-7.168-1.493333-6.4a104.96 104.96 0 0 0-1.834667-6.016l-1.024-2.986667a140.586667 140.586667 0 0 0-9.984-21.632l-3.797333-6.144-4.522667-6.272a142.165333 142.165333 0 0 0-5.546667-6.698666l-7.04-7.552-8.832-8.832-10.922666-10.410667-19.2-17.664-43.306667-38.826667-14.506667-12.544-11.093333-8.832-5.845333-4.181333-4.992-3.072a44.288 44.288 0 0 0-4.352-2.133333l-4.010667-1.365334-1.962667-0.512a55.466667 55.466667 0 0 0-26.965333 0.725334l-4.437333 1.578666c-3.754667 1.664-7.936 4.266667-13.226667 8.448l-7.04 5.888-8.405333 7.68-10.197334 9.728-38.4 37.973334-9.941333 9.386666c-15.274667 13.824-24.32 19.2-36.224 21.76l-7.509333 1.28a72.533333 72.533333 0 0 1-44.245334-8.533333c-14.08-7.808-21.205333-15.445333-32.128-37.888l-5.845333-12.544-28.544-65.621333-7.253333-15.957334-6.485334-13.482666-5.802666-11.221334c-10.069333-18.602667-17.322667-26.88-25.088-30.762666a55.466667 55.466667 0 0 0-31.701334-5.418667l-4.48 1.066667c-3.114667 0.981333-6.442667 2.474667-10.24 4.736l-6.058666 3.968-6.869334 5.162666-7.893333 6.528-9.045333 7.978667-10.325334 9.642667-18.346666 17.706666-44.117334 44.032-17.365333 17.749334-13.056 13.909333-6.741333 7.637333-5.418667 6.656a141.653333 141.653333 0 0 0-2.304 3.072l-4.010667 5.76-3.328 5.546667-2.901333 5.632a140.842667 140.842667 0 0 0-8.789333 22.869333l-1.578667 6.144-1.28 6.357334a107.562667 107.562667 0 0 0-0.426667 3.370666l-0.768 7.381334-0.426666 8.618666-0.085334 10.154667 0.170667 12.117333 0.853333 22.784 0.682667 12.714667H104.362667l-0.554667-11.477333-0.896-24.789334-0.170667-13.610666 0.128-11.690667 0.554667-10.24 0.426667-4.693333 1.109333-8.789334 0.725333-4.181333 1.749334-8.234667 2.218666-8.405333a200.576 200.576 0 0 1 14.506667-36.522667l4.010667-7.466666 4.437333-7.253334 5.034667-7.253333 5.930666-7.68 3.370667-4.053333 7.68-8.789334 9.258667-9.984 17.237333-17.834666 37.418667-37.589334 23.594666-23.253333 13.653334-13.098667 12.245333-11.264 11.093333-9.557333c26.368-21.973333 43.562667-29.44 66.389334-31.36z"></path>
    <path d="M600.192 98.176H423.850667l-42.368 0.426667-37.333334 1.066666-22.272 1.066667-20.437333 1.408c-74.752 6.186667-110.933333 21.077333-144.554667 54.741333-32.213333 32.170667-47.232 66.645333-53.888 135.04l-1.621333 19.498667-0.64 10.410667-1.066667 22.314666-1.024 37.290667-0.341333 27.648-0.170667 30.037333 0.042667 161.024 0.426667 42.368 1.066666 37.333334 1.066667 22.272 1.408 20.437333c6.186667 74.752 21.077333 110.933333 54.741333 144.554667l3.712 3.669333 7.466667 6.826667 3.754667 3.2 7.68 5.973333c6.528 4.778667 13.312 8.96 20.693333 12.629333l9.130667 4.181334c4.693333 1.962667 9.685333 3.797333 14.933333 5.418666l11.008 3.114667 11.904 2.688 12.885333 2.346667c2.261333 0.384 4.565333 0.725333 6.912 1.024l14.634667 1.834666 15.957333 1.536 17.365334 1.28 18.901333 0.981334 20.48 0.768 33.962667 0.768 38.229333 0.426666L469.333333 925.866667l128.170667-0.128 38.229333-0.426667 33.962667-0.725333 20.48-0.768 18.901333-1.024 17.365334-1.237334 15.957333-1.536 14.634667-1.834666c2.346667-0.298667 4.650667-0.64 6.912-1.024l12.928-2.346667 11.861333-2.688 10.965333-3.114667c5.290667-1.621333 10.24-3.413333 14.976-5.418666l9.130667-4.181334c7.381333-3.669333 14.165333-7.850667 20.693333-12.629333l7.68-5.973333c1.28-1.024 2.517333-2.133333 3.754667-3.2l7.466667-6.826667 7.381333-7.381333 6.826667-7.466667 3.2-3.754667 5.973333-7.68c4.778667-6.528 8.96-13.312 12.629333-20.693333l4.181334-9.130667c1.962667-4.693333 3.797333-9.685333 5.418666-14.933333l3.114667-11.008 2.688-11.904 2.346667-12.885333c0.384-2.261333 0.725333-4.565333 1.024-6.912l1.834666-14.634667 1.536-15.957333 1.28-17.365334 0.981334-18.901333 0.768-20.48 0.768-33.962667 0.426666-38.229333L925.866667 554.666667l-0.128-128.170667-0.426667-38.229333-0.725333-33.962667-0.768-20.48-1.024-18.901333-1.237334-17.365334-1.536-15.957333-1.834666-14.634667a383.317333 383.317333 0 0 0-1.024-6.912l-2.346667-12.885333-2.688-11.946667-3.114667-10.922666a170.453333 170.453333 0 0 0-5.418666-14.976l-4.181334-9.130667a144.042667 144.042667 0 0 0-12.629333-20.693333l-5.973333-7.68a183.296 183.296 0 0 0-3.2-3.754667l-6.826667-7.466667a253.056 253.056 0 0 0-3.669333-3.712c-32.170667-32.170667-66.645333-47.232-135.04-53.888l-19.498667-1.621333-10.410667-0.64-22.314666-1.066667-37.290667-1.024-27.648-0.341333-14.72-0.128z m-175.189333 59.733333h173.994666l39.04 0.426667 23.253334 0.512 21.12 0.725333 19.2 1.024 17.365333 1.28 8.064 0.768 14.890667 1.792c7.04 0.981333 13.568 2.048 19.584 3.328l11.392 2.688c23.466667 6.272 38.784 15.445333 51.968 28.672l5.248 5.504c2.474667 2.816 4.778667 5.717333 6.954666 8.789334l4.138667 6.357333c1.28 2.176 2.56 4.48 3.754667 6.826667l3.328 7.552c2.133333 5.248 4.010667 10.965333 5.674666 17.365333l2.304 10.112 2.048 11.178667 1.706667 12.373333 1.493333 13.738667 1.28 15.104 0.981334 16.682666 0.768 18.346667 0.853333 30.805333 0.512 35.157334L866.133333 469.333333l-0.128 126.890667-0.384 36.693333-0.725333 32.256-0.682667 19.2-0.896 17.450667-1.152 15.872c-0.170667 2.56-0.426667 4.992-0.64 7.381333l-1.450666 13.696-1.749334 12.373334-2.048 11.221333-2.304 10.112c-1.706667 6.4-3.541333 12.117333-5.674666 17.365333l-3.328 7.509334c-1.194667 2.389333-2.432 4.693333-3.754667 6.869333l-4.138667 6.4c-1.450667 2.005333-2.986667 3.968-4.522666 5.888l-4.992 5.632-5.418667 5.418667-5.632 4.992a100.565333 100.565333 0 0 1-5.930667 4.522666l-6.357333 4.138667-6.826667 3.754667-7.552 3.328c-5.248 2.133333-10.965333 4.010667-17.365333 5.674666l-10.112 2.304-11.178667 2.048-12.373333 1.706667-13.738667 1.493333-15.104 1.28-16.682666 0.981334-18.346667 0.768-30.805333 0.853333-35.157334 0.512L554.666667 866.133333l-126.890667-0.128-36.693333-0.384-32.256-0.725333-19.2-0.682667-17.450667-0.896-15.872-1.152c-2.56-0.170667-4.992-0.426667-7.381333-0.64l-13.696-1.450666-12.373334-1.749334-11.221333-2.048-10.112-2.304a141.312 141.312 0 0 1-17.365333-5.674666l-7.509334-3.328a98.773333 98.773333 0 0 1-6.869333-3.754667L213.333333 837.12a100.565333 100.565333 0 0 1-5.888-4.522667l-5.632-4.992a132.138667 132.138667 0 0 1-2.730666-2.688c-13.226667-13.226667-22.4-28.501333-28.672-51.968l-2.688-11.392a294.954667 294.954667 0 0 1-3.328-19.626666l-1.792-14.890667-1.450667-16.512-0.597333-8.874667-1.024-19.2-0.725334-21.162666-0.554666-23.210667-0.384-39.04V424.96l0.426666-39.04 0.512-23.253333 0.725334-21.12 1.024-19.2 1.28-17.365334 0.768-8.064 1.792-14.890666c0.981333-7.04 2.048-13.568 3.328-19.584l2.688-11.392c4.821333-18.048 11.349333-31.274667 20.138666-42.410667l5.546667-6.485333a115.626667 115.626667 0 0 1 2.986667-3.072c13.226667-13.226667 28.501333-22.4 51.968-28.672l11.392-2.688c6.058667-1.28 12.544-2.346667 19.626666-3.328l14.890667-1.792 16.512-1.450667 8.874667-0.597333 19.2-1.024 21.162666-0.725334 23.210667-0.554666 39.04-0.384z"></path>
    <path d="M704 230.4a89.6 89.6 0 1 0 0 179.2 89.6 89.6 0 0 0 0-179.2z m0 51.2a38.4 38.4 0 1 1 0 76.8 38.4 38.4 0 0 1 0-76.8z"></path>
</svg>
