<svg xmlns="http://www.w3.org/2000/svg" version="1.1" width="1024" height="1024" fill="currentColor" aria-hidden="true" focusable="false">
    <path d="M585.301333 93.866667l341.333334 238.421333A128 128 0 0 1 981.333333 437.248V853.333333a128 128 0 0 1-128 128H170.666667a128 128 0 0 1-128-128v-416.128a128 128 0 0 1 54.698666-104.917333l341.333334-238.421333a128 128 0 0 1 146.602666 0z m-106.837333 45.482666l-5.546667 3.498667-341.333333 238.421333a68.266667 68.266667 0 0 0-28.842667 49.322667l-0.341333 6.613333V853.333333a68.266667 68.266667 0 0 0 62.037333 67.968L170.666667 921.6h682.666666a68.266667 68.266667 0 0 0 67.968-62.037333L921.6 853.333333v-416.128a68.266667 68.266667 0 0 0-23.893333-51.882666l-5.290667-4.053334-341.333333-238.421333a68.266667 68.266667 0 0 0-72.618667-3.498667zM502.784 384a170.752 170.752 0 0 1 165.333333 128.170667l5.333334-0.170667a128 128 0 0 1 7.509333 255.786667l-7.509333 0.213333h-298.666667a128 128 0 0 1-38.058667-252.885333A170.752 170.752 0 0 1 502.784 384z m0 59.733333c-46.421333 0-87.04 28.757333-103.381333 70.485334 6.314667 0.810667 11.861333 1.92 16.896 3.370666 42.069333 11.946667 70.954667 41.984 83.968 87.978667a29.866667 29.866667 0 0 1-57.514667 16.213333c-7.466667-26.410667-21.077333-40.576-42.794667-46.762666-8.618667-2.432-24.533333-3.456-46.848-2.56l-4.394666 1.152a68.309333 68.309333 0 0 0 13.824 135.168l3.669333-0.085334 4.224-0.256 4.352-0.170666h296.96l5.76-0.128A68.266667 68.266667 0 0 0 741.717333 640c0-35.626667-27.264-64.853333-60.330666-68.010667l-5.888-0.298666-5.333334 0.170666a59.733333 59.733333 0 0 1-58.282666-39.552l-1.621334-5.290666a111.018667 111.018667 0 0 0-107.477333-83.285334z"></path>
</svg>
