<svg xmlns="http://www.w3.org/2000/svg" version="1.1" width="1024" height="1024" fill="currentColor" aria-hidden="true" focusable="false">
    <path d="M776.661333 97.408c32.384-0.341333 51.84 6.954667 72.234667 23.04l3.84 3.072c28.032 23.466667 39.594667 46.72 44.16 105.258667l1.066667 16.853333 0.768 18.773333 0.554666 20.864 0.341334 38.101334h0.085333v377.045333l-0.170667 17.578667-0.341333 7.936-0.554667 6.4-0.853333 5.973333a135.893333 135.893333 0 0 1-83.882667 103.893333 122.026667 122.026667 0 0 1-14.378666 4.565334l-4.821334 1.194666-50.474666 10.453334-13.141334 2.389333-6.570666 0.768c-72.789333 6.4-137.130667-47.274667-145.237334-120.661333l-0.512-6.698667-0.213333-8.362667-0.042667-27.221333 0.170667-9.088 0.426667-7.04c6.314667-64.512 56.661333-115.712 120.490666-122.197333l5.333334-0.426667 6.485333-0.170667 128.554667-0.085333V360.277333l-435.754667 92.586667-0.085333 330.666667-0.213334 8.576-0.426666 6.613333-0.682667 5.717333a130.304 130.304 0 0 1-80.853333 102.485334c-2.816 1.109333-5.76 2.133333-8.917334 2.986666l-9.514666 2.56-22.784 4.821334-29.098667 5.845333-8.533333 1.493333-6.314667 0.725334c-69.802667 6.144-131.498667-45.354667-139.264-115.712l-0.597333-8.874667-0.170667-21.12 0.298667-21.461333 0.298666-4.181334c6.058667-61.866667 54.314667-110.933333 115.541334-117.162666l4.138666-0.341334 15.786667-0.298666 111.658667-0.042667 0.085333-291.541333 0.426667-30.293334 0.554666-17.237333 0.853334-15.189333c2.645333-35.541333 8.533333-54.016 21.632-72.362667l5.546666-7.253333c18.944-23.509333 43.605333-36.010667 87.466667-47.189334l10.496-2.56 11.904-2.688 169.173333-34.602666 34.346667-6.613334 20.266667-3.541333 18.304-2.944 16.512-2.218667a383.146667 383.146667 0 0 1 21.802666-2.048l12.8-0.469333zM344.448 695.893333l-120.746667 0.128-4.778666 0.256c-30.72 3.114667-55.509333 26.581333-61.226667 57.301334l-0.981333 7.68-0.170667 6.954666v25.088l0.213333 8.149334 0.170667 1.664c4.224 38.314667 37.418667 66.005333 74.666667 62.72l6.613333-0.938667 40.106667-8.106667 9.813333-2.090666 7.765333-1.962667 4.181334-1.408c22.698667-8.96 39.210667-29.44 43.392-54.058667l0.597333-5.12 0.384-11.733333V695.893333z m495.530667-76.544h-119.466667l-9.770667 0.128-5.12 0.256c-35.370667 3.584-63.488 32.213333-67.029333 68.565334l-0.170667 1.834666-0.170666 5.12v25.088l0.170666 10.154667 0.256 3.84c4.565333 41.386667 40.405333 71.253333 80.64 67.754667l4.053334-0.554667 35.413333-6.997333 23.893333-5.12 7.253334-2.048 2.133333-0.768a76.16 76.16 0 0 0 47.061333-59.989334l0.426667-3.84 0.298667-8.490666 0.128-94.933334zM775.253333 157.696l-9.557333 0.298667-10.965333 0.853333-6.058667 0.64-13.312 1.706667-15.146667 2.346666-26.368 4.608-31.317333 6.016-156.586667 31.914667-20.778666 4.608c-38.613333 9.088-55.210667 16.768-65.109334 29.056l-2.986666 4.096-2.645334 4.48-2.218666 4.992a59.392 59.392 0 0 0-1.024 2.773333l-1.706667 6.272-1.450667 7.253334c-0.426667 2.688-0.853333 5.546667-1.194666 8.618666l-0.896 10.026667-0.682667 11.733333-0.853333 29.269334-0.213334 38.4v24.106666L839.68 299.221333l-0.256-16.896-0.853333-25.258666-0.725334-14.506667-1.024-12.714667-1.28-11.136a222.378667 222.378667 0 0 0-0.682666-5.034666l-1.664-9.045334-1.92-7.808-2.261334-6.741333a50.090667 50.090667 0 0 0-8.832-15.104l-3.712-3.84-2.005333-1.706667c-9.173333-7.68-19.797333-11.690667-39.168-11.690666z"></path>
</svg>
