<svg xmlns="http://www.w3.org/2000/svg" version="1.1" width="1024" height="1024" fill="currentColor" aria-hidden="true" focusable="false">
    <path d="M458.538667 371.584c55.466667 0.085333 100.778667 45.653333 104.405333 103.253333l0.256 7.253334-2.133333 135.509333h75.306666c57.173333-0.042667 104.618667 45.44 110.805334 104.661333l0.554666 8.106667 0.128 4.352v94.72c0 53.461333-39.381333 97.28-89.216 100.821333l-6.570666 0.256h-220.842667c-25.6-0.042667-50.133333-10.325333-68.736-28.544l-5.418667-5.717333-93.184-106.368a111.445333 111.445333 0 0 1-3.882666-140.458667c21.76-27.904 55.765333-41.472 87.168-34.346666l6.656 1.834666v-134.869333c0-56.448 40.106667-103.424 92.629333-109.781333l7.509333-0.597334 4.565334-0.085333z m0.170666 54.485333l-3.114666 0.085334c-26.282667 1.536-47.274667 23.210667-49.792 50.474666l-0.256 5.546667v174.506667a27.392 27.392 0 0 1-14.506667 24.448 24.746667 24.746667 0 0 1-23.893333-0.597334l-3.498667-2.474666-1.28-1.109334a43.264 43.264 0 0 0-62.293333 6.997334 55.168 55.168 0 0 0-1.706667 64.426666l3.626667 4.608 93.184 106.410667c7.978667 9.088 18.730667 14.848 30.293333 16.298667l5.802667 0.384h220.8c11.648 0 22.826667-4.906667 31.061333-13.653334 6.912-7.253333 11.264-16.725333 12.544-26.88l0.426667-6.101333-0.085334-93.824-0.085333-3.669333c-1.536-31.616-24.874667-56.746667-54.058667-59.605334l-5.546666-0.298666h-99.072a26.325333 26.325333 0 0 1-25.6-23.210667l-0.298667-4.010667v-162.645333c0-30.890667-23.552-55.893333-52.650667-56.106667z m2.730667-149.973333a185.173333 185.173333 0 0 1 170.752 113.066667 25.6 25.6 0 0 1-13.994667 33.578666 25.984 25.984 0 0 1-33.834666-13.866666 133.376 133.376 0 0 0-122.965334-81.493334 133.376 133.376 0 0 0-123.221333 81.152 26.026667 26.026667 0 0 1-44.458667 5.674667 25.472 25.472 0 0 1-3.328-25.472 185.045333 185.045333 0 0 1 161.749334-112.426667l9.301333-0.213333z"></path><path d="M751.232 85.333333c102.570667 0 182.741333 71.210667 187.221333 171.946667l0.213334 8.96v92.202667c0 102.186667-76.8 174.165333-178.346667 178.218666l-9.088 0.170667h-122.88v-57.813333h122.88c74.197333 0 127.786667-45.952 131.413333-113.28l0.213334-7.253334V266.24c0-69.504-51.754667-119.594667-123.818667-122.965333l-7.808-0.170667H272.768c-73.472 0-127.744 47.701333-131.413333 115.754667l-0.213334 7.381333V358.4c0 68.864 51.072 117.162667 123.733334 120.405333l7.893333 0.170667h35.114667v57.813333h-35.114667c-103.04 0-182.784-69.077333-187.221333-169.429333L85.333333 358.4v-92.16C85.333333 163.797333 162.56 89.6 263.765333 85.504L272.725333 85.333333h478.506667z"></path>
</svg>
