<svg xmlns="http://www.w3.org/2000/svg" version="1.1" width="1024" height="1024" fill="currentColor" aria-hidden="true" focusable="false">
    <path d="M714.129062 521.575324a129.020774 129.020774 0 0 1 126.507382 0l120.316993 67.954665a123.202738 123.202738 0 0 1 63.253691 107.051869v135.816241c0 44.217076-24.109943 84.989875-63.253691 107.098414l-120.316993 67.90812a129.020774 129.020774 0 0 1-126.507382 0l-120.363537-67.90812a123.202738 123.202738 0 0 1-63.253691-107.05187v-135.862785c0-44.217076 24.109943-84.989875 63.300236-107.051869zM438.493771 0c240.494351 0 438.261043 79.125295 438.261043 193.62425 0 4.654429-0.32581 9.21577-0.930886 13.730566 0.32581 0.930886 0.511987 1.95486 0.65162 3.025379l0.279266 4.188986v202.234944a31.277764 31.277764 0 0 1-31.650118 30.90541 31.417396 31.417396 0 0 1-31.277763-26.716423l-0.32581-4.188987 0.046544-119.851549c-77.077346 56.039326-216.803307 90.295924-375.053896 90.295925-158.204045 0-297.883462-34.210054-375.007352-90.295925v208.146069c0 72.283284 166.023486 143.449505 375.007352 143.449505 17.454109 0 31.650118 13.823654 31.650118 30.905409a31.277764 31.277764 0 0 1-31.650118 30.905409c-158.017868 0-297.883462-36.76999-375.007352-96.207049v184.827379c0 63.300236 166.442384 128.462243 375.007352 128.462243 17.454109 0 31.650118 13.870199 31.650118 30.951954a31.277764 31.277764 0 0 1-31.650118 30.905409c-66.046349 0-128.834597-5.818036-185.246278-16.616312l-23.737589-4.933695c-132.278875-29.648713-223.878039-87.875621-229.044455-162.160309L0.232727 798.979298v-282.24458l0.279266-3.770088-0.046544-0.791253L0.232727 505.098645V214.569181l0.32581-4.607885 0.605076-2.792657a98.022277 98.022277 0 0 1-0.930886-13.497844C0.232727 79.125295 198.045964 0 438.493771 0z m370.492556 575.147803a64.510387 64.510387 0 0 0-63.253692 0l-120.316992 67.908121c-19.548602 11.030997-31.650118 31.417396-31.650118 53.525934v135.816241c0 22.108538 12.101516 42.494938 31.650118 53.525935l120.316992 67.954664c19.548602 11.030997 43.705089 11.030997 63.300236 0l120.270448-67.954664c19.548602-11.030997 31.650118-31.417396 31.650118-53.525935v-135.816241c0-22.108538-12.101516-42.494938-31.650118-53.525934z m-31.650118 92.157696c54.922263 0 99.418605 43.518912 99.418605 97.18448s-44.496342 97.184479-99.372061 97.184479c-54.922263 0-99.418605-43.518912-99.418605-97.184479s44.496342-97.137935 99.418605-97.137936z m0 61.857363a35.746015 35.746015 0 0 0-36.11837 35.373661c0 19.455514 16.197413 35.280573 36.164914 35.280572 19.967501 0 36.11837-15.825059 36.11837-35.327116 0-19.548602-16.150869-35.327117-36.11837-35.327117zM438.540315 61.810818c-208.658056 0-375.007352 66.558336-375.007352 131.813432 0 40.586622 64.417299 81.685231 163.370461 106.958781l21.68964 5.166416c11.077541 2.466847 22.573981 4.747518 34.396231 6.748922l24.063398 3.816632 24.901196 3.165012c33.744611 3.863176 69.490626 5.957669 106.586426 5.957669 37.0958 0 72.88836-2.094493 106.586426-5.957669l24.901196-3.165012 24.063398-3.816632c11.82225-2.001405 23.31869-4.282075 34.442776-6.748922l21.689639-5.119872c98.953163-25.320094 163.370461-66.418703 163.370461-107.005325 0-65.255096-166.349296-131.813432-375.053896-131.813432z"></path>
</svg>
