<svg xmlns="http://www.w3.org/2000/svg" version="1.1" width="1024" height="1024" fill="currentColor" aria-hidden="true" focusable="false">
    <path d="M512 75.686957c-240.996174 0-436.313043 195.361391-436.313043 436.313043 0 240.951652 195.31687 436.313043 436.313043 436.313043 240.951652 0 436.313043-195.361391 436.313043-436.313043 0-240.951652-195.361391-436.313043-436.313043-436.313043zM13.356522 512C13.356522 236.588522 236.588522 13.356522 512 13.356522c275.366957 0 498.643478 223.232 498.643478 498.643478 0 275.411478-223.276522 498.643478-498.643478 498.643478C236.588522 1010.643478 13.356522 787.411478 13.356522 512z" p-id="4893"></path><path d="M534.171826 609.591652v14.781218h-51.333565v-14.781218c0-21.192348 3.82887-39.802435 11.575652-55.874782 8.94887-19.233391 30.141217-43.631304 64.77913-74.48487 10.284522-10.24 17.986783-17.942261 21.815653-23.106783 12.866783-16.027826 19.277913-32.723478 19.277913-50.754782 0-25.644522-7.702261-45.545739-21.815652-59.659131-14.781217-15.449043-35.929043-22.483478-62.909218-22.483478-32.055652 0-55.830261 10.24-71.234782 31.432348-14.113391 17.986783-21.192348 42.384696-21.192348 73.861565H372.424348c0-44.966957 12.198957-80.896 37.843478-107.876174 25.689043-28.271304 61.662609-42.384696 107.876174-42.384695 41.049043 0 73.817043 10.907826 98.838261 34.014608 23.730087 21.815652 35.929043 52.045913 35.929043 90.557218 0 28.93913-8.325565 53.960348-24.397913 75.152695-6.41113 7.702261-23.730087 24.397913-51.956869 49.419131-14.113391 12.198957-23.774609 23.774609-30.185739 35.305739a89.666783 89.666783 0 0 0-12.198957 46.881391z m1.914435 125.239652a39.312696 39.312696 0 0 1-27.603478 10.907826 39.312696 39.312696 0 0 1-27.603479-10.907826 36.774957 36.774957 0 0 1-10.907826-27.603478c0-10.952348 3.250087-19.901217 10.952348-26.980174a36.774957 36.774957 0 0 1 27.603478-10.907826c10.907826 0 20.48 3.205565 28.226783 10.907826 7.034435 7.078957 10.907826 16.027826 10.907826 26.980174 0 11.575652-3.873391 20.524522-11.575652 27.603478z" p-id="4894"></path>
</svg>
