<svg xmlns="http://www.w3.org/2000/svg" version="1.1" width="1194" height="1024" fill="currentColor" aria-hidden="true" focusable="false">
    <path d="M893.056 790.613333a42.666667 42.666667 0 0 1 4.992 85.034667l-4.992 0.256h-257.877333a42.666667 42.666667 0 0 1-4.992-85.034667l4.992-0.298666h257.877333z m0-321.28a42.666667 42.666667 0 0 1 4.992 85.034667L893.013333 554.666667H377.258667a42.666667 42.666667 0 0 1-4.992-85.034667L377.258667 469.333333h515.84z m0-321.28a42.666667 42.666667 0 0 1 4.992 85.077334l-4.992 0.298666H156.202667a42.666667 42.666667 0 0 1-4.992-85.077333l4.992-0.256h736.853333z"></path>
</svg>
