<svg xmlns="http://www.w3.org/2000/svg" version="1.1" width="1024" height="1024" fill="currentColor" aria-hidden="true" focusable="false">
    <path d="M736.78848 752.14848a50.66752 50.66752 0 1 1 0 101.33504H229.90848a50.66752 50.66752 0 1 1 0-101.33504h506.83904zM484.1472 143.89248l1.72032 0.04096c0.57344 0 1.10592 0.08192 1.6384 0.12288l0.90112 0.08192 1.024 0.12288 1.6384 0.2048 0.94208 0.16384 1.6384 0.28672 1.6384 0.4096 0.8192 0.2048 1.024 0.24576 1.10592 0.32768 1.26976 0.4096 1.6384 0.57344a50.3808 50.3808 0 0 1 9.99424 5.12l0.45056 0.32768a48.98816 48.98816 0 0 1 7.29088 5.9392l202.99776 202.99776 4.21888 4.79232a50.70848 50.70848 0 0 1-71.80288 70.57408l-4.096-3.6864-116.24448-116.20352v283.11552a50.66752 50.66752 0 0 1-101.00736 5.89824l-0.32768-5.89824V316.86656l-116.24448 116.28544a50.66752 50.66752 0 0 1-75.89888-66.88768l4.21888-4.79232 202.752-202.752 1.96608-1.8432 0.8192-0.77824-2.49856 2.33472 3.11296-2.8672 2.33472-1.80224a55.296 55.296 0 0 1 4.5056-2.99008l2.048-1.10592a47.3088 47.3088 0 0 1 3.80928-1.80224l0.49152-0.2048c0.98304-0.4096 1.96608-0.77824 2.99008-1.10592l2.4576-0.77824 2.21184-0.57344 1.39264-0.28672 0.94208-0.2048a50.87232 50.87232 0 0 1 4.096-0.57344l0.90112-0.08192 1.6384-0.12288 1.76128-0.04096h1.72032z"></path>
</svg>
