<svg xmlns="http://www.w3.org/2000/svg" version="1.1" width="1194" height="1024" fill="currentColor" aria-hidden="true" focusable="false">
    <path d="M718.208 790.613333a42.666667 42.666667 0 0 1 4.992 85.034667l-4.992 0.256h-257.877333a42.666667 42.666667 0 0 1-4.992-85.034667l4.992-0.298666h257.877333zM865.578667 469.333333a42.666667 42.666667 0 0 1 4.992 85.034667l-4.992 0.298667H349.781333a42.666667 42.666667 0 0 1-4.992-85.034667L349.781333 469.333333h515.797334z m110.506666-321.28a42.666667 42.666667 0 0 1 4.992 85.077334l-4.949333 0.298666H239.274667a42.666667 42.666667 0 0 1-4.992-85.077333l4.949333-0.256h736.853333z"></path>
</svg>
