<svg xmlns="http://www.w3.org/2000/svg" version="1.1" width="1024" height="1024" fill="currentColor" aria-hidden="true" focusable="false">
    <path d="M1014.460632 49.421474a51.738947 51.738947 0 0 1 51.146105 56.589473l-0.10779 0.916211-79.333052 745.795368A190.464 190.464 0 0 1 800.175158 1024h-2.910316l-498.149053-1.185684a190.356211 190.356211 0 0 1-187.661473-168.151579l-0.377263-2.910316L31.258947 106.927158A51.738947 51.738947 0 0 1 81.381053 49.367579h933.025684v0.053895zM405.288421 273.893053a51.631158 51.631158 0 0 0-51.361684 51.09221v357.699369a51.361684 51.361684 0 1 0 102.669474-0.377264V324.608a51.631158 51.631158 0 0 0-51.30779-50.661053z m267.856842 0a51.631158 51.631158 0 0 0-51.307789 51.09221v357.699369a51.361684 51.361684 0 1 0 102.669473-0.377264V324.608a51.631158 51.631158 0 0 0-51.307789-50.661053z"></path>
</svg>
