<svg xmlns="http://www.w3.org/2000/svg" version="1.1" width="1024" height="1024" fill="currentColor" aria-hidden="true" focusable="false">
    <path d="M484.352 199.918933a55.296 55.296 0 0 1 50.517333-2.4576l4.778667 2.4576 228.795733 132.096c15.5648 8.977067 25.668267 24.8832 27.409067 42.530134l0.238933 5.358933v264.192a55.296 55.296 0 0 1-23.1424 44.987733l-4.5056 2.901334-228.795733 132.096a55.296 55.296 0 0 1-50.517333 2.4576l-4.778667-2.4576-228.795733-132.096a55.296 55.296 0 0 1-27.409067-42.530134l-0.238933-5.358933v-264.192c0-17.954133 8.704-34.679467 23.1424-44.987733l4.5056-2.901334 228.795733-132.096z m27.648 54.954667l-222.651733 128.580267v257.092266L512 769.092267l222.651733-128.546134v-257.092266L512 254.907733z m120.900267 147.319467a30.72 30.72 0 0 1 2.628266 40.311466l-2.730666 3.140267-88.507734 87.9616v102.570667a30.72 30.72 0 0 1-61.201066 3.857066l-0.238934-3.857066v-101.5808l-88.576-89.088a30.72 30.72 0 0 1 40.413867-46.08l3.140267 2.7648 75.298133 75.741866 76.322133-75.844266a30.72 30.72 0 0 1 43.451734 0.1024z"></path>
</svg>
