<svg xmlns="http://www.w3.org/2000/svg" version="1.1" width="1024" height="1024" fill="currentColor" aria-hidden="true" focusable="false">
    <path d="M828.970667 140.8A139.562667 139.562667 0 0 1 968.533333 280.362667V743.68a139.562667 139.562667 0 0 1-139.562666 139.562667H194.986667A139.562667 139.562667 0 0 1 55.466667 743.637333V280.32A139.562667 139.562667 0 0 1 195.029333 140.8zM115.2 391.978667v351.658666c0 44.074667 35.754667 79.829333 79.829333 79.829334H829.013333a79.829333 79.829333 0 0 0 79.829334-79.829334V392.021333l-334.464 185.728c-36.181333 19.242667-78.549333 20.522667-115.925334 3.669334l-7.936-3.882667L115.2 391.978667zM828.970667 200.533333H194.986667A79.829333 79.829333 0 0 0 115.2 280.362667v43.349333l363.733333 201.301333c19.157333 10.154667 41.173333 11.178667 60.586667 3.242667l6.314667-2.986667L908.8 323.754667V280.362667c0-41.984-32.426667-76.373333-73.6-79.573334l-6.229333-0.256z"></path>
</svg>
