<svg xmlns="http://www.w3.org/2000/svg" version="1.1" width="1024" height="1024" fill="currentColor" aria-hidden="true" focusable="false">
    <path d="M595.797333 140.842667l2.218667 0.042666 7.552 0.384 3.413333 0.298667a121.088 121.088 0 0 1 87.466667 53.376l38.4 64.128c5.973333 11.648 46.250667 25.728 76.757333 25.728l7.210667 0.213333c59.648 3.669333 107.050667 52.693333 107.050667 112.853334v224.597333l-0.128 35.413333-0.256 20.522667-0.426667 18.261333-0.64 16.213334-0.853333 14.378666-1.237334 12.8a168.405333 168.405333 0 0 1-8.448 39.296l-3.2 7.978667-1.834666 3.84-4.010667 7.594667-4.565333 7.594666a165.546667 165.546667 0 0 1-52.48 51.712c-24.96 15.488-43.264 21.632-80.597334 23.893334l-17.237333 0.725333-9.6 0.256-21.589333 0.213333h-413.44l-11.221334-0.085333-20.010666-0.384-17.237334-0.725333c-37.333333-2.304-55.68-8.405333-80.64-23.893334A165.546667 165.546667 0 0 1 123.733333 806.4c-13.482667-21.162667-20.053333-42.282667-23.125333-78.506667l-1.109333-16.512a714.922667 714.922667 0 0 1-0.426667-9.002666l-0.554667-19.754667-0.298666-22.272-0.085334-262.4c0-62.592 51.242667-113.109333 114.261334-113.109333l6.314666-0.213334c30.037333-1.706667 66.773333-14.933333 72.832-26.752l35.584-61.909333 5.376-7.68a121.173333 121.173333 0 0 1 89.685334-47.232l8.789333-0.170667h164.821333z m0.426667 59.733333h-168.192l-6.144 0.341333c-18.176 2.048-34.432 11.946667-44.373333 26.965334l-36.906667 64.298666c-22.229333 33.621333-79.786667 52.352-128.213333 52.352-30.208 0-54.528 23.978667-54.528 53.333334v250.197333l0.170666 21.333333 0.597334 27.136 0.725333 15.189334 1.024 13.184 1.28 11.306666 1.706667 9.813334c1.834667 9.045333 4.266667 16.170667 7.381333 22.314666l3.370667 5.930667c8.533333 13.312 19.968 24.618667 33.536 33.024l7.082666 4.138667c12.672 6.912 24.234667 9.856 48.469334 11.093333l14.592 0.554667 27.690666 0.341333h413.098667l27.648-0.341333 7.68-0.213334 13.226667-0.682666c20.053333-1.450667 30.592-4.48 42.112-10.709334l7.082666-4.181333a105.813333 105.813333 0 0 0 34.986667-35.456l2.730667-5.034667 1.28-2.645333 2.133333-5.674667 1.92-6.314666 0.853333-3.498667 1.450667-7.68 0.64-4.266667 1.109333-9.514666 0.853334-10.88 0.682666-12.544 0.682667-22.186667 0.384-26.88 0.085333-256.853333c0-29.354667-24.32-53.333333-54.528-53.333334-50.773333 0-111.018667-21.034667-129.024-56.661333l-35.413333-59.136-4.096-5.674667a61.525333 61.525333 0 0 0-42.453333-22.272l-4.394667-0.213333zM512 396.8a157.866667 157.866667 0 1 1 0 315.733333 157.866667 157.866667 0 0 1 0-315.733333z m0 59.733333a98.133333 98.133333 0 1 0 0 196.266667 98.133333 98.133333 0 0 0 0-196.266667z"></path>
</svg>
