<svg xmlns="http://www.w3.org/2000/svg" version="1.1" width="1024" height="1024" fill="currentColor" aria-hidden="true" focusable="false">
    <path d="M741.290667 204.074667a63.445333 63.445333 0 0 1 88.618666 1.365333 55.04 55.04 0 0 1-0.896 77.866667l-231.210666 226.005333 225.28 213.205333a59.989333 59.989333 0 0 1-1.706667 88.661334 71.125333 71.125333 0 0 1-96.597333-2.645334l-216.533334-211.669333-216.490666 211.669333c-24.917333 24.32-63.488 26.88-91.221334 6.912l-5.418666-4.266666a59.989333 59.989333 0 0 1-1.706667-88.661334l225.28-213.205333L187.52 283.306667a55.04 55.04 0 0 1 1.621333-80.256 63.445333 63.445333 0 0 1 86.101334 1.024l233.002666 220.501333z"></path>
</svg>
