<svg xmlns="http://www.w3.org/2000/svg" version="1.1" width="1024" height="1024" fill="currentColor" aria-hidden="true" focusable="false">
    <path d="M589.226667 162.176l13.226666 0.128 24.832 0.384 22.613334 0.64 10.581333 0.426667 19.626667 1.152c68.693333 4.821333 101.12 17.450667 131.370666 47.616l3.626667 3.754666c22.528 23.594667 34.389333 47.36 40.533333 91.776l1.706667 14.762667 1.408 16.213333 0.597333 8.746667 0.938667 18.773333 0.682667 20.693334 0.64 34.858666 0.213333 25.984v113.92l-0.213333 40.96-0.682667 35.669334-0.725333 21.077333-1.024 19.114667-0.64 8.874666-1.493334 16.426667c-5.888 54.698667-18.645333 80.426667-45.568 107.349333l-3.754666 3.626667c-23.594667 22.528-47.36 34.389333-91.776 40.533333l-14.762667 1.706667-16.213333 1.408-8.746667 0.597333-18.773333 0.938667-20.693334 0.682667-34.858666 0.64-25.984 0.213333h-113.92l-40.96-0.213333-35.669334-0.682667-21.077333-0.725333-19.114667-1.024-8.874666-0.64-16.426667-1.493334c-54.698667-5.888-80.426667-18.645333-107.349333-45.568-31.573333-31.573333-43.861333-65.664-48.213334-140.970666l-0.981333-20.608-0.384-11.093334-0.512-23.68-0.256-25.984v-140.458666l0.128-27.136 0.384-24.832 0.64-22.613334 0.426667-10.538666 1.152-19.669334c4.821333-68.693333 17.408-101.12 47.616-131.370666 31.573333-31.573333 65.664-43.861333 140.970666-48.213334l20.608-0.981333 11.093334-0.384 23.68-0.512 25.984-0.256z m-0.938667 59.733333h-152.533333l-24.192 0.256-31.957334 0.768-18.602666 0.810667-16.64 1.066667-14.805334 1.450666-13.184 1.706667c-30.976 4.864-47.914667 13.098667-61.610666 26.794667l-2.645334 2.816c-12.117333 13.226667-19.626667 29.866667-24.106666 58.794666l-1.749334 13.184-1.450666 14.805334-1.066667 16.64-0.853333 18.602666-0.725334 31.914667-0.256 24.192v139.52l0.256 37.205333 0.768 31.957334 0.810667 18.602666 1.066667 16.64 1.450666 14.805334 1.706667 13.184c4.864 30.976 13.098667 47.914667 26.794667 61.610666l2.517333 2.389334c1.706667 1.578667 3.413333 3.072 5.205333 4.48l5.546667 4.053333c9.685333 6.4 21.461333 10.965333 38.272 14.250667l10.709333 1.792 5.888 0.810666 12.8 1.365334 6.954667 0.597333 15.146667 1.024 16.938666 0.768 29.013334 0.810667 33.706666 0.426666 110.08 0.128 38.954667-0.128 33.749333-0.426666 19.84-0.469334 17.877334-0.682666 16.042666-0.896 14.336-1.152 6.570667-0.64 12.074667-1.536 10.666666-1.792c15.189333-2.986667 26.24-6.997333 35.328-12.373334l5.802667-3.84c3.712-2.688 7.125333-5.674667 10.453333-8.96l2.389334-2.517333 2.304-2.56 4.266666-5.376c7.381333-10.154667 12.586667-22.613333 16.213334-41.088l1.792-10.709333 0.810666-5.888 1.365334-12.8 0.597333-6.954667 1.024-15.146667 0.768-16.938666 0.810667-29.013334 0.426666-33.706666 0.128-110.08-0.128-38.954667-0.426666-33.749333-0.469334-19.84-0.682666-17.877334-0.896-16.042666-1.152-14.336a422.912 422.912 0 0 0-0.64-6.570667l-1.536-12.074667-1.792-10.666666c-3.285333-16.853333-7.893333-28.629333-14.250667-38.314667l-4.053333-5.546667a90.368 90.368 0 0 0-6.869334-7.68l-2.816-2.688c-13.226667-12.117333-29.866667-19.626667-58.794666-24.106666l-13.184-1.749334-14.805334-1.450666-16.64-1.066667-18.602666-0.853333-31.914667-0.725334-24.192-0.256z m-75.776 89.685334c15.445333 0 27.562667 7.765333 37.290667 20.906666l1.749333 2.432 3.370667 5.12 3.328 5.802667 3.626666 7.04 4.181334 8.874667 20.010666 44.714666 2.645334 5.290667 2.048 3.498667 1.706666 2.218666a9.088 9.088 0 0 0 1.536 1.365334l0.938667 0.554666a14.250667 14.250667 0 0 0 2.517333 1.024l3.712 0.896 2.474667 0.426667 10.752 1.322667 39.082667 3.413333 21.205333 2.133333 11.392 1.536c27.733333 4.352 34.944 11.093333 41.685333 29.525334 7.466667 20.394667 5.589333 30.293333-16.768 51.541333l-9.386666 8.533333-11.434667 9.898667-32.853333 27.562667-7.893334 6.997333-2.816 2.858667-1.493333 1.92-0.725333 1.621333-0.426667 1.578667a7.936 7.936 0 0 0 0 0.938666l0.256 2.816 1.493333 7.808 8.704 36.736 3.157334 13.909334 2.261333 11.52c4.266667 24.32 1.28 32-10.496 44.032a48.213333 48.213333 0 0 1-22.784 12.970666c-13.653333 3.413333-21.845333 2.858667-38.613333-7.509333l-9.173334-5.973333-11.008-7.850667-34.218666-25.258667-8.661334-5.973333-3.925333-2.304-2.858667-1.28-2.261333-0.597333a22.954667 22.954667 0 0 0-6.613333 0l-2.261334 0.554666-2.858666 1.28a43.434667 43.434667 0 0 0-1.792 1.024l-4.565334 2.944-6.229333 4.352-34.218667 25.258667-11.008 7.808-9.173333 6.016c-16.768 10.368-24.917333 10.965333-38.613333 7.509333a48.213333 48.213333 0 0 1-22.784-12.970666c-12.586667-12.842667-15.146667-20.778667-9.472-49.493334l2.730666-12.672 10.368-44.032 1.493334-7.808 0.256-2.816a6.144 6.144 0 0 0-0.170667-1.664l-0.597333-1.706666-1.493334-2.176-2.304-2.474667-6.144-5.632-28.970666-24.32-17.92-15.36-9.386667-8.533333c-22.4-21.333333-24.32-31.189333-16.853333-51.584 7.210667-19.626667 14.890667-25.984 47.146666-30.293334l12.458667-1.493333 14.72-1.408 34.133333-2.944 12.714667-1.365333 5.461333-0.853334 2.048-0.426666 3.029334-0.981334a11.008 11.008 0 0 0 2.090666-1.066666 17.792 17.792 0 0 0 4.864-6.357334l0.938667-1.706666 3.157333-6.357334 16.554667-37.376 6.613333-14.122666 3.626667-7.082667 3.328-5.845333 3.370667-5.12 1.749333-2.432c9.728-13.098667 21.845333-20.906667 37.248-20.906667z m0 57.472l-3.84 7.509333-5.845333 12.544-15.36 34.645333-4.309334 9.045334-2.645333 4.906666a66.346667 66.346667 0 0 1-20.608 23.424 60.16 60.16 0 0 1-25.984 10.496l-9.472 1.450667-11.861333 1.28-43.861334 3.797333-13.269333 1.450667 4.906667 4.394667 37.333333 31.488 8.789333 7.509333 6.186667 5.76c1.749333 1.706667 3.242667 3.285333 4.608 4.906667l3.882667 4.992a56.832 56.832 0 0 1 9.216 19.541333c2.389333 8.96 2.816 15.36 0.981333 26.496l-2.176 10.88-10.794667 45.952-1.194666 5.76 47.786666-34.986667a282.453333 282.453333 0 0 1 4.693334-3.2l8.149333-5.162666c8.704-5.12 15.104-7.125333 23.978667-8.405334a74.24 74.24 0 0 1 21.461333 0c8.874667 1.28 15.274667 3.328 23.978667 8.405334l8.106666 5.12 4.693334 3.285333 47.786666 34.944-1.152-5.76-10.794666-45.952-2.133334-10.88a54.613333 54.613333 0 0 1 0.938667-26.496c0.768-2.901333 1.749333-5.717333 2.944-8.533333l2.901333-6.058667c2.56-4.693333 5.632-8.704 10.581334-13.653333l6.954666-6.442667 4.266667-3.754667 39.253333-33.024 7.978667-7.125333-13.226667-1.450667-43.904-3.84-11.818666-1.28-9.472-1.408a60.16 60.16 0 0 1-26.026667-10.496c-10.026667-6.869333-15.445333-13.013333-22.613333-27.221333l-5.162667-10.752-15.104-34.048-5.802667-12.544-3.925333-7.509333z"></path>
</svg>
