<svg xmlns="http://www.w3.org/2000/svg" version="1.1" width="1024" height="1024" fill="currentColor" aria-hidden="true" focusable="false">
    <path d="M916.565333 252.202667l-1.365333 19.157333-2.005333 20.48c-0.768 7.082667-1.621333 14.378667-2.645334 21.888l-3.285333 23.253333-3.968 24.618667-4.565333 26.026667-2.56 13.482666-6.826667 33.792c16.384 39.594667 25.088 81.28 25.088 122.794667l-0.085333 8.576-0.512 17.066667c-7.68 167.381333-94.165333 311.808-401.28 312.661333-286.293333 0.768-384.042667-125.994667-402.474667-278.869333l-1.706667-16.768c-1.152-14.08-1.706667-28.330667-1.706666-42.666667 0-42.922667 9.386667-85.973333 27.136-126.592l-6.613334-33.28c-0.853333-4.522667-1.706667-8.96-2.474666-13.354667l-4.522667-25.685333-3.84-24.32-3.2-22.997333a1032.789333 1032.789333 0 0 1-1.365333-10.965334l-2.261334-20.949333-1.578666-19.626667-0.597334-9.258666-0.597333-17.536c-1.450667-78.762667 18.218667-113.28 59.008-103.509334 55.68 13.312 121.472 44.714667 197.418667 94.122667 44.970667-15.744 94.762667-24.704 148.522666-24.917333a442.325333 442.325333 0 0 1 149.546667 24.704c75.733333-49.322667 141.397333-80.64 196.992-93.909334 43.946667-10.538667 63.36 30.336 58.325333 122.581334zM311.466667 403.541333l-6.741334 4.565334-132.608 97.450666a244.992 244.992 0 0 0-5.717333 52.138667c0 183.381333 93.866667 279.253333 345.984 278.570667 251.776-0.682667 342.314667-94.336 342.314667-278.613334 0-17.322667-1.92-34.858667-5.632-52.352L722.176 409.6a99.925333 99.925333 0 0 0-113.152-4.992l-6.4 4.352-49.834667 36.778667a68.266667 68.266667 0 0 1-76.288 3.242666l-5.333333-3.626666-48.512-36.522667A98.816 98.816 0 0 0 311.466667 403.541333z m266.752 297.642667a21.333333 21.333333 0 0 1-7.765334 29.141333c-22.784 13.226667-41.002667 20.096-56.234666 20.096-15.104 0-33.621333-6.784-57.344-19.882666a21.333333 21.333333 0 1 1 20.608-37.333334c17.92 9.856 30.72 14.549333 36.693333 14.549334 5.888 0 18.048-4.608 34.901333-14.336a21.333333 21.333333 0 0 1 29.141334 7.765333zM661.333333 554.666667a42.666667 42.666667 0 1 1 0 85.333333 42.666667 42.666667 0 0 1 0-85.333333z m-298.666666 0a42.666667 42.666667 0 1 1 0 85.333333 42.666667 42.666667 0 0 1 0-85.333333z m492.757333-362.410667l-3.114667 0.938667c-44.373333 13.909333-97.408 40.618667-158.464 80.384a59.733333 59.733333 0 0 1-52.48 6.272 382.72 382.72 0 0 0-129.408-21.290667 393.002667 393.002667 0 0 0-129.024 21.589333 59.733333 59.733333 0 0 1-52.352-6.314666c-61.269333-39.893333-114.432-66.688-158.848-80.64l-3.2-0.938667-0.853333 6.229333c-2.176 19.712-1.664 46.378667 1.706667 79.701334l2.688 23.210666 3.498666 25.173334c0.64 4.352 1.365333 8.789333 2.090667 13.312l4.778667 28.032 5.632 29.952 4.437333 22.186666 0.768 6.357334 81.109333-59.562667a150.016 150.016 0 0 1 171.733334-4.181333l7.338666 5.205333 48.512 36.522667a17.066667 17.066667 0 0 0 17.194667 1.962666l3.2-1.834666 49.834667-36.778667a151.125333 151.125333 0 0 1 173.397333-4.266667l7.424 5.205334 77.141333 58.325333a59.733333 59.733333 0 0 1 0.725334-4.266667l3.968-19.456c3.242667-16.213333 6.101333-31.573333 8.618666-46.250666l4.608-28.288c8.277333-54.442667 11.093333-96.426667 8.704-125.141334l-1.365333-11.349333z"></path>
</svg>
