<svg xmlns="http://www.w3.org/2000/svg" version="1.1" width="1024" height="1024" fill="currentColor" aria-hidden="true" focusable="false">
    <path d="M715.707733 242.346667a30.72 30.72 0 0 1 30.481067 26.862933l0.238933 3.857067v231.6288l-0.170666 3.413333c34.747733 12.288 59.767467 44.885333 59.767466 83.421867 0 38.570667-25.019733 71.168-59.767466 83.456l0.170666 3.413333v57.890133a30.72 30.72 0 0 1-61.201066 3.857067l-0.238934-3.857067v-57.890133l0.2048-3.413333c-34.781867-12.288-59.8016-44.885333-59.8016-83.456s25.019733-71.168 59.8016-83.421867l-0.2048-3.413333V273.066667a30.72 30.72 0 0 1 30.72-30.72z m-417.1776 0a30.72 30.72 0 0 1 30.481067 26.862933L329.250133 273.066667v206.165333c34.679467 12.322133 59.5968 44.885333 59.5968 83.3536 0 38.5024-24.917333 71.031467-59.562666 83.3536l-0.034134 90.350933a30.72 30.72 0 0 1-61.201066 3.857067l-0.238934-3.857067v-90.350933C233.130667 633.6512 208.213333 601.088 208.213333 562.5856c0-38.468267 24.917333-71.031467 59.5968-83.3536V273.066667a30.72 30.72 0 0 1 30.72-30.72z m208.5888 1.365333c14.984533 0 27.3408 11.195733 29.149867 25.668267l0.238933 3.6864 0.034134 60.962133c35.362133 11.946667 60.893867 44.817067 60.893866 83.797333 0 38.570667-24.9856 71.168-59.767466 83.421867l0.170666 3.413333v231.6288a30.72 30.72 0 0 1-61.201066 3.857067l-0.238934-3.857067v-231.594666l0.2048-3.413334c-34.816-12.288-59.8016-44.885333-59.8016-83.456 0-38.980267 25.565867-71.8848 60.928-83.831466V273.066667a29.354667 29.354667 0 0 1 29.3888-29.354667z m208.5888 320.648533c-16.145067 0-28.8768 12.356267-28.8768 27.170134 0 14.813867 12.731733 27.204267 28.8768 27.204266s28.8768-12.3904 28.8768-27.204266c0-14.813867-12.731733-27.170133-28.8768-27.170134z m-417.1776-28.945066c-16.145067 0-28.8768 12.356267-28.8768 27.170133 0 14.813867 12.731733 27.204267 28.8768 27.204267s28.8768-12.3904 28.8768-27.204267c0-14.813867-12.731733-27.170133-28.8768-27.170133z m208.5888-144.759467c-16.145067 0-28.8768 12.356267-28.8768 27.170133 0 14.813867 12.731733 27.170133 28.8768 27.170134s28.8768-12.356267 28.8768-27.170134c0-14.813867-12.731733-27.170133-28.8768-27.170133z"></path>
</svg>
