<svg xmlns="http://www.w3.org/2000/svg" version="1.1" width="1024" height="1024" fill="currentColor" aria-hidden="true" focusable="false">
    <path d="M372.596364 455.773091h109.242181V339.456a41.890909 41.890909 0 1 1 83.781819 0v116.363636h106.030545a41.890909 41.890909 0 1 1 0 83.781819h-106.030545v111.616a41.890909 41.890909 0 0 1-83.781819 0v-111.662546H372.596364a41.890909 41.890909 0 1 1 0-83.781818z m141.963636-359.889455a414.254545 414.254545 0 1 1 0 828.509091 414.254545 414.254545 0 0 1 0-828.509091z m-330.472727 414.254546a330.472727 330.472727 0 1 0 660.945454 0 330.472727 330.472727 0 0 0-660.945454 0z"></path>
</svg>
