<svg xmlns="http://www.w3.org/2000/svg" version="1.1" width="1024" height="1024" fill="currentColor" aria-hidden="true" focusable="false">
    <path d="M800 192h-576C171.008 192 128 227.84 128 272v480c0 44.16 43.008 80 96 80h576c52.992 0 96-35.84 96-80v-480C896 227.84 852.992 192 800 192z m0 64c17.664 0 32 11.52 32 25.6v460.8c0 14.08-14.336 25.6-32 25.6h-576c-17.664 0-32-11.52-32-25.6V281.6c0-14.08 14.336-25.6 32-25.6h576z" fill="#61626B"></path><path d="M256 0h512a64 64 0 0 1 64 64v896a64 64 0 0 1-64 64H256a64 64 0 0 1-64-64V64a64 64 0 0 1 64-64z" fill="#FFB923"></path>
</svg>
