<svg xmlns="http://www.w3.org/2000/svg" version="1.1" width="1024" height="1024" fill="currentColor" aria-hidden="true" focusable="false">
    <path d="M813.738667 567.466667a29.866667 29.866667 0 0 1 4.053333 59.477333l-4.053333 0.256H225.578667c-26.922667 0-48.725333 17.664-51.626667 39.808a609.706667 609.706667 0 0 0 0 159.317333c2.688 20.565333 21.674667 37.248 45.909333 39.552l5.717334 0.256h364.8a29.866667 29.866667 0 0 1 4.096 59.477334l-4.053334 0.256H225.578667c-55.936 0-103.893333-38.826667-110.848-91.733334a669.44 669.44 0 0 1 0-174.933333c6.656-50.602667 50.773333-88.32 103.594666-91.52l7.253334-0.213333h588.16z m139.690666 81.365333a29.866667 29.866667 0 0 1 8.362667 38.058667l-2.389333 3.754666-172.842667 220.757334a29.866667 29.866667 0 0 1-42.794667 5.248l-3.328-3.2-96-106.666667a29.866667 29.866667 0 0 1 40.874667-43.264l3.541333 3.328 71.68 79.658667 151.082667-191.701334a29.866667 29.866667 0 0 1 41.813333-5.973333zM821.546667 128a85.333333 85.333333 0 0 1 84.949333 77.397333c2.858667 30.506667 4.266667 61.610667 4.266667 93.269334s-1.408 62.72-4.266667 93.269333A85.333333 85.333333 0 0 1 821.546667 469.333333H200.021333a85.333333 85.333333 0 0 1-84.736-75.136 800.085333 800.085333 0 0 1 0-191.061333A85.333333 85.333333 0 0 1 200.021333 128h621.525334z m0 59.733333H200.021333a25.6 25.6 0 0 0-25.429333 22.528 740.352 740.352 0 0 0 0 176.810667 25.6 25.6 0 0 0 21.162667 22.186667l4.266666 0.341333h621.525334a25.6 25.6 0 0 0 25.472-23.210667c2.688-28.672 4.010667-57.898667 4.010666-87.722666 0-29.866667-1.322667-59.050667-4.010666-87.722667a25.6 25.6 0 0 0-25.472-23.210667z"></path>
</svg>
