<svg xmlns="http://www.w3.org/2000/svg" version="1.1" width="1024" height="1024" fill="currentColor" aria-hidden="true" focusable="false">
    <path d="M853.333333 128a170.666667 170.666667 0 0 1 170.666667 170.666667v426.666666a170.666667 170.666667 0 0 1-170.666667 170.666667H170.666667a170.666667 170.666667 0 0 1-170.666667-170.666667V298.666667a170.666667 170.666667 0 0 1 170.666667-170.666667h682.666666z m0 59.733333H170.666667a110.933333 110.933333 0 0 0-110.72 103.936L59.733333 298.666667v426.666666a110.933333 110.933333 0 0 0 103.936 110.72L170.666667 836.266667h682.666666a110.933333 110.933333 0 0 0 110.72-103.936L964.266667 725.333333V298.666667a110.933333 110.933333 0 0 0-103.936-110.72L853.333333 187.733333z m-282.453333 201.813334c5.674667 0 10.794667 1.92 15.36 5.76 4.565333 3.84 6.826667 10.154667 6.826667 18.986666 0 9.088-2.432 15.488-7.253334 19.2a24.32 24.32 0 0 1-14.933333 5.546667H516.266667v229.973333c0 5.674667-2.133333 10.794667-6.4 15.36-4.266667 4.565333-11.392 6.826667-21.333334 6.826667-9.941333 0-17.066667-2.432-21.333333-7.253333a22.485333 22.485333 0 0 1-6.4-14.933334v-229.973333H406.186667a24.32 24.32 0 0 1-14.933334-5.546667c-4.821333-3.712-7.253333-10.112-7.253333-19.2 0-8.832 2.261333-15.146667 6.826667-18.986666a23.210667 23.210667 0 0 1 15.36-5.76h164.693333z m265.386667-4.266667c9.941333 0 17.066667 2.261333 21.333333 6.826667 4.266667 4.565333 6.4 9.685333 6.4 15.36v264.533333a22.229333 22.229333 0 0 1-4.266667 13.226667c-2.858667 3.968-9.258667 5.973333-19.2 5.973333a20.736 20.736 0 0 1-14.293333-5.12c-3.84-3.413333-7.04-6.826667-9.6-10.24l-134.4-175.36v168.533333c0 5.674667-2.133333 10.794667-6.4 15.36-4.266667 4.565333-11.392 6.826667-21.333333 6.826667-9.941333 0-17.066667-2.432-21.333334-7.253333a22.485333 22.485333 0 0 1-6.4-14.933334V405.333333a23.893333 23.893333 0 0 1 4.266667-13.866666c2.858667-4.138667 9.386667-6.186667 19.626667-6.186667a19.2 19.2 0 0 1 13.866666 5.12c3.541333 3.413333 6.613333 6.826667 9.173334 10.24l134.826666 181.333333V407.466667c0-5.12 2.133333-10.112 6.4-14.933334 4.266667-4.821333 11.392-7.253333 21.333334-7.253333z m-579.84 4.266667c17.621333 0 32.426667 2.048 44.373333 6.186666 11.946667 4.138667 21.546667 9.514667 28.8 16.213334 7.253333 6.698667 12.373333 14.421333 15.36 23.253333 2.986667 8.832 4.48 17.92 4.48 27.306667 0 9.941333-1.408 18.645333-4.266667 26.026666a57.088 57.088 0 0 1-29.226666 31.786667 83.242667 83.242667 0 0 1-21.546667 7.04c7.978667 1.408 15.872 3.84 23.68 7.253333 7.808 3.413333 14.805333 8.192 20.906667 14.293334 6.101333 6.101333 11.093333 13.781333 14.933333 23.04 3.84 9.258667 5.76 20.266667 5.76 33.066666 0 25.898667-7.808 45.994667-23.466667 60.373334-15.658667 14.378667-38.528 21.546667-68.693333 21.546666H178.773333c-7.68 0-13.44-2.005333-17.28-5.973333a18.645333 18.645333 0 0 1-5.76-13.226667V408.746667a18.346667 18.346667 0 0 1 5.973334-13.226667c3.968-3.968 9.685333-5.973333 17.066666-5.973333h77.653334z m-10.24 164.693333h-34.986667v84.906667h41.813333c16.213333 0 28.928-3.285333 38.186667-9.813334 9.258667-6.528 13.738667-17.066667 13.44-31.573333 0-8.832-1.28-16-3.84-21.546667a31.061333 31.061333 0 0 0-11.306667-13.226666 48.384 48.384 0 0 0-18.346666-6.826667 144.810667 144.810667 0 0 0-24.96-1.92z m8.96-116.906667H211.2v66.56h43.946667c14.506667 0 24.661333-3.2 30.506666-9.6a34.432 34.432 0 0 0 8.746667-24.106666c0-4.266667-0.725333-8.32-2.133333-12.16a28.928 28.928 0 0 0-6.826667-10.453334 33.28 33.28 0 0 0-12.16-7.466666 52.266667 52.266667 0 0 0-18.133333-2.773334z" p-id="8414"></path>
</svg>
