<svg xmlns="http://www.w3.org/2000/svg" version="1.1" width="1024" height="1024" fill="currentColor" aria-hidden="true" focusable="false">
    <path d="M810.666667 128a128 128 0 0 1 128 128v384a128 128 0 0 1-128 128H425.557333c-5.12 15.445333-15.018667 34.901333-29.696 58.453333L384 844.8c-4.266667 6.4-8.832 13.013333-13.653333 19.925333-17.536 24.874667-50.56 49.152-99.072 72.917334l-12.458667 5.888a42.666667 42.666667 0 0 1-56.533333-56.874667l7.168-15.445333 8.32-18.816 3.925333-9.685334 1.493333-3.925333c7.424-20.778667 7.424-44.373333 0-70.826667H213.333333a128 128 0 0 1-128-128V256a128 128 0 0 1 128-128h597.333334z m0 59.733333H213.333333a68.266667 68.266667 0 0 0-67.968 62.037334L145.066667 256v384a68.266667 68.266667 0 0 0 62.037333 67.968L213.333333 708.266667h9.813334a59.733333 59.733333 0 0 1 57.514666 43.605333c10.581333 37.717333 10.581333 73.856-1.28 107.050667l-3.157333 8.192 4.096-2.389334c17.749333-10.965333 30.464-21.333333 38.144-30.506666l2.986667-3.84 6.314666-9.088 11.349334-16.938667 9.642666-15.317333c10.24-16.896 16.981333-30.336 20.138667-39.893334a59.733333 59.733333 0 0 1 50.773333-40.576l5.888-0.298666H810.666667a68.266667 68.266667 0 0 0 67.968-62.037334L878.933333 640V256a68.266667 68.266667 0 0 0-62.037333-67.968L810.666667 187.733333z m-216.362667 332.8a29.866667 29.866667 0 0 1 4.053333 59.477334l-4.053333 0.256H281.770667a29.866667 29.866667 0 0 1-4.053334-59.477334l4.053334-0.256h312.533333z m170.666667-170.666666a29.866667 29.866667 0 0 1 4.053333 59.477333l-4.053333 0.256H281.770667a29.866667 29.866667 0 0 1-4.053334-59.477333l4.053334-0.256h483.2z"></path>
</svg>
