<svg xmlns="http://www.w3.org/2000/svg" version="1.1" width="1024" height="1024" fill="currentColor" aria-hidden="true" focusable="false">
    <path d="M646.4512 133.888l350.2592 583.7696c44.5568 74.2528 20.48 170.5728-53.7728 215.1296a156.8 156.8 0 0 1-80.6784 22.336H161.7408C75.136 955.136 4.9408 884.928 4.9408 798.336c0-28.416 7.7184-56.2944 22.3488-80.6656L377.5488 133.888c44.544-74.2528 140.864-98.3424 215.1296-53.7856a156.8 156.8 0 0 1 53.7728 53.7856z" fill="#FFA71A"></path><path d="M512 719.9232a65.3312 65.3312 0 1 1 0 130.6752 65.3312 65.3312 0 0 1 0-130.6752z m0-457.3312a63.5392 63.5392 0 0 1 63.5136 65.3056l-7.552 272.2688a55.9744 55.9744 0 0 1-111.9232 0l-7.552-272.256A63.5392 63.5392 0 0 1 512 262.5792z" fill="#FFFFFF"></path>
</svg>
