<svg xmlns="http://www.w3.org/2000/svg" version="1.1" width="1024" height="1024" fill="currentColor" aria-hidden="true" focusable="false">
    <path d="M96 672.042667A96.298667 96.298667 0 0 0 192 768a96.298667 96.298667 0 0 0 96-95.957333A96.341333 96.341333 0 0 0 192 576c-52.821333 0-96 42.410667-96 96.042667z m192-320.085334A96.298667 96.298667 0 0 0 192 256a96.298667 96.298667 0 0 0-96 95.957333A96.341333 96.341333 0 0 0 192 448c52.821333 0 96-42.410667 96-96.042667zM512 768a96.298667 96.298667 0 0 0 96-95.957333A96.341333 96.341333 0 0 0 512 576c-52.821333 0-96 42.410667-96 96.042667A96.298667 96.298667 0 0 0 512 768z m0-320a96.298667 96.298667 0 0 0 96-96.042667A96.298667 96.298667 0 0 0 512 256a96.298667 96.298667 0 0 0-96 95.957333A96.341333 96.341333 0 0 0 512 448z m320 320a96.298667 96.298667 0 0 0 96-95.957333A96.341333 96.341333 0 0 0 832 576c-52.821333 0-96 42.410667-96 96.042667A96.298667 96.298667 0 0 0 832 768z m-96-416.042667A96.341333 96.341333 0 0 0 832 448a96.298667 96.298667 0 0 0 96-96.042667A96.298667 96.298667 0 0 0 832 256a96.298667 96.298667 0 0 0-96 95.957333z"></path>
</svg>
