<svg xmlns="http://www.w3.org/2000/svg" version="1.1" width="1024" height="1024" fill="currentColor" aria-hidden="true" focusable="false">
    <path d="M457.386667 122.368c5.973333-32.768 51.029333-34.133333 60.501333-4.394667l1.109333 4.693334 104.917334 604.714666 81.493333-398.378666c5.717333-27.733333 41.6-33.706667 56.533333-11.52l2.389334 4.266666 80.768 167.765334H981.333333c15.872 0 28.970667 11.776 31.018667 27.093333l0.298667 4.266667a31.317333 31.317333 0 0 1-27.050667 30.976l-4.266667 0.298666h-155.904a31.317333 31.317333 0 0 1-26.026666-13.866666l-2.176-3.84-49.066667-101.930667-96.085333 469.76c-6.570667 32.298667-51.072 33.152-60.373334 3.712l-1.152-4.650667-103.253333-595.2-71.978667 392.192c-5.802667 31.488-48.469333 34.389333-59.690666 6.528l-1.493334-4.650666L275.2 382.890667l-53.76 148.608a31.317333 31.317333 0 0 1-25.130667 20.352l-4.309333 0.298666H42.666667a31.317333 31.317333 0 0 1-4.266667-62.336l4.266667-0.298666h127.36l81.408-224.64c9.941333-27.477333 47.786667-27.050667 58.282666-1.664l1.536 4.778666 68.650667 276.266667 77.44-421.888z"></path>
</svg>
