<svg xmlns="http://www.w3.org/2000/svg" version="1.1" width="1024" height="1024" fill="currentColor" aria-hidden="true" focusable="false">
    <path d="M13.356522 512C13.356522 236.588522 236.588522 13.356522 512 13.356522c275.366957 0 498.643478 223.232 498.643478 498.643478 0 275.411478-223.276522 498.643478-498.643478 498.643478C236.588522 1010.643478 13.356522 787.411478 13.356522 512z m520.815304 112.37287v-14.781218c0-17.363478 3.873391-32.723478 12.198957-46.881391 6.41113-11.575652 16.027826-23.106783 30.185739-35.305739 28.226783-25.021217 45.545739-41.71687 51.956869-49.419131 16.027826-21.192348 24.397913-46.258087 24.397913-75.152695 0-38.511304-12.198957-68.697043-35.929043-90.557218-25.021217-23.106783-57.789217-34.014609-98.838261-34.014608-46.213565 0-82.18713 14.113391-107.831652 42.384695-25.689043 26.980174-37.843478 62.909217-37.843478 107.876174h50.665739c0-31.47687 7.078957-55.874783 21.192348-73.861565 15.404522-21.192348 39.17913-31.432348 71.234782-31.432348 26.980174 0 48.128 7.034435 62.909218 22.438957 14.113391 14.157913 21.815652 34.05913 21.815652 59.748174 0 17.986783-6.41113 34.682435-19.233392 50.754782-3.873391 5.12-11.575652 12.822261-21.815652 23.062261-34.726957 30.853565-55.874783 55.206957-64.868174 74.529391-7.702261 16.027826-11.575652 34.637913-11.575652 55.830261v14.781218h51.378087z m-25.644522 121.36626a39.312696 39.312696 0 0 0 27.603479-10.907826 35.394783 35.394783 0 0 0 11.53113-27.603478 36.819478 36.819478 0 0 0-10.907826-26.980174 38.199652 38.199652 0 0 0-28.226783-10.907826 36.774957 36.774957 0 0 0-27.603478 10.907826c-7.702261 7.078957-10.907826 16.027826-10.907826 26.980174 0 10.907826 3.205565 19.901217 10.907826 27.603478a39.312696 39.312696 0 0 0 27.603478 10.907826z" fill="#FFFFFF" p-id="4779"></path>
</svg>
