<svg xmlns="http://www.w3.org/2000/svg" version="1.1" width="1024" height="1024" fill="currentColor" aria-hidden="true" focusable="false">
    <path d="M408.339692 550.754462H302.237538V340.283077c0-26.781538 5.356308-51.672615 15.990154-74.830769a193.772308 193.772308 0 0 1 44.268308-61.046154c18.747077-17.565538 40.96-31.350154 66.56-41.353846 25.521231-10.082462 53.484308-15.044923 83.810462-15.044923 26.939077 0 52.932923 4.962462 77.902769 14.966153a220.553846 220.553846 0 0 1 66.56 41.432616c19.377231 17.565538 34.816 37.966769 46.316307 61.046154 11.500308 23.158154 17.329231 48.049231 17.329231 74.830769v210.471385H618.889846V363.756308c0-35.131077-9.767385-62.306462-29.459692-81.526154-19.692308-19.298462-46.316308-28.908308-80.029539-28.908308-30.326154 0-54.744615 9.609846-73.255384 28.908308-18.589538 19.219692-27.884308 46.395077-27.884308 81.526154v186.998154z m363.126154-37.336616c15.202462 0 28.199385 5.435077 39.148308 16.305231a52.854154 52.854154 0 0 1 16.462769 38.833231v259.229538a110.907077 110.907077 0 0 1-29.932308 76.563692 101.060923 101.060923 0 0 1-74.515692 31.350154H297.196308a99.249231 99.249231 0 0 1-72.861539-30.562461 98.067692 98.067692 0 0 1-20.243692-32.137846 107.362462 107.362462 0 0 1-7.168-39.384616V568.635077a53.563077 53.563077 0 0 1 15.990154-38.833231 52.302769 52.302769 0 0 1 38.754461-16.305231H771.465846z"></path>
</svg>
