<svg xmlns="http://www.w3.org/2000/svg" version="1.1" width="24" height="24" fill="currentColor" aria-hidden="true" focusable="false">
    <path d="M12 3a1 1 0 0 1 0 2 7 7 0 1 0 7 7 1 1 0 0 1 2 0 9 9 0 1 1-9-9zm4.426 2.735l1.838 1.838a.5.5 0 0 1 0 .707l-5.717 5.718a1 1 0 0 1-.707.293H10.21a.5.5 0 0 1-.5-.5V12.16a1 1 0 0 1 .293-.707l5.717-5.718a.5.5 0 0 1 .707 0zm2.546-2.545l1.838 1.838a.5.5 0 0 1 0 .707l-1.202 1.202a.5.5 0 0 1-.707 0l-1.838-1.838a.5.5 0 0 1 0-.707l1.202-1.202a.5.5 0 0 1 .707 0z"></path>
</svg>
