<svg xmlns="http://www.w3.org/2000/svg" version="1.1" width="1024" height="1024" fill="currentColor" aria-hidden="true" focusable="false">
    <path d="M805.952 136.32a147.2 147.2 0 0 1 147.2 147.2v497.28a147.2 147.2 0 0 1-147.2 147.2H243.2a147.2 147.2 0 0 1-147.2-147.2V283.52a147.2 147.2 0 0 1 147.2-147.2z m-459.776 527.68H160V780.8a83.2 83.2 0 0 0 74.688 82.752l8.512 0.448h102.976v-200z m270.912 0H422.976V864h194.112v-200z m272 0h-195.2V864h112a83.2 83.2 0 0 0 82.816-74.688l0.448-8.512-0.064-116.8zM346.176 439.936H160v147.2h186.176v-147.2z m270.912 0H422.976v147.2h194.112v-147.2z m272 0h-195.2v147.2h195.2v-147.2z m-83.2-239.616H243.2a83.2 83.2 0 0 0-83.2 83.2v79.616h729.088V283.52a83.2 83.2 0 0 0-74.624-82.816l-8.512-0.384z"></path>
</svg>
