<svg xmlns="http://www.w3.org/2000/svg" version="1.1" width="1024" height="1024" fill="currentColor" aria-hidden="true" focusable="false">
    <path d="M617.5232 99.0208H304.128c-52.224 0-95.0272 50.7392-98.9696 115.2L204.8 223.9488v541.5936c0 65.7408 40.2944 119.6032 91.4944 124.5696l7.7824 0.3584h313.4464c52.224 0 95.0272-50.688 98.9696-115.2l0.3072-9.728V223.9488c0-65.6896-40.2944-119.552-91.4944-124.5696l-7.7824-0.3584z m-58.2656 596.992c16.3328 0 29.5424 14.5408 29.5424 32.4096a32.256 32.256 0 0 1-20.0192 30.6688l-4.608 1.3312-4.9152 0.4096H362.3424c-16.3328 0-29.5424-14.4896-29.5424-32.4096a32.256 32.256 0 0 1 20.0192-30.6176l4.608-1.3312 4.9152-0.4608h196.9152z" fill="#9A84F8" p-id="9011"></path><path d="M781.9264 169.0624l9.5232 0.3584a121.6 121.6 0 0 1 112.128 121.2416v394.3424l-0.4096 9.5232a121.6 121.6 0 0 1-121.2416 112.0768l-16.6912-0.0512V169.0624h16.6912z" fill="#9A84F8" opacity=".343" p-id="9012"></path>
</svg>
