<svg xmlns="http://www.w3.org/2000/svg" version="1.1" width="1024" height="1024" fill="currentColor" aria-hidden="true" focusable="false">
    <path d="M896 113.777778H128C88.746667 113.777778 56.888889 145.635556 56.888889 184.888889v507.960889c0 39.253333 31.857778 71.111111 71.111111 71.111111h768c39.253333 0 71.111111-31.857778 71.111111-71.111111V184.888889C967.111111 145.635556 935.253333 113.777778 896 113.777778z m-54.784 562.062222H191.886222a37.944889 37.944889 0 0 1-37.944889-37.944889V241.607111c0-20.935111 17.009778-37.944889 37.944889-37.944889h649.329778c20.935111 0 37.944889 17.009778 37.944889 37.944889v396.288a37.944889 37.944889 0 0 1-37.944889 37.888zM743.537778 828.871111H312.888889c-22.471111 0-40.675556 12.344889-40.675556 43.747556s18.204444 56.888889 40.618667 56.888889h430.648889c22.471111 0 40.675556-25.486222 40.675555-56.888889s-18.204444-43.747556-40.618666-43.747556z"></path>
</svg>
