<svg xmlns="http://www.w3.org/2000/svg" version="1.1" width="1024" height="1024" fill="currentColor" aria-hidden="true" focusable="false">
    <path d="M512 512m-512 0a512 512 0 1 0 1024 0 512 512 0 1 0-1024 0Z" fill="#FFC31F"></path><path d="M322.912 531.872c5.008 0 9.808 1.984 13.36 5.488 3.552 3.504 5.552 8.256 5.552 13.232v81.328c0 10.32 8.448 18.688 18.896 18.688h302.56c10.432 0 18.896-8.368 18.896-18.688V550.56c0-6.672 3.6-12.848 9.44-16.192a19.136 19.136 0 0 1 18.928 0c5.856 3.328 9.456 9.504 9.456 16.192v81.344C720 662.88 694.608 688 663.264 688H360.736C329.376 688 304 662.896 304 631.92V550.56c0-10.32 8.48-18.704 18.912-18.704z m118.368-193.744A18.224 18.224 0 0 1 459.584 320h109.92c4.848-0.016 9.504 1.872 12.96 5.28 3.44 3.408 5.376 8.032 5.392 12.848V443.2h54.96c7.6 0 14.432 4.64 17.12 11.696 2.72 7.04 0.736 15.024-4.96 20l-128.272 112.56c-6.944 6.08-17.36 6.08-24.32 0l-128.224-112.56a18 18 0 0 1-4.96-20c2.72-7.04 9.52-11.696 17.12-11.68h54.944v-105.072h0.016z m35.136 13.872v107.68c0 4.944-2 9.68-5.52 13.168-3.52 3.488-8.304 5.44-13.28 5.408H432l81.968 71.936 81.952-71.936h-25.616c-4.96 0.016-9.744-1.92-13.28-5.424a18.592 18.592 0 0 1-5.504-13.152V352h-75.12 0.016z" fill="#FFFFFF"></path>
</svg>
