<svg xmlns="http://www.w3.org/2000/svg" version="1.1" width="1024" height="1024" fill="currentColor" aria-hidden="true" focusable="false">
    <path d="M416 170.666667c77.397333 0 144.085333 47.274667 174.506667 115.370666 19.626667-10.410667 41.898667-16.256 65.493333-16.256 79.530667 0 144 66.56 144 148.650667 0 2.816-0.085333 5.632-0.213333 8.405333C855.808 447.146667 896 502.272 896 567.125333c0 82.090667-64.469333 148.650667-144 148.650667h-36.266667a60.842667 60.842667 0 0 0-3.626666-83.114667c-10.666667-10.282667-24.704-16-39.253334-16h-64.853333V517.546667c0-54.741333-42.965333-99.114667-96-99.114667s-96 44.373333-96 99.114667v99.114666H351.018667c-31.786667 0-57.6 26.624-57.6 59.477334 0 15.530667 5.888 30.421333 16.426666 41.557333l-1.664-1.962667h-36.181333C192.469333 715.776 128 649.216 128 567.168c0-67.669333 43.733333-124.757333 103.637333-142.762667a204.288 204.288 0 0 1-7.637333-55.466666C224 259.413333 309.973333 170.666667 416 170.666667z" fill="#D3CAFC"></path><path d="M560 666.197333h112.810667c2.432 0 4.778667 0.981333 6.570666 2.688 3.84 3.712 4.096 9.984 0.426667 13.994667l-146.901333 162.56a23.466667 23.466667 0 0 1-34.730667 0.426667l-154.026667-162.816a10.069333 10.069333 0 0 1-2.730666-6.912c0-5.504 4.309333-9.941333 9.6-9.941334h112.981333V517.546667c0-27.349333 21.504-49.536 48-49.536s48 22.186667 48 49.536v148.650666z" fill="#6E4FF4"></path>
</svg>
