<svg xmlns="http://www.w3.org/2000/svg" version="1.1" width="1303" height="1024" fill="currentColor" aria-hidden="true" focusable="false">
    <path d="M651.636364 0c210.385455 0 383.441455 173.242182 404.992 395.543273 139.636364 23.133091 246.644364 154.205091 246.644363 312.413091 0 174.545455-130.234182 316.043636-290.909091 316.043636-7.819636 0-15.592727-0.325818-23.272727-0.977455V1024H256l-0.046545-2.280727C111.709091 1002.961455 0 869.655273 0 707.956364c0-158.254545 107.054545-289.28 246.690909-312.413091C268.194909 173.242182 441.250909 0 651.636364 0zM418.443636 698.181818a46.545455 46.545455 0 1 0 0 93.090909 46.545455 46.545455 0 0 0 0-93.090909z m418.909091 0h-279.272727a46.545455 46.545455 0 1 0 0 93.090909h279.272727a46.545455 46.545455 0 0 0 0-93.090909z m-418.909091-186.181818a46.545455 46.545455 0 1 0 0 93.090909 46.545455 46.545455 0 0 0 0-93.090909z m418.909091 0h-279.272727a46.545455 46.545455 0 1 0 0 93.090909h279.272727a46.545455 46.545455 0 0 0 0-93.090909z" fill="#FFFFFF" opacity=".6"></path>
</svg>
