<svg xmlns="http://www.w3.org/2000/svg" version="1.1" width="1024" height="1024" fill="currentColor" aria-hidden="true" focusable="false">
    <path d="M661.504 873.408h127.168a37.376 37.376 0 0 0 37.376-37.44V561.792c-79.104 0-131.264-33.216-164.48-99.584C628.224 528.64 578.368 561.792 512 561.792c-66.432 0-116.288-33.216-149.504-99.584-33.28 66.368-91.136 99.584-170.56 99.584v274.176c0 20.672 16.768 37.44 37.376 37.44h133.12V711.04c0-41.216 33.536-74.688 74.816-74.688h149.504c41.28 0 74.752 33.472 74.752 74.688v162.304z m-74.752 0v-124.928a37.376 37.376 0 0 0-37.376-37.376H474.624a37.376 37.376 0 0 0-37.376 37.376v124.928h149.504zM812.032 64c49.6 0 91.648 36.416 98.688 85.44l48.256 237.632c2.56 17.792 0.256 35.904-6.656 52.48-12.352 29.44-26.304 53.632-42.048 72.448h0.448v348.416A99.52 99.52 0 0 1 811.072 960H212.928c-55.04 0-99.648-44.544-99.648-99.584V512h0.448c-15.744-18.816-29.696-42.944-42.048-72.448a99.456 99.456 0 0 1-6.656-52.48l49.28-237.632A99.648 99.648 0 0 1 212.864 64h599.104z m-39.04 101.12H253.696c-24.512 0-45.44 17.92-49.216 42.112l-28.096 181.056c-3.392 21.632 4.48 43.52 20.8 58.112a53.44 53.44 0 0 0 58.048 8.768l1.6-0.768c21.888-10.112 40.512-26.24 53.632-46.464l17.92-27.584a41.728 41.728 0 0 1 69.632-0.64l8.64 12.8c17.6 26.112 40 48.64 65.984 66.56 23.936 16.384 55.232 17.088 79.872 1.728l2.752-1.792a212.032 212.032 0 0 0 69.568-70.72l5.12-8.576a37.184 37.184 0 0 1 63.488-0.448l20.928 33.728c13.824 22.4 35.584 38.72 60.928 45.824 23.04 6.4 47.36-4.032 58.496-25.152l2.112-3.968c13.76-25.984 18.176-55.936 12.672-84.8l-26.688-139.392a49.792 49.792 0 0 0-48.896-40.384z"></path>
</svg>
