<svg xmlns="http://www.w3.org/2000/svg" version="1.1" width="1024" height="1024" fill="currentColor" aria-hidden="true" focusable="false">
    <path d="M196.923077 326.892308h275.692308a27.569231 27.569231 0 1 1 0 55.138461H196.923077a27.569231 27.569231 0 1 1 0-55.138461zM196.923077 523.815385h275.692308a27.569231 27.569231 0 0 1 0 55.138461H196.923077a27.569231 27.569231 0 1 1 0-55.138461zM196.923077 720.738462h275.692308a27.569231 27.569231 0 0 1 0 55.138461H196.923077a27.569231 27.569231 0 0 1 0-55.138461zM592.029538 725.228308l194.953847-194.953846a27.569231 27.569231 0 0 1 38.990769 38.990769l-194.953846 194.953846a27.569231 27.569231 0 1 1-38.99077-38.990769z"></path><path d="M786.944 764.219077l-194.953846-194.953846a27.569231 27.569231 0 0 1 38.990769-38.990769l194.953846 194.953846a27.569231 27.569231 0 1 1-38.990769 38.990769zM807.581538 413.341538L736.492308 342.252308v153.993846a27.569231 27.569231 0 1 1-55.138462 0V342.252308l-71.089231 71.08923a27.569231 27.569231 0 1 1-38.990769-38.990769l118.153846-118.153846a27.569231 27.569231 0 0 1 38.99077 0l118.153846 118.153846a27.569231 27.569231 0 0 1-38.99077 38.990769z"></path>
</svg>
