<svg xmlns="http://www.w3.org/2000/svg" version="1.1" width="1024" height="1024" fill="currentColor" aria-hidden="true" focusable="false">
    <path d="M205.397333 175.317333l3.370667 2.773334 627.2 627.072a23.850667 23.850667 0 0 1-30.464 36.48l-3.285333-2.773334-92.586667-92.501333c-61.226667 30.122667-131.328 47.786667-199.68 47.786667-184.362667 0-381.568-128.128-381.568-286.208 0-83.029333 54.357333-157.781333 132.693333-210.048L175.018667 211.797333a23.850667 23.850667 0 0 1 30.378666-36.48z m-29.312 332.629334c0 121.173333 163.925333 238.506667 333.909334 238.506666a404.096 404.096 0 0 0 163.925333-35.797333L611.413333 648.106667a176.213333 176.213333 0 0 1-99.541333 30.506666c-95.658667 0-173.568-75.392-173.568-168.789333 0-37.717333 12.672-72.533333 34.133333-100.522667L295.509333 332.288c-71.210667 45.44-119.466667 109.952-119.466666 175.658667z m333.909334-286.208c184.405333 0 381.610667 128.128 381.610666 286.208 0 65.834667-34.218667 126.506667-87.466666 174.848l-33.877334-33.834667c45.312-40.96 73.642667-90.709333 73.642667-141.013333 0-121.173333-163.968-238.506667-333.909333-238.506667-35.669333 0-71.082667 5.12-104.746667 14.421333l-37.973333-37.888a447.872 447.872 0 0 1 142.72-24.234666z m-124.032 288.042666c0 66.688 56.192 121.088 125.866666 121.088a128.853333 128.853333 0 0 0 64.981334-17.365333L406.613333 443.306667a117.461333 117.461333 0 0 0-20.608 66.432z m125.866666-168.789333c95.701333 0 173.610667 75.349333 173.610667 168.789333 0 16.469333-2.432 32.341333-6.954667 47.36l-40.96-40.917333 0.213334-6.4c0-64.170667-52.010667-116.906667-117.930667-120.917333l-9.813333-0.213334-42.24-42.24a178.773333 178.773333 0 0 1 44.074666-5.461333z"></path>
</svg>
