<svg xmlns="http://www.w3.org/2000/svg" version="1.1" width="1024" height="1024" fill="currentColor" aria-hidden="true" focusable="false">
    <path d="M601.045333 119.509333l28.629334 0.256 38.698666 0.768 23.168 0.853334 10.837334 0.554666 20.266666 1.322667 18.517334 1.706667c62.037333 6.698667 94.72 20.906667 125.354666 49.877333l7.552 7.424 6.912 7.552c18.645333 21.546667 29.696 45.44 36.138667 83.626667l2.133333 14.08 1.706667 15.402666 1.450667 16.810667 1.109333 18.346667 0.853333 20.010666 0.896 33.365334 0.341334 24.618666 0.213333 26.709334 0.042667 109.482666-0.256 55.637334-0.341334 24.618666-0.853333 33.365334-0.853333 20.010666-1.152 18.346667-1.450667 16.810667-1.706667 15.36-2.133333 14.08c-6.442667 38.229333-17.493333 62.122667-36.138667 83.669333l-6.912 7.552-7.552 7.424a247.978667 247.978667 0 0 1-3.712 3.456l-7.466666 6.442667-7.552 5.930666-3.84 2.730667-7.978667 5.12c-18.944 11.392-41.002667 18.773333-72.362667 23.509333l-14.037333 1.877334-7.466667 0.853333-15.914666 1.408-17.322667 1.194667-18.858667 0.938666-31.317333 0.981334-23.04 0.426666-38.186667 0.426667L469.333333 904.533333l-42.794666-0.128-38.144-0.341333-33.962667-0.768-30.08-1.152-18.048-1.024-16.64-1.28-15.232-1.621333-14.037333-1.877334c-26.88-4.053333-46.933333-10.069333-64.042667-18.858666l-8.32-4.650667-7.978667-5.12a158.293333 158.293333 0 0 1-3.84-2.730667l-7.552-5.930666a198.272 198.272 0 0 1-3.754666-3.157334l-7.424-6.741333c-33.450667-31.573333-48.554667-65.621333-54.997334-134.314667l-1.536-19.626666-1.152-21.504-0.853333-23.509334-0.469333-25.642666-0.298667-27.989334v-169.173333l0.298667-27.946667 0.512-25.685333 0.810666-23.466667 0.512-11.008 1.365334-20.522666c5.930667-75.221333 20.864-110.933333 55.808-143.914667 32.085333-30.293333 66.432-44.458667 134.4-50.773333l19.413333-1.536 21.205333-1.152 23.125334-0.853334 38.698666-0.768 28.672-0.256h178.048z m264.32 271.914667H158.378667l-0.213334 11.648-0.256 25.6v152.96l0.256 39.253333 0.426667 23.296 0.682667 21.205334 0.896 19.2 1.237333 17.28c0.682667 8.234667 1.493333 15.786667 2.432 22.784l2.048 13.269333c5.973333 33.493333 16.085333 52.224 32.597333 67.84l5.546667 4.906667c0.938667 0.810667 1.877333 1.578667 2.858667 2.304l5.973333 4.309333c0.981333 0.682667 2.048 1.365333 3.114667 2.005333l6.613333 3.712c5.717333 2.986667 12.074667 5.546667 19.328 7.722667l9.173333 2.56c3.2 0.768 6.570667 1.493333 10.154667 2.176l11.221333 1.92c3.925333 0.597333 8.064 1.152 12.416 1.664l13.738667 1.408 15.189333 1.152 16.682667 0.981333 18.346667 0.725334 30.890666 0.853333 48 0.512L554.666667 844.8l54.357333-0.213333 35.242667-0.426667 30.890666-0.853333 18.346667-0.725334 24.448-1.536 14.464-1.28 13.056-1.536 6.058667-0.853333 11.221333-1.92c3.584-0.682667 6.954667-1.408 10.154667-2.218667l9.173333-2.517333c7.253333-2.218667 13.610667-4.778667 19.328-7.68l6.613333-3.754667c1.066667-0.64 2.133333-1.28 3.157334-2.005333l5.973333-4.266667 2.816-2.346666 5.546667-4.906667 5.376-5.461333c12.032-12.885333 20.053333-27.946667 25.386666-52.224l2.133334-11.008 1.792-12.288 0.810666-6.613334 1.365334-14.378666 1.152-15.957334 0.853333-17.621333 0.682667-19.456 0.682666-32.853333 0.256-24.533334 0.128-121.642666-0.128-41.088-0.256-24.533334-0.384-14.677333z m-318.293333 79.274667a25.6 25.6 0 0 1 18.56 27.477333l-0.810667 4.053333-56.32 201.728a25.6 25.6 0 0 1-50.090666-9.685333l0.768-4.096 56.32-201.685333a25.6 25.6 0 0 1 31.573333-17.792z m-157.013333 39.082666a25.6 25.6 0 0 1 4.224 32.554667l-2.816 3.626667-42.581334 45.994666 41.386667 39.168a25.6 25.6 0 0 1 3.84 32.554667l-2.858667 3.626667a25.6 25.6 0 0 1-32.554666 3.84l-3.626667-2.858667-59.733333-56.533333a25.6 25.6 0 0 1-4.010667-32.384l2.816-3.626667 59.733333-64.554667a25.6 25.6 0 0 1 36.181334-1.408z m279.552-1.706666l3.413333 3.114666 59.733333 64.554667 2.816 3.626667a25.6 25.6 0 0 1-0.938666 28.928l-3.029334 3.413333-59.733333 56.576-3.626667 2.858667a25.6 25.6 0 0 1-29.098666-0.768l-3.498667-3.072-2.858667-3.626667a25.6 25.6 0 0 1 0.810667-29.098667l3.072-3.413333 41.386667-39.210667-42.581334-45.994666-2.816-3.626667a25.6 25.6 0 0 1 36.949334-34.218667z m-69.674667-328.832H424.106667l-13.568 0.085333-37.205334 0.512-22.101333 0.597333-20.053333 0.853334-18.261334 1.109333-8.448 0.64-15.658666 1.536a423.722667 423.722667 0 0 0-7.253334 0.853333l-13.44 2.048c-33.877333 5.802667-53.376 15.402667-69.674666 30.762667-16.512 15.616-26.581333 34.346667-32.597334 67.84l-2.048 13.226667c-0.938667 7.04-1.706667 14.592-2.432 22.826666l-0.725333 9.557334H863.146667l-0.170667-3.712-1.28-15.146667-1.493333-13.653333-1.792-12.245334-2.133334-11.008c-6.058667-27.733333-15.701333-43.434667-30.762666-57.685333l-3.114667-2.816c-15.658667-13.738667-34.816-22.485333-66.56-27.946667l-13.397333-2.005333c-4.693333-0.64-9.685333-1.194667-14.933334-1.706667l-16.469333-1.365333-8.874667-0.597333-19.157333-0.938667-21.077333-0.725333-23.125334-0.512-38.869333-0.384zM576 256a21.333333 21.333333 0 1 1 0 42.666667 21.333333 21.333333 0 0 1 0-42.666667z m85.333333 0a21.333333 21.333333 0 1 1 0 42.666667 21.333333 21.333333 0 0 1 0-42.666667z m85.333334 0a21.333333 21.333333 0 1 1 0 42.666667 21.333333 21.333333 0 0 1 0-42.666667z"></path>
</svg>
