<svg xmlns="http://www.w3.org/2000/svg" version="1.1" width="1024" height="1024" fill="currentColor" aria-hidden="true" focusable="false">
    <path d="M449.669565 44.521739a124.66087 124.66087 0 0 1 124.66087 0l311.340522 179.778783a124.66087 124.66087 0 0 1 62.330434 107.920695v359.557566a124.66087 124.66087 0 0 1-62.330434 107.920695L574.285913 979.478261a124.66087 124.66087 0 0 1-124.66087 0l-311.340521-179.778783a124.66087 124.66087 0 0 1-62.330435-107.920695V332.221217a124.66087 124.66087 0 0 1 62.330435-107.920695L449.669565 44.521739zM402.921739 512a109.078261 109.078261 0 1 1 218.156522 0 109.078261 109.078261 0 0 1-218.156522 0z m109.078261-171.408696a171.408696 171.408696 0 1 0 0 342.817392 171.408696 171.408696 0 0 0 0-342.817392z" fill="#FFFFFF" p-id="4928"></path>
</svg>
