<svg xmlns="http://www.w3.org/2000/svg" version="1.1" width="1024" height="1024" fill="currentColor" aria-hidden="true" focusable="false">
    <path d="M348.840874 0.051197a42.698665 42.698665 0 1 0 0 85.294936h324.182191a42.698665 42.698665 0 1 0 0-85.294936H348.840874zM50.155008 213.339733c0-23.550822 19.147843-42.59627 42.698665-42.59627h836.156592a42.698665 42.698665 0 1 1 0 85.294935H869.31405v674.270287c0 51.709415-41.981901 93.691315-93.691315 93.691315h-529.381531A93.691315 93.691315 0 0 1 152.549888 930.308685V256.038398H92.853673A42.698665 42.698665 0 0 1 50.155008 213.339733z m741.134143 42.698665H230.574787v674.270287c0 8.60117 7.065247 15.666417 15.666417 15.666416h529.381531a15.564022 15.564022 0 0 0 15.666416-15.666416V256.038398zM408.537089 348.910554a41.981901 41.981901 0 0 1 41.981901 41.981901v376.915555a41.981901 41.981901 0 0 1-83.963802 0V390.79006a41.981901 41.981901 0 0 1 41.981901-41.879506z m246.771661 41.981901a41.981901 41.981901 0 1 0-83.861407 0v376.915555a41.981901 41.981901 0 1 0 83.759012 0V390.79006z"></path>
</svg>
