<svg xmlns="http://www.w3.org/2000/svg" version="1.1" width="1024" height="1024" fill="currentColor" aria-hidden="true" focusable="false">
    <path d="M683.264 502.784c82.496 0 154.88 52.608 181.12 129.28l0.64 2.048 1.92 0.768a166.72 166.72 0 0 1 101.376 123.52l1.792 12.032 0.96 12.288 0.192 6.464c0 80.32-50.752 143.872-128.576 158.912-2.944 0.576-107.52 1.28-313.856 2.176-11.2 0.832-16.96 0.832-24.832-1.6a154.56 154.56 0 0 1-108.8-147.52c0-59.072 33.664-111.68 84.48-137.6l11.2-5.12 4.672-1.792 1.664-7.68A191.104 191.104 0 0 1 651.008 505.6l13.504-1.856 12.416-0.832 6.336-0.064z m-3.392 84.032c-52.864 0-96.96 38.464-104.192 87.424l-0.96 9.984-0.128 4.416a49.28 49.28 0 0 1-35.904 49.92l-7.68 1.472a65.92 65.92 0 0 0-59.136 64.896c0 25.088 14.72 47.616 35.968 58.24l8.32 3.328 6.592 1.856h302.528l7.552-1.92c29.44-9.28 50.816-34.816 54.464-65.024l0.64-9.216c0-34.304-22.912-64.256-55.488-74.368l-9.088-2.24a48.96 48.96 0 0 1-37.696-33.472l-1.728-7.488a104.768 104.768 0 0 0-104.064-87.808z m179.968-465.152l19.968 0.64c30.464 1.728 46.976 7.488 62.528 22.528 14.72 14.208 20.416 26.624 22.656 50.88l0.64 9.6 0.512 14.272 0.192 16.768V625.28l-9.216 5.76c-7.552-3.84-15.36-7.04-23.424-9.728l-7.296-5.504-1.92-7.296a257.92 257.92 0 0 0-29.504-65.088v-297.6l-0.256-26.56-0.64-13.12-0.832-7.808-0.768-3.392-0.768-1.6-1.152-0.512L887.488 192l-5.888-0.768-8.448-0.576-18.048-0.384h-91.136l-36.416 0.192-21.312 0.448-19.2 0.64-17.088 0.896-15.36 1.152c-40.64 3.776-60.864 10.944-76.48 25.984-13.568 13.12-20.8 29.44-25.088 58.688l-1.344 11.072-1.28 13.696-1.28 19.584-1.024 32.064-0.384 32.512-2.368 110.08c-23.68 19.456-43.136 43.136-57.088 69.76l-12.096-3.008 0.128-138.56-0.128-36.928-0.256-21.76-0.96-37.568-0.768-15.936-1.024-14.208-1.536-15.68-1.92-13.184-1.92-9.408a98.24 98.24 0 0 0-7.168-21.248l-3.072-5.504-3.52-5.248-5.824-6.848-4.928-4.672c-14.528-12.928-33.728-19.584-69.44-23.232l-11.84-1.024L345.792 192l-18.112-0.768-31.168-0.768-23.68-0.192h-103.68l-11.968 0.192-9.344 0.384-6.848 0.512-5.056 0.768a27.84 27.84 0 0 0-1.984 0.448l-1.728 0.64-0.768 1.664-0.832 3.84-0.704 5.824-0.64 12.672-0.256 11.584v437.888l0.192 11.648 0.384 9.152 1.024 9.408 0.576 3.008 0.64 2.432 1.92 0.896 5.312 1.024 10.048 0.768 21.888 0.512 181.44 0.064 5.824 9.024c-7.552 17.024-12.16 35.136-13.568 53.76l-6.4 5.888H186.24l-27.328-0.192-14.72-0.448c-32.128-1.6-46.208-6.72-62.592-22.592-14.976-14.464-21.12-29.888-23.104-57.408l-0.576-10.368-0.32-16.256V228.48l0.32-16.128c1.28-34.56 7.04-51.52 23.68-67.584 13.76-13.312 28.416-19.328 52.288-21.76l10.368-0.768 15.616-0.64h113.92l25.536 0.192 23.36 0.512 21.312 0.768 19.392 1.088c67.712 4.608 101.632 16.64 132.992 46.976l3.84 3.712 6.72 7.232 5.12 6.144 5.504-6.656 5.952-6.528 4.032-3.968c29.312-28.288 60.736-40.512 119.04-45.824l14.08-1.088 19.392-1.088 21.312-0.768 23.36-0.512 25.6-0.256h109.504z"></path>
</svg>
