<svg xmlns="http://www.w3.org/2000/svg" version="1.1" width="1024" height="1024" fill="currentColor" aria-hidden="true" focusable="false">
    <path d="M163.072 806.570667c-9.856 8.448-21.76 11.52-33.194667 10.965333l-2.389333-0.128c-26.24-5.12-48.853333 18.944-41.429333 44.074667 56.789333 191.701333 374.186667 143.957333 420.010666-64.853334a34.176 34.176 0 0 0-14.464-35.712L305.066667 635.52a36.096 36.096 0 0 0-26.368-5.504c-80.298667 14.165333-102.741333 53.333333-101.930667 124.757333l0.085333 3.456c0.256 23.893333-0.853333 32.469333-4.437333 37.717334a53.888 53.888 0 0 1-9.386667 10.624z m283.477333-9.130667c-47.914667 123.776-225.109333 161.066667-296.618666 86.869333 14.464-5.632 27.861333-13.653333 39.552-23.637333 9.728-8.277333 18.304-17.749333 25.472-28.16 17.194667-24.746667 19.925333-45.098667 19.498666-89.173333l-0.085333-3.925334c-0.341333-40.96 3.072-52.352 33.834667-59.904l178.346666 117.930667z m94.464-72.405333a78.08 78.08 0 0 0 50.048-31.36l3.413334-4.693334 10.24-14.165333c10.922667-15.274667 23.082667-32.469333 36.138666-51.285333a3749.845333 3749.845333 0 0 0 108.202667-164.608c16.810667-27.050667 33.024-54.442667 48.768-82.090667 100.138667-176.768 133.674667-286.506667 57.045333-325.930667-67.968-34.986667-157.653333 30.165333-280.405333 166.613334a2309.930667 2309.930667 0 0 0-67.84 79.146666 3538.816 3538.816 0 0 0-119.509333 154.752c-15.616 21.333333-31.018667 42.88-46.165334 64.554667l-3.541333 5.12a74.666667 74.666667 0 0 0 19.242667 104.490667l126.634666 87.04c16.725333 11.52 37.504 16 57.728 12.416z m-159.573333-146.346667a6.784 6.784 0 0 1-1.749333-9.130667l3.712-5.418666c15.701333-22.442667 31.616-44.757333 47.786666-66.858667a3673.898667 3673.898667 0 0 1 124.074667-160.512 2371.754667 2371.754667 0 0 1 69.589333-81.237333c51.584-57.301333 97.706667-101.546667 136.106667-129.408 36.266667-26.368 60.672-34.346667 68.864-30.122667 4.522667 2.346667 6.186667 22.656-6.656 64.597333-14.165333 46.250667-43.178667 107.562667-84.138667 179.925334a2583.466667 2583.466667 0 0 1-50.176 84.48 4086.784 4086.784 0 0 1-164.309333 243.968c-2.304 3.2-6.144 3.84-8.96 1.92l-134.144-92.16z"></path>
</svg>
