<svg xmlns="http://www.w3.org/2000/svg" version="1.1" width="1024" height="1024" fill="currentColor" aria-hidden="true" focusable="false">
    <path d="M512 98.133333c228.565333 0 413.866667 185.301333 413.866667 413.866667 0 228.565333-185.301333 413.866667-413.866667 413.866667-228.565333 0-413.866667-185.301333-413.866667-413.866667 0-228.565333 185.301333-413.866667 413.866667-413.866667z m0 59.733334a354.133333 354.133333 0 1 0 0 708.266666 354.133333 354.133333 0 0 0 0-708.266666z m206.933333 217.429333a29.866667 29.866667 0 0 1 6.613334 38.058667l-2.773334 3.968-225.194666 270.250666a29.866667 29.866667 0 0 1-40.533334 5.034667l-3.541333-3.029333-135.125333-135.125334a29.866667 29.866667 0 0 1 38.570666-45.397333l3.669334 3.157333 111.957333 111.957334 204.288-245.077334a29.866667 29.866667 0 0 1 42.069333-3.84z"></path>
</svg>
