<svg xmlns="http://www.w3.org/2000/svg" version="1.1" width="1024" height="1024" fill="currentColor" aria-hidden="true" focusable="false">
    <path d="M582.94272 414.26944l2.94912 3.2768 25.47712 35.6352c35.6352-17.8176 71.2704-28.01664 111.98464-28.01664 132.3008 0 239.2064 106.9056 239.2064 239.24736a241.664 241.664 0 0 1-241.78688 241.82784 241.21344 241.21344 0 0 1-178.13504-78.88896c-10.15808-12.73856-20.35712-25.47712-27.97568-38.21568-12.73856-20.35712-5.12-48.3328 15.23712-61.07136 20.35712-12.6976 48.3328-5.07904 61.11232 15.27808 5.07904 10.15808 10.15808 17.8176 17.8176 25.43616a154.50112 154.50112 0 0 0 114.52416 50.91328 153.1904 153.1904 0 0 0 152.65792-152.69888 153.1904 153.1904 0 0 0-152.65792-152.73984c-16.9984 0-33.95584 1.76128-49.43872 6.7584l-9.13408 3.44064 33.09568 45.79328a19.456 19.456 0 0 1 5.07904 12.6976c4.7104 16.46592-5.7344 32.93184-21.42208 37.35552l-4.01408 0.86016-180.67456 25.43616h-15.27808c-16.34304-6.9632-24.12544-24.65792-19.41504-39.3216L532.48 425.1648a26.05056 26.05056 0 0 1 12.6976-15.27808c11.59168-9.25696 27.36128-5.89824 37.76512 4.38272zM105.18528 634.88c48.128 55.13216 161.1776 96.01024 298.31168 104.0384l0.45056-2.21184-0.6144 3.19488a149.0944 149.0944 0 0 0 20.15232 106.25024c1.92512 3.23584 3.80928 6.26688 5.81632 9.29792l1.51552 2.29376c-146.2272-3.8912-269.43488-44.76928-322.60096-101.66272l-5.24288-5.9392v-112.92672a29.81888 29.81888 0 0 1 2.21184-2.33472z m0-223.31392c45.6704 52.34688 149.9136 91.83232 277.66784 102.6048l-18.6368 48.3328a135.12704 135.12704 0 0 0-10.4448 66.43712c-111.616-13.63968-202.09664-49.5616-245.59616-96.09216l-5.20192-5.85728v-113.0496a29.81888 29.81888 0 0 1 2.21184-2.37568z m371.38432-328.82688c156.22144 0 289.5872 42.31168 345.45664 102.07232l5.16096 5.81632v112.92672c-0.6144 0.77824-1.39264 1.55648-2.17088 2.33472a167.3216 167.3216 0 0 1-22.24128 20.8896 346.5216 346.5216 0 0 0-79.4624-9.13408l-13.96736 0.28672a334.35648 334.35648 0 0 0-54.43584 6.63552l-9.17504 2.08896-2.37568-1.92512c-43.008-32.11264-102.4-39.28064-152.08448-8.192l-6.02112 4.01408-3.072 1.92512c-21.42208 14.5408-38.5024 35.4304-48.61952 60.25216l-10.8544 28.13952c-145.73568-5.24288-267.18208-47.43168-317.68576-104.98048l-1.06496-1.18784-1.14688-1.14688V190.62784C155.2384 127.83616 292.20864 82.7392 453.46816 82.7392c3.93216 0 7.70048 0.32768 11.63264 0.32768 3.76832-0.16384 7.53664-0.32768 11.4688-0.32768z"></path>
</svg>
