<svg xmlns="http://www.w3.org/2000/svg" version="1.1" width="1024" height="1024" fill="currentColor" aria-hidden="true" focusable="false">
    <path d="M789.333333 0a234.666667 234.666667 0 0 1 234.24 220.330667L1024 234.666667v341.333333a234.666667 234.666667 0 0 1-195.413333 231.424A234.581333 234.581333 0 0 1 597.333333 1002.666667H256A234.666667 234.666667 0 0 1 21.333333 768V426.666667a234.666667 234.666667 0 0 1 195.413334-231.424A234.666667 234.666667 0 0 1 433.578667 0.426667L448 0h341.333333zM597.333333 320H256c-58.88 0-106.666667 47.786667-106.666667 106.666667v341.333333c0 58.88 47.786667 106.666667 106.666667 106.666667h341.333333c58.88 0 106.666667-47.786667 106.666667-106.666667V426.666667c0-58.88-47.786667-106.666667-106.666667-106.666667zM789.333333 128h-341.333333a106.666667 106.666667 0 0 0-97.792 64H597.333333A234.666667 234.666667 0 0 1 832 426.666667v247.125333c34.56-15.104 59.477333-47.872 63.488-86.869333l0.512-10.922667v-341.333333a106.666667 106.666667 0 0 0-95.744-106.154667L789.333333 128z"></path>
</svg>
