<svg xmlns="http://www.w3.org/2000/svg" version="1.1" width="22" height="22" fill="currentColor" aria-hidden="true" focusable="false">
    <path d="m16.925 10.024.537.538.538-.538-.538-.537-.537.537ZM4 16.107a.76.76 0 1 0 1.52 0H4Zm10.199-2.28 3.263-3.259a.76.76 0 1 0-1.075-1.075l-3.263 3.258a.76.76 0 1 0 1.075 1.075Zm3.263-4.348-3.263-3.257a.761.761 0 0 0-1.075 1.076l3.263 3.256a.761.761 0 0 0 1.075-1.075Zm-.537-.215H9.322v1.52h7.603v-1.52ZM4 14.586v1.52h1.52v-1.52H4Zm5.322-5.322A5.322 5.322 0 0 0 4 14.586h1.52c0-2.1 1.703-3.801 3.802-3.801V9.264Z"></path>
</svg>
