<svg xmlns="http://www.w3.org/2000/svg" version="1.1" width="1024" height="1024" fill="currentColor" aria-hidden="true" focusable="false">
    <path d="M297.890909 186.181818v651.636364a41.890909 41.890909 0 0 1-83.781818 0V186.181818a41.890909 41.890909 0 1 1 83.781818 0z m97.745455 4.654546h372.363636c48.872727 0 88.436364 39.563636 88.436364 88.436363v93.090909a88.436364 88.436364 0 0 1-88.436364 88.436364h-372.363636a41.890909 41.890909 0 0 1-41.890909-41.890909V232.727273a41.890909 41.890909 0 0 1 41.890909-41.890909z m41.890909 186.181818h330.472727a4.654545 4.654545 0 0 0 4.654545-4.654546V279.272727a4.654545 4.654545 0 0 0-4.654545-4.654545H437.527273v102.4zM353.745455 605.090909v186.181818a41.890909 41.890909 0 0 0 41.890909 41.890909h279.272727a88.436364 88.436364 0 0 0 88.436364-88.436363v-93.090909a88.436364 88.436364 0 0 0-88.436364-88.436364h-279.272727a41.890909 41.890909 0 0 0-41.890909 41.890909z m83.781818 41.890909h237.381818a4.654545 4.654545 0 0 1 4.654545 4.654546v93.090909a4.654545 4.654545 0 0 1-4.654545 4.654545H437.527273v-102.4z"></path>
</svg>
