<svg xmlns="http://www.w3.org/2000/svg" version="1.1" width="1024" height="1024" fill="currentColor" aria-hidden="true" focusable="false">
    <path d="M388.053333 572.928L240.213333 715.52a55.594667 55.594667 0 0 0-2.730666 77.226667 51.328 51.328 0 0 0 74.24 2.133333l222.037333-219.136-145.664-2.816z" fill="#847DA4" opacity=".302" p-id="844"></path><path d="M652.245333 535.082667l-39.168 39.125333c-19.84 16.896-36.992 32.554667-51.413333 46.933333l-221.781333 221.781334c-20.906667 20.906667-54.954667 22.826667-86.528 7.936l-9.6 9.216c-16.384 16-46.634667 23.466667-70.314667-0.213334-23.68-23.68-14.848-55.338667-1.365333-71.466666l9.514666-9.557334c-14.634667-31.445333-12.629333-65.28 8.106667-86.058666l221.866667-221.781334c14.378667-14.421333 31.530667-30.037333 51.370666-46.933333l39.168-39.125333 150.144 150.144z m-84.821333-6.528L508.586667 469.76 256 713.898667a45.354667 45.354667 0 0 0-2.261333 62.890666 41.685333 41.685333 0 0 0 60.245333 1.834667l253.44-250.026667z m278.272-343.509334c43.264 43.221333 48.64 107.946667 12.074667 144.512L764.074667 423.253333l9.813333 9.813334c27.008 27.008 31.36 66.432 9.770667 88.064-21.632 21.632-61.056 17.237333-88.064-9.813334l-176.128-176.085333c-27.050667-27.050667-31.402667-66.474667-9.813334-88.064 21.632-21.632 61.056-17.237333 88.064 9.813333l9.813334 9.728 93.653333-93.653333c36.608-36.608 101.290667-31.189333 144.512 12.032z" fill="#847DA4" p-id="845"></path>
</svg>
