<svg xmlns="http://www.w3.org/2000/svg" version="1.1" width="1024" height="1024" fill="currentColor" aria-hidden="true" focusable="false">
    <path d="M924.970667 409.6a48.853333 48.853333 0 0 1 45.525333 66.602667l-141.312 363.093333c-7.338667 18.773333-25.429333 31.104-45.568 31.104H201.429333a48.853333 48.853333 0 0 1-45.525333-66.602667l138.752-356.394666A59.306667 59.306667 0 0 1 349.952 409.6h575.018667z m-407.978667-256a85.333333 85.333333 0 0 1 77.568 49.792l0.64 1.408h181.333333a42.666667 42.666667 0 0 1 42.666667 42.666667v110.933333H322.133333a72.533333 72.533333 0 0 0-65.322666 40.96l-2.56 5.930667-150.101334 396.970666A85.717333 85.717333 0 0 1 102.4 785.066667V196.266667a42.666667 42.666667 0 0 1 42.666667-42.666667h371.925333z" p-id="4411"></path>
</svg>
