<svg xmlns="http://www.w3.org/2000/svg" version="1.1" width="1024" height="1024" fill="currentColor" aria-hidden="true" focusable="false">
    <path d="M460.245333 133.546667a29.866667 29.866667 0 0 1 4.053334 59.477333l-4.053334 0.298667-47.786666-0.042667 1.152 634.026667h46.634666a29.866667 29.866667 0 0 1 4.053334 59.477333l-4.053334 0.298667H307.413333a29.866667 29.866667 0 0 1-4.053333-59.477334l4.053333-0.256h46.506667L352.64 193.28H307.413333a29.866667 29.866667 0 0 1-4.053333-59.434667l4.053333-0.256h152.832z m129.706667 135.253333l82.645333 0.554667 33.877334 0.597333 29.568 0.896 17.536 0.853333 16 0.938667 14.592 1.194667 13.312 1.365333 12.16 1.621333 11.178666 1.834667 10.368 2.133333 4.906667 1.152 9.344 2.56 8.832 2.773334 4.266667 1.536 8.448 3.285333 8.234666 3.626667 8.32 4.010666c48.128 24.064 64.810667 49.92 69.973334 115.968l1.066666 18.176 0.426667 9.813334 0.426667 21.205333 0.128 23.381333v47.445334c0 8.149333 0 15.957333-0.128 23.381333l-0.426667 21.205333-0.426667 9.813334-1.066666 18.176c-5.162667 66.090667-21.845333 91.904-69.973334 115.968l-7.893333 3.84-7.850667 3.413333-7.936 3.2-8.192 2.858667-8.533333 2.602666-13.653333 3.413334-9.941334 1.962666-10.709333 1.706667-11.605333 1.536-12.629334 1.322667-21.12 1.621333-24.106666 1.28-37.546667 1.152-44.501333 0.64-67.029334 0.341333-99.413333 0.042667a29.866667 29.866667 0 0 1-4.053333-59.477333l4.053333-0.256 137.344-0.170667 45.525333-0.426667 38.442667-0.768 24.661333-0.853333 14.677334-0.725333 19.584-1.28 11.605333-1.109334 10.581333-1.194666 9.642667-1.408 8.832-1.578667 8.149333-1.706667 3.84-0.981333 7.253334-2.048 6.826666-2.261333 6.528-2.474667 6.272-2.688 6.144-2.944c25.514667-12.757333 34.688-25.557333 37.674667-72.405333l0.768-15.104 0.426667-17.365334 0.170666-30.293333-0.085333-67.712-0.469333-26.112-0.682667-14.72-1.024-12.842667-1.408-11.093333c-3.754667-24.021333-11.136-35.328-25.301333-44.416l-6.485334-3.797333-6.869333-3.456-6.741333-3.029334-6.912-2.773333-7.296-2.474667-7.765334-2.261333-8.405333-2.005333-9.173333-1.792-10.026667-1.578667a356.437333 356.437333 0 0 0-5.418667-0.725333l-11.648-1.28-12.842666-1.109334-21.930667-1.365333-34.816-1.28-42.197333-0.810667-79.488-0.469333-97.962667-0.042667a29.866667 29.866667 0 0 1-4.053333-59.477333l4.053333-0.256h99.072zM279.04 270.506667a29.866667 29.866667 0 1 1 2.133333 59.690666l-20.949333 0.853334c-38.058667 2.048-54.485333 5.632-77.610667 16.213333l-12.245333 5.930667c-24.234667 12.117333-33.706667 24.277333-37.162667 65.621333l-0.896 14.08-0.597333 16.213333-0.341333 28.757334v68.352l0.341333 28.8 0.597333 16.213333 0.896 14.08c3.456 41.301333 12.928 53.461333 37.162667 65.578667l11.605333 5.589333c20.181333 9.301333 35.413333 13.354667 63.914667 15.573333l16.981333 1.066667 20.266667 0.853333a29.866667 29.866667 0 1 1-2.048 59.733334c-70.826667-2.474667-94.421333-7.893333-137.386667-29.397334-50.261333-25.130667-66.261333-52.138667-70.613333-124.8l-0.853333-19.2-0.298667-10.282666-0.298667-22.314667v-71.338667l0.298667-22.314666 0.64-20.138667c0.170667-3.2 0.298667-6.314667 0.512-9.344l1.322667-17.237333c5.973333-59.904 23.210667-84.522667 69.248-107.562667 42.922667-21.461333 65.834667-26.837333 135.381333-29.269333z"></path>
</svg>
