<svg xmlns="http://www.w3.org/2000/svg" version="1.1" width="1084" height="1024" fill="currentColor" aria-hidden="true" focusable="false">
    <path d="M554.164706 874.917647a32.346353 32.346353 0 0 1-28.732235 0l-381.891765-229.074823c-17.227294-10.24-16.865882-26.624 0.903529-36.562824l71.077647-63.488 309.910589 179.501176a32.346353 32.346353 0 0 0 28.79247 0l324.427294-174.20047 71.198118 63.488c17.648941 10.059294 18.070588 26.443294 0.783059 36.623059l-396.408471 223.713882z"></path><path d="M542.117647 900.517647a52.103529 52.103529 0 0 1-26.202353-6.625882L126.012235 668.611765c-15.841882-9.637647-24.576-23.672471-24.335059-38.912 0.180706-15.36 9.396706-29.455059 25.238589-38.550589l77.824-68.487529h12.348235l5.421176 3.011765 316.416 182.753882c1.385412 0.602353 4.999529 0.602353 6.505412-0.12047l321.475765-185.645177h12.408471l5.421176 3.011765 72.583529 65.355294c15.841882 9.095529 25.057882 23.070118 25.298824 38.550588 0.180706 15.239529-8.553412 29.394824-23.913412 38.79153l-0.481882 0.301176-389.903059 225.28a53.790118 53.790118 0 0 1-26.262588 6.565647z m-391.770353-270.336l388.517647 224.436706c1.445647 0.602353 5.059765 0.602353 6.625883-0.060235l388.276705-224.376471-60.596705-58.428235-304.850824 176.128a55.476706 55.476706 0 0 1-52.404706 0L210.944 571.632941l-60.596706 58.548706z"></path><path d="M521.336471 747.098353L113.242353 503.085176a24.274824 24.274824 0 0 1-8.432941-32.527058 22.829176 22.829176 0 0 1 31.683764-8.734118L544.527059 705.957647c1.385412 0.602353 5.12 0.602353 6.625882-0.060235l325.270588-194.43953 62.584471-37.345882a23.070118 23.070118 0 0 1 31.924706 8.493176 24.274824 24.274824 0 0 1-8.673882 32.768l-23.792942 14.21553c-25.057882 14.938353-37.466353 22.347294-44.333176 26.081882l0.180706 0.301177-319.969883 191.186823a52.946824 52.946824 0 0 1-26.503529 6.927059 51.922824 51.922824 0 0 1-26.503529-6.927059z"></path><path d="M542.117647 627.651765a52.826353 52.826353 0 0 1-26.081882-6.445177l-389.12-220.943059c-16.082824-9.095529-25.298824-23.130353-25.298824-38.430117s9.216-29.334588 25.298824-38.430118l388.999529-220.943059a56.32 56.32 0 0 1 52.404706 0l388.999529 220.943059c16.082824 9.095529 25.298824 23.130353 25.298824 38.430118s-9.216 29.334588-25.298824 38.430117l-388.999529 220.943059a52.826353 52.826353 0 0 1-26.142118 6.505412zM150.407529 361.893647l388.638118 220.762353c1.325176 0.602353 5.059765 0.602353 6.565647-0.120471l388.517647-220.641882-388.758588-220.641882a11.565176 11.565176 0 0 0-6.505412 0.060235L150.347294 361.833412z"></path>
</svg>
