<svg xmlns="http://www.w3.org/2000/svg" version="1.1" width="18" height="18" fill="currentColor" aria-hidden="true" focusable="false">
    <g id="数据面板/数据类型ic/列表" stroke="none" stroke-width="1" fill="none" fill-rule="evenodd"><rect id="矩形" x="0" y="0" width="18" height="18"></rect><g id="编组" transform="translate(2.929252, 5.280715)" fill="#FFC915" fill-rule="nonzero"><path d="M11.0707477,7.29261331 L11.1657336,7.29900349 C11.5074041,7.34535508 11.7707477,7.6382306 11.7707477,7.99261331 C11.7707477,8.37921264 11.457347,8.69261331 11.0707477,8.69261331 L11.0707477,8.69261331 L0.7,8.69261331 L0.605014146,8.68622314 C0.263343623,8.63987154 0,8.34699602 0,7.99261331 C0,7.60601399 0.313400675,7.29261331 0.7,7.29261331 L0.7,7.29261331 L11.0707477,7.29261331 Z M11.0707477,3.86640849 L11.1657336,3.87279867 C11.5074041,3.91915026 11.7707477,4.21202578 11.7707477,4.56640849 C11.7707477,4.95300782 11.457347,5.26640849 11.0707477,5.26640849 L11.0707477,5.26640849 L4.69556162,5.26691284 C5.20012227,4.9158124 5.60801832,4.43273497 5.8706019,3.86690757 L5.8706019,3.86690757 L11.0707477,3.86640849 Z M2.73807583,0 C4.03756936,0 5.09101701,1.06598869 5.09101701,2.38095238 C5.09101701,3.69591607 4.03756936,4.76190476 2.73807583,4.76190476 C1.4385823,4.76190476 0.385134656,3.69591607 0.385134656,2.38095238 C0.385134656,1.06598869 1.4385823,0 2.73807583,0 Z M11.0707477,0.440203672 L11.1657336,0.446593847 C11.5074041,0.492945442 11.7707477,0.785820957 11.7707477,1.14020367 C11.7707477,1.526803 11.457347,1.84020367 11.0707477,1.84020367 L11.0707477,1.84020367 L6.15585219,1.84009094 C6.07739795,1.32831577 5.88937179,0.853197536 5.61679993,0.440060386 L5.61679993,0.440060386 L11.0707477,0.440203672 Z" id="形状结合"></path></g></g>
</svg>
