<svg xmlns="http://www.w3.org/2000/svg" version="1.1" width="1024" height="1024" fill="currentColor" aria-hidden="true" focusable="false">
    <path d="M509.994667 214.058667c184.405333 0 381.610667 128.128 381.610666 286.250666 0 158.08-197.205333 286.208-381.610666 286.208-184.405333 0-381.610667-128.128-381.610667-286.208 0-158.122667 197.205333-286.250667 381.610667-286.250666z m0 47.701333c-169.984 0-333.909333 117.333333-333.909334 238.506667s163.925333 238.506667 333.909334 238.506666c169.941333 0 333.909333-117.333333 333.909333-238.506666s-163.968-238.506667-333.909333-238.506667z m1.834666 71.594667c95.701333 0 173.610667 75.349333 173.610667 168.789333 0 93.354667-77.909333 168.789333-173.653333 168.789333-95.616 0-173.525333-75.392-173.525334-168.789333 0-93.44 77.909333-168.832 173.568-168.832z m0 47.701333c-69.674667 0-125.866667 54.357333-125.866666 121.088 0 66.688 56.192 121.088 125.866666 121.088 69.674667 0 125.866667-54.4 125.866667-121.088 0-66.730667-56.149333-121.088-125.866667-121.088z"></path>
</svg>
