<svg xmlns="http://www.w3.org/2000/svg" version="1.1" width="1024" height="1024" fill="currentColor" aria-hidden="true" focusable="false">
    <path d="M384 554.666667a85.333333 85.333333 0 0 1 85.333333 85.333333v170.666667a85.333333 85.333333 0 0 1-85.333333 85.333333H213.333333a85.333333 85.333333 0 0 1-85.333333-85.333333v-170.666667a85.333333 85.333333 0 0 1 85.333333-85.333333h170.666667z m200.704 3.328a29.866667 29.866667 0 0 1 29.568 25.813333l0.298667 4.053333V853.333333a29.866667 29.866667 0 0 1-59.477334 4.053334L554.837333 853.333333v-265.472a29.866667 29.866667 0 0 1 29.866667-29.866666z m256 0a29.866667 29.866667 0 0 1 29.568 25.813333l0.298667 4.053333V853.333333a29.866667 29.866667 0 0 1-59.477334 4.053334L810.837333 853.333333v-265.472a29.866667 29.866667 0 0 1 29.866667-29.866666z m-128 85.333333a29.866667 29.866667 0 0 1 29.568 25.813333l0.298667 4.053334V853.333333a29.866667 29.866667 0 0 1-59.477334 4.053334L682.837333 853.333333v-180.138666a29.866667 29.866667 0 0 1 29.866667-29.866667zM384 614.4H213.333333a25.6 25.6 0 0 0-25.258666 21.461333L187.733333 640v170.666667a25.6 25.6 0 0 0 21.461334 25.258666L213.333333 836.266667h170.666667a25.6 25.6 0 0 0 25.258667-21.461334L409.6 810.666667v-170.666667a25.6 25.6 0 0 0-21.461333-25.258667L384 614.4zM384 128a85.333333 85.333333 0 0 1 85.333333 85.333333v170.666667a85.333333 85.333333 0 0 1-85.333333 85.333333H213.333333a85.333333 85.333333 0 0 1-85.333333-85.333333V213.333333a85.333333 85.333333 0 0 1 85.333333-85.333333h170.666667z m426.666667 0a85.333333 85.333333 0 0 1 85.333333 85.333333v170.666667a85.333333 85.333333 0 0 1-85.333333 85.333333h-170.666667a85.333333 85.333333 0 0 1-85.333333-85.333333V213.333333a85.333333 85.333333 0 0 1 85.333333-85.333333h170.666667zM384 187.733333H213.333333a25.6 25.6 0 0 0-25.258666 21.461334L187.733333 213.333333v170.666667a25.6 25.6 0 0 0 21.461334 25.258667L213.333333 409.6h170.666667a25.6 25.6 0 0 0 25.258667-21.461333L409.6 384V213.333333a25.6 25.6 0 0 0-21.461333-25.258666L384 187.733333z m426.666667 0h-170.666667a25.6 25.6 0 0 0-25.258667 21.461334L614.4 213.333333v170.666667a25.6 25.6 0 0 0 21.461333 25.258667L640 409.6h170.666667a25.6 25.6 0 0 0 25.258666-21.461333L836.266667 384V213.333333a25.6 25.6 0 0 0-21.461334-25.258666L810.666667 187.733333z"></path>
</svg>
