<svg xmlns="http://www.w3.org/2000/svg" version="1.1" width="18" height="18" fill="currentColor" aria-hidden="true" focusable="false">
    <g id="数据面板/数据类型ic/表格" stroke="none" stroke-width="1" fill="none" fill-rule="evenodd"><rect id="矩形" x="0" y="0" width="18" height="18"></rect><g id="编组" transform="translate(2.500000, 3.000000)" fill="#6E4FF4" fill-rule="nonzero"><path d="M11.05,-0.2 C12.1827482,-0.2 13.1156076,0.620494503 13.1945845,1.66670588 L13.2,1.81071429 L13.2,10.2607143 C13.2,11.3262165 12.3163905,12.1930372 11.2031653,12.2663987 L11.05,12.2714286 L1.95,12.2714286 C0.817251792,12.2714286 -0.115607595,11.4509341 -0.194584501,10.4047227 L-0.2,10.2607143 L-0.2,1.81071429 C-0.2,0.745212067 0.683609464,-0.121608618 1.79683473,-0.194970148 L1.95,-0.2 L11.05,-0.2 Z M3.92,8.5 L0.98,8.5 L0.98,10.2607143 C0.98,10.684321 1.30861179,11.0462653 1.74919084,11.1289537 L1.86154288,11.1436821 L1.94998683,11.1471429 L3.92,11.147 L3.92,8.5 Z M8.158,8.5 L5.314,8.5 L5.314,11.147 L8.158,11.147 L8.158,8.5 Z M12.019,8.5 L9.53,8.5 L9.53,11.147 L11.05,11.1471429 C11.520181,11.1471429 11.9122658,10.8409516 12.0006675,10.4425253 L12.0163107,10.341121 L12.02,10.2608163 L12.019,8.5 Z M3.92,4.878 L0.98,4.878 L0.98,7.196 L3.92,7.196 L3.92,4.878 Z M8.158,4.878 L5.314,4.878 L5.314,7.196 L8.158,7.196 L8.158,4.878 Z M12.019,4.878 L9.53,4.878 L9.53,7.196 L12.019,7.196 L12.019,4.878 Z M11.0424989,0.924145 L1.95,0.924285714 C1.47981902,0.924285714 1.08773424,1.23047695 0.999332479,1.62890328 L0.983689317,1.73030761 L0.98,1.81071429 L0.98,3.582 L12.019,3.582 L12.02,1.81071429 C12.02,1.38710755 11.6913882,1.02516323 11.2508092,0.942474826 L11.1384571,0.927746479 L11.0424989,0.924145 Z" id="形状结合"></path></g></g>
</svg>
