<svg xmlns="http://www.w3.org/2000/svg" version="1.1" width="1024" height="1024" fill="currentColor" aria-hidden="true" focusable="false">
    <path d="M827.930947 560.693895c30.908632 0 55.942737 24.602947 55.942737 54.918737v215.120842c0 30.342737-25.061053 54.945684-55.942737 54.945684h-198.090105c-30.881684 0-55.942737-24.602947-55.942737-54.945684v-215.120842c0-30.315789 25.061053-54.918737 55.942737-54.918737h198.090105zM228.971789 681.984c19.321263 0 34.977684 15.36 34.977685 34.330947v128.161685c0 18.970947-15.656421 34.330947-34.977685 34.330947-19.294316 0-34.950737-15.36-34.950736-34.330947v-128.161685c0-18.944 15.629474-34.330947 34.950736-34.330947z m242.391579 0c19.294316 0 34.950737 15.36 34.950737 34.330947v128.161685c0 18.970947-15.629474 34.330947-34.950737 34.330947s-34.950737-15.36-34.950736-34.330947v-128.161685c0-18.944 15.629474-34.330947 34.950736-34.330947z m-121.182315 29.749895c19.294316 0 34.950737 15.36 34.950736 34.330947v68.661895c0 18.970947-15.629474 34.330947-34.950736 34.330947s-34.977684-15.36-34.977685-34.330947v-68.661895c0-18.944 15.656421-34.330947 34.977685-34.330947z m463.76421-82.378106h-170.118737v187.661474h170.118737v-187.661474z m-342.581895-68.661894c19.294316 0 34.950737 15.36 34.950737 34.330947 0 18.970947-15.629474 34.330947-34.950737 34.330947H228.971789c-19.294316 0-34.950737-15.36-34.950736-34.330947 0-18.944 15.629474-34.330947 34.950736-34.330947h242.391579zM448.053895 167.073684c30.881684 0 55.942737 24.602947 55.942737 54.918737v215.120842c0 30.342737-25.061053 54.918737-55.942737 54.918737H249.963789c-30.908632 0-55.942737-24.576-55.942736-54.918737V221.992421c0-30.315789 25.061053-54.918737 55.942736-54.918737h198.090106z m379.877052 0c30.908632 0 55.942737 24.602947 55.942737 54.918737v215.120842c0 30.342737-25.061053 54.918737-55.942737 54.918737h-198.090105c-30.881684 0-55.942737-24.576-55.942737-54.918737V221.992421c0-30.315789 25.061053-54.918737 55.942737-54.918737h198.090105zM434.068211 235.735579H263.949474v187.661474h170.118737V235.735579z m379.877052 0h-170.118737v187.661474h170.118737V235.735579z"></path>
</svg>
