<svg xmlns="http://www.w3.org/2000/svg" version="1.1" width="1024" height="1024" fill="currentColor" aria-hidden="true" focusable="false">
    <path d="M892.416 848.384a49.005714 49.005714 0 0 1 41.910857 22.528 44.324571 44.324571 0 0 1 0 47.762286 49.152 49.152 0 0 1-34.523428 22.016l-7.168 0.438857H130.486857a49.225143 49.225143 0 0 1-41.910857-22.674286 44.470857 44.470857 0 0 1 0-47.250286 49.005714 49.005714 0 0 1 34.596571-22.381714l7.168-0.512H892.342857zM589.750857 111.835429a112.64 112.64 0 0 1 146.578286-7.168l8.704 7.460571 102.838857 102.838857c40.082286 40.155429 42.569143 103.643429 7.460571 146.724572l-7.460571 8.338285-304.64 304.420572a249.197714 249.197714 0 0 1-119.661714 60.269714l-16.969143 2.779429-148.187429 12.068571h-1.974857a47.030857 47.030857 0 0 1-27.355428-8.777143l-5.705143-4.754286-4.096-4.388571-3.510857-4.169143a25.161143 25.161143 0 0 1-4.900572-12.580571l-0.585143-8.045715 0.146286-11.190857 2.267429-34.669714 9.069714-108.544c5.851429-45.129143 23.917714-87.625143 52.370286-123.392l11.190857-13.165714L589.750857 111.908571z m68.973714 63.049142l-3.584 2.706286-303.396571 303.104c-17.261714 19.456-29.257143 42.788571-34.962286 67.510857l-2.340571 12.434286-7.826286 91.940571 91.428572-7.533714c25.746286-3.657143 50.029714-13.824 70.290285-28.891428l9.874286-7.972572 303.908571-303.542857a17.408 17.408 0 0 0 2.706286-20.699429l-2.779428-3.657142-102.692572-102.619429a17.408 17.408 0 0 0-20.626286-2.779429z"></path>
</svg>
