<svg xmlns="http://www.w3.org/2000/svg" version="1.1" width="1024" height="1024" fill="currentColor" aria-hidden="true" focusable="false">
    <path d="M707.84 85.333333a124.16 124.16 0 0 1 124.16 124.16v605.013334A124.16 124.16 0 0 1 707.84 938.666667H316.16a124.16 124.16 0 0 1-124.16-124.16V209.493333A124.16 124.16 0 0 1 316.16 85.333333h391.68z m0 59.733334H316.16a64.426667 64.426667 0 0 0-64.170667 58.538666l-0.256 5.845334v605.098666a64.426667 64.426667 0 0 0 58.538667 64.128l5.845333 0.256h391.765334a64.426667 64.426667 0 0 0 64.128-58.538666l0.256-5.845334V209.450667a64.426667 64.426667 0 0 0-58.538667-64.128l-5.845333-0.256z"></path><path d="M640 756.437333a29.866667 29.866667 0 0 1 4.053333 59.434667L640 816.213333H384a29.866667 29.866667 0 0 1-4.053333-59.477333L384 756.437333h256z"></path>
</svg>
