<svg xmlns="http://www.w3.org/2000/svg" version="1.1" width="1024" height="1024" fill="currentColor" aria-hidden="true" focusable="false">
    <path d="M347.738353 496.097882a242.989176 242.989176 0 1 1 155.828706 56.560942 343.04 343.04 0 0 0-341.835294 314.428235h-1.204706a42.887529 42.887529 0 1 1-83.727059-12.890353 429.116235 429.116235 0 0 1 270.938353-358.098824z m155.828706-29.153882a157.214118 157.214118 0 1 0 0-314.428235 157.214118 157.214118 0 0 0 0 314.428235zM688.067765 597.895529a49.272471 49.272471 0 0 1 98.605176 0v82.100706h82.100706a49.272471 49.272471 0 0 1 0 98.605177H786.672941v82.100706a49.272471 49.272471 0 0 1-98.605176 0v-82.100706H605.967059a49.272471 49.272471 0 0 1 0-98.605177h82.100706V597.895529z"></path>
</svg>
