<svg xmlns="http://www.w3.org/2000/svg" version="1.1" width="1200" height="1024" fill="currentColor" aria-hidden="true" focusable="false">
    <path d="M634.35792077-49.64590748c111.24902254 0 201.47682726 90.17144713 201.47682726 201.47682525a46.38193819 46.38193819 0 0 1-16.9071476 35.89950808 310.02070533 310.02070533 0 0 1 113.67238099 116.88473769l-1.07078627 0.28178597c58.44236886-16.68171721 93.32744833-38.43557971 106.90952194-62.10558436 17.4707175-30.60193443 28.6857923-65.14887029 33.47614964-103.92259151a46.49465133 46.49465133 0 0 1 45.987437-40.80258063l5.8611456 0.33814357a46.49465133 46.49465133 0 0 1 40.40807943 51.84858059 366.99778884 366.99778884 0 0 1-45.0857236 138.75131541c-26.82600579 46.88915249-78.90001674 80.30894454-154.19317557 103.02087811 2.25428566 11.27143038 3.94500144 22.71193357 5.07214529 34.43422067l8.22814445 90.84773223h139.87845721a46.49465133 46.49465133 0 0 1 5.80478598 92.65116117l-5.80478598 0.39450115H986.59013449l0.11271521 0.73264269a352.96485644 352.96485644 0 0 1-11.83500232 128.43795405l0.73264268 0.05635761c71.12272906 13.24393212 122.01323858 41.70429406 149.23374351 87.80444628 23.27550549 39.45000837 36.35036482 86.11373253 39.56272355 139.37124291a46.49465133 46.49465133 0 1 1-92.82023395 5.57935759c-2.36700087-39.22458003-11.44050318-71.57358578-26.82600576-97.66694685-11.49685875-19.49957482-39.05550722-34.88507942-86.22644571-43.67679576a46.32558061 46.32558061 0 0 1-19.33050402-8.4535728A353.07757159 353.07757159 0 0 1 634.35792077 996.96280475a353.69750112 353.69750112 0 0 1-306.24477671-176.45425044 45.02936596 45.02936596 0 0 1-16.7380748 9.29893069c-35.50500692 10.82057365-57.59701097 26.09336308-68.75572816 44.97300835-13.80750203 23.2191479-23.05007712 56.18808319-26.88236339 98.96316351a46.49465133 46.49465133 0 0 1-44.63486484 42.26786595l-5.86114557-0.16907278-5.80478596-0.84535586a46.49465133 46.49465133 0 0 1-36.35036481-49.59429692c5.07214326-55.62451125 17.92157422-101.66830589 39.56272155-138.07502832 24.23357658-40.80258059 65.54337146-69.31930011 121.56238186-86.45187404a46.66372414 46.66372414 0 0 1 9.58071663-1.85978654 350.65421314 350.65421314 0 0 1-11.83500232-127.93073975v-0.84535789l-0.39449911 0.1127152H169.4113971l-5.80478594-0.39450115a46.49465133 46.49465133 0 0 1 5.80478594-92.59480359h112.15073804l5.80478595 0.33814356a46.38193819 46.38193819 0 0 1 3.09964357 0.50721434l8.28450202-91.74944771c1.23985701-13.63843123 3.38142951-27.05143414 6.31200231-40.06993791-65.93787061-22.48650519-112.03802284-54.21558146-136.72245812-97.38516087a366.99778884 366.99778884 0 0 1-45.08572356-138.75131541 46.49465133 46.49465133 0 0 1 40.46443702-51.84858059l5.86114559-0.33814357c23.1064327 0 43.05686625 17.30164673 45.98743705 40.80258063 4.7903573 38.77372125 15.94907454 73.26430156 33.47614961 103.92259151 12.1731459 21.30300378 41.59158087 41.02800894 89.83330355 56.92072589a311.26056237 311.26056237 0 0 1 110.910881-112.09438041 46.04379463 46.04379463 0 0 1-16.68171926-31.27821952l-0.22542833-5.86114557 0.33814356-10.42607251A201.47682726 201.47682726 0 0 1 634.35792077-49.64590748z m-241.71583592 473.40009441l-1.29621463 11.10235961-16.73807481 184.68239486a260.82090955 260.82090955 0 0 0 213.25547199 280.3204864V238.4518646a216.97504506 216.97504506 0 0 0-195.22118255 185.35867991z m288.26684487-185.30232233V899.74671261a260.93362477 260.93362477 0 0 0 214.04447226-268.37276891l-0.84535789-11.8913599-16.73807482-184.68239282a216.97504506 216.97504506 0 0 0-196.46103955-196.40468397zM634.35792077 43.34339522c-54.66644021 0-100.20302048 40.57715018-107.41673627 92.42573484l-0.84535791 8.28450001-0.22542834 9.12985988-0.28178596 2.31064329c26.14971866-7.15735819 53.59565394-10.93328889 81.88694514-10.93328888h53.76472673c28.29129115 0 55.79358205 3.77592863 81.8869451 10.93328888l-0.28178594-3.66321547A108.48752252 108.48752252 0 0 0 634.35792077 43.34339522z"></path>
</svg>
