<svg xmlns="http://www.w3.org/2000/svg" version="1.1" width="1024" height="1024" fill="currentColor" aria-hidden="true" focusable="false">
    <path d="M889.263158 82.970947v652.8c0 19.509895-6.413474 36.729263-19.132632 51.873685a128.242526 128.242526 0 0 1-48.235789 35.301052c-19.536842 8.353684-38.912 14.551579-58.071579 18.674527a267.587368 267.587368 0 0 1-54.191158 6.197894 259.233684 259.233684 0 0 1-54.191158-6.197894 301.541053 301.541053 0 0 1-58.044631-18.674527 128.242526 128.242526 0 0 1-48.23579-35.301052 78.551579 78.551579 0 0 1-19.159579-51.873685c0-19.402105 6.413474-36.756211 19.132632-51.900631 12.746105-15.144421 28.860632-26.785684 48.235789-35.301053 19.509895-8.353684 38.912-14.551579 58.071579-18.647579a267.587368 267.587368 0 0 1 54.164211-6.197895c39.397053 0 75.237053 7.653053 107.816421 22.689685V333.716211l-431.21179 138.078315v413.237895c0 19.402105-6.413474 36.729263-19.132631 51.873684-12.746105 15.171368-28.860632 26.812632-48.23579 35.301053-19.509895 8.353684-38.912 14.551579-58.071579 18.674526a267.587368 267.587368 0 0 1-54.16421 6.170948 259.233684 259.233684 0 0 1-54.218106-6.197895 301.541053 301.541053 0 0 1-58.044631-18.647579 128.242526 128.242526 0 0 1-48.23579-35.301053A78.551579 78.551579 0 0 1 26.947368 885.032421c0-19.536842 6.413474-36.756211 19.132632-51.900632 12.746105-15.171368 28.860632-26.812632 48.235789-35.301052 19.536842-8.353684 38.912-14.551579 58.071579-18.647579a267.587368 267.587368 0 0 1 54.191158-6.197895c39.343158 0 75.210105 7.653053 107.789474 22.662737V232.097684c0-11.991579 3.503158-23.04 10.644211-32.983579a55.673263 55.673263 0 0 1 27.567157-20.749473l467.078737-149.126737c4.419368-1.562947 9.701053-2.290526 15.629474-2.290527 14.955789 0 27.809684 5.335579 38.211368 16.249264 10.617263 11.048421 15.764211 24.360421 15.764211 39.774315z"></path>
</svg>
