<svg xmlns="http://www.w3.org/2000/svg" version="1.1" width="1024" height="1024" fill="currentColor" aria-hidden="true" focusable="false">
    <path d="M743.982545 7.261091c2.187636 0 4.189091 0.093091 6.144 0.139636l10.100364 0.558546c8.890182 0.837818 14.848 2.466909 22.434909 5.585454a88.436364 88.436364 0 0 1 7.028364 3.258182l6.330182 3.723636 6.516363 4.980364c2.327273 1.861818 4.794182 4.096 7.586909 6.702546l9.402182 9.122909 152.203637 151.924363 13.730909 13.963637 5.957818 6.609454c0.837818 0.930909 1.629091 1.908364 2.327273 2.839273l4.049454 5.538909 1.861818 2.932364c2.141091 3.444364 3.956364 6.981818 5.492364 10.612363 3.956364 9.588364 5.585455 17.780364 6.144 31.045818l0.279273 15.220364v408.669091l-0.186182 29.556364-0.698182 39.703272-0.884364 23.552-1.256727 21.457455c-5.259636 74.938182-19.037091 110.312727-52.037818 143.313454l-4.049455 3.956364c-25.786182 24.576-51.758545 37.515636-100.258909 44.218182l-16.104727 1.861818-17.733818 1.536-9.541818 0.651636-20.526546 1.024-22.574545 0.744728-38.074182 0.698182-28.392727 0.232727h-341.643637l-59.392-0.232727-38.074182-0.698182-22.574545-0.744728a1154.187636 1154.187636 0 0 1-10.472727-0.465454l-19.549091-1.210182-17.780364-1.536-16.104727-1.861818c-51.060364-7.074909-77.125818-21.038545-104.308364-48.174546l-4.375272-4.514909c-31.278545-33.233455-43.752727-70.656-48.360728-149.271272l-1.024-22.481455-0.418909-12.101818-0.558545-25.832727-0.279273-28.346182V319.767273l0.139636-29.649455 0.372364-27.042909 0.744727-24.669091 0.465455-11.543273 1.256727-21.410909c5.306182-74.938182 19.037091-110.359273 52.037818-143.36C103.796364 27.741091 141.032727 14.289455 223.278545 9.541818l22.528-1.024c3.909818-0.186182 7.912727-0.279273 12.101819-0.418909l25.879272-0.558545 28.392728-0.279273zM512.930909 692.922182l-75.543273 0.093091-31.092363 0.372363-25.413818 0.791273-14.149819 0.837818-12.101818 1.117091-10.426182 1.396364-8.797091 1.722182-7.447272 2.048c-8.005818 2.653091-13.637818 6.050909-18.525091 10.472727l-2.048 1.908364c-6.469818 6.469818-10.984727 13.963636-14.103273 26.484363l-1.722182 8.145455-0.744727 4.608-1.303273 10.333091-0.977454 12.008727-1.070546 21.597091-0.605091 26.437818-0.279272 43.938909v70.283636l28.392727 0.41891 353.28 0.139636 19.176727-0.093091v-94.487273l-0.605091-40.122182-0.605091-16.290909-0.837818-14.149818a371.386182 371.386182 0 0 0-0.465454-6.283636l-1.256728-11.170909-1.582545-9.588364c-2.001455-10.24-4.654545-17.501091-8.285091-23.319273l-3.258182-4.654545-3.816727-4.189091-4.049455-3.677091a55.389091 55.389091 0 0 0-22.481454-10.426182l-8.145455-1.722182a164.864 164.864 0 0 0-4.654545-0.744727l-10.286546-1.303273a323.351273 323.351273 0 0 0-5.818181-0.512l-20.154182-1.256727-15.965091-0.558545-18.245818-0.325818-43.985455-0.279273z m227.002182-620.544h-426.821818l-26.437818 0.279273-34.909091 0.791272-20.293819 0.930909-18.152727 1.163637-16.244363 1.536-14.382546 1.908363c-33.838545 5.306182-52.317091 14.289455-67.304727 29.230546-14.941091 14.941091-23.970909 33.419636-29.230546 67.211636l-1.954909 14.382546-1.536 16.151272-1.163636 18.152728-0.930909 20.293818-0.791273 34.816-0.279273 26.391273v384.930909l0.279273 40.587636 0.791273 34.816 0.930909 20.293818 1.163636 18.152727 1.536 16.197819 1.954909 14.382545c5.259636 33.792 14.289455 52.224 29.230546 67.165091l2.746182 2.653091 5.678545 4.887273c11.682909 9.309091 25.832727 15.639273 47.895273 19.921454l11.729454 2.001455 13.172364 1.675636 14.801455 1.349818 10.007272 0.651637 0.093091-94.114909 0.465455-34.117819 0.558545-19.735272 0.930909-17.547637 0.558546-8.052363 1.489454-14.661819c4.794182-39.191273 14.894545-58.554182 35.84-79.45309l7.307637-6.981819c22.109091-19.456 45.242182-27.601455 94.952727-30.813091l17.547636-0.930909 19.735273-0.605091 22.155636-0.325818 38.074182-0.186182h65.163637l24.762181 0.186182 22.109091 0.325818 19.735273 0.605091 17.594182 0.930909 15.592727 1.256728c39.191273 3.909818 59.717818 12.241455 79.313455 29.602909l7.354181 6.935273c20.945455 20.898909 31.045818 40.261818 35.84 79.45309l1.44291 14.661819 1.070545 16.570181 0.791273 18.618182 0.465454 20.898909 0.232728 23.365819v96.162909l16.756363-0.418909 19.549091-0.744728 17.501091-0.930909 15.685818-1.256727 7.168-0.698182 13.218909-1.675636 11.682909-2.001455c16.523636-3.211636 28.625455-7.586909 38.632728-13.498182l6.283636-4.189091a85.643636 85.643636 0 0 0 2.978909-2.234181l5.678546-4.887273 2.746181-2.653091c15.965091-15.918545 25.134545-35.84 30.254546-74.146909l1.722182-15.266909 1.396363-17.128727 1.024-19.176728 1.024-33.047272 0.465455-38.586182V277.085091l-0.325818-10.286546-0.465455-3.816727-0.605091-2.280727-1.349818-2.234182-3.537455-4.282182-6.981818-7.307636L779.170909 93.090909l-13.312-13.032727-5.12-4.468364-2.141091-1.396363-0.837818-0.41891-1.954909-0.558545-5.399273-0.558545-10.472727-0.279273z m-227.002182 219.229091a32.581818 32.581818 0 0 1 4.421818 64.884363l-4.421818 0.279273H253.998545a32.581818 32.581818 0 0 1-4.421818-64.884364l4.421818-0.279272h258.932364z"></path>
</svg>
