<svg xmlns="http://www.w3.org/2000/svg" version="1.1" width="1024" height="1024" fill="currentColor" aria-hidden="true" focusable="false">
    <path d="M512.853333 85.333333c29.269333 0 57.429333 5.461333 84.48 16.298667a238.933333 238.933333 0 0 1 72.106667 44.885333c20.992 18.944 37.717333 40.96 50.176 66.133334 6.314667 12.544 11.008 25.685333 14.08 39.253333l-108.970667 33.792a104.106667 104.106667 0 0 0-28.757333-54.954667c-21.333333-20.821333-50.176-31.232-86.698667-31.232-32.853333 0-59.306667 10.410667-79.36 31.232-20.138667 20.821333-30.208 50.261333-30.208 88.32v202.581334H284.757333V293.717333c0-29.013333 5.802667-56.064 17.322667-81.066666a209.92 209.92 0 0 1 47.957333-66.133334c20.309333-19.029333 44.373333-34.048 72.106667-44.885333C449.706667 90.794667 480.085333 85.333333 512.853333 85.333333z m280.234667 395.946667c16.469333 0 30.549333 5.802667 42.410667 17.578667A57.258667 57.258667 0 0 1 853.333333 541.013333v280.746667a120.149333 120.149333 0 0 1-32.426666 82.944 109.482667 109.482667 0 0 1-80.725334 33.962667H279.296a107.52 107.52 0 0 1-78.933333-33.024 106.24 106.24 0 0 1-21.930667-34.986667A116.309333 116.309333 0 0 1 170.666667 828.245333V541.013333a58.026667 58.026667 0 0 1 17.322666-42.154666 56.661333 56.661333 0 0 1 41.984-17.664H793.088z" p-id="8958"></path>
</svg>
