<svg xmlns="http://www.w3.org/2000/svg" version="1.1" width="1024" height="1024" fill="currentColor" aria-hidden="true" focusable="false">
    <path d="M134.4 772.181333a202.197333 202.197333 0 0 0 46.506667 71.424A243.2 243.2 0 0 0 251.733333 891.733333a29.866667 29.866667 0 1 1-24.576 54.442667 302.933333 302.933333 0 0 1-87.978666-59.818667 261.802667 261.802667 0 0 1-60.373334-92.16 29.866667 29.866667 0 0 1 55.552-21.973333zM512 98.133333c228.565333 0 413.866667 185.301333 413.866667 413.866667 0 228.565333-185.301333 413.866667-413.866667 413.866667-228.565333 0-413.866667-185.301333-413.866667-413.866667 0-228.565333 185.301333-413.866667 413.866667-413.866667z m0 59.733334a354.133333 354.133333 0 1 0 0 708.266666 354.133333 354.133333 0 0 0 0-708.266666z m96.725333 257.408c107.946667 107.904 159.146667 235.946667 100.821334 294.272-41.386667 41.386667-117.973333 27.605333-197.546667-22.528-79.573333 50.133333-156.16 63.957333-197.546667 22.528-58.325333-58.325333-7.082667-186.368 100.821334-294.272 7.765333-7.808 15.701333-15.317333 23.765333-22.528a29.866667 29.866667 0 0 1 39.936 44.373333 528.256 528.256 0 0 0-69.632 75.648l0.384 0.384 13.354667 15.744 14.72 16.64A528.682667 528.682667 0 0 0 512 614.101333a532.693333 532.693333 0 0 0 71.466667-65.365333 29.866667 29.866667 0 0 1 44.032 40.32 616.618667 616.618667 0 0 1-62.634667 59.52c47.914667 26.197333 87.637333 33.536 102.4 18.773333 25.173333-25.258667-13.866667-122.88-100.821333-209.834666C479.573333 370.56 381.909333 331.477333 356.693333 356.693333c-10.325333 10.325333-9.941333 38.272 6.741334 77.610667a29.866667 29.866667 0 0 1-54.997334 23.296c-25.173333-59.264-25.856-111.274667 5.973334-143.146667 58.368-58.325333 186.410667-7.082667 294.314666 100.821334zM356.693333 667.306667c14.762667 14.805333 54.485333 7.466667 102.4-18.688-14.805333-12.245333-29.482667-25.6-43.818666-39.893334-6.058667-6.016-13.653333-14.122667-21.546667-22.869333l-15.872-17.92-2.56-2.858667c-26.069333 47.786667-33.365333 87.466667-18.602667 102.229334z m352.853334-352.853334c32.64 32.64 31.146667 86.314667 4.224 147.328a29.866667 29.866667 0 1 1-54.656-24.106666c18.048-40.96 18.858667-70.314667 8.192-80.981334-9.301333-9.301333-33.152-10.026667-67.712 2.816a29.866667 29.866667 0 0 1-20.778667-56.021333c54.016-20.053333 101.12-18.645333 130.730667 10.965333z m91.989333-241.152a302.933333 302.933333 0 0 1 87.978667 59.776 261.802667 261.802667 0 0 1 60.373333 92.16 29.866667 29.866667 0 1 1-55.552 21.973334 202.197333 202.197333 0 0 0-46.592-71.424 243.2 243.2 0 0 0-70.741333-48.042667 29.866667 29.866667 0 1 1 24.533333-54.442667z"></path>
</svg>
