<svg xmlns="http://www.w3.org/2000/svg" version="1.1" width="18" height="16" fill="currentColor" aria-hidden="true" focusable="false">
    <path fill="none" d="M.833 0h16v16h-16z"></path><path d="M6.632 9.1H5.406c-.275 0-.474-.048-.596-.143-.122-.096-.183-.266-.183-.51 0-.245.064-.42.194-.527.13-.107.329-.16.596-.16h1.914c.314 0 .524.08.63.24.108.16.161.44.161.836 0 .482-.06.94-.178 1.376-.118.435-.313.82-.584 1.152-.271.332-.62.596-1.049.79-.428.195-.951.293-1.57.293-.603 0-1.146-.1-1.627-.298a3.487 3.487 0 0 1-1.232-.843c-.34-.363-.6-.8-.78-1.312a5.17 5.17 0 0 1-.269-1.72c0-.603.086-1.164.258-1.684.172-.52.422-.97.75-1.352a3.533 3.533 0 0 1 1.21-.906C3.528 4.111 4.073 4 4.684 4c.351 0 .68.029.985.086.306.057.63.185.975.384.206.13.397.27.573.418.175.15.317.298.424.447a.874.874 0 0 1 .177.436c.012.141-.051.261-.189.36-.068.062-.15.115-.246.161a.833.833 0 0 1-.304.08.921.921 0 0 1-.32-.034.69.69 0 0 1-.299-.183c-.305-.329-.594-.552-.865-.67a2.377 2.377 0 0 0-.957-.178c-.32 0-.623.068-.905.206a2.162 2.162 0 0 0-.734.584c-.206.252-.37.558-.493.917-.122.36-.183.76-.183 1.204 0 .45.06.855.178 1.214.118.36.284.665.498.917.214.252.47.447.768.585.298.137.626.206.986.206.26 0 .502-.051.727-.155A1.93 1.93 0 0 0 6.483 9.92c.1-.249.15-.522.15-.82ZM10.61 11.6c0 .244-.06.427-.178.55-.118.122-.31.183-.578.183-.268 0-.457-.061-.568-.183-.11-.123-.166-.302-.166-.539V4.848c0-.489.245-.733.734-.733.244 0 .431.053.561.16.13.107.195.294.195.562v6.762Zm5.192-4.15c.221 0 .397.054.527.161.107.107.16.271.16.493 0 .23-.053.392-.16.487-.107.096-.283.143-.527.143h-2.43v3.13c0 .106-.06.211-.177.314-.119.103-.312.155-.58.155-.267 0-.456-.052-.567-.155-.11-.103-.166-.208-.166-.315V4.86c0-.237.061-.402.184-.493.122-.092.305-.138.55-.138h3.541c.222 0 .388.048.499.143.11.096.17.262.177.499.008.237-.05.403-.172.499-.122.095-.294.143-.515.143H13.37V7.45h2.43Z"></path>
</svg>
