<svg xmlns="http://www.w3.org/2000/svg" version="1.1" width="12" height="12" fill="currentColor" aria-hidden="true" focusable="false">
    <g id="数据面板/ic_展开表格" stroke="none" stroke-width="1" fill="none" fill-rule="evenodd"><rect id="矩形" x="0" y="0" width="12" height="12"></rect><g id="编组-19" transform="translate(1.000000, 1.000000)" fill="#847DA4" fill-rule="nonzero"><g id="编组-18" transform="translate(5.263158, 0.000000)"><path d="M3.68861864,0.179846713 C3.92841426,-0.0599489044 4.31719977,-0.0599489044 4.55699539,0.179846713 C4.77281145,0.395662769 4.79439305,0.732160641 4.62174021,0.97211306 L4.55699539,1.04822346 L1.04822346,4.55699539 C0.808427844,4.79679101 0.419642331,4.79679101 0.179846713,4.55699539 C-0.0359693427,4.34117934 -0.0575509483,4.00468146 0.115101897,3.76472905 L0.179846713,3.68861864 L3.68861864,0.179846713 Z" id="路径-7"></path><path d="M4.12280702,0 C4.43366905,0 4.69057739,0.231003178 4.73123669,0.530714164 L4.73684211,0.614035088 L4.73684211,3.39477667 C4.73684211,3.73389888 4.46192923,4.00881176 4.12280702,4.00881176 C3.81194499,4.00881176 3.55503664,3.77780858 3.51437735,3.47809759 L3.50877193,3.39477667 L3.50789474,1.22807018 L1.29098938,1.22807018 C0.980127345,1.22807018 0.723218998,0.997066998 0.682559704,0.697356012 L0.676954287,0.614035088 C0.676954287,0.303173057 0.907957465,0.0462647104 1.20766845,0.00560541661 L1.29098938,0 L4.12280702,0 Z" id="路径-8"></path></g><g id="编组-18备份" transform="translate(2.368421, 7.631579) scale(-1, -1) translate(-2.368421, -7.631579) translate(0.000000, 5.263158)"><path d="M3.68861864,0.179846713 C3.92841426,-0.0599489044 4.31719977,-0.0599489044 4.55699539,0.179846713 C4.77281145,0.395662769 4.79439305,0.732160641 4.62174021,0.97211306 L4.55699539,1.04822346 L1.04822346,4.55699539 C0.808427844,4.79679101 0.419642331,4.79679101 0.179846713,4.55699539 C-0.0359693427,4.34117934 -0.0575509483,4.00468146 0.115101897,3.76472905 L0.179846713,3.68861864 L3.68861864,0.179846713 Z" id="路径-7"></path><path d="M4.12280702,0 C4.43366905,0 4.69057739,0.231003178 4.73123669,0.530714164 L4.73684211,0.614035088 L4.73684211,3.39477667 C4.73684211,3.73389888 4.46192923,4.00881176 4.12280702,4.00881176 C3.81194499,4.00881176 3.55503664,3.77780858 3.51437735,3.47809759 L3.50877193,3.39477667 L3.50789474,1.22807018 L1.29098938,1.22807018 C0.980127345,1.22807018 0.723218998,0.997066998 0.682559704,0.697356012 L0.676954287,0.614035088 C0.676954287,0.303173057 0.907957465,0.0462647104 1.20766845,0.00560541661 L1.29098938,0 L4.12280702,0 Z" id="路径-8"></path></g></g></g>
</svg>
