<svg xmlns="http://www.w3.org/2000/svg" version="1.1" width="1024" height="1024" fill="currentColor" aria-hidden="true" focusable="false">
    <path d="M213.312 108.8c-57.728 0-104.512 46.784-104.512 104.512v597.376c0 57.728 46.784 104.512 104.512 104.512h597.312c57.728 0 104.576-46.784 104.576-104.512V512a44.8 44.8 0 1 1 89.6 0v298.688a194.112 194.112 0 0 1-194.176 194.112H213.312A194.112 194.112 0 0 1 19.2 810.688V213.312A194.112 194.112 0 0 1 213.312 19.2H512a44.8 44.8 0 1 1 0 89.6H213.312z" p-id="5281"></path><path d="M984.512 48.96a44.8 44.8 0 0 1-0.448 63.36L364.16 723.136a44.8 44.8 0 0 1-62.848-63.872L921.152 48.448a44.8 44.8 0 0 1 63.36 0.512z" p-id="5282"></path>
</svg>
