<svg xmlns="http://www.w3.org/2000/svg" version="1.1" width="1024" height="1024" fill="currentColor" aria-hidden="true" focusable="false">
    <path d="M574.848 651.52c4.48-18.944 8.96-30.08 14.08-39.424a191.36 191.36 0 0 1 48.384-59.904c54.144-47.232 86.4-77.184 96.768-89.856 28.8-36.864 43.776-84.096 43.776-140.544 0-69.12-23.04-124.416-69.12-164.736-46.08-41.472-105.984-61.056-179.712-61.056-85.248 0-152.064 24.192-200.448 73.728C280.192 218.112 256 283.776 256 367.872c0 46.08 33.536 61.888 63.36 60.16 29.696-1.792 57.6-26.176 57.6-60.16 0-50.688 10.368-89.856 31.104-117.504 23.04-33.408 61.056-49.536 112.896-49.536 41.472 0 74.88 11.52 97.92 34.56 21.888 23.04 33.408 54.144 33.408 94.464 0 29.952-11.52 57.6-32.256 84.096l-19.584 21.888c-71.424 63.36-115.2 110.592-130.176 142.848a169.536 169.536 0 0 0-19.648 61.76c-2.24 19.648 5.12 64.448 57.664 64.448 52.544 0 62.08-34.56 66.56-53.44z m-66.56 283.136c23.04 0 43.776-8.064 59.904-23.04 16.128-16.128 25.344-35.712 25.344-59.904s-8.064-43.776-24.192-58.752c-16.128-16.128-36.864-23.04-61.056-23.04-23.04 0-43.776 6.912-59.904 23.04-16.128 14.976-24.192 34.56-24.192 58.752 0 23.04 8.064 42.624 24.192 58.752s36.864 24.192 59.904 24.192z"></path>
</svg>
