<svg xmlns="http://www.w3.org/2000/svg" version="1.1" width="1194" height="1024" fill="currentColor" aria-hidden="true" focusable="false">
    <path d="M597.333333 332.8h0.896l2.858667 0.213333L597.333333 332.8a30.037333 30.037333 0 0 1 21.12 8.746667l0.768 0.768a30.037333 30.037333 0 0 1 1.450667 1.706666l0.682667 0.938667 110.122666 149.333333a29.866667 29.866667 0 0 1-45.184 38.826667l-2.858666-3.413333-56.277334-76.288 0.042667 471.04a29.866667 29.866667 0 0 1-59.477333 4.053333l-0.256-4.053333-0.042667-473.856-61.098667 79.573333a29.866667 29.866667 0 0 1-38.144 7.936l-3.712-2.432a29.866667 29.866667 0 0 1-7.936-38.186667l2.432-3.669333 114.688-149.333333a30.08 30.08 0 0 1 2.602667-2.986667l-2.602667 2.986667a30.208 30.208 0 0 1 18.773334-11.306667 30.08 30.08 0 0 1 4.053333-0.384H597.333333z m364.8-142.08v85.333333H232.533333v-85.333333h729.6z"></path>
</svg>
