<svg xmlns="http://www.w3.org/2000/svg" version="1.1" width="1024" height="1024" fill="currentColor" aria-hidden="true" focusable="false">
    <path d="M513.396364 699.717818l43.938909 0.279273 18.245818 0.372364 15.965091 0.512 20.154182 1.256727 5.818181 0.512 10.333091 1.303273 4.608 0.744727 8.145455 1.722182c10.053818 2.513455 16.896 5.911273 22.481454 10.426181l4.049455 3.677091 3.770182 4.189091 3.304727 4.654546c3.584 5.818182 6.283636 13.079273 8.285091 23.319272l1.582545 9.541819 1.210182 11.217454 0.512 6.330182 0.837818 14.103273 0.605091 16.290909 0.605091 40.122182 0.046546 159.650909-329.914182 0.093091-59.345455-0.279273-11.636363-0.279273v-135.447273l0.279272-43.938909 0.605091-26.437818 1.070546-21.597091 0.977454-12.008727 1.303273-10.333091 0.744727-4.608 1.722182-8.145454c3.118545-12.567273 7.633455-20.014545 14.103273-26.437819l2.048-1.954909c4.887273-4.421818 10.519273-7.819636 18.525091-10.472727l7.447273-2.048 8.843636-1.722182 10.333091-1.396363 12.148363-1.117091 14.149819-0.837819 25.413818-0.791272 31.092363-0.372364 75.543273-0.093091zM744.354909 14.056727c2.187636 0 4.189091 0.093091 6.144 0.139637l10.100364 0.605091c8.890182 0.791273 14.848 2.420364 22.434909 5.585454a88.436364 88.436364 0 0 1 7.028363 3.211636l6.330182 3.770182 6.516364 4.933818c2.327273 1.908364 4.794182 4.096 7.586909 6.702546l9.402182 9.122909 152.203636 151.924364 13.730909 14.010181 5.957818 6.516364 2.327273 2.885818 4.049455 5.538909 1.861818 2.932364c2.141091 3.444364 3.956364 6.981818 5.492364 10.612364 3.956364 9.588364 5.585455 17.780364 6.144 31.045818l0.279272 15.220363v408.669091l-0.186182 29.556364-0.698181 39.703273-0.884364 23.598545-1.256727 21.410909c-5.259636 74.938182-19.037091 110.359273-52.037818 143.313455l-4.049455 3.956363c-25.786182 24.576-51.758545 37.515636-100.258909 44.218182l-16.104727 1.861818-17.733819 1.536-9.541818 0.651637-20.526545 1.024-22.574546 0.744727-13.032727 0.186182-0.093091-161.28-0.232727-23.365818-0.465455-20.898909-0.791272-18.618182-1.070546-16.523637-1.489454-14.708363c-4.747636-39.191273-14.894545-58.554182-35.793455-79.453091l-7.354182-6.935273c-19.595636-17.361455-40.122182-25.693091-79.313454-29.602909l-15.592728-1.256727-17.594181-0.930909-19.735273-0.605091-22.109091-0.325818-24.715636-0.139637h-65.163637l-38.167272 0.139637-22.109091 0.325818-19.735273 0.605091-17.547636 0.930909c-49.710545 3.258182-72.843636 11.357091-94.952728 30.859636l-7.354182 6.935273c-20.945455 20.898909-30.999273 40.261818-35.793454 79.453091l-1.489455 14.708363-0.558545 8.005819-0.930909 17.547636-0.605091 19.735273-0.465455 34.117818-0.093091 159.464727-13.870545-0.791273-17.733818-1.536-16.104727-1.861818c-51.060364-7.074909-77.125818-21.038545-104.308364-48.174545l-4.375273-4.514909c-31.278545-33.233455-43.752727-70.656-48.360727-149.271273l-1.024-22.481455-0.418909-12.101818-0.558546-25.832727-0.279272-28.346182V326.562909L14.894545 296.96l0.372364-27.089455 0.744727-24.66909 0.465455-11.543273 1.256727-21.410909C23.04 137.309091 36.770909 101.888 69.771636 68.887273c34.443636-34.443636 71.68-47.895273 153.925819-52.596364L246.225455 15.220364l12.101818-0.418909 25.879272-0.558546 28.392728-0.279273z m-231.051636 284.392728H254.417455l-4.421819 0.279272a32.581818 32.581818 0 0 0 4.421819 64.837818h258.932363l4.421818-0.279272a32.581818 32.581818 0 0 0-4.421818-64.884364z"></path>
</svg>
