<svg xmlns="http://www.w3.org/2000/svg" version="1.1" width="1024" height="1024" fill="currentColor" aria-hidden="true" focusable="false">
    <path d="M512 654.222222c0 52.622222 15.900444 101.546667 43.121778 142.250667L213.333333 796.444444l-0.028444-1.393777C125.155556 783.587556 56.888889 702.122667 56.888889 603.306667c0-96.711111 65.422222-176.782222 150.755555-190.919111C220.785778 276.536889 326.542222 170.666667 455.111111 170.666667c126.776889 0 231.424 102.968889 246.897778 236.145777a255.857778 255.857778 0 0 0-125.781333 77.824 26.851556 26.851556 0 0 0-7.651556-1.080888h-170.666667a28.444444 28.444444 0 0 0-3.328 56.689777l3.328 0.199111h140.714667a254.151111 254.151111 0 0 0-20.280889 56.888889h-120.433778a28.444444 28.444444 0 0 0-3.328 56.689778l3.328 0.199111z m-199.395556-56.888889a28.444444 28.444444 0 1 0 0 56.888889 28.444444 28.444444 0 0 0 0-56.888889z m0-113.777777a28.444444 28.444444 0 1 0 0 56.888888 28.444444 28.444444 0 0 0 0-56.888888z" fill="#FFFFFF"></path><path d="M568.888889 455.111111m199.111111 0l0 0q199.111111 0 199.111111 199.111111l0 0q0 199.111111-199.111111 199.111111l0 0q-199.111111 0-199.111111-199.111111l0 0q0-199.111111 199.111111-199.111111Z" fill="#FEB904"></path><path d="M770.616889 732.728889c-20.593778 0-36.750222 15.189333-36.750222 35.726222 0 20.48 16.099556 35.384889 36.750222 35.384889 20.650667 0 36.750222-14.876444 36.750222-35.384889 0-20.536889-16.156444-35.726222-36.750222-35.726222zM801.706667 534.755556H739.84l1.166222 50.887111 10.325334 131.157333h38.485333l10.666667-130.844444 1.194666-51.2z" fill="#FFFFFF"></path>
</svg>
