<svg xmlns="http://www.w3.org/2000/svg" version="1.1" width="1024" height="1024" fill="currentColor" aria-hidden="true" focusable="false">
    <path d="M710.485333 733.696a64 64 0 1 1 0.085334 127.957333 64 64 0 0 1-0.085334-127.957333z m-321.493333 0a64 64 0 1 1 0 128 64 64 0 0 1 0-128zM225.877333 198.144c34.986667 0 64.896 23.808 72.789334 57.856l72.192 356.949333a10.581333 10.581333 0 0 0 10.410666 8.234667h333.568a10.666667 10.666667 0 0 0 10.24-7.808l67.285334-240.896a10.496 10.496 0 0 0-1.792-9.386667 10.368 10.368 0 0 0-8.533334-4.138666H397.226667a32 32 0 0 1 0-64h384.853333c23.594667 0 45.312 10.666667 59.52 29.525333 14.250667 18.730667 18.773333 42.496 12.373333 65.194667L786.773333 630.613333a74.88 74.88 0 0 1-71.936 54.570667H381.269333c-34.986667 0-64.896-23.808-72.746666-57.813333L236.288 270.421333a10.581333 10.581333 0 0 0-10.410667-8.277333h-49.066666a32 32 0 0 1 0-64h49.066666z"></path>
</svg>
