<svg xmlns="http://www.w3.org/2000/svg" version="1.1" width="1024" height="1024" fill="currentColor" aria-hidden="true" focusable="false">
    <path d="M705.396364 110.545455l21.969454 0.465454c22.900364 1.024 37.282909 3.630545 52.642909 9.914182 14.010182 5.725091 24.669091 12.474182 39.563637 25.460364l6.656 5.957818 13.498181 12.8 64.698182 63.767272 12.706909 12.939637 9.821091 10.705454c9.588364 10.984727 15.034182 19.176727 19.735273 29.090909l2.746182 6.190546 1.768727 4.375273c3.723636 9.634909 5.911273 18.385455 7.168 30.72l0.605091 7.819636 0.651636 13.824 0.279273 16.942545 0.093091 37.608728v0.558545l-0.093091 0.512 0.093091 303.895273-0.093091 26.670545-0.465454 34.722909-0.651637 20.014546-1.024 17.687273-1.396363 15.685818-1.908364 13.870545c-4.096 25.134545-11.170909 41.425455-23.133091 56.459637l-4.701091 5.585454-7.354182 7.633455-7.773091 7.214545c-14.987636 13.032727-30.394182 20.945455-53.806545 25.786182l-9.169455 1.675636-14.056727 1.861819-15.918545 1.396363-17.966546 0.977455-20.293818 0.651636-35.234909 0.465455-439.063273 0.093091-27.042909-0.093091-35.281454-0.465455-20.293819-0.651636-17.966545-0.977455-15.918546-1.396363-14.056727-1.861819c-25.506909-4.049455-42.077091-11.031273-57.297454-22.807272l-5.678546-4.654546-7.773091-7.214545c-22.900364-22.574545-33.28-46.545455-37.701818-90.903273l-0.930909-10.612364-1.117091-20.433454-0.651636-23.086546-0.279273-26.018909v-370.036363l0.512-21.643637c1.024-22.574545 3.723636-36.770909 10.053818-51.851636 5.771636-13.824 12.613818-24.343273 25.832727-39.005091l6.05091-6.516364 12.986181-13.358545 49.245091-48.64 24.669091-23.924364 8.936727-8.238545 7.58691-6.516364 1.768727-1.396363 1.722182-1.396364 6.702545-4.840727 6.935273-4.468364c5.492364-3.397818 11.124364-6.237091 16.942545-8.610909 13.544727-5.538909 26.344727-8.238545 44.962909-9.448727l9.821091-0.512 20.107637-0.418909h386.56z m182.458181 324.654545h-162.024727l-0.139636 181.806545-0.372364 15.453091-0.791273 11.869091c-0.744727 6.981818-1.768727 12.194909-3.351272 17.082182l-2.839273 7.214546-1.768727 3.723636a94.254545 94.254545 0 0 1-115.432728 47.150545l-7.074909-2.699636a70.842182 70.842182 0 0 1-3.258181-1.489455l-6.469819-3.630545a80.058182 80.058182 0 0 1-3.351272-2.280727l-7.354182-5.678546-8.750546-7.726545-17.268363-16.430546-31.278546-30.161454a9.355636 9.355636 0 0 0-5.818182-0.930909l-2.746181 0.837818-3.909819 3.444364-40.866909 39.656727-10.146909 9.169454a92.625455 92.625455 0 0 1-18.944 13.358546l-7.168 3.118545-3.909818 1.396364a94.254545 94.254545 0 0 1-115.432727-47.057455l-1.768727-3.770181-2.839273-7.261091a71.214545 71.214545 0 0 1-2.792727-12.288l-1.024-10.565819-0.558546-13.730909-0.279273-17.92-0.046545-171.659636h-161.978182v296.029091l0.232727 23.831273 0.558546 20.386909 0.930909 17.314909c2.187636 31.557818 6.842182 46.778182 15.406545 56.785454l2.466909 2.653091 4.096 3.630546c3.816727 2.932364 8.238545 5.352727 14.056728 7.354182l6.237091 1.861818 8.471272 1.722182 4.840728 0.744727 5.213091 0.698182 11.962181 1.117091 13.963637 0.884363 16.290909 0.605091 18.897454 0.418909 21.643637 0.232727 436.596363 0.046546 46.312728-0.279273 18.850909-0.418909 23.552-1.024 12.939636-0.977454 10.984727-1.303273 2.466909-0.372364 2.327273-0.372363 8.471273-1.768728a58.181818 58.181818 0 0 0 16.290909-6.423272l4.049455-2.792728 4.096-3.584 3.67709-4.049454a46.033455 46.033455 0 0 0 7.447273-13.824l1.861818-6.190546 1.815273-8.378182 0.744727-4.70109 0.698182-5.166546 1.163637-11.776 0.837818-13.777454 0.651636-16.058182 0.418909-18.618182 0.232727-21.271273V435.2z m-246.458181 0H382.510545l0.093091 167.377455 0.698182 32.162909 0.139637 1.582545a9.309091 9.309091 0 0 0 11.450181 4.654546l5.818182-5.12 42.821818-41.425455 8.285091-7.540364c2.373818-2.048 4.514909-3.723636 6.702546-5.213091l9.634909-5.818181a94.952727 94.952727 0 0 1 87.645091 0l6.888727 3.909818c2.141091 1.396364 4.189091 2.792727 6.423273 4.561454l7.307636 6.330182 44.218182 42.728727 8.424727 7.58691a9.309091 9.309091 0 0 0 11.450182-4.654546l0.512-11.264 0.372364-39.330909V435.2z m63.767272-253.626182H319.069091l-16.290909 0.325818c-16.384 0.558545-24.576 1.908364-31.278546 4.654546l-3.258181 1.489454-3.258182 1.861819-2.094546 1.303272-4.235636 2.978909-4.840727 3.909819-13.265455 12.101818-62.464 61.300363-16.011636 16.151273-7.586909 8.145455-1.582546 1.768727-1.396363 1.675636-4.747637 5.957818a48.034909 48.034909 0 0 0-5.632 9.774546c-2.373818 5.725091-3.723636 12.427636-4.468363 24.343273l-0.279273 6.423272-0.325818 15.825455v2.606545h751.755636l-0.186182-12.101818-0.558545-14.987636-0.651637-7.354182-0.930909-5.818182-0.279272-1.256727-0.279273-1.210182-1.349818-4.375273-1.768728-4.189091-2.420363-4.375272-0.698182-1.163637-0.837818-1.163636-3.956364-5.213091-5.585454-6.376727-12.19491-12.753455-59.578181-58.88-16.384-15.778909-8.238546-7.447273-1.815273-1.536-1.722181-1.396363-6.050909-4.654546a53.480727 53.480727 0 0 0-6.795637-4.189091l-3.165091-1.396363-2.978909-1.117091a85.829818 85.829818 0 0 0-21.690182-3.258182l-6.516363-0.279273-16.104728-0.325818z"></path>
</svg>
