<svg xmlns="http://www.w3.org/2000/svg" version="1.1" width="1024" height="1024" fill="currentColor" aria-hidden="true" focusable="false">
    <path d="M861.568 136.448c-27.136 4.864-64.192 17.088-118.208 35.136L328.832 309.76c-52.352 17.408-90.432 30.08-118.144 40.96-28.736 11.2-41.344 18.56-46.656 23.68a96 96 0 0 0 0 138.688c5.312 5.12 17.92 12.48 46.72 23.68 27.648 10.816 65.728 23.488 118.08 40.96l2.432 0.832c18.56 6.208 31.424 10.496 43.072 16.64a160 160 0 0 1 66.816 66.816c6.144 11.648 10.432 24.448 16.64 43.072l0.832 2.432c17.472 52.352 30.144 90.432 40.96 118.144 11.2 28.736 18.56 41.344 23.68 46.656a96 96 0 0 0 138.688 0c5.12-5.312 12.48-17.92 23.68-46.72 10.816-27.648 23.552-65.728 40.96-118.08l138.24-414.528c17.92-54.016 30.208-91.072 35.072-118.208 4.864-27.328 0-33.536-2.368-35.968-2.432-2.432-8.64-7.232-35.968-2.368z m-11.2-62.976c32.64-5.824 66.88-5.44 92.416 20.096 25.6 25.6 25.92 59.776 20.096 92.416-5.76 32.32-19.584 73.856-36.48 124.608l-0.896 2.624-138.24 414.592-0.256 0.896c-17.088 51.2-30.272 90.88-41.728 120.192-11.072 28.416-22.272 52.224-37.056 67.648a160 160 0 0 1-231.232 0c-14.784-15.424-25.984-39.232-37.12-67.648-11.392-29.376-24.576-68.992-41.6-120.192l-0.384-0.896c-7.296-22.016-9.92-29.504-13.312-35.968a96 96 0 0 0-40.064-40.064c-6.4-3.392-13.952-6.016-35.968-13.312l-0.896-0.32c-51.2-17.088-90.88-30.272-120.192-41.728-28.416-11.072-52.224-22.272-67.648-37.12a160 160 0 0 1 0-231.168c15.424-14.784 39.232-25.984 67.648-37.12 29.376-11.392 68.992-24.576 120.192-41.664l0.896-0.32 414.592-138.24 2.56-0.832c50.816-16.896 92.352-30.72 124.672-36.48zM745.408 177.6c54.208-18.048 90.752-30.08 117.248-34.816l-2.24-12.608c-27.648 4.928-65.28 17.408-119.04 35.328l4.032 12.16z m-414.592 138.24l414.592-138.24-4.096-12.16-414.528 138.24 4.032 12.16z m-117.76 40.832c27.52-10.752 65.344-23.36 117.76-40.832l-4.032-12.16c-52.288 17.408-90.56 30.208-118.4 41.024l4.672 11.968z m-44.608 22.336c4.288-4.096 15.808-11.136 44.608-22.4l-4.672-11.904c-28.736 11.2-42.432 19.008-48.768 25.024l8.832 9.28z m0 129.472a89.6 89.6 0 0 1 0-129.472l-8.832-9.28a102.4 102.4 0 0 0 0 148.032l8.832-9.28z m44.608 22.4c-28.8-11.264-40.32-18.304-44.608-22.4l-8.832 9.28c6.336 6.016 20.032 13.824 48.768 24.96l4.672-11.904z m117.76 40.768a2839.296 2839.296 0 0 1-117.76-40.832l-4.672 11.968c27.84 10.88 66.112 23.616 118.4 41.024l4.032-12.16z m2.496 0.832l-2.496-0.832-4.032 12.16 2.496 0.832 4.032-12.16z m44.032 17.024c-12.16-6.4-25.6-10.88-44.032-17.024l-4.032 12.16c18.688 6.208 30.976 10.368 42.112 16.192l5.952-11.328z m69.504 69.504a166.4 166.4 0 0 0-69.504-69.504l-5.952 11.328a153.6 153.6 0 0 1 64.128 64.128l11.328-5.952z m17.024 44.032c-6.144-18.432-10.56-31.808-17.024-44.032l-11.328 5.952c5.824 11.136 9.984 23.424 16.192 42.176l12.16-4.096z m0.832 2.496a1578.88 1578.88 0 0 0-0.832-2.496l-12.16 4.096 0.832 2.432 12.16-4.032z m40.832 117.76a2839.424 2839.424 0 0 1-40.832-117.76l-12.16 4.032c17.408 52.288 30.208 90.56 41.024 118.4l11.968-4.672z m22.336 44.608c-4.096-4.288-11.136-15.808-22.4-44.608l-11.904 4.672c11.2 28.736 19.008 42.432 25.024 48.768l9.28-8.832z m129.472 0a89.6 89.6 0 0 1-129.472 0l-9.28 8.832a102.4 102.4 0 0 0 148.032 0l-9.28-8.832z m22.4-44.608c-11.264 28.8-18.304 40.32-22.4 44.608l9.28 8.832c6.016-6.336 13.824-20.032 24.96-48.768l-11.904-4.672z m40.768-117.76c-17.472 52.416-30.08 90.24-40.832 117.76l11.968 4.672c10.88-27.84 23.616-66.112 41.024-118.4l-12.16-4.032z m138.24-414.592l-138.24 414.592 12.16 4.032 138.24-414.528-12.16-4.096z m34.816-117.248c-4.672 26.496-16.768 63.04-34.816 117.248l12.16 4.096c17.92-53.824 30.336-91.456 35.264-119.104l-12.608-2.24z m-0.576-30.336c0.384 0.32 1.472 1.28 2.112 5.12 0.768 4.288 0.832 11.84-1.536 25.216l12.608 2.24a89.6 89.6 0 0 0 1.6-29.568 20.736 20.736 0 0 0-5.76-12.096l-8.96 9.088z m-30.336-0.64c13.376-2.304 20.928-2.24 25.152-1.472 3.84 0.64 4.864 1.728 5.184 2.112l9.088-9.088a20.8 20.8 0 0 0-12.16-5.696 89.536 89.536 0 0 0-29.44 1.6l2.176 12.608z m84.672-53.696c-27.904-27.84-64.96-27.776-98.112-21.888l2.24 12.608c32.128-5.76 63.552-4.864 86.784 18.368l9.088-9.088z m21.888 98.112c5.888-33.152 5.952-70.208-21.888-98.112l-9.088 9.088c23.232 23.232 24.064 54.656 18.368 86.784l12.608 2.24z m-36.736 125.44c16.832-50.56 30.848-92.608 36.736-125.44l-12.608-2.24c-5.632 31.744-19.328 72.768-36.288 123.712l12.16 4.032z m-0.896 2.688l0.896-2.624-12.16-4.032-0.896 2.56 12.16 4.096z m-138.24 414.528l138.24-414.528-12.16-4.032-138.176 414.528 12.16 4.032z m-0.256 0.96l0.32-0.96-12.16-4.032-0.32 0.96 12.16 4.032z m-41.856 120.448c11.52-29.504 24.832-69.312 41.856-120.448l-12.16-4.032c-17.088 51.2-30.208 90.688-41.6 119.872l11.904 4.608z m-38.4 69.76c15.808-16.448 27.328-41.344 38.4-69.76l-11.904-4.608c-11.072 28.416-21.888 51.072-35.712 65.536l9.216 8.832z m-240.448 0a166.4 166.4 0 0 0 240.448 0l-9.216-8.832a153.6 153.6 0 0 1-222.016 0l-9.216 8.832z m-38.4-69.76c11.072 28.416 22.656 53.312 38.4 69.76l9.216-8.832c-13.824-14.464-24.64-37.12-35.712-65.536l-11.904 4.608z m-41.856-120.448c17.088 51.136 30.336 90.88 41.856 120.448l11.904-4.608c-11.392-29.184-24.512-68.608-41.6-119.872l-12.16 4.032z m-0.32-0.96l0.32 0.96 12.16-4.032-0.32-0.96-12.16 4.032z m-12.864-34.944c3.072 5.888 5.504 12.8 12.864 34.944l12.16-4.032c-7.232-21.76-10.048-29.888-13.76-36.864l-11.264 5.952z m-37.44-37.44a89.6 89.6 0 0 1 37.44 37.44l11.264-5.952a102.4 102.4 0 0 0-42.752-42.752l-5.952 11.264z m-34.944-12.864c22.208 7.36 29.056 9.792 34.944 12.864l5.952-11.264c-7.04-3.712-15.104-6.528-36.864-13.76l-4.032 12.16z m-0.96-0.32l0.96 0.32 4.032-12.16-0.96-0.32-4.032 12.16z m-120.448-41.856c29.504 11.52 69.312 24.768 120.448 41.856l4.032-12.16a2854.784 2854.784 0 0 1-119.872-41.6l-4.608 11.904z m-69.76-38.4c16.448 15.744 41.344 27.328 69.76 38.4l4.608-11.904c-28.416-11.072-51.072-21.888-65.536-35.712l-8.832 9.216z m0-240.448a166.4 166.4 0 0 0 0 240.448l8.832-9.216a153.6 153.6 0 0 1 0-222.016l-8.832-9.216z m69.76-38.4c-28.416 11.072-53.312 22.592-69.76 38.4l8.832 9.216c14.464-13.824 37.12-24.64 65.536-35.712l-4.608-11.904zM305.6 243.2c-51.2 17.024-90.88 30.336-120.448 41.856l4.608 11.904a2855.68 2855.68 0 0 1 119.872-41.6l-4.032-12.16z m0.96-0.32l-0.96 0.32 4.032 12.16 0.96-0.32-4.032-12.16z m414.528-138.176L306.56 243.008l4.032 12.096 414.528-138.24-4.032-12.096z m2.624-0.896l-2.56 0.896 3.968 12.16 2.624-0.896-4.032-12.16z m125.504-36.736c-32.832 5.888-74.88 19.904-125.504 36.736l4.032 12.16c50.944-16.96 91.968-30.656 123.712-36.288l-2.24-12.608zM690.496 412.032a44.8 44.8 0 0 0-63.36-63.36l63.36 63.36z m-256 256l192-192-63.36-63.36-192 192 63.36 63.36z m192-192l64-64-63.36-63.36-64 64 63.36 63.36z"></path>
</svg>
