<svg xmlns="http://www.w3.org/2000/svg" version="1.1" width="1024" height="1024" fill="currentColor" aria-hidden="true" focusable="false">
    <path d="M340.95999969 91.04c33.52000031-19.72000031 56.83999969-1.75999969 74.4 34.56l0.64000031 1.32 0.79999969 1.68 18.72 42.12c12.91999969 26.92000031 25.68 42.79999969 41.56000031 50.16 11.20000031 5.16 25.2 4.72000031 43.84000031-1.56 12.79999969-4.27999969 25.99999969-10.56 45.96-21.31999969l23.4-12.52000031 18.91999969-9.67999969 10.51999969-4.92c24.43999969-10.8 36-10.75999969 51.88000031-2.72000062l6.64000031 3.6a28.00000031 28.00000031 0 0 1 11.67999938 13.24000031l4.56 11.83999969 30.44000062 85.92 110.59999969 320.96000062 16.08 15.03999938 20.11999969 19.40000062 18.72 18.63999938 8.80000031 9.04000031 16.51999969 17.52 7.72000031 8.47999969 14.35999969 16.48000031c54.40000031 64.39999969 73.68 112.24000031 55.64000062 148.24000031l-2.4 4.32c-71.59999969 114.52000031-300.84 106.00000031-495.28000031-31.76000062l-50.44000031-35.79999938-162.39999938-115.72000031-210.40000031-150.79999969a71.83999969 71.83999969 0 0 1-16.39999969-100.24000031l33.03999938-42.40000031L146.40000031 311.6l33.99999938-42.52000031 30.80000062-37.87999969 34.03999969-40.92 23.76-27.67999969 20.68000031-23.24000062 13.51999969-14.52 11.88-12.07999969 7.00000031-6.72 6.27999938-5.59999969 5.60000062-4.56 4.8-3.48zM128.79999969 424.44000031l-26.83999969 34.32-1.99999969 3.24a15.84 15.84 0 0 0 5.23999969 19.32l62.4 44.79999938L371.43999969 672.00000031l156.76000031 111.48c133.44 94.51999969 280.00000031 119.88 362.23999969 88.56-106.32-9.52000031-209.11999969-52.75999969-307.03999969-128.48000062l-13.92-11.04L128.84 424.44000031z m233.36000062-279.76000031l-2.88 2.64-5.84000062 5.59999969-6.84 6.96-12.03999938 12.92000062-19.36000031 21.75999938-11.08000031 12.80000062-24.87999938 29.47999969-28.48000031 34.51999969-40.60000031 50.16-45.99999938 57.88000031-0.80000062 0.88000031 439.72000031 307.47999938c107.83999969 87.16000031 218.4 130.27999969 332.4 130.28000062a28.00000031 28.00000031 0 0 1 8.28 1.2c-2.71999969-10.8-11.76-26.92000031-27.28000031-47.68000031l-9.39999938-12.07999969a576 576 0 0 0-5.20000031-6.40000031l-11.44000031-13.56-12.79999969-14.4a974.47999969 974.47999969 0 0 0-6.96-7.60000031l-14.95999969-15.72a1252.15999969 1252.15999969 0 0 0-8.00000062-8.19999938l-17.04-17.04a1552.00000031 1552.00000031 0 0 0-9.03999938-8.80000031l-19.2-18.28000031-10.12000031-9.43999969a28.00000031 28.00000031 0 0 1-7.51999969-11.47999969l-19.88000062-57.76000031-71.23999969 23.47999969a28.00000031 28.00000031 0 0 1-21.36-51.6l3.84-1.59999938 70.51999969-23.24000062-7.83999938-22.83999938-81.04000031 26.52a28.00000031 28.00000031 0 0 1-21.24-51.64000031l3.84-1.60000031 80.23999969-26.23999969-9.51999938-27.76000031-89.48000062 28.00000031a28.00000031 28.00000031 0 0 1-20.55999938-51.91999969l3.84-1.56 87.79999969-27.44000062-48.72-139.56-2.80000031 1.2-9.19999969 4.24000031-13.32 6.67999969-43.03999969 22.68a273.28000031 273.28000031 0 0 1-36.92000062 15.84c-31.00000031 10.39999969-59.11999969 11.28-85.15999969-0.72-30.36-13.99999969-50.52-39.16000031-68.56000031-76.75999969L363.99999969 148.16l-1.83999938-3.48z"></path>
</svg>
