<svg xmlns="http://www.w3.org/2000/svg" version="1.1" width="1194" height="1024" fill="currentColor" aria-hidden="true" focusable="false">
    <path d="M513.92 788.053333a42.666667 42.666667 0 0 1 4.949333 85.077334l-4.949333 0.298666H256a42.666667 42.666667 0 0 1-4.992-85.077333L256 788.096h257.92z m257.877333-298.666666a42.666667 42.666667 0 0 1 4.992 85.077333l-4.992 0.298667H256a42.666667 42.666667 0 0 1-4.992-85.077334L256 489.429333h515.84z m221.056-341.333334a42.666667 42.666667 0 0 1 4.992 85.077334l-4.992 0.298666H256a42.666667 42.666667 0 0 1-4.992-85.077333L256 148.096h736.853333z"></path>
</svg>
