<svg xmlns="http://www.w3.org/2000/svg" version="1.1" width="1024" height="1024" fill="currentColor" aria-hidden="true" focusable="false">
    <path d="M113.777778 368.412444c0-14.506667 5.233778-26.851556 15.644444-36.920888a52.337778 52.337778 0 0 1 37.660445-15.075556h53.361777v235.690667h-53.361777a52.337778 52.337778 0 0 1-37.660445-15.075556A49.322667 49.322667 0 0 1 113.777778 500.053333V368.469333z m592.440889-216.405333c24.291556-22.926222 46.307556-35.498667 65.991111-37.717333 19.797333-2.275556 37.319111 2.958222 52.508444 15.530666 15.246222 12.515556 28.216889 31.004444 38.968889 55.352889 10.695111 24.291556 19.456 51.427556 26.168889 81.351111 6.826667 29.923556 11.946667 61.212444 15.303111 93.923556 3.413333 32.711111 5.063111 63.886222 5.063111 93.525333 0 29.582222-2.104889 59.278222-6.371555 88.917334a525.084444 525.084444 0 0 1-18.602667 83.456 359.992889 359.992889 0 0 1-28.785778 68.323555c-10.979556 19.569778-23.267556 34.133333-36.807111 43.633778a55.978667 55.978667 0 0 1-43.576889 10.069333c-15.530667-2.844444-31.744-13.653333-48.696889-32.711111-16.327111-19.000889-38.513778-34.816-66.446222-47.388444a582.542222 582.542222 0 0 0-91.363555-31.857778 1012.963556 1012.963556 0 0 0-100.295112-20.992c-33.848889-5.290667-64.910222-10.069333-93.127111-14.222222-28.216889-4.209778-51.768889-8.305778-70.656-12.174222-18.887111-3.982222-29.468444-8.704-31.744-14.279112V312.206222c2.275556-7.793778 11.150222-14.222222 26.680889-19.285333 15.473778-5.006222 35.271111-9.784889 59.221334-14.222222 24.007111-4.494222 51.086222-9.386667 81.237333-14.677334 30.151111-5.347556 60.928-12.629333 92.273778-21.845333a620.657778 620.657778 0 0 0 91.818666-35.214222 326.542222 326.542222 0 0 0 81.237334-54.954667zM401.521778 666.168889c2.844444 6.712889 6.257778 13.994667 10.183111 21.788444 3.413333 7.281778 7.907556 15.701333 13.539555 25.201778 5.688889 9.500444 12.401778 19.854222 20.309334 31.004445 9.614222 13.425778 19.342222 27.534222 29.184 42.382222 9.898667 14.791111 17.351111 28.216889 22.471111 40.220444 5.063111 12.060444 6.599111 21.959111 4.608 29.809778-1.934222 7.793778-10.012444 11.719111-24.120889 11.719111H429.511111a77.368889 77.368889 0 0 1-31.288889-6.257778 91.306667 91.306667 0 0 1-27.534222-19.342222 236.657778 236.657778 0 0 1-27.079111-33.109333c-9.272889-13.425778-19.342222-29.354667-30.037333-47.786667a266.012444 266.012444 0 0 1-27.079112-55.751111 283.249778 283.249778 0 0 1-10.126222-39.879111 75.377778 75.377778 0 0 1 0-31.857778c4.494222 0.568889 9.841778 1.706667 16.042667 3.356445l18.659555 4.152888c7.281778 1.706667 15.758222 3.413333 25.372445 5.063112 9.557333 2.275556 18.204444 4.323556 25.827555 6.257777 7.623111 1.991111 14.506667 4.096 20.707556 6.314667 6.826667 2.275556 12.970667 4.494222 18.602667 6.712889z" fill="#FF8C1A"></path>
</svg>
