<svg xmlns="http://www.w3.org/2000/svg" version="1.1" width="1024" height="1024" fill="currentColor" aria-hidden="true" focusable="false">
    <path d="M648.96 361.258667l18.048 0.170666c35.712 0.853333 50.517333 4.821333 66.346667 19.754667 14.336 13.568 19.370667 24.661333 21.034666 51.541333l0.554667 13.568 0.256 16.213334-0.042667 140.501333h179.712a29.866667 29.866667 0 0 1 4.053334 59.477333l-4.053334 0.256h-27.989333v33.706667l-0.426667 30.336-0.469333 17.066667-0.810667 14.848a337.792 337.792 0 0 1-1.109333 12.928l-1.493333 11.349333a116.906667 116.906667 0 0 1-12.714667 39.04l-4.48 7.765333c-13.994667 22.912-34.005333 41.813333-58.026667 54.912l-7.381333 3.84-3.712 1.706667-7.424 3.029333-3.84 1.365334-8.106667 2.346666a175.061333 175.061333 0 0 1-23.722666 4.266667l-11.605334 1.109333-13.098666 0.853334-23.125334 0.853333-27.989333 0.384-33.621333 0.085333a29.866667 29.866667 0 0 1-4.053334-59.477333l4.053334-0.256 41.216-0.213333 25.216-0.469334 13.866666-0.554666 11.776-0.768 9.984-1.024 4.437334-0.597334 7.850666-1.408c3.626667-0.768 6.826667-1.664 9.813334-2.688l5.632-2.218666a94.805333 94.805333 0 0 0 40.917333-36.224l1.28-2.218667 2.346667-4.650667 2.005333-5.12c0.64-1.792 1.194667-3.712 1.706667-5.76l1.450666-6.698666 1.152-7.808 0.896-9.130667 1.024-16.682667 0.554667-20.949333 0.341333-35.84-0.042666-21.034667h-665.6l0.085333 30.890667 0.256 25.984 0.384 14.464 0.512 12.501333 0.725333 10.666667 0.896 9.130667a162.133333 162.133333 0 0 0 0.554667 4.053333l1.28 7.253333c0.725333 3.328 1.536 6.272 2.432 8.96l2.048 5.12 2.346667 4.693334 1.28 2.176a94.805333 94.805333 0 0 0 40.917333 36.224l5.632 2.218666c2.986667 1.024 6.186667 1.92 9.813333 2.688l7.850667 1.408 4.437333 0.597334 9.984 1.024 11.776 0.768 13.824 0.554666 25.216 0.469334 20.181334 0.170666 21.077333 0.042667a29.866667 29.866667 0 0 1 0 59.733333l-43.52-0.213333-18.090667-0.298667-15.914666-0.469333-13.994667-0.725333a425.258667 425.258667 0 0 1-6.357333-0.426667l-11.562667-1.152-10.24-1.450667a145.365333 145.365333 0 0 1-17.621333-3.925333l-7.808-2.56-7.466667-3.114667-7.338667-3.541333a154.538667 154.538667 0 0 1-61.738666-56.874667l-4.309334-7.424a127.274667 127.274667 0 0 1-1.92-3.712l-3.413333-7.509333a127.786667 127.786667 0 0 1-7.978667-30.848l-1.322666-11.221333-1.024-12.714667-0.981334-22.528-0.469333-27.434667-0.128-33.194666-0.042667-10.453334h-40.277333a29.866667 29.866667 0 0 1-4.053333-59.434666l4.053333-0.298667h187.221333l0.042667-131.285333 0.256-25.429334 0.554667-13.568c1.706667-26.88 6.698667-37.973333 21.034666-51.541333 14.976-14.122667 26.794667-18.346667 59.562667-19.498667l15.36-0.341333 283.434667-0.085333z m6.997333 59.733333l-292.693333 0.128-10.24 0.256-7.765333 0.384-5.674667 0.512a51.498667 51.498667 0 0 0-2.176 0.298667l-3.157333 0.725333a6.442667 6.442667 0 0 0-2.56 1.322667l-0.768 1.152a8.106667 8.106667 0 0 0-0.341334 0.896l-0.64 2.730666-0.469333 4.181334-0.554667 9.770666-0.341333 14.933334-0.085333 144.725333h366.933333V457.813333l-0.384-15.786666-0.64-9.813334a54.826667 54.826667 0 0 0-0.256-2.261333l-0.64-3.114667-0.768-1.706666-0.426667-0.512a6.954667 6.954667 0 0 0-2.858666-1.365334l-3.669334-0.768-5.546666-0.64-7.722667-0.426666-16.554667-0.426667zM365.056 119.466667a29.866667 29.866667 0 0 1 4.053333 59.477333l-4.053333 0.256L298.666667 179.285333l-18.517334 0.298667-12.586666 0.64a118.912 118.912 0 0 0-3.242667 0.341333l-5.546667 0.768-4.864 1.066667c-33.962667 8.618667-60.202667 33.365333-69.12 64.682667l-0.938666 3.968-0.768 4.522666-0.597334 5.504-0.426666 6.997334-0.426667 20.138666-0.042667 22.314667a29.866667 29.866667 0 0 1-59.733333 0l0.170667-31.274667 0.469333-16.469333 0.597333-8.661333 0.810667-7.296a113.066667 113.066667 0 0 1 0.512-3.370667l1.28-6.357333 1.664-6.314667C142.08 178.645333 184.917333 138.24 239.274667 124.501333l9.728-2.133333 6.784-1.024 7.594666-0.768 9.002667-0.512 17.237333-0.426667 32.768-0.170666h42.666667z m298.666667 0l68.394666 0.085333 19.072 0.341333 9.898667 0.426667 8.234667 0.597333 3.669333 0.426667 6.784 1.024 9.728 2.133333c54.357333 13.738667 97.109333 54.186667 111.914667 106.282667l1.877333 7.381333c0.554667 2.432 1.024 4.906667 1.408 7.509334l0.981333 8.448 0.64 10.24 0.426667 12.8 0.128 16.213333v17.152a29.866667 29.866667 0 0 1-59.434667 4.053333l-0.256-4.053333-0.170666-29.184-0.426667-14.890667-0.469333-7.125333a97.749333 97.749333 0 0 0-0.298667-2.944l-0.853333-4.992-1.024-4.266667c-8.874667-31.317333-35.114667-56.106667-69.12-64.725333l-4.821334-1.066667-5.546666-0.768-6.912-0.597333-8.96-0.426667-26.368-0.298666-58.496-0.042667a29.866667 29.866667 0 1 1 0-59.733333z"></path>
</svg>
