<svg xmlns="http://www.w3.org/2000/svg" version="1.1" width="1024" height="1024" fill="currentColor" aria-hidden="true" focusable="false">
    <path d="M645.376 229.888l15.658667 0.170667 12.330666 0.426666a90.026667 90.026667 0 0 1 45.141334 13.226667l5.418666 3.541333 2.645334 1.877334 5.418666 4.309333 6.186667 5.461333 11.989333 11.392 35.157334 34.730667 16.256 16.341333 8.021333 8.533334c10.581333 11.562667 15.061333 18.730667 19.498667 29.269333l1.365333 3.456 2.261333 6.698667c1.962667 6.741333 2.986667 13.866667 3.541334 24.32l0.384 11.605333 0.128 14.464v254.208l-0.170667 21.162667-0.384 18.474666-0.298667 8.362667-0.853333 14.976c-2.901333 37.205333-10.154667 53.12-27.904 70.656-15.872 15.744-30.378667 23.125333-60.330667 26.496l-12.842666 1.152-14.762667 0.810667-16.853333 0.469333-29.781334 0.298667H351.402667l-29.781334-0.298667-16.853333-0.469333-14.762667-0.810667-12.8-1.152c-29.994667-3.413333-44.501333-10.752-60.373333-26.453333-18.048-17.877333-25.386667-37.162667-28.16-74.794667l-0.896-17.28a723.370667 723.370667 0 0 1-0.298667-9.557333l-0.256-21.205334V419.712l0.298667-20.608 0.554667-10.453333a84.906667 84.906667 0 0 1 6.826666-29.44l1.493334-3.413334c3.498667-7.722667 7.466667-13.866667 14.677333-22.186666l7.082667-7.765334 9.045333-9.386666 36.010667-35.712 15.061333-14.762667L289.024 256l5.76-4.821333 5.290667-3.925334 5.418666-3.541333c3.968-2.432 8.021333-4.522667 12.288-6.272 11.136-4.565333 20.949333-6.442667 37.973334-7.168l14.293333-0.341333 275.328-0.042667z m139.093333 237.098667h-148.053333v124.8c-0.128 16.085333-0.554667 25.941333-2.688 32.213333l-0.981333 2.474667a37.461333 37.461333 0 0 1-45.994667 18.901333c-8.021333-2.816-18.133333-12.8-38.314667-32.810667-9.344-9.258667-14.037333-13.866667-18.986666-16.469333a37.632 37.632 0 0 0-34.901334 0c-4.992 2.56-9.642667 7.253333-18.986666 16.469333-20.224 20.010667-30.293333 29.994667-38.357334 32.810667a37.461333 37.461333 0 0 1-45.952-18.901333c-3.712-7.594667-3.712-21.717333-3.712-50.005334v-109.482666h-148.053333l0.085333 227.328 0.341334 17.066666 0.682666 14.336c1.706667 26.026667 5.546667 37.333333 13.013334 44.714667l3.242666 2.858667 3.754667 2.432a39.253333 39.253333 0 0 0 7.04 2.986666l5.973333 1.621334 3.413334 0.64 7.936 1.152 4.522666 0.469333 10.368 0.768 12.288 0.554667 31.189334 0.554666h337.749333l25.173333-0.384 13.696-0.512 11.52-0.682666 9.6-1.024a116.053333 116.053333 0 0 0 7.893334-1.28l6.485333-1.578667a33.877333 33.877333 0 0 0 14.933333-8.533333 32.682667 32.682667 0 0 0 8.32-13.866667l1.578667-5.845333 0.682667-3.413334 1.152-7.808 0.469333-4.48 0.768-10.24 0.554667-12.16 0.554666-30.805333v-214.869333z m-133.674666-184.789334h-279.466667c-2.218667 0-4.266667 0-6.229333 0.085334l-10.069334 0.341333a51.925333 51.925333 0 0 0-17.408 3.2 32.64 32.64 0 0 0-6.4 3.413333l-3.370666 2.474667-3.925334 3.242667-7.808 7.168-40.661333 40.064-13.866667 13.909333-9.045333 9.6-3.968 4.693333-2.773333 3.84-1.92 3.413334-1.408 3.413333-1.109334 3.754667-0.768 4.650666-0.554666 6.101334-0.341334 8.106666-0.170666 10.666667-0.042667 0.384h544.938667l-0.128-11.050667-0.341334-8.106666-0.554666-6.101334-0.768-4.693333-1.109334-3.712-1.408-3.413333-1.92-3.413334-2.773333-3.84-3.968-4.693333a188.288 188.288 0 0 0-2.56-2.816l-10.538667-10.88-34.346666-34.133333-12.8-12.586667-8.874667-8.32-4.352-3.754667-3.584-2.773333-3.242667-2.176a32.682667 32.682667 0 0 0-6.528-3.114667l-3.84-1.109333-4.693333-0.768-6.229333-0.554667-8.234667-0.341333-10.837333-0.170667z"></path>
</svg>
