<svg xmlns="http://www.w3.org/2000/svg" version="1.1" width="18" height="18" fill="currentColor" aria-hidden="true" focusable="false">
    <defs><filter id="filter-1"><feColorMatrix in="SourceGraphic" type="matrix" values="0 0 0 0 0.627451 0 0 0 0 0.450980 0 0 0 0 1.000000 0 0 0 1.000000 0"></feColorMatrix></filter></defs><g id="数据面板/数据类型ic/字典" stroke="none" stroke-width="1" fill="none" fill-rule="evenodd"><rect id="矩形" x="0" y="0" width="18" height="18"></rect><g filter="url(#filter-1)" id="ic_block_dictionary"><g transform="translate(2.899665, 3.791227)"><path d="M3.04613079,0 L3.45823856,0.00284245402 L3.83251313,0.00995379814 L4.1717599,0.0222526827 L4.47878428,0.0406577579 L4.75639166,0.0660876742 C5.5478937,0.153833335 5.98013924,0.348816129 6.3939846,0.762652071 L6.3939846,0.762652071 L6.499,0.874 L6.60532299,0.762652071 C7.0297792,0.338205527 7.47359553,0.14397851 8.30501251,0.05954734 L8.52115487,0.0406572714 L8.82838691,0.022251921 C8.88220285,0.019718727 8.9373631,0.0174399561 8.99392618,0.0153964699 L8.99392618,0.0153964699 L9.35060691,0.00580586042 L9.74376482,0.000943433988 L11.3113416,0.000384854752 C11.9872692,0.00620791605 12.3032115,0.0682585485 12.6173047,0.382341032 C12.906184,0.671220384 12.9788063,0.883178233 12.9954415,1.49911289 L12.9954415,1.49911289 L12.9996103,1.7892202 L13,7.79846044 L12.9982076,8.11645334 L12.9909615,8.38077411 C12.9673287,8.90139968 12.8855514,9.10331879 12.6173126,9.37155761 C12.2840236,9.70484657 11.9919164,9.75254629 11.180141,9.75415845 L11.180141,9.75415845 L8.44732307,9.75424501 C7.7346633,9.75424501 7.15699218,10.3319161 7.15699218,11.0445759 L7.15699218,11.0445759 L5.84231542,11.0445759 C5.84231542,10.3319161 5.2646443,9.75424501 4.55196371,9.75424501 L4.55196371,9.75424501 L1.66252655,9.7531495 C0.968253782,9.74491705 0.69305795,9.68262706 0.381980568,9.37154967 C0.0678980852,9.05745647 0.00584745273,8.74151421 0,8.05992389 L0,8.05992389 L0,1.68832396 C0.00584743493,1.01239235 0.0678977809,0.696450412 0.381996438,0.382341032 C0.696089949,0.0682582442 1.01203189,0.00620789826 1.6879635,0.000384854318 L1.6879635,0.000384854318 L3.04613079,0 Z M3.23564756,1.31551746 L1.69928881,1.31501283 L1.32340621,1.32246428 L1.31465237,1.69398662 L1.31465237,8.05426118 L1.32211056,8.3802923 L1.32128812,8.4325891 L1.63186051,8.43800488 L4.55198453,8.43956825 C5.01609282,8.43956825 5.451849,8.56092849 5.82925045,8.77364636 L5.82925045,8.77364636 L5.84231542,8.78097844 L5.84231542,4.55234499 L5.84023719,3.97704786 L5.83325143,3.48919009 L5.82023151,3.08009884 L5.80764291,2.84684763 L5.79153793,2.64217942 L5.77158276,2.46352448 L5.7474436,2.30831308 C5.74305319,2.28425538 5.73847454,2.26106742 5.7337007,2.23869567 L5.7337007,2.23869567 L5.70265963,2.11383132 L5.66660004,2.00598618 L5.66660004,2.00598618 L5.64658398,1.95764277 L5.60237069,1.87050819 C5.59452333,1.85694004 5.58643208,1.84381335 5.57809001,1.83107458 L5.57809001,1.83107458 L5.52497195,1.75886865 L5.49605112,1.72545389 L5.42829125,1.65821255 C5.36635144,1.60309182 5.29493395,1.55618771 5.20647497,1.51643567 L5.20647497,1.51643567 L5.09166019,1.47209808 C5.07099971,1.46525794 5.04953655,1.45868685 5.02721021,1.45237628 L5.02721021,1.45237628 L4.88240974,1.41757118 C4.80434627,1.40166369 4.7174249,1.3879477 4.62001183,1.37619326 L4.62001183,1.37619326 L4.41071269,1.35523166 L4.1705312,1.33909208 L3.74600094,1.32302974 L3.23564756,1.31551746 Z M9.95626771,1.31467314 L9.58474542,1.31715535 L9.10363083,1.32736493 L8.82942369,1.33909165 L8.58905063,1.35523154 L8.37960196,1.3761934 C8.28212378,1.38794795 8.19515109,1.40166404 8.11704721,1.4175716 L8.11704721,1.4175716 L7.97217957,1.45237681 C7.94984416,1.45868738 7.92837293,1.46525849 7.90770527,1.47209863 L7.90770527,1.47209863 L7.79285714,1.51643622 C7.6866819,1.56413862 7.60507049,1.62213987 7.53492927,1.6922795 L7.53492927,1.6922795 L7.50086236,1.72836505 C7.44574167,1.79030255 7.39883749,1.86171896 7.3590853,1.95017954 L7.3590853,1.95017954 L7.3147475,2.06499761 C7.30790732,2.08565888 7.30133618,2.10712296 7.29502558,2.12945037 L7.29502558,2.12945037 L7.26022019,2.27425902 C7.24431255,2.35232751 7.2305964,2.43925539 7.21884181,2.53667676 L7.21884181,2.53667676 L7.1978799,2.74599497 L7.18174003,2.98620086 L7.16567734,3.41077889 L7.15816487,3.92119513 L7.1562618,8.78097844 L7.31844869,8.6961924 C7.62077735,8.55060073 7.95553651,8.46167176 8.30895228,8.44317905 L8.30895228,8.44317905 L8.44730225,8.43956825 L11.1788138,8.43948299 L11.6348442,8.4324121 L11.6802106,8.43331948 L11.6826452,8.16763062 L11.6853232,1.95545262 L11.6793544,1.33628502 L11.6802727,1.32178579 L11.6267341,1.32247506 L11.3055026,1.3150372 L9.95626771,1.31467314 Z" id="形状结合" fill="#12C2C3" fill-rule="nonzero"></path></g></g></g>
</svg>
