<svg xmlns="http://www.w3.org/2000/svg" version="1.1" width="1024" height="1024" fill="currentColor" aria-hidden="true" focusable="false">
    <path d="M249.078451 767.993967c0 26.617023 18.792788 41.972997 42.923605 41.972997h42.923605v148.441088c0 33.856268 30.346331 64.568217 65.957567 64.568216 34.587505 0 65.957567-29.688217 65.957567-64.495093v-147.490479h87.967797v148.441087c0 33.856268 30.346331 64.568217 65.957567 64.568217 34.587505 0 65.957567-29.688217 65.957567-64.495093v-148.514211h42.996728c27.202012 0 42.923605-18.427169 42.923605-41.972997v-427.04234h-523.565608v426.018608zM139.100424 341.975359c-34.514381 0-65.957567 29.688217-65.957567 64.495093v300.026493c0 33.856268 30.346331 64.568217 65.957567 64.568217 35.611236 0 65.957567-29.688217 65.957567-64.568217V406.470452c0-34.806876-30.346331-64.495093-65.957567-64.495093z m745.569126 0c-34.587505 0-65.957567 29.688217-65.957567 64.495093v300.026493c0 33.856268 30.346331 64.568217 65.957567 64.568217 34.514381 0 65.957567-29.688217 65.957567-64.568217V406.470452a67.785659 67.785659 0 0 0-65.957567-64.495093zM663.689764 92.038593l57.621466-56.30524c8.409224-8.189853 8.409224-22.522096 0-29.688218-8.409224-7.166121-23.033962-8.189853-30.34633 0L625.007333 70.467105C594.514755 50.065596 554.808592 41.948866 511.884987 41.948866S429.182095 50.065596 394.594591 68.492765L332.805074 3.997672c-8.3361-4.094927-27.202012-4.094927-34.514381 0-4.241174 8.189853-4.241174 26.617023 0 33.783144l57.548343 56.30524c-61.789517 46.067924-104.713122 120.873457-104.713122 204.819451H775.861502a255.201672 255.201672 0 0 0-112.098615-206.866914zM423.91719 212.912049H380.993585v-41.972997h42.923605v41.972997z m219.882931 0h-42.923605v-41.972997h42.923605v41.972997z"></path>
</svg>
