<svg xmlns="http://www.w3.org/2000/svg" version="1.1" width="1024" height="1024" fill="currentColor" aria-hidden="true" focusable="false">
    <path d="M488.084248 569.771498m30.157821-30.157821l0.036204-0.036204q30.157821-30.157821 60.315643 0l271.565207 271.565208q30.157821 30.157821 0 60.315642l-0.036204 0.036204q-30.157821 30.157821-60.315642 0l-271.565208-271.565208q-30.157821-30.157821 0-60.315642Z" fill="#FFB352"></path><path d="M520.8576 512l-36.1984 36.1984 211.1488 211.1488 36.1984-36.1984z" fill="#C16D00"></path><path d="M648.5504 645.7344a37.3248 37.3248 0 0 0-24.064 24.1152L571.5968 835.072a37.2736 37.2736 0 0 1-13.8752 18.9952 35.9936 35.9936 0 0 1-50.4832-8.192l-98.2016-139.776a35.4816 35.4816 0 0 0-29.952-15.0528l-172.544 3.8912a35.6864 35.6864 0 0 1-22.016-6.9632 36.0448 36.0448 0 0 1-6.912-50.688l104.5504-139.264a36.608 36.608 0 0 0 5.632-33.4336l-53.76-162.816a37.0176 37.0176 0 0 1 46.4896-46.4896l162.7648 53.76c11.264 3.7376 23.7568 1.6384 33.3824-5.632L615.936 198.9632A36.9152 36.9152 0 0 1 638.208 191.488c20.0192 0.0512 35.8912 16.384 35.4304 36.352l-3.8912 172.544a35.4816 35.4816 0 0 0 15.0016 29.952l139.8784 98.2016a35.328 35.328 0 0 1 13.4656 18.688 37.0176 37.0176 0 0 1-24.32 45.6704L648.5504 645.7344z" fill="#6E4FF4"></path><path d="M564.9408 341.8112a16.4864 16.4864 0 0 1 22.4256 23.8592l-2.4064 2.2528-72.9088 55.9104a82.3808 82.3808 0 0 1-78.7456 11.8784l-6.5024-2.7136-70.0928-33.0752a16.4864 16.4864 0 0 1 10.9056-30.8736l3.1744 1.0752 70.0416 33.0752c14.848 7.0144 32.1536 6.144 46.08-2.048l5.12-3.4304 72.8576-55.9104z" fill="#FFFFFF"></path>
</svg>
