<svg xmlns="http://www.w3.org/2000/svg" version="1.1" width="1024" height="1024" fill="currentColor" aria-hidden="true" focusable="false">
    <path d="M800.512 224.0512c22.1184 22.1184 24.576 56.7808 6.656 81.6128l-4.5056 5.5808-490.1376 541.696a76.8 76.8 0 0 1-102.7584 10.0864l-6.144-5.12-34.816-34.6624a76.8 76.8 0 0 1-5.2736-102.7584l5.2736-5.8368 544.512-492.8a63.2832 63.2832 0 0 1 87.1936 2.2016z m-389.2736 443.392l-54.2208-54.2208-152.064 137.6256a25.6 25.6 0 0 0-2.9184 32.6656l2.9696 3.5328 33.3824 33.3824a25.6 25.6 0 0 0 32.768 1.3312l3.4304-3.1232 136.704-151.1424z m353.0752-407.1936a12.0832 12.0832 0 0 0-14.08-2.2016l-2.56 1.792-352.6144 318.976 50.5856 50.688 319.0784-352.6144c3.584-3.9936 4.096-9.728 1.4848-14.1824l-1.8944-2.4576z m10.0352 348.3136a25.6 25.6 0 0 1 25.6 25.6v51.2h51.2a25.6 25.6 0 0 1 0 51.2h-51.2v51.2a25.6 25.6 0 0 1-51.2 0v-51.2h-51.2a25.6 25.6 0 0 1 0-51.2h51.2v-51.2a25.6 25.6 0 0 1 25.6-25.6z m-358.4-460.8a25.6 25.6 0 0 1 25.6 25.6v51.2h51.2a25.6 25.6 0 1 1 0 51.2h-51.2v51.2a25.6 25.6 0 1 1-51.2 0v-51.2h-51.2a25.6 25.6 0 0 1 0-51.2h51.2v-51.2a25.6 25.6 0 0 1 25.6-25.6z"></path>
</svg>
