<svg xmlns="http://www.w3.org/2000/svg" version="1.1" width="1024" height="1024" fill="currentColor" aria-hidden="true" focusable="false">
    <path d="M619.968 177.024a487.424 487.424 0 0 0-99.968-10.24C303.488 166.784 128 306.688 128 479.232c0 106.176 66.432 199.936 167.936 256.448l38.4-66.112C252.352 623.936 204.8 550.4 204.8 479.232c0-114.816 123.968-235.648 315.2-235.648 20.48 0 40.192 1.408 59.008 3.968l40.96-70.528zM536.896 320.192a123.392 123.392 0 0 0-16.896-1.152c-77.312 0-140.032 72.064-140.032 160.96 0 28.8 6.656 55.936 18.24 79.36l61.824-106.624c4.544-17.984 13.44-31.68 23.808-41.024l53.12-91.52z m-24.32 320.512l133.632-230.4c8.832 21.056 13.76 44.672 13.76 69.696 0 88.832-62.656 160.896-139.968 160.896-2.496 0-4.992-0.064-7.424-0.192z m-41.472 71.488c15.744 1.792 32.064 2.688 48.896 2.688 191.232 0 315.2-120.832 315.2-235.648 0-68.8-44.544-139.776-121.344-185.6l38.4-66.176c96.896 56.96 159.744 148.48 159.744 251.776 0 172.544-175.488 312.448-392 312.448-31.04 0-61.248-2.88-90.24-8.32l41.344-71.168z"></path><path d="M777.216 121.664a38.4 38.4 0 1 0-66.432-38.528l66.432 38.528zM262.784 855.552a38.4 38.4 0 0 0 66.432 38.528l-66.432-38.528z m448-772.416l-448 772.48 66.432 38.464 448-772.416-66.432-38.528z"></path>
</svg>
