<svg xmlns="http://www.w3.org/2000/svg" version="1.1" width="1024" height="1024" fill="currentColor" aria-hidden="true" focusable="false">
    <path d="M515.413333 128c123.008 0 246.058667 8.874667 369.066667 26.666667a170.666667 170.666667 0 0 1 146.346667 168.96v424.234666a170.666667 170.666667 0 0 1-157.226667 170.154667c-173.013333 13.781333-292.394667 20.650667-358.186667 20.650667-65.792 0-185.173333-6.869333-358.186666-20.650667A170.666667 170.666667 0 0 1 0 747.861333V323.669333a170.666667 170.666667 0 0 1 146.346667-168.96A2575.744 2575.744 0 0 1 515.413333 128zM408.021333 402.688a42.666667 42.666667 0 0 0-5.973333 21.76v231.808a42.666667 42.666667 0 0 0 65.450667 36.096l189.568-119.594667a42.666667 42.666667 0 0 0-1.024-72.789333l-189.568-112.213333a42.666667 42.666667 0 0 0-58.453334 14.933333z"></path>
</svg>
