<svg xmlns="http://www.w3.org/2000/svg" version="1.1" width="1024" height="1024" fill="currentColor" aria-hidden="true" focusable="false">
    <path d="M832.505946 517.4886l7.959215 4.09597 120.319125 67.95587a123.391103 123.391103 0 0 1 62.928996 98.25674l0.325816 8.843572v135.772103c0 41.238973-20.991847 79.592148-55.621413 102.399255l-7.633399 4.701057-120.319125 67.909324a129.069607 129.069607 0 0 1-118.550411 4.142516l-7.91267-4.142516-120.36567-67.909324a123.391103 123.391103 0 0 1-62.928997-98.303285l-0.325815-8.797027v-135.818648c0-41.238973 20.991847-79.545603 55.621413-102.399256l7.633399-4.654511 120.319125-67.95587a129.069607 129.069607 0 0 1 118.550411-4.09597z m44.12477-230.258689l-0.046545 181.619043-18.292231-10.333016a165.840248 165.840248 0 0 0-162.116639 0l-154.157424 86.713551a157.182857 157.182857 0 0 0-81.035047 136.703006v173.380557c0 52.13053 26.437626 100.677086 70.050399 129.953964a1046.79966 1046.79966 0 0 1-92.624781 4.049425c-224.114734 0-411.086465-68.700591-435.569196-170.68094H0.139636L0.046545 627.521254c81.640134 52.03744 219.739493 82.850307 383.01976 82.850307 19.176588 0 34.722657-13.870445 34.722657-30.952502 0-17.082058-15.546069-30.905957-34.722657-30.905957-175.381997 0-323.162741-41.657879-383.01976-93.555684V289.324441c90.530251 58.833027 256.603225 94.952037 438.315358 94.952037 182.456855 0 348.390194-37.236093 438.268813-97.046567z m-99.420368 380.133963c-54.923237 0-99.373823 43.473138-99.373823 97.139657s44.497131 97.186202 99.373823 97.186202c54.923237 0 99.420368-43.519683 99.420368-97.186202s-44.497131-97.139657-99.420368-97.139657z m0 61.811914c19.967855 0 36.165555 15.825339 36.165555 35.374288 0 19.455859-16.1977 35.281198-36.165555 35.281198a35.746649 35.746649 0 0 1-36.11901-35.327743c0-19.548949 16.151155-35.327743 36.11901-35.327743zM438.361903 0c232.260129 0 424.724184 73.820554 437.524091 182.037949h-0.744722l0.046545 1.582534c0 40.21498-78.661246 82.571036-184.877201 108.822481l-11.915549 2.839252-24.622367 5.306143-19.176588 3.630519-19.828219 3.304704-27.321983 3.909789-28.20634 3.258159-23.226013 2.141075a1198.722918 1198.722918 0 0 1-195.303307 0l-23.226013-2.141075-28.206341-3.258159-27.321983-3.909789-19.781674-3.304704-19.223133-3.630519-24.668911-5.306143-11.869005-2.792707C80.104145 266.284609 0.046545 225.650723 0.046545 185.435742l0.046546-1.117082 0.046545-0.744722h0.465451C11.82246 74.565276 204.984691 0 438.408448 0z"></path>
</svg>
