<svg xmlns="http://www.w3.org/2000/svg" version="1.1" width="1024" height="1024" fill="currentColor" aria-hidden="true" focusable="false">
    <path d="M673.408 98.133333a29.866667 29.866667 0 0 1 29.568 25.813334l0.298667 4.053333v20.650667l9.386666 0.554666c76.8 5.034667 114.688 17.621333 148.224 46.848l5.546667 5.034667 7.594667 7.381333a183.466667 183.466667 0 0 1 6.869333 7.509334l6.314667 7.68c9.941333 13.013333 17.365333 27.306667 22.912 45.354666l3.114666 11.264c2.432 9.813333 4.394667 20.608 5.973334 32.810667l1.749333 15.274667 1.450667 16.725333 1.109333 18.218667 0.853333 19.882666 0.896 33.109334 0.341334 24.490666 0.213333 26.538667 0.042667 108.672-0.256 55.210667-0.341334 24.490666-0.853333 33.109334-0.853333 19.882666-1.152 18.218667-1.450667 16.725333-1.706667 15.274667a302.506667 302.506667 0 0 1-5.973333 32.853333l-3.157333 11.221334a140.373333 140.373333 0 0 1-22.912 45.354666l-6.314667 7.68a183.466667 183.466667 0 0 1-6.869333 7.509334l-7.594667 7.381333a247.381333 247.381333 0 0 1-3.712 3.413333l-7.424 6.4a163.413333 163.413333 0 0 1-15.36 11.221334l-8.106667 4.821333a168.96 168.96 0 0 1-43.52 16.256l-11.861333 2.56-12.885333 2.133333a405.333333 405.333333 0 0 1-6.869334 0.981334l-14.634666 1.706666-15.914667 1.450667-17.322667 1.152-28.842666 1.28-32.597334 0.896-49.92 0.554667L469.333333 925.866667l-55.978666-0.213334-36.736-0.469333-22.186667-0.512-30.037333-1.152-18.048-1.066667-16.64-1.28-15.232-1.578666-14.037334-1.834667-12.885333-2.218667-11.861333-2.517333c-17.066667-4.053333-31.018667-9.386667-43.52-16.213333l-8.106667-4.864a163.413333 163.413333 0 0 1-15.36-11.221334l-7.424-6.4-3.712-3.413333c-33.493333-31.36-48.64-65.194667-55.04-133.504l-1.578667-19.498667-1.152-21.333333-0.853333-23.338667-0.469333-25.514666-0.298667-27.733334v-167.978666l0.298667-27.776 0.512-25.472 0.810666-23.338667 0.554667-10.922667 1.322667-20.394666c5.973333-74.709333 20.906667-110.208 55.893333-143.018667 32.085333-30.08 66.389333-44.117333 134.4-50.346667l19.370667-1.536 6.229333-0.384V128a29.866667 29.866667 0 0 1 59.477333-4.053333L377.344 128v18.730667l16.981333-0.298667 28.672-0.256h178.048l28.629334 0.256 13.824 0.213333V128a29.866667 29.866667 0 0 1 29.866666-29.866667z m191.36 292.736H158.976l-0.426667 13.909334-0.426666 23.125333-0.213334 25.344v151.893333l0.256 38.912 0.725334 33.877334 0.810666 20.010666 1.066667 18.090667 1.365333 16.298667c5.12 51.541333 15.701333 75.733333 36.266667 95.018666l2.773333 2.517334 5.632 4.693333 2.944 2.133333 6.144 4.096 6.613334 3.712c5.76 2.901333 12.117333 5.461333 19.370666 7.68l9.173334 2.474667 10.112 2.218667 11.264 1.877333 6.058666 0.853333 13.056 1.536 14.464 1.28 15.914667 1.024 26.922667 1.237334 30.890666 0.768 48 0.554666L554.666667 866.133333l54.4-0.213333 45.952-0.682667 29.525333-0.938666 17.493333-0.853334 15.957334-1.024 14.464-1.28 13.056-1.536 6.058666-0.853333 11.264-1.877333 10.112-2.218667 9.173334-2.474667c7.253333-2.218667 13.653333-4.778667 19.370666-7.68l6.613334-3.712 6.144-4.053333 2.944-2.218667 5.632-4.693333 5.546666-5.12 2.56-2.730667 4.949334-5.632 2.261333-2.986666 4.224-6.229334a106.666667 106.666667 0 0 0 11.52-27.178666l2.432-9.813334c1.877333-8.533333 3.413333-18.346667 4.693333-29.610666l1.365334-14.250667 1.152-15.786667 0.853333-17.493333 0.682667-19.328 0.682666-32.597333 0.256-24.32 0.128-120.746667-0.128-40.746667-0.256-24.32-0.981333-40.064zM533.333333 674.133333a29.866667 29.866667 0 0 1 4.053334 59.477334l-4.053334 0.256h-213.333333a29.866667 29.866667 0 0 1-4.053333-59.477334L320 674.133333h213.333333z m170.666667-170.666666a29.866667 29.866667 0 0 1 4.053333 59.477333l-4.053333 0.256h-384a29.866667 29.866667 0 0 1-4.053333-59.477333L320 503.466667h384z m-104.106667-297.557334H424.106667l-13.525334 0.085334-33.28 0.469333v12.202667a29.866667 29.866667 0 0 1-59.434666 4.053333l-0.256-4.053333v-9.941334l-4.693334 0.298667-16.469333 1.365333-14.933333 1.706667-13.397334 1.962667c-27.52 4.693333-45.610667 11.904-60.16 22.613333l-6.442666 5.205333-6.101334 5.717334c-17.493333 17.706667-27.221333 40.192-32.341333 83.498666l697.813333 0.042667-0.682666-6.229333a293.674667 293.674667 0 0 0-2.474667-15.957334l-1.408-7.125333-2.474667-9.813333a98.474667 98.474667 0 0 0-17.962666-36.352l-4.906667-5.632a117.802667 117.802667 0 0 0-5.376-5.376l-3.114667-2.773334-6.485333-5.205333c-14.506667-10.709333-32.597333-17.92-60.16-22.613333l-13.397333-1.962667-14.848-1.706667a588.117333 588.117333 0 0 0-8.064-0.725333l-16.298667-1.152v10.154667a29.866667 29.866667 0 0 1-59.434667 4.053333l-0.256-4.053333v-12.288l-4.736-0.085334-38.869333-0.384z"></path>
</svg>
