<svg xmlns="http://www.w3.org/2000/svg" version="1.1" width="1194" height="1024" fill="currentColor" aria-hidden="true" focusable="false">
    <path d="M622.976 680.533333l3.413333 3.114667 158.805334 170.666667a29.866667 29.866667 0 0 1-40.106667 43.946666l-3.626667-3.242666-137.429333-147.669334-143.530667 148.096a29.866667 29.866667 0 0 1-38.442666 3.754667l-3.754667-3.072a29.866667 29.866667 0 0 1-3.754667-38.485333l3.072-3.754667 165.418667-170.666667a29.866667 29.866667 0 0 1 39.936-2.688z m339.157333-188.586666v85.333333H232.533333v-85.333333h729.6z m-217.045333-323.584a29.866667 29.866667 0 0 1 40.106667 43.946666l-158.848 170.666667-3.370667 3.157333a29.866667 29.866667 0 0 1-39.936-2.688l-165.418667-170.666666-3.072-3.754667a29.866667 29.866667 0 0 1 3.754667-38.485333l3.754667-3.072a29.866667 29.866667 0 0 1 38.442666 3.754666l143.530667 148.096 137.429333-147.626666z"></path>
</svg>
