<svg xmlns="http://www.w3.org/2000/svg" version="1.1" width="1024" height="1024" fill="currentColor" aria-hidden="true" focusable="false">
    <path d="M780.1856 246.613333a30.72 30.72 0 0 1 30.481067 26.862934l0.238933 3.857066-0.034133 353.3824-0.2048 16.213334-0.341334 14.4384-0.6144 12.834133-0.853333 11.3664c-3.072 32.1536-10.3424 46.865067-27.409067 63.488-15.906133 15.496533-30.037333 22.6304-59.153066 25.838933l-10.922667 0.955734-12.288 0.682666-21.504 0.6144-25.565867 0.238934h-43.9296a30.72 30.72 0 0 1-3.857066-61.201067l3.857066-0.238933 50.756267-0.034134 14.5408-0.170666 18.2272-0.443734 9.966933-0.477866 8.430934-0.648534 3.6864-0.341333 6.417066-0.955733 2.7648-0.512 4.778667-1.2288a32.1536 32.1536 0 0 0 5.597867-2.218667l2.901333-1.809067 1.262933-1.024 2.2528-2.1504 1.911467-2.525866a23.552 23.552 0 0 0 1.672533-3.003734l1.4336-3.754666a49.834667 49.834667 0 0 0 1.194667-4.539734l1.2288-7.133866 0.9216-9.0112 0.785067-13.789867 0.341333-11.229867 0.2048-13.038933 0.1024-23.3472V308.053333h-141.380267a30.72 30.72 0 0 1-30.481066-26.862933l-0.238934-3.857067a30.72 30.72 0 0 1 26.862934-30.481066l3.857066-0.238934h172.100267z m-365.704533 0a30.72 30.72 0 0 1 3.857066 61.201067l-3.857066 0.238933-50.756267 0.034134-14.5408 0.170666-18.2272 0.443734-9.966933 0.477866-8.430934 0.648534-3.6864 0.341333-6.417066 0.955733-5.290667 1.092267a28.501333 28.501333 0 0 0-12.014933 5.700267l-1.160534 1.058133a22.493867 22.493867 0 0 0-5.4272 8.3968l-1.297066 4.096-0.580267 2.389333-1.024 5.597867-0.4096 3.208533-0.7168 7.3728-0.580267 8.8064-0.4096 10.376534-0.238933 12.117333-0.2048 30.1056v304.503467h141.380267a30.72 30.72 0 0 1 30.481066 26.862933l0.238934 3.857067a30.72 30.72 0 0 1-26.862934 30.481066l-3.857066 0.238934H242.346667a30.72 30.72 0 0 1-30.481067-26.862934l-0.238933-3.857066 0.034133-353.3824 0.341333-23.620267 0.477867-13.653333 0.750933-12.0832c2.423467-32.221867 8.3968-47.957333 22.528-63.488l5.3248-5.461334 2.798934-2.6624 5.5296-4.778666c13.038933-10.478933 26.862933-15.7696 50.824533-18.432l10.922667-0.955734 12.288-0.682666 21.504-0.6144 25.565866-0.238934h43.9296z m41.847466 136.4992l2.730667 3.140267 56.593067 75.127467 57.924266-74.103467a30.72 30.72 0 0 1 50.5856 34.6112l-2.184533 3.208533-68.061867 87.074134 66.56 88.2688a30.72 30.72 0 0 1-46.353066 40.1408l-2.730667-3.140267-56.661333-75.1616-57.856 74.1376a30.72 30.72 0 0 1-50.5856-34.645333l2.184533-3.1744 68.027733-87.108267L409.941333 423.253333a30.72 30.72 0 0 1 46.353067-40.1408z"></path>
</svg>
