<svg xmlns="http://www.w3.org/2000/svg" version="1.1" width="1024" height="1024" fill="currentColor" aria-hidden="true" focusable="false">
    <path d="M746.225361 62.012124l5.247672 3.647772 4.607712 4.671708a36.541716 36.541716 0 0 1 3.647772 41.533404l-3.711768 5.43966-4.287732 4.287732-51.644772 43.709269 5.887632 4.031748a338.346853 338.346853 0 0 1 139.51128 243.568777l1.087932 16.31898 0.31998 15.615024v331.499281a126.584088 126.584088 0 0 1-106.425348 125.432161l-9.727392 1.215924-9.5994 0.383976-53.43666-0.063996v84.218736a36.47772 36.47772 0 0 1-24.766452 34.55784l-5.567653 1.407912-5.887632 0.447972a36.349728 36.349728 0 0 1-35.83776-30.526092l-0.447972-5.887632v-84.218736H428.8052v84.218736a36.47772 36.47772 0 0 1-24.766452 34.55784l-5.631648 1.407912-5.887632 0.447972a36.349728 36.349728 0 0 1-35.773765-30.526092l-0.447972-5.887632-0.063996-84.218736h-53.308668c-63.03606 0-115.1928-46.71708-124.408224-107.705269l-1.087932-9.727392-0.31998-9.471408V444.836198a338.538841 338.538841 0 0 1 130.487844-267.759265l5.951628-4.47972-57.404412-48.636961a36.029748 36.029748 0 0 1-11.455284-38.141616l2.367852-4.863696 3.263796-4.15974 1.471908-4.095744a36.15774 36.15774 0 0 1 45.75714-8.31948l5.43966 3.83976 75.259296 63.804013 2.111868 2.111868 11.775265-4.927692a330.731329 330.731329 0 0 1 84.858696-20.542717l17.470908-1.343916L512 106.87332c36.47772 0 72.059496 5.823636 105.849384 17.214924l12.7992 4.671709 74.811325-63.356041 4.927692-3.455784a36.093744 36.093744 0 0 1 35.83776 0z m26.942316 358.953566H250.768327l-0.767952 9.087432-0.383976 14.783076v331.563277c0 27.51828 20.350728 50.23686 46.653084 53.564652l6.655584 0.383976h418.149866a53.628648 53.628648 0 0 0 52.860696-47.165052l0.447972-6.783576V444.836198l-0.383976-14.655084-0.831948-9.215424z m156.918193-72.955441c18.046872 0 33.021936 13.247172 35.83776 30.526092l0.447972 5.887633v333.035185a36.349728 36.349728 0 1 1-72.059497 5.887632l-0.447972-5.887632V384.423974c0-15.67902 9.91938-29.310168 24.574465-34.429849l5.75964-1.471908 5.887632-0.511968z m-836.17174 0c18.046872 0 32.95794 13.247172 35.773765 30.526092l0.447972 5.887633v333.035185c0 20.094744-16.190988 36.47772-36.221737 36.47772a36.349728 36.349728 0 0 1-35.83776-30.590088L57.628398 717.459159V384.423974c0-15.67902 9.983376-29.310168 24.63846-34.429849l5.695644-1.471908 5.951628-0.511968zM511.872008 179.828761l-13.183176 0.383976a262.703581 262.703581 0 0 0-229.425661 163.765764l-1.535904 4.031748h488.48147l-1.471908-4.031748a262.767577 262.767577 0 0 0-216.114493-162.741828l-13.183176-1.023936-13.567152-0.383976zM392.519468 257.647897a36.349728 36.349728 0 0 1 11.583276 70.843572l-5.695644 1.471908-5.951628 0.511968a36.349728 36.349728 0 0 1-11.519281-70.843572l5.631649-1.471908 5.951628-0.511968z m238.961064 0a36.349728 36.349728 0 0 1 11.519281 70.843572l-5.631649 1.471908-5.951628 0.511968a36.349728 36.349728 0 0 1-11.583276-70.843572l5.695644-1.471908 5.951628-0.511968z"></path>
</svg>
